<svg width="270" height="93" viewBox="0 0 270 93" fill="none" xmlns="http://www.w3.org/2000/svg">
<path fill-rule="evenodd" clip-rule="evenodd" d="M210.145 68.04H198.085C197.919 68.04 197.785 67.9057 197.785 67.74V66.6C197.785 66.4936 197.841 66.3951 197.933 66.3413L200.545 64.8082V27.3024L197.467 25.7063C197.367 25.6547 197.305 25.552 197.305 25.44V24.3C197.305 24.1343 197.439 24 197.605 24H207.505C207.671 24 207.805 24.1343 207.805 24.3V52.3651L215.932 42.2642L213.234 40.6995C213.142 40.6458 213.085 40.547 213.085 40.44V39.3C213.085 39.1343 213.219 39 213.385 39H223.705C223.871 39 224.005 39.1343 224.005 39.3V40.44C224.005 40.5574 223.936 40.664 223.83 40.7128L219.691 42.6046L213.989 49.4126L222.782 64.8146L225.703 66.3338C225.803 66.3855 225.865 66.4881 225.865 66.6V67.74C225.865 67.9057 225.731 68.04 225.565 68.04H212.905C212.739 68.04 212.605 67.9057 212.605 67.74V66.6C212.605 66.5003 212.654 66.4072 212.737 66.3514L214.726 65.0073L207.805 52.9095V64.8121L210.302 66.3443C210.391 66.3989 210.445 66.4957 210.445 66.6V67.74C210.445 67.9057 210.311 68.04 210.145 68.04Z" fill="#111111"/>
<path fill-rule="evenodd" clip-rule="evenodd" d="M232.189 52.8073L246.822 53.1599C246.903 53.1619 246.981 53.1311 247.039 53.0747C247.097 53.0182 247.129 52.9408 247.129 52.86V51.24C247.129 47.207 246.174 43.9528 244.379 41.7005C242.576 39.4394 239.951 38.22 236.689 38.22C229.691 38.22 224.569 44.2921 224.569 53.16C224.569 58.4819 225.809 62.3866 228.009 64.9647C230.215 67.55 233.351 68.76 237.049 68.76C239.446 68.76 241.396 68.1289 243.003 67.0113C244.606 65.8962 245.849 64.3087 246.854 62.421C246.882 62.3689 246.894 62.3098 246.888 62.2511L246.708 60.3911C246.693 60.2373 246.564 60.12 246.409 60.12H245.569C245.473 60.12 245.382 60.1666 245.325 60.2452C243.07 63.3907 240.929 64.86 238.249 64.86C235.603 64.86 233.714 63.0716 232.898 60.1591L232.898 60.1576C232.547 58.9312 232.189 56.5603 232.189 53.7V52.8073ZM232.253 50.3241L239.868 49.935C239.853 48.5874 239.738 46.4251 239.572 45.0407C239.394 43.8582 239.088 42.8038 238.565 42.0511C238.054 41.3152 237.333 40.86 236.269 40.86C235.304 40.86 234.576 41.3223 234.012 42.075C233.441 42.8358 233.049 43.8822 232.783 45.0022C232.508 46.4891 232.284 48.8981 232.253 50.3241Z" fill="#111111"/>
<path fill-rule="evenodd" clip-rule="evenodd" d="M177.375 52.276C180.117 50.7339 183.645 50.192 186.942 50.1614V45.36C186.942 44.0601 186.595 42.9649 185.955 42.2002C185.323 41.4455 184.381 40.9839 183.118 40.98C181.032 41.2121 179.139 42.6833 177.974 44.5903L176.484 48.7022C176.441 48.8209 176.328 48.9 176.202 48.9H174.882C174.717 48.9 174.582 48.7657 174.582 48.6V40.98C174.582 40.8777 174.634 40.7825 174.72 40.7273C176.259 39.7425 179.975 38.16 183.942 38.16C187.641 38.16 190.204 38.9627 191.85 40.2325C193.505 41.509 194.202 43.2351 194.202 45V64.8101L196.757 66.3427C196.847 66.397 196.902 66.4946 196.902 66.6V67.74C196.902 67.9057 196.768 68.04 196.602 68.04H187.422C187.257 68.04 187.122 67.9057 187.122 67.74V65.2177C185.351 67.5341 182.895 68.7 180.042 68.7C178.11 68.7 176.228 68.2404 174.826 66.9969C173.417 65.7474 172.542 63.75 172.542 60.78C172.542 56.5532 174.528 53.8774 177.375 52.276ZM182.982 64.4399C184.85 64.44 186.302 63.194 186.942 62.0247V52.6334C184.584 52.7576 182.85 53.3319 181.694 54.4072C180.494 55.5232 179.862 57.2291 179.862 59.7C179.862 61.5739 180.148 62.7691 180.661 63.4852C181.155 64.1741 181.898 64.4684 182.974 64.4401L182.982 64.4399Z" fill="#111111"/>
<path d="M154.325 62.0224C155.801 64.13 158.288 66 160.715 66C162.07 66 163.242 65.6108 164.07 64.9153C164.892 64.2245 165.395 63.2148 165.395 61.92C165.395 61.1787 165.257 60.5743 164.996 60.0609C164.734 59.5474 164.343 59.1083 163.812 58.7098C162.74 57.9039 161.138 57.2874 159.003 56.5655C157.126 55.99 155.199 55.1473 153.739 53.7033C152.269 52.2484 151.295 50.205 151.295 47.28C151.295 44.5334 152.3 42.2475 153.992 40.6494C155.682 39.053 158.038 38.16 160.715 38.16C164.552 38.16 167.061 39.1361 168.777 40.0556C168.874 40.1078 168.935 40.2094 168.935 40.32V48.06C168.935 48.2257 168.801 48.36 168.635 48.36H167.435C167.309 48.36 167.197 48.2814 167.154 48.1633L165.847 44.5987C164.448 42.5687 162.958 41.323 160.567 40.8601C159.162 40.865 158.125 41.2402 157.441 41.8426C156.757 42.4455 156.395 43.3038 156.395 44.34C156.395 45.768 156.975 46.7355 157.925 47.4957C158.893 48.2702 160.241 48.8253 161.773 49.3961C164.356 50.2077 166.57 51.1386 168.137 52.6276C169.721 54.1331 170.615 56.1817 170.615 59.16C170.615 64.2432 166.823 68.7 160.535 68.7C156.524 68.7 153.117 67.607 151.098 66.5667C150.998 66.5152 150.935 66.4123 150.935 66.3V57.84C150.935 57.6743 151.069 57.54 151.235 57.54H152.555C152.683 57.54 152.797 57.6209 152.839 57.7416L154.325 62.0224Z" fill="#111111"/>
<path fill-rule="evenodd" clip-rule="evenodd" d="M148.209 53.1599L133.576 52.8073V53.7C133.576 56.5603 133.934 58.9312 134.284 60.1576L134.285 60.1591C135.1 63.0716 136.99 64.86 139.636 64.86C142.315 64.86 144.457 63.3907 146.712 60.2452C146.769 60.1666 146.859 60.12 146.956 60.12H147.796C147.95 60.12 148.08 60.2373 148.095 60.3911L148.275 62.2511C148.28 62.3098 148.269 62.3689 148.241 62.421C147.236 64.3087 145.993 65.8962 144.39 67.0113C142.783 68.1289 140.832 68.76 138.436 68.76C134.738 68.76 131.601 67.55 129.395 64.9647C127.195 62.3866 125.956 58.4819 125.956 53.16C125.956 44.2921 131.078 38.22 138.076 38.22C141.338 38.22 143.963 39.4394 145.766 41.7005C147.561 43.9528 148.516 47.207 148.516 51.24V52.86C148.516 52.9408 148.483 53.0182 148.426 53.0747C148.368 53.1311 148.29 53.1619 148.209 53.1599ZM141.254 49.935L133.64 50.3241C133.671 48.8979 133.895 46.4886 134.17 45.0018C134.435 43.882 134.828 42.8357 135.398 42.075C135.963 41.3223 136.691 40.86 137.656 40.86C138.72 40.86 139.441 41.3152 139.952 42.0511C140.475 42.8038 140.781 43.8578 140.959 45.0402C141.124 46.4246 141.239 48.5872 141.254 49.935Z" fill="#111111"/>
<path fill-rule="evenodd" clip-rule="evenodd" d="M85.5295 64.8082L82.9177 66.3413C82.8259 66.3951 82.7695 66.4936 82.7695 66.6V67.74C82.7695 67.9057 82.9038 68.04 83.0695 68.04H95.1295C95.2952 68.04 95.4295 67.9057 95.4295 67.74V66.6C95.4295 66.4957 95.3753 66.3989 95.2864 66.3443L92.7895 64.8121V46.2741C93.194 45.517 93.8437 44.6936 94.6352 44.0562C95.4505 43.3996 96.3909 42.96 97.3495 42.96C98.3467 42.96 99.0336 43.2295 99.4763 43.7106C99.9232 44.1965 100.17 44.9502 100.17 46.02V64.8141L97.73 66.3459C97.6426 66.4008 97.5895 66.4968 97.5895 66.6V67.74C97.5895 67.9057 97.7238 68.04 97.8895 68.04H109.77C109.935 68.04 110.07 67.9057 110.07 67.74V66.6C110.07 66.4957 110.015 66.3989 109.926 66.3443L107.43 64.8121V46.2162C107.862 45.4298 108.512 44.621 109.295 44.0059C110.1 43.3734 111.026 42.96 111.99 42.96C112.987 42.96 113.691 43.2297 114.149 43.7137C114.61 44.2007 114.87 44.9543 114.87 46.02V64.8121L112.373 66.3443C112.284 66.3989 112.23 66.4957 112.23 66.6V67.74C112.23 67.9057 112.364 68.04 112.53 68.04H124.53C124.695 68.04 124.83 67.9057 124.83 67.74V66.6C124.83 66.4936 124.773 66.3951 124.681 66.3413L122.07 64.8082V45.12C122.07 41.0935 118.794 38.28 114.93 38.28C113.134 38.28 111.65 38.7305 110.33 39.6131C109.156 40.3981 108.124 41.5167 107.118 42.9347C106.216 40.3725 103.691 38.28 100.17 38.28C98.3409 38.28 96.8701 38.7623 95.5873 39.6619C94.5322 40.4017 93.6144 41.4168 92.7295 42.6528V39.3C92.7295 39.1343 92.5952 39 92.4295 39H82.9495C82.7838 39 82.6495 39.1343 82.6495 39.3V40.44C82.6495 40.5484 82.708 40.6483 82.8025 40.7015L85.5295 42.2355V64.8082Z" fill="#111111"/>
<path fill-rule="evenodd" clip-rule="evenodd" d="M62.1798 52.276C64.9214 50.7339 68.4495 50.192 71.7469 50.1614V45.36C71.7469 44.0601 71.4002 42.9649 70.7594 42.2002C70.1272 41.4455 69.1852 40.9839 67.923 40.98C65.8363 41.2121 63.9432 42.6833 62.7787 44.5903L61.2889 48.7022C61.2459 48.8209 61.1332 48.9 61.0069 48.9H59.6869C59.5212 48.9 59.3869 48.7657 59.3869 48.6V40.98C59.3869 40.8777 59.439 40.7825 59.5252 40.7273C61.064 39.7425 64.7793 38.16 68.7469 38.16C72.4453 38.16 75.0092 38.9627 76.6551 40.2325C78.3099 41.509 79.0069 43.2351 79.0069 45V64.8101L81.5612 66.3427C81.6516 66.397 81.7069 66.4946 81.7069 66.6V67.74C81.7069 67.9057 81.5726 68.04 81.4069 68.04H72.2269C72.0612 68.04 71.9269 67.9057 71.9269 67.74V65.2177C70.156 67.5341 67.7001 68.7 64.8469 68.7C62.9147 68.7 61.0322 68.2404 59.6303 66.9969C58.2216 65.7474 57.3469 63.75 57.3469 60.78C57.3469 56.5532 59.3329 53.8774 62.1798 52.276ZM67.7869 64.44C69.6544 64.44 71.1063 63.194 71.7469 62.0247V52.6334C69.3888 52.7576 67.6552 53.3319 66.4987 54.4072C65.2984 55.5232 64.6669 57.2291 64.6669 59.7C64.6669 61.5739 64.9523 62.7691 65.4657 63.4852C65.9596 64.1741 66.7027 64.4684 67.779 64.4401L67.7869 64.44Z" fill="#111111"/>
<path fill-rule="evenodd" clip-rule="evenodd" d="M31.14 32.1819L48.9912 68.2331C49.0418 68.3353 49.146 68.4 49.26 68.4H52.56C52.7257 68.4 52.86 68.2657 52.86 68.1V29.4093L56.5892 27.6308C56.6935 27.581 56.76 27.4757 56.76 27.36V26.16C56.76 25.9943 56.6257 25.86 56.46 25.86H46.02C45.8543 25.86 45.72 25.9943 45.72 26.16V27.36C45.72 27.4763 45.7872 27.5821 45.8925 27.6315L49.68 29.4105V52.1342L36.5681 26.0254C36.5172 25.924 36.4134 25.86 36.3 25.86H24.36C24.1943 25.86 24.06 25.9943 24.06 26.16V27.36C24.06 27.4784 24.1296 27.5857 24.2378 27.634L27.96 29.2947V64.4895L24.1725 66.2685C24.0672 66.3179 24 66.4237 24 66.54V67.74C24 67.9057 24.1343 68.04 24.3 68.04H34.8C34.9657 68.04 35.1 67.9057 35.1 67.74V66.54C35.1 66.4237 35.0328 66.3179 34.9275 66.2685L31.14 64.4895V32.1819Z" fill="#111111"/>
</svg>
