<svg width="270" height="93" viewBox="0 0 270 93" fill="none" xmlns="http://www.w3.org/2000/svg">
<path d="M197.785 66.3V67.44H209.845V66.3L207.205 64.68V24H197.305V25.14L200.545 26.82V64.68L197.785 66.3Z" fill="#F1F1F1"/>
<path d="M212.605 66.3V67.44H225.265V66.3L222.265 64.74L213.325 49.08L219.205 42.06L223.405 40.14V39H213.085V40.14L216.085 41.88L207.685 52.32L214.825 64.8L212.605 66.3Z" fill="#F1F1F1"/>
<path fill-rule="evenodd" clip-rule="evenodd" d="M224.569 52.86C224.569 63.42 229.489 68.16 236.749 68.16C241.429 68.16 244.309 65.7 246.289 61.98L246.109 60.12H245.269C242.989 63.3 240.769 64.86 237.949 64.86C235.129 64.86 233.149 62.94 232.309 59.94C231.949 58.68 231.589 56.28 231.589 53.4V52.2L246.529 52.56V50.94C246.529 42.96 242.749 38.22 236.389 38.22C229.609 38.22 224.569 44.1 224.569 52.86ZM239.869 49.92L231.649 50.34C231.649 48.96 231.889 46.26 232.189 44.64C232.729 42.36 233.809 40.26 235.969 40.26C238.309 40.26 239.209 42.3 239.569 44.7C239.749 46.2 239.869 48.6 239.869 49.92Z" fill="#F1F1F1"/>
<path fill-rule="evenodd" clip-rule="evenodd" d="M179.742 68.1C175.962 68.1 172.542 66.3 172.542 60.48C172.542 52.26 180.222 50.16 186.942 50.16V45.06C186.942 42.36 185.502 40.38 182.802 40.38C180.582 40.62 178.602 42.18 177.402 44.16L175.902 48.3H174.582V40.68C176.082 39.72 179.742 38.16 183.642 38.16C190.962 38.16 193.602 41.34 193.602 44.7V64.68L196.302 66.3V67.44H187.122V63.96C185.382 66.72 182.802 68.1 179.742 68.1ZM182.682 64.44C184.722 64.44 186.282 63.06 186.942 61.8V52.02C181.842 52.2 179.262 54.36 179.262 59.4C179.262 63.18 180.402 64.5 182.682 64.44Z" fill="#F1F1F1"/>
<path d="M150.935 66C152.915 67.02 156.275 68.1 160.235 68.1C166.355 68.1 170.015 63.78 170.015 58.86C170.015 53.04 166.535 51 161.375 49.38C158.315 48.24 155.795 47.1 155.795 44.04C155.795 41.82 157.355 40.26 160.295 40.26C162.815 40.74 164.375 42.06 165.815 44.16L167.135 47.76H168.335V40.02C166.655 39.12 164.195 38.16 160.415 38.16C155.195 38.16 151.295 41.64 151.295 46.98C151.295 52.68 155.075 54.84 158.795 55.98C163.055 57.42 165.395 58.5 165.395 61.62C165.395 64.38 163.235 66 160.415 66C157.835 66 155.255 64.02 153.755 61.86L152.255 57.54H150.935V66Z" fill="#F1F1F1"/>
<path fill-rule="evenodd" clip-rule="evenodd" d="M138.136 68.16C130.876 68.16 125.956 63.42 125.956 52.86C125.956 44.1 130.996 38.22 137.776 38.22C144.136 38.22 147.916 42.96 147.916 50.94V52.56L132.976 52.2V53.4C132.976 56.28 133.336 58.68 133.696 59.94C134.536 62.94 136.516 64.86 139.336 64.86C142.156 64.86 144.376 63.3 146.656 60.12H147.496L147.676 61.98C145.696 65.7 142.816 68.16 138.136 68.16ZM133.036 50.34L141.256 49.92C141.256 48.6 141.136 46.2 140.956 44.7C140.596 42.3 139.696 40.26 137.356 40.26C135.196 40.26 134.116 42.36 133.576 44.64C133.276 46.26 133.036 48.96 133.036 50.34Z" fill="#F1F1F1"/>
<path d="M82.7695 66.3V67.44H94.8295V66.3L92.1895 64.68V45.9C93.0295 44.28 94.9495 42.36 97.0495 42.36C99.1495 42.36 100.17 43.5 100.17 45.72V64.68L97.5895 66.3V67.44H109.47V66.3L106.83 64.68V45.84C107.73 44.16 109.59 42.36 111.69 42.36C113.79 42.36 114.87 43.5 114.87 45.72V64.68L112.23 66.3V67.44H124.23V66.3L121.47 64.68V44.82C121.47 40.98 118.35 38.28 114.63 38.28C111.15 38.28 108.93 40.02 106.71 43.32C106.05 40.62 103.53 38.28 99.8695 38.28C96.3295 38.28 94.2295 40.14 92.1295 43.32V39H82.6495V40.14L85.5295 41.76V64.68L82.7695 66.3Z" fill="#F1F1F1"/>
<path fill-rule="evenodd" clip-rule="evenodd" d="M64.5469 68.1C60.7669 68.1 57.3469 66.3 57.3469 60.48C57.3469 52.26 65.0269 50.16 71.7469 50.16V45.06C71.7469 42.36 70.3069 40.38 67.6069 40.38C65.3869 40.62 63.4069 42.18 62.2069 44.16L60.7069 48.3H59.3869V40.68C60.8869 39.72 64.5469 38.16 68.4469 38.16C75.7669 38.16 78.4069 41.34 78.4069 44.7V64.68L81.1069 66.3V67.44H71.9269V63.96C70.1869 66.72 67.6069 68.1 64.5469 68.1ZM67.4869 64.44C69.5269 64.44 71.0869 63.06 71.7469 61.8V52.02C66.6469 52.2 64.0669 54.36 64.0669 59.4C64.0669 63.18 65.2069 64.5 67.4869 64.44Z" fill="#F1F1F1"/>
<path d="M30.54 30.6L48.96 67.8H52.26V28.92L56.16 27.06V25.86H45.72V27.06L49.68 28.92V53.1L36 25.86H24.06V27.06L27.96 28.8V64.38L24 66.24V67.44H34.5V66.24L30.54 64.38V30.6Z" fill="#F1F1F1"/>
</svg>
