<svg width="900" height="900" viewBox="0 0 900 900" fill="#000000" xmlns="http://www.w3.org/2000/svg">
<path d="M609.975 879.79C610.165 881.317 609.231 882.148 608.117 881.978C607.003 881.808 606.552 880.774 607.564 879.5C608.575 878.226 609.975 879.79 609.975 879.79Z" />
<path d="M782.985 757.75C783.233 759.315 780.276 758.967 780.276 758.967C778.57 757.925 778.684 756.739 779.971 756.205C781.258 755.67 782.738 756.184 782.985 757.75Z" />
<path d="M768.85 744.63C769.435 745.477 768.121 746 768.121 746C767.103 745.815 766.783 745.1 767.142 744.475C767.502 743.849 768.264 743.784 768.85 744.63Z" />
<path d="M549.998 703.27C549.96 704.318 548.49 703.93 548.49 703.93C547.73 703.149 547.914 702.372 548.626 702.087C549.338 701.802 550.037 702.221 549.998 703.27Z" />
<path d="M238.85 634.63C239.435 635.477 238.121 636 238.121 636C237.103 635.815 236.783 635.1 237.142 634.475C237.502 633.849 238.264 633.784 238.85 634.63Z" />
<path d="M687.764 628.968C688.662 630.25 686.704 631 686.704 631C685.174 630.697 684.678 629.62 685.202 628.692C685.726 627.765 686.867 627.686 687.764 628.968Z" />
<path d="M211.774 625.63C212.653 626.476 210.682 627 210.682 627C209.154 626.814 208.674 626.1 209.214 625.475C209.754 624.849 210.896 624.784 211.774 625.63Z" />
<path d="M832.546 595.169C833.221 594.683 833.946 595.25 833.999 596.824C834.052 598.396 832.573 597.938 832.573 597.938C831.758 596.833 831.87 595.655 832.546 595.169Z" />
<path d="M96.998 556.824C97.078 558.396 94.858 557.938 94.858 557.938C93.637 556.833 93.806 555.654 94.818 555.168C95.832 554.683 96.918 555.251 96.998 556.824Z" />
<path d="M651.202 450.692C651.726 449.765 652.867 449.686 653.764 450.968C654.598 452.158 652.97 452.89 652.734 452.988L652.705 453C651.174 452.697 650.678 451.62 651.202 450.692Z" />
<path d="M722.985 437.749C723.233 439.315 720.276 438.967 720.276 438.967C718.57 437.925 718.684 436.739 719.971 436.205C721.258 435.67 722.738 436.183 722.985 437.749Z" />
<path d="M92.893 379.396C93.338 380.872 92.386 382.213 90.307 381.972C88.229 381.731 89.252 378.836 89.252 378.836C90.933 377.43 92.448 377.919 92.893 379.396Z" />
<path d="M68.187 326.385C69.076 325.71 69.808 325.984 69.971 326.731C70.134 327.48 69.609 328.135 68.588 327.976C67.566 327.818 68.187 326.385 68.187 326.385Z" />
<path d="M139.404 307.365C140.429 308.069 140.182 309.225 138.273 309.875C136.363 310.525 136 308.424 136 308.424C136.853 306.951 138.38 306.663 139.404 307.366V307.365Z" />
<path d="M472.984 305.789C473.11 307.317 472.487 308.149 471.744 307.979C471.002 307.809 470.701 306.774 471.376 305.499C472.05 304.226 472.984 305.789 472.984 305.789Z" />
<path d="M541 299.162C540.486 300.108 539.71 300.213 539.242 299.678C538.775 299.143 538.968 298.376 539.957 298.048C540.947 297.721 541 299.162 541 299.162Z" />
<path d="M545 297.162C544.23 298.108 543.064 298.213 542.363 297.678C541.663 297.143 541.952 296.376 543.436 296.048C544.92 295.721 545 297.162 545 297.162Z" />
<path d="M525 254.084C524.546 255.056 523.777 255.223 523.28 254.734C522.782 254.245 522.927 253.474 523.893 253.072C524.86 252.669 525 254.084 525 254.084Z" />
<path d="M440 246.579C439.21 249.046 437.695 249.564 436.639 248.422C435.582 247.28 435.779 245.353 437.662 244.225C439.545 243.096 440 246.579 440 246.579Z" />
<path d="M857.998 212.269C857.96 213.319 856.49 212.929 856.49 212.929C855.731 212.149 855.914 211.372 856.626 211.087C857.338 210.802 858.037 211.221 857.998 212.269Z" />
<path d="M672 150.533C671.2 152.018 669.683 152.339 668.631 151.662C667.581 150.985 667.785 149.83 669.673 149.14C671.56 148.45 672 150.533 672 150.533Z" />
<path d="M203.764 140.968C204.598 142.158 202.97 142.89 202.734 142.988L202.705 143C201.174 142.697 200.678 141.62 201.202 140.692C201.726 139.765 202.867 139.686 203.764 140.968Z" />
<path d="M882.971 126.205C884.258 125.67 885.738 126.183 885.985 127.749C886.233 129.315 883.276 128.967 883.276 128.967C881.57 127.925 881.684 126.739 882.971 126.205Z" />
<path d="M231.998 111.269C231.96 112.319 230.49 111.929 230.49 111.929C229.731 111.149 229.914 110.372 230.626 110.087C231.338 109.802 232.037 110.221 231.998 111.269Z" />
<path d="M231.998 103.269C231.96 104.319 230.49 103.929 230.49 103.929C229.73 103.149 229.914 102.372 230.626 102.087C231.338 101.802 232.037 102.221 231.998 103.269Z" />
<path d="M726.998 61.215C727.052 62.265 725.573 61.959 725.573 61.959C724.758 61.222 724.871 60.436 725.546 60.113C726.221 59.788 726.946 60.167 726.999 61.215H726.998Z" />
<path d="M299.687 45.968C300.884 47.25 298.275 48 298.275 48C296.233 47.697 295.571 46.62 296.27 45.692C296.969 44.765 298.49 44.686 299.687 45.968Z" />
<path d="M40.235 42.306C41.155 41.706 41.865 42.047 41.984 42.814C42.104 43.582 41.547 44.194 40.543 43.943C39.539 43.692 40.235 42.306 40.235 42.306Z" />
<path d="M434.819 805.169C435.832 804.683 436.919 805.251 436.998 806.824C437.078 808.396 434.858 807.938 434.858 807.938C433.637 806.833 433.806 805.654 434.818 805.168L434.819 805.169Z" />
<path d="M386.993 538.715C387.141 540.275 384.923 539.977 384.923 539.977C383.663 538.964 383.777 537.777 384.76 537.222C385.743 536.665 386.844 537.154 386.993 538.715Z" />
<path d="M92 349.945C92.424 348.964 93.188 348.775 93.7 349.247C94.214 349.718 94.092 350.489 93.138 350.918C92.184 351.348 92 349.945 92 349.945Z" />
<path d="M429 292.162C428.486 293.108 427.71 293.213 427.242 292.678C426.775 292.143 426.968 291.376 427.957 291.048C428.947 290.721 429 292.162 429 292.162Z" />
<path d="M436 289.743C435.487 291.161 434.71 291.32 434.242 290.517C433.775 289.715 433.968 288.564 434.957 288.073C435.947 287.581 436 289.743 436 289.743Z" />
<path d="M450.996 268.052L451 268.084C450.546 269.056 449.777 269.223 449.28 268.734C448.782 268.245 448.927 267.474 449.893 267.072C450.772 266.706 450.968 267.842 450.996 268.052Z" />
<path d="M506.976 522.815C506.796 522.047 505.731 521.707 504.352 522.305C504.352 522.305 503.309 523.692 504.815 523.943C506.321 524.195 507.156 523.582 506.976 522.815Z" />
<path d="M391.991 405.715C391.793 404.154 390.323 403.665 389.013 404.222C387.703 404.777 387.55 405.964 389.23 406.977C389.23 406.977 392.188 407.275 391.991 405.715Z" />
<path d="M679.984 279.814C679.865 279.047 679.154 278.706 678.235 279.306C678.235 279.306 677.539 280.692 678.543 280.943C679.547 281.194 680.104 280.582 679.984 279.814Z" />
<path d="M889.971 473.205C891.258 472.67 892.737 473.183 892.985 474.749C893.233 476.316 890.276 475.967 890.276 475.967C888.57 474.924 888.684 473.739 889.971 473.205Z" />
<path d="M264.142 47.475C264.502 46.849 265.264 46.784 265.85 47.63C266.435 48.477 265.121 49 265.121 49C264.103 48.815 263.783 48.101 264.142 47.475Z" />
<path d="M37.998 859.27C38.037 858.221 37.338 857.802 36.626 858.087C35.914 858.372 35.731 859.149 36.49 859.93C36.49 859.93 37.96 860.318 37.998 859.27Z" />
<path d="M207.998 619.27C208.037 618.221 207.338 617.802 206.626 618.087C205.914 618.372 205.731 619.149 206.49 619.93C206.49 619.93 207.96 620.318 207.998 619.27Z" />
<path d="M210.553 418.366C209.785 417.663 208.64 417.951 208 419.424C208 419.424 208.272 421.526 209.704 420.876C211.137 420.224 211.322 419.068 210.553 418.366Z" />
<path d="M281.85 62.63C281.264 61.784 280.502 61.849 280.142 62.474C279.783 63.099 280.102 63.815 281.121 64C281.121 64 282.435 63.476 281.85 62.63Z" />
<path d="M371.686 881.29C372.883 882.999 370.274 884 370.274 884C368.231 883.596 367.57 882.16 368.269 880.923C368.968 879.686 370.489 879.582 371.686 881.29Z" />
<path d="M186.7 794.247C187.213 794.718 187.091 795.489 186.137 795.918C185.183 796.348 184.999 794.945 184.999 794.945C185.424 793.964 186.187 793.775 186.7 794.247Z" />
<path d="M635 704.945C635.425 703.964 636.188 703.775 636.701 704.247C637.214 704.718 637.092 705.489 636.138 705.918C635.184 706.348 635 704.945 635 704.945Z" />
<path d="M92.701 552.247C93.214 552.718 93.092 553.489 92.138 553.918C91.184 554.348 91 552.945 91 552.945C91.425 551.965 92.188 551.775 92.701 552.247Z" />
<path d="M511.984 515.222C512.104 516.372 511.547 517.292 510.543 516.914C509.539 516.537 510.235 514.458 510.235 514.458C511.155 513.56 511.865 514.071 511.984 515.222Z" />
<path d="M673.993 146.715C674.141 148.275 671.923 147.977 671.923 147.977C670.663 146.964 670.777 145.777 671.76 145.221C672.743 144.665 673.845 145.154 673.993 146.715Z" />
<path d="M656.998 767.54C657.037 765.442 656.338 764.604 655.626 765.174C654.914 765.743 654.73 767.298 655.49 768.86C655.49 768.86 656.96 769.636 656.998 767.54Z" />
<path d="M186.998 206.905C187.037 205.331 186.338 204.704 185.626 205.131C184.914 205.558 184.73 206.724 185.49 207.895C185.49 207.895 186.96 208.477 186.998 206.905Z" />
</svg>
