<svg width="900" height="900" viewBox="0 0 900 900" fill="#111111" xmlns="http://www.w3.org/2000/svg">
<path d="M432.806 806.668C433.486 806.819 433.765 807.548 433.154 808.397C432.543 809.246 431.682 808.123 431.682 808.123C431.559 807.061 432.126 806.516 432.806 806.668Z" />
<path d="M776.394 505.18C776.272 504.118 776.838 503.573 777.518 503.725C778.198 503.877 778.478 504.605 777.866 505.454C777.255 506.303 776.394 505.18 776.394 505.18Z" />
<path d="M230.4 644.089C231.08 644.241 231.36 644.969 230.748 645.818C230.137 646.667 229.276 645.544 229.276 645.544C229.154 644.483 229.72 643.937 230.4 644.089Z" />
<path d="M574.997 402.383C575.676 403.319 575.654 404.394 574.596 404.569C573.538 404.745 573.101 402.596 573.101 402.596C573.449 401.358 574.319 401.446 574.997 402.383Z" />
<path d="M531.048 2.24237C531.956 3.51937 529.886 4.37031 529.886 4.37031C528.289 4.12302 527.794 3.03802 528.367 2.06501C528.94 1.092 530.139 0.964505 531.048 2.24237Z" />
<path d="M882.978 607.117C883.148 608.231 882.317 609.165 880.79 608.975C880.79 608.975 879.226 607.575 880.5 606.564C881.774 605.552 882.808 606.003 882.978 607.117Z" />
<path d="M759.967 779.276C759.967 779.276 760.315 782.233 758.75 781.985C757.184 781.738 756.67 780.258 757.205 778.971C757.739 777.684 758.925 777.57 759.967 779.276Z" />
<path d="M747 767.121C747 767.121 746.477 768.435 745.63 767.85C744.784 767.264 744.849 766.502 745.475 766.142C746.1 765.783 746.815 766.103 747 767.121Z" />
<path d="M704.93 547.49C704.93 547.49 705.318 548.96 704.27 548.998C703.221 549.037 702.802 548.338 703.087 547.626C703.372 546.914 704.149 546.73 704.93 547.49Z" />
<path d="M637 237.121C637 237.121 636.477 238.435 635.63 237.85C634.784 237.264 634.849 236.502 635.475 236.142C636.1 235.783 636.815 236.103 637 237.121Z" />
<path d="M632 685.704C632 685.704 631.25 687.662 629.968 686.764C628.686 685.867 628.765 684.726 629.692 684.202C630.62 683.678 631.697 684.174 632 685.704Z" />
<path d="M628 209.682C628 209.682 627.476 211.653 626.63 210.774C625.784 209.896 625.849 208.754 626.475 208.214C627.1 207.674 627.814 208.154 628 209.682Z" />
<path d="M597.824 832.999C596.25 832.946 595.683 832.221 596.169 831.546C596.655 830.87 597.833 830.758 598.938 831.573C598.938 831.573 599.396 833.052 597.824 832.999Z" />
<path d="M451.968 652.764C450.686 651.867 450.765 650.726 451.692 650.202C452.62 649.678 453.697 650.174 454 651.705L453.988 651.734C453.89 651.97 453.158 653.598 451.968 652.764Z" />
<path d="M327.731 68.9709C326.984 68.8079 326.71 68.0759 327.385 67.1869C327.385 67.1869 328.818 66.5659 328.976 67.5879C329.135 68.6089 328.48 69.1339 327.731 68.9709Z" />
<path d="M308.979 470.744C309.149 471.487 308.317 472.11 306.789 471.984C306.789 471.984 305.226 471.05 306.499 470.376C307.774 469.701 308.809 470.002 308.979 470.744Z" />
<path d="M300.678 538.242C301.213 538.71 301.108 539.486 300.162 540C300.162 540 298.721 539.947 299.048 538.957C299.376 537.968 300.143 537.775 300.678 538.242Z" />
<path d="M298.678 541.363C299.213 542.064 299.108 543.23 298.162 544C298.162 544 296.721 543.92 297.048 542.436C297.376 540.952 298.143 540.663 298.678 541.363Z" />
<path d="M255.734 522.28C256.223 522.777 256.056 523.546 255.084 524C255.084 524 253.669 523.86 254.072 522.893C254.474 521.927 255.245 521.782 255.734 522.28Z" />
<path d="M213.929 855.49C213.929 855.49 214.319 856.96 213.269 856.998C212.221 857.037 211.802 856.338 212.087 855.626C212.372 854.914 213.149 854.731 213.929 855.49Z" />
<path d="M143.988 201.734C143.89 201.97 143.158 203.598 141.968 202.764C140.686 201.867 140.765 200.726 141.692 200.202C142.62 199.678 143.697 200.174 144 201.705L143.988 201.734Z" />
<path d="M112.929 229.49C112.929 229.49 113.319 230.96 112.269 230.998C111.221 231.037 110.802 230.338 111.087 229.626C111.372 228.914 112.149 228.731 112.929 229.49Z" />
<path d="M104.929 229.49C104.929 229.49 105.319 230.96 104.269 230.998C103.221 231.037 102.802 230.338 103.087 229.626C103.372 228.914 104.149 228.73 104.929 229.49Z" />
<path d="M62.9591 724.573C62.9591 724.573 63.2651 726.052 62.2151 725.998V725.999C61.1671 725.946 60.7881 725.221 61.1131 724.546C61.4361 723.871 62.2221 723.758 62.9591 724.573Z" />
<path d="M43.8141 40.9839C43.0471 40.8649 42.7061 40.1549 43.3061 39.2349C43.3061 39.2349 44.6921 38.5389 44.9431 39.5429C45.1941 40.5469 44.5821 41.1039 43.8141 40.9839Z" />
<path d="M816.824 483.002C815.251 483.081 814.683 484.168 815.169 485.181L815.168 485.182C815.654 486.194 816.833 486.363 817.938 485.142C817.938 485.142 818.396 482.922 816.824 483.002Z" />
<path d="M549.977 535.077C549.977 535.077 550.275 532.859 548.715 533.007C547.154 533.156 546.665 534.257 547.222 535.24C547.777 536.223 548.964 536.337 549.977 535.077Z" />
<path d="M359.247 826.3C358.775 826.812 358.964 827.576 359.945 828C359.945 828 361.348 827.816 360.918 826.862C360.489 825.908 359.718 825.786 359.247 826.3Z" />
<path d="M302.678 492.758C303.213 492.29 303.108 491.514 302.162 491C302.162 491 300.721 491.053 301.048 492.043C301.376 493.032 302.143 493.225 302.678 492.758Z" />
<path d="M300.517 485.758C301.32 485.29 301.161 484.513 299.743 484C299.743 484 297.581 484.053 298.073 485.043C298.564 486.032 299.715 486.225 300.517 485.758Z" />
<path d="M278.084 469L278.052 469.004C277.842 469.032 276.706 469.228 277.072 470.107C277.474 471.073 278.245 471.218 278.734 470.72C279.223 470.223 279.056 469.454 278.084 469Z" />
<path d="M268.305 767.648C267.707 766.269 268.047 765.204 268.815 765.024C269.582 764.844 270.195 765.679 269.943 767.185C269.692 768.691 268.305 767.648 268.305 767.648Z" />
<path d="M150.222 882.987C149.665 881.677 150.154 880.207 151.715 880.009C153.275 879.812 152.977 882.77 152.977 882.77C151.964 884.45 150.777 884.297 150.222 882.987Z" />
<path d="M25.3063 593.765C24.7063 592.846 25.0473 592.135 25.8143 592.016C26.5823 591.896 27.1943 592.453 26.9433 593.457C26.6923 594.461 25.3063 593.765 25.3063 593.765Z" />
<path d="M587.364 884.511C587.455 885.536 588.149 885.857 588.772 885.491C589.393 885.124 589.469 884.346 588.675 883.681C588.675 883.681 587.275 883.486 587.364 884.511Z" />
<path d="M789.08 143.87C787.791 143.096 787.448 142.032 787.968 141.439C788.488 140.846 789.472 141.169 790.143 142.541C790.815 143.912 789.08 143.87 789.08 143.87Z" />
<path d="M490.276 143.753C489.253 143.354 489.117 142.577 489.672 142.035C490.227 141.49 491.048 141.587 491.428 142.55C491.808 143.513 490.276 143.753 490.276 143.753Z" />
<path d="M356.799 885.017C357.033 883.994 357.817 883.77 358.431 884.229C359.044 884.689 359.02 885.487 358.085 886.045C358.085 886.045 356.565 886.039 356.799 885.017Z" />
<path d="M254.708 609.195C254.942 608.172 255.726 607.948 256.34 608.408C256.954 608.867 256.929 609.665 255.994 610.223C255.994 610.223 254.474 610.218 254.708 609.195Z" />
<path d="M304.238 414.476C305.162 413.996 306.193 414.57 306.43 416.159C306.43 416.159 305.624 418.119 304.409 417.12C303.193 416.119 303.314 414.955 304.238 414.476Z" />
<path d="M327.442 52.4082C328.227 51.7427 328.946 52.0027 329.132 52.6996C329.317 53.3962 328.823 54.0052 327.791 53.9202C327.791 53.9202 326.658 53.074 327.442 52.4082Z" />
<path d="M701.539 251.002C699.441 250.963 698.603 251.662 699.173 252.374C699.742 253.086 701.297 253.27 702.859 252.51C702.859 252.51 703.635 251.04 701.539 251.002Z" />
<path d="M140.904 721.002C139.33 720.963 138.703 721.662 139.13 722.374C139.557 723.086 140.723 723.27 141.894 722.51C141.894 722.51 142.476 721.04 140.904 721.002Z" />
</svg>
