<svg xmlns="http://www.w3.org/2000/svg" viewBox="0 0 486.98 33.71"><defs><style>.cls-1{fill:#231f20;}</style></defs><g id="Layer_2" data-name="Layer 2"><g id="Layer_1-2" data-name="Layer 1"><path class="cls-1" d="M46.39,1.05,29.91,33a.4.4,0,0,1-.34.2H16.87a.38.38,0,0,1-.34-.2L0,1.05A.38.38,0,0,1,.38.5H11.77a.37.37,0,0,1,.34.21L23.09,23a.38.38,0,0,0,.68,0L35,.71A.39.39,0,0,1,35.37.5H46.06a.38.38,0,0,1,.33.55Z"/><path class="cls-1" d="M61.24,33.21H50.32a.27.27,0,0,1-.27-.26V.77A.27.27,0,0,1,50.32.5H61.24a.27.27,0,0,1,.27.27V33a.27.27,0,0,1-.27.26Z"/><path class="cls-1" d="M106.56,23c0,6.92-6.76,10.67-20,10.67-12.38,0-17.71-3.5-19.75-8.08A12.92,12.92,0,0,1,66,22.68a.27.27,0,0,1,.27-.3H77.76a.26.26,0,0,1,.25.2,4.2,4.2,0,0,0,.75,1.55c1,1.21,3.79,1.92,8.54,1.92,6.13,0,7.59-.88,7.59-2.51s-1.5-2.12-7-2.7c-2.2-.21-5.7-.55-7.16-.67-10.59-1-14.5-4.25-14.5-9.88C66.18,4.46,73.09,0,85.72,0c11.21,0,16.42,3.33,18.59,7.5a11.91,11.91,0,0,1,1.16,3.36.27.27,0,0,1-.27.31H93.74a.28.28,0,0,1-.26-.23,2.88,2.88,0,0,0-.63-1.27c-.92-1.21-3.25-2-7.42-2-5.88,0-7.42.71-7.42,2.21,0,1.66,2,2.08,8.5,2.75,2.54.25,6.59.62,8,.79,8.46.92,12.09,3.92,12.09,9.62Z"/><path class="cls-1" d="M122.58,33.21H111.65a.27.27,0,0,1-.27-.26V.77a.27.27,0,0,1,.27-.27h10.93a.26.26,0,0,1,.26.27V33a.26.26,0,0,1-.26.26Z"/><path class="cls-1" d="M158.22,24.92a2.48,2.48,0,0,0,.59-1.83,2.58,2.58,0,0,0-.71-2c-.63-.54-1.71-.79-3.54-.79H140.49a.27.27,0,0,0-.27.26v4.93a.27.27,0,0,0,.27.27h13.94c2,0,3.13-.25,3.79-.88ZM157,10.58a2.39,2.39,0,0,0-.79-1.91c-.58-.54-1.67-.75-3.25-.75H140.49a.27.27,0,0,0-.27.26V13a.27.27,0,0,0,.27.27h12.73c1.42,0,2.5-.16,3.09-.75a2.65,2.65,0,0,0,.66-1.92Zm11.5,19.3c-1.91,2.33-5.5,3.33-10.12,3.33H129.57a.27.27,0,0,1-.27-.26V.77a.27.27,0,0,1,.27-.27h28c4.5,0,7.37,1.08,9,2.71a7.41,7.41,0,0,1,2,5.42A7.77,7.77,0,0,1,167,13.79a6.14,6.14,0,0,1-2.78,1.86.26.26,0,0,0,0,.5,9,9,0,0,1,4.6,2.85,8,8,0,0,1,1.54,5,9.24,9.24,0,0,1-1.88,5.92Z"/><path class="cls-1" d="M206.08,33.21H175.4a.26.26,0,0,1-.26-.26V.77A.27.27,0,0,1,175.4.5h10.76a.27.27,0,0,1,.27.27V24.24a.27.27,0,0,0,.27.26h19.38a.27.27,0,0,1,.27.27V33a.27.27,0,0,1-.27.26Z"/><path class="cls-1" d="M245,33.21H211a.27.27,0,0,1-.27-.26V.77A.27.27,0,0,1,211,.5h33.64a.27.27,0,0,1,.26.27V8.4a.27.27,0,0,1-.26.27H222a.27.27,0,0,0-.27.27v3.67a.27.27,0,0,0,.27.27h22a.27.27,0,0,1,.27.26v7.43a.27.27,0,0,1-.27.27H222a.27.27,0,0,0-.27.26v3.72a.27.27,0,0,0,.27.27H245a.26.26,0,0,1,.26.26V33a.26.26,0,0,1-.26.26Z"/><path class="cls-1" d="M305.38,33.21H294.74a.26.26,0,0,1-.26-.26V21.6a.27.27,0,0,0-.27-.26H278a.27.27,0,0,0-.27.26V33a.26.26,0,0,1-.26.26H266.82a.26.26,0,0,1-.26-.26V.77a.27.27,0,0,1,.26-.27h10.64a.27.27,0,0,1,.26.27V12.15a.27.27,0,0,0,.27.27h16.22a.27.27,0,0,0,.27-.27V.77a.27.27,0,0,1,.26-.27h10.64a.27.27,0,0,1,.26.27V33a.26.26,0,0,1-.26.26Z"/><path class="cls-1" d="M337.49,19.45l-3.72-7.52v0l-.92-2.34a.26.26,0,0,0-.49,0l-1,2.38v0l-3.92,7.47a.28.28,0,0,0,.24.4h9.58a.27.27,0,0,0,.24-.39Zm-14,7.87-2.89,5.75a.27.27,0,0,1-.24.14H309.17a.27.27,0,0,1-.24-.39L326.11.64a.24.24,0,0,1,.23-.14h13.14a.28.28,0,0,1,.24.15L356,32.83a.26.26,0,0,1-.24.38H344.27a.27.27,0,0,1-.24-.15l-2.73-5.74a.28.28,0,0,0-.24-.15H323.72a.28.28,0,0,0-.24.15Z"/><path class="cls-1" d="M397.13,33.21H386.35a.25.25,0,0,1-.2-.09L370.48,15.53a.26.26,0,0,0-.46.17V33a.27.27,0,0,1-.27.26H359.53a.26.26,0,0,1-.26-.26V.77a.27.27,0,0,1,.26-.27H370.9a.27.27,0,0,1,.2.09l15.16,17.17a.27.27,0,0,0,.47-.17V.77A.27.27,0,0,1,387,.5h10.14a.27.27,0,0,1,.27.27V33a.27.27,0,0,1-.27.26Z"/><path class="cls-1" d="M431.69,22.5c.75-1.12,1-3.75,1-6,0-2.08-.3-4.29-1-5.29-1.3-2-3.25-2.67-6.67-2.67h-9.69a.27.27,0,0,0-.27.27V24.9a.27.27,0,0,0,.27.27h9.61c3.54,0,5.54-.83,6.75-2.67Zm10,4.17c-2.3,4.08-6.71,6.54-14.59,6.54h-22.9a.27.27,0,0,1-.27-.26V.77a.27.27,0,0,1,.27-.27h22.65c7.84,0,12.42,2.25,14.75,6,1.59,2.58,2.09,5.25,2.09,9.75,0,5.09-.55,7.79-2,10.42Z"/><path class="cls-1" d="M487,23c0,6.92-6.75,10.67-20,10.67-12.38,0-17.71-3.5-19.75-8.08a12.92,12.92,0,0,1-.75-2.95.26.26,0,0,1,.26-.3h11.48a.26.26,0,0,1,.26.2,3.91,3.91,0,0,0,.75,1.55c1,1.21,3.79,1.92,8.54,1.92,6.13,0,7.58-.88,7.58-2.51s-1.5-2.12-7-2.7c-2.21-.21-5.71-.55-7.17-.67-10.58-1-14.5-4.25-14.5-9.88C446.6,4.46,453.52,0,466.15,0c11.21,0,16.41,3.33,18.58,7.5a11.6,11.6,0,0,1,1.16,3.36.26.26,0,0,1-.26.31H474.17a.27.27,0,0,1-.26-.23,3,3,0,0,0-.64-1.27c-.92-1.21-3.25-2-7.42-2-5.87,0-7.41.71-7.41,2.21,0,1.66,2,2.08,8.5,2.75,2.54.25,6.58.62,8,.79C483.36,14.34,487,17.34,487,23Z"/></g></g></svg>