<svg width="203" height="251" viewBox="0 0 203 251" fill="none" xmlns="http://www.w3.org/2000/svg">
<g clip-path="url(#clip0_209_19)">
<path d="M182.102 116.504C180.414 115.184 177.867 114.891 175.714 114.129C170.66 112.35 152.76 106.065 139.003 101.97C146.079 99.4771 153.073 96.7892 158.956 91.8142C168.123 83.9948 177.634 77.7295 190.895 77.6611C196.273 77.6611 205.905 75.8724 202.155 66.9094C199.012 59.4126 192.543 62.9118 186.044 65.2772C166.466 72.4026 147.261 80.4076 128.431 89.0578C134.425 84.679 141.743 78.6483 141.46 78.5505C141.611 78.1596 141.652 77.6415 141.945 77.3874C143.39 76.1168 144.977 74.9536 146.372 73.6928C146.938 73.204 147.605 72.7153 148.191 72.2364C148.494 71.8943 148.798 71.562 149.121 71.259L149.374 71.0146C149.498 70.8307 149.594 70.6297 149.657 70.4184C150.099 69.1322 150.988 68.0339 152.174 67.3102C155.004 65.3065 157.844 63.3125 160.795 61.4457C163.403 59.8329 166.213 58.5134 168.821 56.93C170.357 55.9526 172.459 54.9751 172.934 53.5677C173.541 51.7887 174.764 50.8797 175.845 49.658C176.532 48.8309 177.173 47.9696 177.766 47.0776L177.382 46.6866L173.955 48.7587C173.955 48.2114 173.874 47.9573 173.955 47.7813C175.319 45.368 177.317 43.3452 179.747 41.9168C180.131 41.7018 180.262 41.0567 180.636 40.3822H178.231L180.384 35.1433L177.624 36.4041L177.23 36.0425C177.816 34.7034 179.251 33.0222 179.706 31.7516C179.758 31.6152 179.768 31.4674 179.735 31.3256C179.703 31.1839 179.629 31.054 179.523 30.9514C179.417 30.8487 179.283 30.7775 179.136 30.7461C178.989 30.7147 178.837 30.7244 178.696 30.7742L176.674 31.4291C176.88 30.4857 177.008 29.5281 177.058 28.5652C177.058 27.969 177.129 26.6104 176.543 26.7863C175.411 27.148 176.169 28.6043 175.411 29.484C172.651 29.6111 170.68 30.2268 168.831 32.1817C169.013 31.8396 169.569 30.7155 169.68 30.5005C168.533 30.6199 167.421 30.9517 166.405 31.4779C164.757 32.4553 163.373 33.7162 161.776 34.8207C159.522 36.4139 157.258 38.0169 154.933 39.5319C152.032 41.4379 148.929 43.0701 146.18 45.1618C143.077 47.537 140.287 50.2933 137.346 52.8639C136.456 53.6458 135.486 54.3594 134.597 55.1315C131.079 58.1811 127.592 61.2502 124.075 64.29C123.974 64.3877 120.294 67.4568 116.777 70.3793C116.272 69.8124 115.099 69.7147 115.544 68.2192C115.696 67.7012 114.745 66.7531 114.119 66.1764C113.657 65.8125 113.139 65.5221 112.583 65.3163C112.209 63.8208 111.936 62.6968 111.572 61.172C111.966 60.5367 112.583 59.4811 113.3 58.4548C113.495 58.1643 113.741 57.9095 114.028 57.7021C114.806 58.2495 115.12 57.7021 115.625 57.2428C116.303 56.668 117.033 56.1543 117.808 55.7082C117.343 54.2518 116.919 52.8835 116.433 51.3782L119.86 50.5865C119.86 50.4106 119.86 50.2346 119.86 50.0587L111.845 49.6384C111.612 48.8174 111.39 47.9963 111.137 47.058L116.959 47.5956L115.332 44.0867C114.756 44.4776 114.321 44.7709 113.694 45.2302C113.432 43.6273 113.199 42.2198 112.987 40.8709C115.352 39.092 115.352 39.0041 113.189 37.7236C113.937 35.7688 114.847 33.814 113.361 31.5659C115.524 31.4682 116.12 29.2983 118.121 29.1712C118.364 29.1255 118.59 29.0218 118.781 28.8695C118.971 28.7172 119.118 28.5213 119.21 28.2995C119.301 28.0778 119.334 27.8374 119.304 27.6003C119.275 27.3633 119.184 27.1372 119.041 26.9427L117.808 27.2457C117.464 26.5126 117.212 25.9555 116.979 25.4472L120.264 22.9255C120.264 21.4203 119.506 19.9932 120.264 18.3218C120.658 17.4617 120.102 16.1813 119.941 15.0963C119.792 14.6087 119.796 14.0893 119.953 13.6039C120.109 13.1184 120.411 12.6888 120.82 12.3693C121.942 11.6167 121.831 10.7957 121.346 9.74007C121.012 9.01678 120.497 7.70704 120.78 7.47246C122.67 5.91836 121.164 4.06126 121.73 2.27258C120.005 1.68503 118.234 1.23394 116.433 0.923738C112.016 0.483898 107.579 0.249314 103.152 0.00495916C101.707 -0.0732345 101.05 0.777124 100.979 2.28235C100.908 3.78758 100.787 5.56649 100.575 7.16946C100.251 9.63256 99.7459 12.0566 99.4629 14.5392C98.25 25.1149 97.0979 35.7102 95.885 46.2859C95.2987 51.388 94.6417 56.4901 93.9848 61.5825C93.54 64.9253 92.974 68.2583 92.5596 71.6206V71.7086C83.4628 62.2178 75.4577 53.724 72.3446 49.9219C65.6332 41.6236 58.9522 33.2568 51.038 25.9359C48.2686 23.3751 45.772 20.5113 42.2546 18.273C42.1636 21.2052 39.5155 22.6616 38.9899 25.0563C38.1516 29.1869 36.1309 33.007 33.1578 36.0816C31.0757 38.2319 31.2273 39.9913 33.5116 42.0536C42.204 49.7948 49.4107 58.8164 57.0722 67.4666C58.6388 69.2357 65.6838 76.6446 73.8708 85.1872C68.2814 84.3173 62.7526 83.379 57.1631 82.255C47.7025 80.3001 38.4542 77.3679 29.1857 74.6995C27.8515 74.3183 25.8299 72.4808 26.0018 71.7086C26.4566 69.6658 27.4168 67.7989 24.991 66.5771C23.111 65.6681 20.948 64.7103 18.9265 64.7982C14.4695 65.1139 10.035 65.6785 5.64528 66.4892C2.38056 67.0072 0.338836 68.9229 0.0760416 72.2071C-0.196861 75.6671 0.0760417 78.922 4.11904 80.4956C6.97946 81.5806 9.70852 82.9489 12.4982 84.1805C19.1792 87.1127 25.6379 90.6901 32.6121 92.8404C41.1226 95.4795 50.0172 96.9652 58.7602 98.9005C63.7331 99.9952 68.6857 101.227 73.6687 102.253C63.5612 103.602 53.4537 105.283 43.4271 107.052C29.499 109.496 16.7635 114.696 4.66488 121.518C2.64338 122.652 -0.0149258 124.323 0.834103 127.187C1.68313 130.051 4.73559 129.787 7.15128 129.445C10.467 128.937 13.7504 128.248 16.9859 127.383C35.9172 122.495 55.1518 119.563 74.5278 117.393C72.8803 119.192 71.2631 121.019 69.6762 122.857C67.0988 125.789 64.6225 128.839 62.0249 131.82C61.6004 132.318 61.0142 132.709 60.6604 133.237C58.5378 136.238 56.4557 139.268 54.323 142.269C52.3924 144.996 50.4517 147.713 48.4404 150.371C48.0462 150.889 47.0455 151.026 46.7726 151.554C45.3373 154.262 44.0638 157.057 42.7296 159.804C41.7188 161.934 40.3544 163.967 39.5155 166.176C38.4813 168.717 37.7489 171.363 37.3322 174.064C36.8875 177.602 39.6974 179.205 42.386 180.906C43.3017 181.524 44.4033 181.832 45.5188 181.78C46.6342 181.729 47.7006 181.322 48.5515 180.623C52.1132 178.097 55.4656 175.306 58.5782 172.275C61.8025 169.177 64.1879 165.326 67.1999 162.081C70.6365 158.386 72.2536 153.822 74.9725 149.795C76.4179 147.635 77.7117 145.367 79.1773 143.217C81.0573 140.47 83.1191 137.841 84.9486 135.065C86.677 132.446 88.2134 129.719 89.8104 127.021C90.9828 125.066 92.0845 123.013 93.2772 121.039C94.1503 119.5 95.1051 118.006 96.1377 116.562C96.1377 117.1 96.0568 117.638 96.0063 118.165C94.5407 135.485 92.8021 152.786 91.6701 170.135C91.2052 177.26 91.8116 184.493 92.4079 191.638C92.7264 194.303 93.7193 196.851 95.2987 199.057C97.3202 201.891 101.788 202.097 104.395 199.907C106.852 197.874 106.164 195.89 104.284 193.74C100.625 189.586 101.919 184.581 102.536 179.978C104.709 163.616 107.044 147.273 109.389 130.931C109.469 131.057 109.568 131.172 109.682 131.273C110.986 132.387 110.763 135.28 113.725 134.498C114.473 136.453 116.221 137.362 118.081 138.134C118.169 138.177 118.247 138.237 118.311 138.31C118.374 138.383 118.422 138.468 118.451 138.559C118.48 138.65 118.49 138.746 118.481 138.841C118.471 138.936 118.442 139.028 118.394 139.112C117.384 140.734 118.95 141.154 119.678 142.142C121.194 144.175 123.721 144.096 125.571 145.377C125.515 145.598 125.515 145.83 125.571 146.051C124.893 146.423 123.822 146.843 124.823 147.684C126.137 148.778 127.218 150.147 129.048 150.714C131.665 151.544 132.898 153.939 134.455 155.904C134.96 156.539 134.859 157.966 134.354 158.074C131.676 158.66 133.606 159.931 134.101 160.341C135.506 161.514 137.134 162.345 137.599 164.378C137.76 165.091 138.963 165.091 139.751 165.277C140.54 165.463 141.399 164.945 142.127 165.521C142.632 165.932 143.309 166.43 142.248 166.919C141.733 167.154 140.752 166.919 141.561 167.897C142.369 168.874 142.854 170.311 144.664 169.93C145.341 169.783 146.392 169.93 146.352 170.594C146.2 172.901 149.252 172.129 149.141 172.764C148.707 175.305 150.708 174.553 151.8 175.227C152.891 175.902 153.639 177.446 155.095 177.984C155.287 178.58 155.772 178.814 156.267 178.531C156.762 178.248 156.439 177.984 156.014 177.886C156.004 177.64 156.025 177.394 156.075 177.153C157.53 176.723 157.945 177.749 158.4 178.707C157.904 179.342 156.54 179.02 156.59 180.144C156.59 180.593 157.237 180.828 157.773 180.847C158.531 180.975 159.623 181.629 159.956 180.847C160.29 180.066 159.158 180.241 158.612 180.105C158.935 179.723 159.532 179.469 159.36 178.814C159.421 176.566 158.076 176.029 156.075 176.263C155.832 173.693 152.81 173.409 151.85 171.435C152.507 170.751 152.628 169.656 153.609 169.216C156.358 171.366 158.845 174.103 162.989 173.468C161.978 172.715 161.22 171.845 161.715 170.536C161.927 169.969 162.584 169.343 161.584 168.962C159.653 168.239 160.704 166.45 160.088 165.267C160.239 163.625 160.361 162.003 158.491 161.094C158.53 160.838 158.492 160.576 158.38 160.341C158.38 158.64 157.288 158.67 156.035 158.914C156.099 158.594 156.047 158.262 155.887 157.975C155.726 157.688 155.468 157.464 155.155 157.34C154.962 157.18 154.713 157.096 154.458 157.106C154.503 156.999 154.504 156.88 154.461 156.773C154.417 156.665 154.333 156.578 154.225 156.529C154.225 155.865 155.57 154.78 153.68 154.721C152.669 154.721 152.831 153.392 151.87 153.489C149.765 151.487 147.865 149.29 146.2 146.931C144.785 144.976 143.542 144.145 141.278 144.448C141.278 143.94 141.187 143.471 141.136 142.914C141.085 142.538 140.903 142.189 140.62 141.927C140.337 141.664 139.97 141.502 139.58 141.467L137.932 140.392L138.943 139.708C139.398 139.708 140.237 140.05 140.227 139.483C140.227 138.613 139.337 139.151 138.822 139.121C138.822 138.838 138.822 138.564 138.822 138.291C139.832 136.385 139.832 136.336 137.225 135.202L135.718 134.791L135.496 133.452L133.889 131.986L134.02 131.908C134.094 131.684 134.211 131.475 134.364 131.292L134.02 131.908C134.134 131.898 134.243 131.861 134.338 131.8C134.433 131.74 134.511 131.658 134.566 131.562C134.621 131.465 134.65 131.357 134.652 131.247C134.654 131.137 134.628 131.029 134.576 130.931L133.171 129.445C133.091 129.201 133 128.956 132.909 128.712C133 128.492 133 128.247 132.909 128.028C132.953 127.826 132.92 127.616 132.816 127.436C132.712 127.256 132.543 127.119 132.343 127.05C131.332 126.073 130.867 124.392 128.926 124.734L128.775 123.952C128.562 123.05 128.109 122.218 127.461 121.538C127.178 121.215 126.895 120.892 126.602 120.56C126.562 119.776 126.248 119.028 125.712 118.439L125.52 118.292H125.662V118.449C125.016 116.693 124.239 114.984 123.337 113.337C128.775 114.744 133.596 115.859 133.545 115.741C158.642 122.583 179.13 136.414 201.72 146.432C202.044 144.424 201.835 142.37 201.114 140.46C196.79 131.153 190.28 122.95 182.102 116.504ZM113.239 51.7203L114.968 52.4925L113.543 53.4699C113.32 53.3331 113.058 53.2451 113.058 53.1669C113.093 52.682 113.153 52.1992 113.239 51.7203ZM117.606 22.5541L115.099 25.4863L114.089 21.8797L117.606 22.5541ZM64.7943 148.817C63.5322 150.67 62.1194 152.421 60.5693 154.056C60.3012 154.267 59.9865 154.414 59.6496 154.486V154.604L59.5284 154.672C58.4081 157.865 56.512 160.751 53.9995 163.088C53.9995 162.11 53.8479 161.583 53.9995 161.231C55.3337 158.66 56.7387 156.119 59.498 154.672C59.5023 154.623 59.5023 154.574 59.498 154.526H59.6193C60.0889 153.08 60.6735 151.671 61.3679 150.313C62.6111 148.172 64.107 146.159 65.4917 144.096L66.1386 144.302C65.7343 145.826 65.5928 147.488 64.7943 148.817ZM109.267 69.9981L110.51 71.5424C112.956 70.2229 113.017 70.2034 114.281 72.5883L113.27 73.38C112.097 73.4386 111.087 71.474 109.894 72.5785L108.883 70.2425C108.992 70.1535 109.107 70.0718 109.227 69.9981H109.267Z" fill="black"/>
</g>
<path d="M14.5718 242.408C12.8492 242.408 11.3985 242.136 10.2198 241.592C9.04116 241.025 7.98716 240.232 7.05783 239.212L10.0158 236.22C10.6505 236.923 11.3532 237.478 12.1238 237.886C12.8945 238.294 13.7672 238.498 14.7418 238.498C15.7392 238.498 16.4305 238.351 16.8158 238.056C17.2012 237.739 17.3938 237.319 17.3938 236.798C17.3938 235.959 16.7932 235.461 15.5918 235.302L13.6538 235.064C9.64183 234.565 7.63583 232.729 7.63583 229.556C7.63583 228.695 7.79449 227.913 8.11183 227.21C8.45183 226.485 8.91649 225.873 9.50583 225.374C10.1178 224.853 10.8432 224.456 11.6818 224.184C12.5432 223.889 13.5065 223.742 14.5718 223.742C15.5012 223.742 16.3172 223.81 17.0198 223.946C17.7452 224.059 18.3798 224.241 18.9238 224.49C19.4905 224.717 20.0005 225.011 20.4538 225.374C20.9298 225.714 21.3945 226.099 21.8478 226.53L18.9578 229.488C18.3912 228.921 17.7452 228.479 17.0198 228.162C16.3172 227.822 15.5918 227.652 14.8438 227.652C13.9825 227.652 13.3705 227.788 13.0078 228.06C12.6452 228.332 12.4638 228.695 12.4638 229.148C12.4638 229.624 12.5885 229.998 12.8378 230.27C13.1098 230.519 13.6085 230.701 14.3338 230.814L16.3398 231.086C20.2612 231.607 22.2218 233.398 22.2218 236.458C22.2218 237.319 22.0405 238.113 21.6778 238.838C21.3152 239.563 20.7938 240.198 20.1138 240.742C19.4565 241.263 18.6518 241.671 17.6998 241.966C16.7705 242.261 15.7278 242.408 14.5718 242.408ZM36.1926 239.008H36.0226C35.864 239.461 35.6486 239.892 35.3766 240.3C35.1273 240.708 34.7986 241.071 34.3906 241.388C33.9826 241.705 33.4953 241.955 32.9286 242.136C32.3846 242.317 31.75 242.408 31.0246 242.408C29.1886 242.408 27.7946 241.807 26.8426 240.606C25.9133 239.382 25.4486 237.637 25.4486 235.37V224.15H30.4806V234.928C30.4806 236.016 30.6733 236.855 31.0586 237.444C31.444 238.033 32.1013 238.328 33.0306 238.328C33.416 238.328 33.8013 238.271 34.1866 238.158C34.572 238.045 34.912 237.886 35.2066 237.682C35.5013 237.455 35.7393 237.183 35.9206 236.866C36.102 236.549 36.1926 236.175 36.1926 235.744V224.15H41.2246V242H36.1926V239.008ZM45.9065 224.15H50.9385V227.142H51.1085C51.3579 226.145 51.9245 225.329 52.8085 224.694C53.7152 224.059 54.7465 223.742 55.9025 223.742C58.1692 223.742 59.8805 224.535 61.0365 226.122C62.1925 227.709 62.7705 230.021 62.7705 233.058C62.7705 236.095 62.1925 238.419 61.0365 240.028C59.8805 241.615 58.1692 242.408 55.9025 242.408C55.3132 242.408 54.7579 242.317 54.2365 242.136C53.7152 241.977 53.2392 241.751 52.8085 241.456C52.4005 241.139 52.0492 240.776 51.7545 240.368C51.4599 239.937 51.2445 239.484 51.1085 239.008H50.9385V248.8H45.9065V224.15ZM54.2365 238.328C55.1885 238.328 55.9705 237.999 56.5825 237.342C57.2172 236.662 57.5345 235.755 57.5345 234.622V231.528C57.5345 230.395 57.2172 229.499 56.5825 228.842C55.9705 228.162 55.1885 227.822 54.2365 227.822C53.2845 227.822 52.4912 228.06 51.8565 228.536C51.2445 228.989 50.9385 229.624 50.9385 230.44V235.71C50.9385 236.526 51.2445 237.172 51.8565 237.648C52.4912 238.101 53.2845 238.328 54.2365 238.328ZM74.0381 242.408C72.6781 242.408 71.4654 242.193 70.4001 241.762C69.3348 241.309 68.4281 240.685 67.6801 239.892C66.9548 239.076 66.3994 238.09 66.0141 236.934C65.6514 235.778 65.4701 234.486 65.4701 233.058C65.4701 231.653 65.6514 230.383 66.0141 229.25C66.3768 228.094 66.9094 227.108 67.6121 226.292C68.3374 225.476 69.2214 224.853 70.2641 224.422C71.3068 223.969 72.4968 223.742 73.8341 223.742C75.3074 223.742 76.5654 223.991 77.6081 224.49C78.6734 224.989 79.5348 225.657 80.1921 226.496C80.8721 227.335 81.3594 228.309 81.6541 229.42C81.9714 230.508 82.1301 231.653 82.1301 232.854V234.35H70.6721V234.622C70.6721 235.801 70.9894 236.741 71.6241 237.444C72.2588 238.124 73.2561 238.464 74.6161 238.464C75.6588 238.464 76.5088 238.26 77.1661 237.852C77.8234 237.421 78.4354 236.911 79.0021 236.322L81.5181 239.45C80.7248 240.379 79.6821 241.105 78.3901 241.626C77.1208 242.147 75.6701 242.408 74.0381 242.408ZM73.9361 227.448C72.9161 227.448 72.1114 227.788 71.5221 228.468C70.9554 229.125 70.6721 230.009 70.6721 231.12V231.392H76.9281V231.086C76.9281 229.998 76.6788 229.125 76.1801 228.468C75.7041 227.788 74.9561 227.448 73.9361 227.448ZM85.6839 242V224.15H90.7159V228.026H90.8859C90.9766 227.527 91.1352 227.051 91.3619 226.598C91.5886 226.122 91.8832 225.703 92.2459 225.34C92.6312 224.977 93.0846 224.694 93.6059 224.49C94.1272 224.263 94.7392 224.15 95.4419 224.15H96.3259V228.842H95.0679C93.5946 228.842 92.4952 229.035 91.7699 229.42C91.0672 229.805 90.7159 230.519 90.7159 231.562V242H85.6839ZM99.43 216.84H104.462V227.142H104.632C104.881 226.145 105.448 225.329 106.332 224.694C107.239 224.059 108.27 223.742 109.426 223.742C111.693 223.742 113.404 224.535 114.56 226.122C115.716 227.709 116.294 230.021 116.294 233.058C116.294 236.095 115.716 238.419 114.56 240.028C113.404 241.615 111.693 242.408 109.426 242.408C108.837 242.408 108.281 242.317 107.76 242.136C107.239 241.977 106.763 241.751 106.332 241.456C105.924 241.139 105.573 240.776 105.278 240.368C104.983 239.937 104.768 239.484 104.632 239.008H104.462V242H99.43V216.84ZM107.76 238.328C108.712 238.328 109.494 237.999 110.106 237.342C110.741 236.662 111.058 235.755 111.058 234.622V231.528C111.058 230.395 110.741 229.499 110.106 228.842C109.494 228.162 108.712 227.822 107.76 227.822C106.808 227.822 106.015 228.06 105.38 228.536C104.768 228.989 104.462 229.624 104.462 230.44V235.71C104.462 236.526 104.768 237.172 105.38 237.648C106.015 238.101 106.808 238.328 107.76 238.328ZM125.114 242C123.391 242 122.122 241.581 121.306 240.742C120.512 239.903 120.116 238.691 120.116 237.104V216.84H125.148V238.09H127.392V242H125.114ZM137.651 242.408C136.336 242.408 135.157 242.193 134.115 241.762C133.095 241.331 132.222 240.708 131.497 239.892C130.794 239.076 130.25 238.09 129.865 236.934C129.479 235.778 129.287 234.486 129.287 233.058C129.287 231.63 129.479 230.338 129.865 229.182C130.25 228.026 130.794 227.051 131.497 226.258C132.222 225.442 133.095 224.819 134.115 224.388C135.157 223.957 136.336 223.742 137.651 223.742C138.965 223.742 140.133 223.957 141.153 224.388C142.195 224.819 143.068 225.442 143.771 226.258C144.496 227.051 145.051 228.026 145.437 229.182C145.822 230.338 146.014 231.63 146.014 233.058C146.014 234.486 145.822 235.778 145.437 236.934C145.051 238.09 144.496 239.076 143.771 239.892C143.068 240.708 142.195 241.331 141.153 241.762C140.133 242.193 138.965 242.408 137.651 242.408ZM137.651 238.43C138.648 238.43 139.419 238.124 139.963 237.512C140.507 236.9 140.779 236.027 140.779 234.894V231.256C140.779 230.123 140.507 229.25 139.963 228.638C139.419 228.026 138.648 227.72 137.651 227.72C136.653 227.72 135.883 228.026 135.339 228.638C134.795 229.25 134.523 230.123 134.523 231.256V234.894C134.523 236.027 134.795 236.9 135.339 237.512C135.883 238.124 136.653 238.43 137.651 238.43ZM156.842 242.408C155.527 242.408 154.349 242.193 153.306 241.762C152.286 241.331 151.413 240.708 150.688 239.892C149.985 239.076 149.441 238.09 149.056 236.934C148.671 235.778 148.478 234.486 148.478 233.058C148.478 231.63 148.671 230.338 149.056 229.182C149.441 228.026 149.985 227.051 150.688 226.258C151.413 225.442 152.286 224.819 153.306 224.388C154.349 223.957 155.527 223.742 156.842 223.742C158.157 223.742 159.324 223.957 160.344 224.388C161.387 224.819 162.259 225.442 162.962 226.258C163.687 227.051 164.243 228.026 164.628 229.182C165.013 230.338 165.206 231.63 165.206 233.058C165.206 234.486 165.013 235.778 164.628 236.934C164.243 238.09 163.687 239.076 162.962 239.892C162.259 240.708 161.387 241.331 160.344 241.762C159.324 242.193 158.157 242.408 156.842 242.408ZM156.842 238.43C157.839 238.43 158.61 238.124 159.154 237.512C159.698 236.9 159.97 236.027 159.97 234.894V231.256C159.97 230.123 159.698 229.25 159.154 228.638C158.61 228.026 157.839 227.72 156.842 227.72C155.845 227.72 155.074 228.026 154.53 228.638C153.986 229.25 153.714 230.123 153.714 231.256V234.894C153.714 236.027 153.986 236.9 154.53 237.512C155.074 238.124 155.845 238.43 156.842 238.43ZM168.791 242V224.15H173.823V227.176H174.027C174.345 226.224 174.889 225.419 175.659 224.762C176.43 224.082 177.484 223.742 178.821 223.742C180.045 223.742 181.088 224.048 181.949 224.66C182.811 225.272 183.434 226.167 183.819 227.346H183.921C184.08 226.847 184.318 226.383 184.635 225.952C184.975 225.499 185.383 225.113 185.859 224.796C186.335 224.479 186.868 224.229 187.457 224.048C188.047 223.844 188.681 223.742 189.361 223.742C191.084 223.742 192.399 224.354 193.305 225.578C194.235 226.802 194.699 228.547 194.699 230.814V242H189.667V231.222C189.667 228.955 188.851 227.822 187.219 227.822C186.471 227.822 185.791 228.037 185.179 228.468C184.567 228.899 184.261 229.556 184.261 230.44V242H179.229V231.222C179.229 228.955 178.413 227.822 176.781 227.822C176.419 227.822 176.056 227.879 175.693 227.992C175.353 228.083 175.036 228.241 174.741 228.468C174.469 228.695 174.243 228.978 174.061 229.318C173.903 229.635 173.823 230.009 173.823 230.44V242H168.791Z" fill="black"/>
<defs>
<clipPath id="clip0_209_19">
<rect width="203" height="202" fill="white"/>
</clipPath>
</defs>
</svg>
