<svg width="196" height="78" viewBox="0 0 196 78" fill="none" xmlns="http://www.w3.org/2000/svg">
<path d="M139.857 52.2V52.96H147.897V52.2L146.137 51.12V24H139.537V24.76L141.697 25.88V51.12L139.857 52.2Z" fill="#F1F1F1"/>
<path d="M149.737 52.2V52.96H158.177V52.2L156.177 51.16L150.217 40.72L154.137 36.04L156.937 34.76V34H150.057V34.76L152.057 35.92L146.457 42.88L151.217 51.2L149.737 52.2Z" fill="#F1F1F1"/>
<path fill-rule="evenodd" clip-rule="evenodd" d="M157.713 43.24C157.713 50.28 160.993 53.44 165.833 53.44C168.953 53.44 170.873 51.8 172.193 49.32L172.073 48.08H171.513C169.993 50.2 168.513 51.24 166.633 51.24C164.753 51.24 163.433 49.96 162.873 47.96C162.633 47.12 162.393 45.52 162.393 43.6V42.8L172.353 43.04V41.96C172.353 36.64 169.833 33.48 165.593 33.48C161.073 33.48 157.713 37.4 157.713 43.24ZM167.913 41.28L162.433 41.56C162.433 40.64 162.593 38.84 162.793 37.76C163.153 36.24 163.873 34.84 165.313 34.84C166.873 34.84 167.473 36.2 167.713 37.8C167.833 38.8 167.913 40.4 167.913 41.28Z" fill="#F1F1F1"/>
<path fill-rule="evenodd" clip-rule="evenodd" d="M127.828 53.4C125.308 53.4 123.028 52.2 123.028 48.32C123.028 42.84 128.148 41.44 132.628 41.44V38.04C132.628 36.24 131.668 34.92 129.868 34.92C128.388 35.08 127.068 36.12 126.268 37.44L125.268 40.2H124.388V35.12C125.388 34.48 127.828 33.44 130.428 33.44C135.308 33.44 137.068 35.56 137.068 37.8V51.12L138.868 52.2V52.96H132.748V50.64C131.588 52.48 129.868 53.4 127.828 53.4ZM129.788 50.96C131.148 50.96 132.188 50.04 132.628 49.2V42.68C129.228 42.8 127.508 44.24 127.508 47.6C127.508 50.12 128.268 51 129.788 50.96Z" fill="#F1F1F1"/>
<path d="M108.623 52C109.943 52.68 112.183 53.4 114.823 53.4C118.903 53.4 121.343 50.52 121.343 47.24C121.343 43.36 119.023 42 115.583 40.92C113.543 40.16 111.863 39.4 111.863 37.36C111.863 35.88 112.903 34.84 114.863 34.84C116.543 35.16 117.583 36.04 118.543 37.44L119.423 39.84H120.223V34.68C119.103 34.08 117.463 33.44 114.943 33.44C111.463 33.44 108.863 35.76 108.863 39.32C108.863 43.12 111.383 44.56 113.863 45.32C116.703 46.28 118.263 47 118.263 49.08C118.263 50.92 116.823 52 114.943 52C113.223 52 111.503 50.68 110.503 49.24L109.503 46.36H108.623V52Z" fill="#F1F1F1"/>
<path fill-rule="evenodd" clip-rule="evenodd" d="M100.091 53.44C95.2506 53.44 91.9706 50.28 91.9706 43.24C91.9706 37.4 95.3306 33.48 99.8506 33.48C104.091 33.48 106.611 36.64 106.611 41.96V43.04L96.6506 42.8V43.6C96.6506 45.52 96.8906 47.12 97.1306 47.96C97.6906 49.96 99.0106 51.24 100.891 51.24C102.771 51.24 104.251 50.2 105.771 48.08H106.331L106.451 49.32C105.131 51.8 103.211 53.44 100.091 53.44ZM96.6906 41.56L102.171 41.28C102.171 40.4 102.091 38.8 101.971 37.8C101.731 36.2 101.131 34.84 99.5706 34.84C98.1306 34.84 97.4106 36.24 97.0506 37.76C96.8506 38.84 96.6906 40.64 96.6906 41.56Z" fill="#F1F1F1"/>
<path d="M63.1797 52.2V52.96H71.2197V52.2L69.4597 51.12V38.6C70.0197 37.52 71.2997 36.24 72.6997 36.24C74.0997 36.24 74.7797 37 74.7797 38.48V51.12L73.0597 52.2V52.96H80.9797V52.2L79.2197 51.12V38.56C79.8197 37.44 81.0597 36.24 82.4597 36.24C83.8597 36.24 84.5797 37 84.5797 38.48V51.12L82.8197 52.2V52.96H90.8197V52.2L88.9797 51.12V37.88C88.9797 35.32 86.8997 33.52 84.4197 33.52C82.0997 33.52 80.6197 34.68 79.1397 36.88C78.6997 35.08 77.0197 33.52 74.5797 33.52C72.2197 33.52 70.8197 34.76 69.4197 36.88V34H63.0997V34.76L65.0197 35.84V51.12L63.1797 52.2Z" fill="#F1F1F1"/>
<path fill-rule="evenodd" clip-rule="evenodd" d="M51.0313 53.4C48.5113 53.4 46.2313 52.2 46.2313 48.32C46.2313 42.84 51.3513 41.44 55.8313 41.44V38.04C55.8313 36.24 54.8713 34.92 53.0713 34.92C51.5913 35.08 50.2713 36.12 49.4713 37.44L48.4713 40.2H47.5913V35.12C48.5913 34.48 51.0313 33.44 53.6313 33.44C58.5113 33.44 60.2713 35.56 60.2713 37.8V51.12L62.0713 52.2V52.96H55.9513V50.64C54.7913 52.48 53.0713 53.4 51.0313 53.4ZM52.9913 50.96C54.3513 50.96 55.3913 50.04 55.8313 49.2V42.68C52.4313 42.8 50.7113 44.24 50.7113 47.6C50.7113 50.12 51.4713 51 52.9913 50.96Z" fill="#F1F1F1"/>
<path d="M28.36 28.4L40.64 53.2H42.84V27.28L45.44 26.04V25.24H38.48V26.04L41.12 27.28V43.4L32 25.24H24.04V26.04L26.64 27.2V50.92L24 52.16V52.96H31V52.16L28.36 50.92V28.4Z" fill="#F1F1F1"/>
</svg>
