<svg width="196" height="110" viewBox="0 0 196 110" fill="none" xmlns="http://www.w3.org/2000/svg">
<path fill-rule="evenodd" clip-rule="evenodd" d="M154.359 48.1868C154.675 48.0477 154.888 47.8314 154.966 47.5542C155.121 47.0088 154.744 46.4501 153.845 45.8945C153.039 45.3965 151.837 45.2304 150.674 45.0696L150.666 45.0686C150.005 44.9774 149.379 44.891 148.898 44.7519C147.765 44.4234 146.63 44.0077 145.533 43.6053L145.512 43.5975C145.166 43.471 144.791 43.3554 144.393 43.2336L144.389 43.2325C142.76 42.7306 140.915 42.1622 140.57 40.6404C140.455 40.1351 140.608 39.5473 140.769 38.9257C140.894 38.4487 141.022 37.9544 141.032 37.4648C141.049 36.6326 140.77 35.9088 140.5 35.2079C140.267 34.6059 140.048 34.037 140.047 33.4602C140.046 32.607 140.479 31.8275 140.953 31.1211C139.153 33.1892 139.404 33.9839 139.88 35.4905C140.091 36.1591 140.346 36.9678 140.487 38.0903C140.501 38.6835 140.426 39.2701 140.352 39.8563C140.305 40.2261 140.258 40.5956 140.233 40.9665C140.256 41.9488 140.008 42.649 139.044 41.8372C138.593 41.4779 138.31 40.9564 138.032 40.4435C137.885 40.171 137.738 39.9009 137.569 39.6589C137.379 39.421 137.11 39.4494 136.836 39.4782C136.679 39.4947 136.521 39.5113 136.376 39.4781C135.696 39.2141 134.685 39.2133 134.182 39.8207C134.122 39.9072 134.078 40.0092 134.035 40.1111C133.941 40.3295 133.848 40.5477 133.593 40.6137C132.056 40.7803 132.51 41.2643 133.617 41.7201C135.269 42.1805 136.936 42.6009 138.603 43.0216C141.895 43.8518 145.191 44.6832 148.388 45.8253C148.714 45.9561 149.371 46.113 150.135 46.2955C152.088 46.7621 154.741 47.3959 154.359 48.1868ZM141.632 30.272C141.643 30.2613 141.655 30.2504 141.666 30.2396L141.679 30.228C142.02 29.9105 142.406 29.5498 142.508 28.999C142.573 28.6521 142.332 28.3797 142.137 28.1598L142.136 28.1589C142.101 28.1204 142.057 28.0693 142.022 28.0269C142.087 27.8327 142.191 27.635 142.325 27.4354C142.046 27.5562 141.757 27.6588 141.469 27.7616C140.77 28.0103 140.069 28.2597 139.489 28.7695C138.033 29.7086 136.568 30.6602 135.133 31.6331C134.476 32.0098 134.487 32.379 134.502 32.8573C134.505 32.9746 134.509 33.0985 134.503 33.2307C134.383 33.3644 134.17 33.3172 133.945 33.2671C133.741 33.2218 133.527 33.1741 133.361 33.2559C132.856 33.601 133.38 33.9292 133.806 34.1957C133.981 34.3054 134.14 34.4047 134.203 34.4904C134.292 34.615 134.282 34.7528 134.271 34.9018C134.26 35.0544 134.247 35.2188 134.34 35.3925C135.223 36.7387 136.488 36.4456 137.169 35.0821C137.302 34.9197 137.45 34.7691 137.598 34.6187C137.917 34.2942 138.236 33.9707 138.399 33.5309C138.506 33.2261 138.579 32.9284 138.649 32.638C138.824 31.9215 138.988 31.2502 139.626 30.6312C139.703 30.5527 139.78 30.4703 139.859 30.3865C140.271 29.9481 140.719 29.4708 141.273 29.3164C141.931 29.239 141.872 29.8014 141.632 30.272ZM148.623 22.0909C149.06 21.6351 149.327 21.1804 149.229 20.7202C149.143 20.3186 148.812 20.0412 148.248 19.8942C148.139 19.866 148.022 19.8518 147.9 19.8518C146.691 19.8518 145.025 21.22 143.129 22.8734L143.095 22.9034C142.673 23.2702 142.31 23.5861 142.074 23.7606C140.539 24.889 138.988 26.0435 137.479 27.1662L137.167 27.3982L136.965 27.5487C136.503 27.8932 136.04 28.2381 135.576 28.5825C135.302 28.7863 135.042 28.9844 134.79 29.1769L134.75 29.2072C133.008 30.5376 131.75 31.4987 129.483 31.6205C128.224 31.6881 126.76 31.7612 125.325 31.7612C124.233 31.7612 123.282 31.7195 122.419 31.6355C121.304 31.5266 120.171 31.2928 119.074 31.0664L119.064 31.0641C117.599 30.7608 116.083 30.4473 114.54 30.4103C113.498 30.3844 112.969 30.3538 112.617 30.1809C112.279 30.0148 112.01 29.6638 111.474 28.9668L111.469 28.9597C111.433 28.914 111.397 28.8669 111.36 28.8185C111.307 28.7493 111.251 28.6773 111.194 28.6029C109.951 26.9998 108.504 26.1236 106.971 25.1963C106.594 24.9684 106.204 24.7319 105.811 24.4812C105.159 24.0661 104.575 23.552 103.956 23.0079L103.95 23.0022C102.897 22.0757 101.807 21.117 100.367 20.6864C100.192 20.6345 100.032 20.6086 99.8783 20.6086C99.6477 20.6086 99.4781 20.6665 99.354 20.7089L99.3534 20.7092L99.3489 20.7106C99.2716 20.7364 99.2285 20.7508 99.1884 20.7508C99.1616 20.7508 99.1286 20.7445 99.0901 20.7335C98.6273 20.596 98.1338 20.3068 97.612 20.0003L97.6091 19.9987C97.1605 19.7351 96.6963 19.4624 96.2257 19.2781C93.6561 18.2715 91.1477 17.3513 88.7171 17.1627C87.3033 17.0534 86.0122 17 84.7706 17C80.6756 17 77.089 17.6098 73.8058 18.8648C68.9784 20.7092 65.0319 23.9382 62.3915 28.2021C61.2886 29.9836 59.9895 30.0723 58.0232 30.2066L58.0206 30.2068L58.002 30.2081C57.5598 30.2383 57.1022 30.2696 56.6124 30.3231C54.9567 30.5054 53.3284 30.8661 51.7536 31.215C50.6919 31.4508 49.5941 31.6936 48.5065 31.8775C48.2119 31.9274 47.7773 31.9667 47.2729 32.0124L47.2358 32.0158L47.233 32.0161C44.9268 32.2243 41.7708 32.5092 41.1094 34.2743C40.7821 35.1452 41.19 35.9933 42.3216 36.7968C41.5672 35.3036 41.7879 34.0565 43.9714 34.7104C44.113 34.6069 44.1216 34.4505 44.1307 34.2858C44.1451 34.0254 44.1606 33.7444 44.7046 33.6197C46.9592 33.0468 49.3481 32.7804 51.6616 32.9117C51.8614 32.922 51.9829 33.0048 52.0916 33.0791C52.1904 33.1465 52.2787 33.2067 52.4058 33.1993C52.5631 33.0495 52.6612 32.9239 52.7349 32.8295C52.9458 32.5594 52.9572 32.5448 53.5862 32.9502C53.7414 32.9644 53.829 32.7785 53.9003 32.6272C53.9156 32.5947 53.9302 32.5638 53.9445 32.5368C54.2528 31.9368 54.6602 32.3044 55.1041 32.7049C55.2725 32.8568 55.446 33.0134 55.6215 33.1238C55.7284 33.226 56.2156 33.5309 56.0733 33.1678C55.5529 31.7719 55.8792 32.0256 56.4328 32.4559C56.9333 32.8449 57.6195 33.3783 58.034 32.9682C58.2742 32.8427 58.3776 32.5847 58.4757 32.3401C58.5625 32.1236 58.645 31.9177 58.8143 31.8233C59.4438 31.5883 60.5738 32.5014 60.4025 33.1702C60.2903 33.3205 60.1078 33.2977 59.9236 33.2746C59.7466 33.2525 59.5679 33.2302 59.4485 33.3612C59.3564 33.4508 59.3064 33.6017 59.257 33.7511C59.1989 33.9266 59.1415 34.1002 59.0171 34.1698C58.9061 34.2227 58.7845 34.1817 58.6651 34.1414C58.547 34.1016 58.4311 34.0624 58.3295 34.1156C58.1817 34.312 58.3664 34.6366 58.4843 34.8244C59.3444 35.5228 59.9296 34.6583 60.5248 33.779C60.9248 33.188 61.3293 32.5904 61.8249 32.4559C62.239 32.2146 62.2781 31.7917 62.317 31.3698C62.3299 31.2297 62.3428 31.0897 62.3695 30.9565C62.6312 30.1652 62.863 29.461 62.9565 28.6469C64.6649 25.4611 67.8955 23.1657 71.0121 21.4337C72.5115 20.6518 79.7672 17.1705 80.7722 19.1626C80.8944 19.4571 80.91 19.7807 80.9255 20.1045C80.9385 20.3742 80.9514 20.6442 81.0261 20.8978C81.1414 21.1406 81.2937 21.3946 81.4513 21.6574C81.923 22.444 82.4416 23.3088 82.1553 24.1865C81.8484 24.5022 81.3534 24.2613 80.9617 24.0707C80.8638 24.0231 80.7725 23.9787 80.6921 23.9468C80.3381 23.7668 80.5403 23.4683 80.7182 23.2056C80.7726 23.1254 80.8246 23.0486 80.8579 22.9794C80.9723 22.6994 80.8194 22.4309 80.6592 22.1498C80.5762 22.0041 80.4913 21.8551 80.4406 21.6993C80.1819 20.6121 79.1897 20.7561 78.302 20.8849C78.1112 20.9126 77.9251 20.9396 77.7523 20.9536C75.4183 20.3335 74.8376 21.231 75.4333 23.4792C75.1354 24.7697 74.7255 23.8568 74.3272 22.9698C74.1097 22.4853 73.8956 22.0086 73.7052 21.9028C73.0784 21.3988 72.6879 21.8153 72.2825 22.2477C72.0597 22.4853 71.8325 22.7276 71.5591 22.8246C70.9728 22.8608 68.9029 23.8242 70.2381 24.1118C71.7571 23.3174 72.2082 24.2824 70.653 24.8301C70.2897 24.9647 69.8717 24.782 69.4745 24.6084C69.016 24.408 68.5854 24.2197 68.2986 24.5456C68.4204 24.9456 68.3591 25.3409 67.9466 25.5719C67.2774 26.0695 66.584 26.5425 65.8897 27.016C65.2836 27.4294 64.6769 27.8433 64.085 28.2744C62.6228 29.5995 65.1661 28.2285 66.4829 27.5187C66.8264 27.3335 67.0864 27.1934 67.1702 27.1577C70.8982 25.311 75.0781 24.6273 79.2006 25.2497C79.5006 25.2913 79.8227 25.3106 80.1501 25.3303C81.3902 25.405 82.7074 25.4842 83.1973 26.7892C83.6682 27.5752 83.6648 28.3857 83.6614 29.2068C83.6594 29.6794 83.6574 30.1556 83.7459 30.6327C83.8227 31.0564 83.7905 31.4781 83.7581 31.9022C83.7299 32.2717 83.7015 32.6431 83.7451 33.0193C83.7619 33.2348 83.7997 33.4529 83.8374 33.6709C83.923 34.1651 84.0085 34.6592 83.8504 35.1238C83.7639 35.308 83.6668 35.4838 83.5738 35.6523C83.1341 36.4484 82.7864 37.078 84.094 37.6267C84.9304 37.3893 84.8309 35.5324 84.7348 33.7392C84.6686 32.5049 84.6041 31.3007 84.8476 30.6759C84.8166 30.4988 84.7629 30.2649 84.7017 29.9981C84.3418 28.4306 83.722 25.7311 85.9328 26.7868C86.8215 27.3277 87.7566 27.7001 88.705 28.0778C89.2283 28.2863 89.7557 28.4964 90.2817 28.7373C91.0929 29.1309 90.9314 29.8846 90.7669 30.6518C90.7261 30.8417 90.6852 31.0326 90.6589 31.219C90.6589 32.128 90.9205 31.6338 91.2464 31.0183C91.5159 30.5095 91.8292 29.9177 92.075 29.9671C93.1286 29.8666 93.9753 30.7513 94.8002 31.6132C95.5108 32.3558 96.2053 33.0815 97.0022 33.1458C97.109 32.6886 97.0829 32.1803 97.0564 31.664C97.0277 31.1056 96.9985 30.538 97.1365 30.0158C97.1408 29.9234 97.1456 29.829 97.1505 29.733C97.2066 28.6343 97.2733 27.3296 96.581 26.4269C96.1901 26.2329 95.7633 26.137 95.3584 26.0459C94.3266 25.8139 93.4368 25.6139 93.6451 23.9044C93.5312 23.5091 93.5525 23.0268 93.574 22.543C93.6185 21.5377 93.6633 20.5255 92.4962 20.273C92.1822 20.5994 92.4297 21.0512 92.6796 21.5074C92.8413 21.8026 93.004 22.0996 93.0164 22.3657C93.0256 22.4241 93.0353 22.4834 93.0451 22.5429C93.189 23.4222 93.3445 24.3717 92.1449 23.8344C91.6931 23.7162 91.5652 24.0683 91.4422 24.4073C91.4018 24.5187 91.3619 24.6287 91.3111 24.7201C91.0438 25.0083 90.8798 24.6182 90.68 24.1428C90.4898 23.6903 90.2671 23.1605 89.8919 23.0651C89.1155 22.5732 88.633 22.739 89.0864 23.6168C89.1187 23.7303 89.1526 23.8463 89.1869 23.9643C89.4718 24.9415 89.7965 26.0556 89.6569 27.0352C89.405 27.3066 89.0493 27.151 88.6853 26.9918C88.4486 26.8883 88.2084 26.7832 87.991 26.7931C87.3994 26.688 86.8664 26.394 86.3309 26.0986C86.1536 26.0008 85.9761 25.9029 85.7961 25.8116C85.1187 25.5609 84.8083 25.0218 84.6456 24.3382C84.3392 23.9091 84.1553 23.2317 84.8727 23.3299C85.0772 23.3987 85.2969 23.7409 85.5372 24.1149C85.9774 24.8004 86.4866 25.5931 87.0967 25.0069C87.1893 24.8865 87.2137 24.6902 87.238 24.4956C87.2741 24.2062 87.3098 23.9203 87.5682 23.8926C87.8544 24.0444 87.8598 24.4515 87.8647 24.8297C87.8667 24.9799 87.8686 25.1256 87.888 25.2489C87.9242 25.634 88.1576 25.9625 88.4389 25.6709C88.8408 25.0955 88.6497 24.4144 88.4589 23.7344C88.4389 23.6632 88.4189 23.592 88.3996 23.5209C88.3799 23.4671 88.3576 23.4054 88.3329 23.3371C87.9099 22.1671 86.7971 19.0895 86.5922 21.715C86.4773 22.3071 85.9119 22.2522 85.387 22.2012C85.3015 22.1929 85.2172 22.1847 85.136 22.1795C84.0691 22.2864 83.5583 21.2711 83.1465 20.4524L83.129 20.4176C81.6555 17.6161 85.6028 18.1049 87.3568 18.3226C88.3485 18.3257 88.8664 18.9214 89.0149 19.866C89.1296 20.2439 90.1449 22.5024 90.4011 21.2891C90.398 21.1572 90.3435 20.9985 90.2902 20.8433C90.1676 20.4863 90.0512 20.1474 90.5803 20.1929C90.6152 20.1856 90.6593 20.1864 90.7046 20.1874C90.8103 20.1895 90.9218 20.1917 90.9339 20.0899C90.8918 19.9257 90.7186 19.7403 90.5562 19.5664C90.2399 19.2279 89.9642 18.9328 90.7752 18.9214C92.8388 18.8939 94.745 19.9419 96.6176 20.9714C97.7493 21.5935 98.8687 22.209 100.003 22.5763C101.085 21.9397 102.017 22.8095 102.84 23.5773C103.031 23.7563 103.217 23.9297 103.397 24.0773C103.724 24.1535 107.639 28.5196 105.987 27.8854C105.813 27.7634 105.671 27.5981 105.529 27.433C105.42 27.3067 105.311 27.1805 105.188 27.0737C105.037 26.941 104.873 26.8474 104.717 26.7585C104.499 26.634 104.296 26.5188 104.169 26.3185C104.155 26.2993 104.14 26.2775 104.126 26.2549C104.059 26.1541 103.982 26.0378 103.862 26.0756C102.82 27.1233 104.767 28.4393 105.991 29.267C106.323 29.4916 106.602 29.6803 106.754 29.8178C108.632 31.1389 109.028 32.5547 109.335 33.6525C109.599 34.5973 109.798 35.3067 110.819 35.5175C111.033 35.4716 111.049 35.1753 111.061 34.9646L111.062 34.947C111.106 32.9816 111.068 30.5832 109.139 29.6661C108.746 29.4954 108.606 29.1426 108.465 28.784C108.383 28.5767 108.3 28.3674 108.167 28.1903C108.117 28.0754 107.794 27.8241 107.443 27.5518C106.728 26.9956 105.901 26.3521 107.055 26.6053C109.362 27.6772 111.12 29.8681 112.061 32.1793C112.09 32.2596 112.13 32.4061 112.179 32.5818C112.397 33.3616 112.776 34.7173 112.93 33.4224C112.875 31.1333 115.543 31.6205 117.012 32.0795L117.031 32.0827C118.387 32.3159 119.805 32.5596 121.108 33.0798C122.065 33.3439 123.057 33.2654 124.047 33.187C124.571 33.1455 125.094 33.1041 125.611 33.1136C125.895 33.1132 126.18 33.1153 126.465 33.1173C128.354 33.1309 130.23 33.1445 131.939 32.437C134.902 30.7872 137.577 28.6848 140.252 26.5824C141.841 25.3341 143.429 24.0858 145.077 22.9323C145.217 22.8396 145.354 22.7463 145.491 22.6534C146.179 22.1855 146.848 21.7307 147.646 21.4455C148.467 21.1723 148.734 21.5865 148.623 22.0909ZM44.3039 37.8756C44.7911 38.0925 45.2656 38.2826 45.6728 38.4457L45.6783 38.4479C46.028 38.5878 46.3305 38.7088 46.5105 38.796C47.635 39.3424 48.7042 39.8364 49.7383 40.2853C49.5318 40.1597 49.3306 40.0232 49.1336 39.8828C48.9952 39.763 48.9312 39.6056 48.8687 39.4519C48.796 39.273 48.7253 39.0992 48.5419 38.9956C48.2888 38.8748 47.9689 38.8558 47.6416 38.8364C47.0941 38.8039 46.5259 38.7701 46.215 38.2561C45.8126 38.1303 45.3809 38.0595 44.946 37.9881C44.7317 37.9529 44.5167 37.9176 44.3039 37.8756ZM51.1293 40.8704C51.3112 40.9443 51.4922 41.0169 51.6725 41.0882C51.5453 41.0091 51.4115 40.9422 51.2664 40.8958C51.2204 40.8883 51.1747 40.8798 51.1293 40.8704ZM54.9439 42.2627C55.2361 42.3567 55.5283 42.4478 55.821 42.5362C55.8725 42.3218 56.1336 42.1413 56.3922 41.9625C56.7674 41.7031 57.1372 41.4475 56.8529 41.0977C56.728 41.0423 56.4994 41.0904 56.2612 41.1406C56.1113 41.1722 55.9576 41.2046 55.8234 41.2125C55.6936 41.2416 55.5272 41.2354 55.3577 41.229C54.97 41.2144 54.5657 41.1992 54.5433 41.6054C54.5961 41.7031 54.7382 41.7005 54.8764 41.6979C55.026 41.6952 55.1711 41.6925 55.1932 41.8176C55.1652 42.0338 55.0746 42.1754 54.9439 42.2627ZM56.7043 42.794C57.768 43.094 58.8463 43.3609 59.9648 43.6038C59.9978 43.6116 60.0316 43.6148 60.0646 43.6148C60.0913 43.6148 60.1181 43.6124 60.1448 43.6085C60.2006 43.5983 60.2532 43.5936 60.3082 43.5936C60.7096 43.5936 61.0891 43.8646 61.4448 44.2791C61.3728 44.0681 61.3063 43.857 61.2457 43.6462C61.2194 42.5796 61.7306 43.1003 62.1549 43.5324C62.2617 43.6412 62.363 43.7443 62.4489 43.8152C62.8135 44.0273 62.9651 43.6698 62.8481 43.3625L62.8469 43.3594C62.7816 43.1809 62.6804 42.904 62.8944 42.8337C62.9497 42.8255 63.0204 42.8187 63.1005 42.8109C63.6036 42.7623 64.4807 42.6774 64.2861 42.0172C64.167 41.9316 64.0077 41.9822 63.8577 42.0298C63.797 42.049 63.7378 42.0678 63.6834 42.0769C63.1671 42.1413 62.7836 42.1987 62.3766 42.4682L62.3663 42.4698L62.364 42.469C62.1183 42.4639 62.1049 42.096 62.0918 41.7326C62.0748 41.2661 62.0582 40.8069 61.5506 41.1315C61.4919 41.1789 61.4447 41.2665 61.3975 41.354C61.3045 41.5265 61.2116 41.6987 61.0312 41.5622C60.685 41.264 60.7316 40.5605 60.7749 39.9078C60.8376 38.9606 60.8933 38.1206 59.7306 38.7827C59.4933 39.0448 59.6167 39.3358 59.7505 39.6517C59.7988 39.7656 59.8485 39.8828 59.8831 40.0031C59.9098 40.3406 59.9803 40.6965 60.051 41.0532C60.1464 41.5353 60.2422 42.0188 60.2304 42.4596C60.1864 43.0851 59.2285 43.3146 59.2073 42.5358C59.1994 41.6997 58.2839 41.5716 57.6937 41.9268C57.4798 42.0312 57.2959 42.223 57.113 42.4136C56.9799 42.5524 56.8474 42.6905 56.7043 42.794ZM136.137 44.2065C137.574 44.4904 139.066 44.7889 140.583 45.1172C138.909 44.6146 137.247 44.074 135.612 43.4552C135.393 43.4059 135.193 43.3431 135.011 43.2857C134.32 43.068 133.872 42.9266 133.48 43.8772C133.437 43.9096 133.364 43.9394 133.269 43.966C133.416 43.9603 133.564 43.9574 133.714 43.9574C134.497 43.9574 135.289 44.0391 136.137 44.2065ZM131.869 44.097C131.129 44.0872 130.395 43.9674 130.279 43.6729C130.308 43.3627 130.664 43.2889 130.969 43.2258C131.13 43.1925 131.277 43.1621 131.354 43.1016C131.558 42.4668 130.447 42.6622 129.848 42.7677C129.735 42.7876 129.64 42.8043 129.575 42.8116C128.637 42.6786 128.63 42.7685 128.611 42.997C128.598 43.1573 128.579 43.3857 128.23 43.6533C127.92 43.8203 127.587 43.7614 127.251 43.7022C126.973 43.653 126.693 43.6036 126.425 43.6831C126.18 43.7647 125.969 43.9173 125.758 44.0693C125.449 44.2922 125.141 44.514 124.734 44.5098C124.635 44.5077 124.528 44.5084 124.416 44.5091C123.66 44.5137 122.671 44.5199 122.548 43.6816C122.42 43.515 122.269 43.6328 122.199 43.8167C122.057 44.9837 121.077 44.9724 120.108 44.9613C119.666 44.9562 119.226 44.9512 118.869 45.0584C118.213 44.9623 117.814 45.0785 117.541 45.1577C117.141 45.2742 117.016 45.3103 116.759 44.4713C116.439 44.4978 116.165 44.7523 115.885 45.0132C115.558 45.3172 115.222 45.6298 114.792 45.5998C114.524 45.6615 114.274 45.5242 114.032 45.3911C113.787 45.2565 113.55 45.1262 113.311 45.2108C113.241 45.2641 113.195 45.3692 113.143 45.4855C113.073 45.6435 112.994 45.8222 112.836 45.9204C112.449 46.1601 111.283 46.2678 111.594 45.4937C112.698 43.2965 113.727 40.1893 113.333 39.1496C112.764 38.1068 111.058 42.5303 110.935 43.0348C110.436 44.0424 109.783 44.9515 109.129 45.8613C108.608 46.5871 108.086 47.3132 107.642 48.0901C107.253 49.3673 108.413 47.9621 109.307 46.879C109.739 46.3547 110.11 45.9058 110.212 45.8733C110.662 45.4686 110.941 45.7263 110.825 46.1695C110.756 46.5495 110.568 46.9392 110.299 47.3274C110.982 46.7626 111.702 46.41 112.967 46.3597C114.067 46.3161 115.207 46.2669 116.374 46.2033C116.376 46.1777 116.386 46.1495 116.408 46.1185L116.408 46.1177L116.419 46.1051C116.494 46.0242 116.647 45.9731 116.77 45.9479C116.806 45.941 116.842 45.9341 116.877 45.9272C117.697 45.7695 118.499 45.6148 119.288 45.8332C119.431 45.8689 119.547 45.9251 119.59 45.9899C121.491 45.8379 123.431 45.6308 125.36 45.3347C125.353 45.3081 125.347 45.282 125.342 45.2573C125.338 45.2397 125.334 45.2228 125.33 45.2069C125.244 44.667 125.708 44.7888 126.024 45.0874C126.063 45.1422 126.054 45.1871 126.026 45.2289C126.536 45.1449 127.045 45.0543 127.552 44.9566C127.704 44.6343 128.07 44.504 128.445 44.6717C128.485 44.6895 128.536 44.7163 128.568 44.7506C128.576 44.749 128.583 44.7473 128.591 44.7456C128.807 44.6992 129.019 44.6537 129.225 44.6089L129.228 44.6081C130.192 44.3992 131.04 44.2155 131.869 44.097ZM100.576 53.3647C100.642 53.3423 100.707 53.3198 100.772 53.2972C100.542 53.1558 100.47 52.8872 100.733 52.7006C100.891 52.6095 101.07 52.5469 101.249 52.4849C101.652 52.3442 102.049 52.2059 102.177 51.7419C102.387 51.6277 102.557 51.7131 102.744 51.8066C103.084 51.9771 103.478 52.1747 104.267 51.2421C104.538 50.8938 104.286 50.9346 104.016 50.9784C103.862 51.0033 103.703 51.0292 103.631 50.9844C103.562 50.4856 104.492 49.7505 105.356 49.0675C105.908 48.6313 106.433 48.2164 106.654 47.8976C109.77 44.645 111.171 41.4466 111.171 36.921C111.029 36.1949 110.905 36.5815 110.913 37.0617C110.767 39.6958 109.849 42.7213 108.085 44.6843C107.281 45.1636 108.016 43.6567 108.572 42.5176C108.832 41.9851 109.053 41.533 109.058 41.4019C109.637 40.4156 111.057 33.8169 108.742 37.6086C108.054 39.6086 107.364 41.6054 106.667 43.5983C106.522 43.9664 106.547 44.4344 106.571 44.9009C106.609 45.6114 106.646 46.3186 106.083 46.6654C104.977 46.5703 104.347 47.3216 103.729 48.131C103.426 48.3758 103.108 48.601 102.791 48.8258C102.414 49.0931 102.037 49.3599 101.687 49.6587C101.394 49.7571 101.184 49.6116 100.974 49.4652C100.682 49.2624 100.387 49.058 99.8673 49.4999C98.9974 50.0932 99.0296 50.4759 99.5491 51.1981C99.3785 51.8386 98.3287 52.2826 97.6976 52.2582C96.3391 51.9382 95.1341 52.5891 93.9332 53.2378C93.3176 53.5703 92.703 53.9023 92.0695 54.1026C91.3795 54.3533 91.4486 54.6165 92.1889 54.5238C93.2932 54.3642 94.3996 54.1565 95.5061 53.9487C96.1815 53.8219 96.8569 53.6951 97.5318 53.5792C97.7551 53.5298 97.966 53.3895 98.1744 53.2508C98.5369 53.0097 98.892 52.7734 99.2921 53.0283C99.5713 53.1966 99.7116 53.4456 99.6853 53.6516C99.983 53.5613 100.28 53.4657 100.576 53.3647ZM90.4427 54.6442C90.2977 54.5569 90.1508 54.472 89.9956 54.4059C89.4762 54.1796 89.6475 53.9501 90.1811 53.8032C90.5111 53.7069 90.8556 53.6318 91.1993 53.557C92.3616 53.3039 93.5142 53.0529 94.0631 51.9879C94.8843 52.1594 95.4239 51.7003 95.9745 51.2319C96.2764 50.975 96.5817 50.7153 96.9385 50.5553C98.1505 50.4241 98.3741 49.8869 98.6259 49.2821C98.8341 48.7818 99.0617 48.2352 99.8838 47.8339C100.33 47.5468 100.66 47.8207 100.992 48.096C101.239 48.3006 101.487 48.5061 101.784 48.4823C102.822 48.2504 103.991 46.3691 102.509 45.8371C102.314 45.8758 102.143 46.137 101.986 46.3769C101.723 46.7801 101.499 47.1229 101.261 46.2458C101.292 45.635 101.65 45.0965 102.011 44.5537C102.484 43.8436 102.961 43.1262 102.716 42.2301C102.717 41.8012 102.904 41.7208 103.137 41.6208C103.442 41.4897 103.825 41.325 103.969 40.2985C104.341 39.0603 104.159 39.0263 103.917 38.9815C103.593 38.9212 103.163 38.8413 103.831 35.7933C104.025 33.9985 103.899 32.1455 103.642 30.3758C103.594 29.9927 103.56 29.5654 103.523 29.1135C103.368 27.2156 103.178 24.8832 101.826 23.572C101.153 22.9615 100.924 23.1677 100.652 23.4128C100.394 23.6448 100.098 23.9115 99.3502 23.5539C98.1463 23.1397 97.0457 22.4948 95.9485 21.8518C95.6427 21.6726 95.3371 21.4936 95.0297 21.3198C93.3323 21.0589 95.0085 22.4993 95.6065 22.7814C96.38 23.1571 97.0298 23.69 97.681 24.224C98.0937 24.5624 98.5069 24.9014 98.9526 25.201C99.247 25.385 99.5549 25.5431 99.8605 25.7C100.669 26.1152 101.462 26.5221 101.943 27.3794C103.657 31.5828 101.195 31.1545 98.6933 28.8944C97.533 28.4074 97.6955 29.8062 97.7991 30.6982C97.8197 30.8756 97.8379 31.0329 97.843 31.1514C97.8934 31.6008 97.8648 32.0664 97.8361 32.5345C97.8003 33.1181 97.7643 33.7056 97.8807 34.2704C98.1819 35.337 99.1387 35.9921 100.097 36.648C101.168 37.3818 102.241 38.1164 102.399 39.4294C102.242 44.1059 97.744 41.0113 96.5472 38.6522C94.7814 36.5265 94.0427 40.9217 94.6808 40.4502C95.7763 38.6687 95.8996 40.7009 95.8651 41.6745C95.7425 42.2388 95.9248 42.8124 96.5849 42.7999C97.9915 42.9743 98.5943 45.4128 98.4143 46.4611C98.1621 47.2996 97.2945 47.8072 96.5354 48.1899C94.4537 49.2815 94.1063 46.788 94.8977 45.4764C94.947 45.2556 94.7054 45.2148 94.469 45.1748C94.3361 45.1523 94.2048 45.1302 94.1276 45.0764C93.7932 45.0272 93.532 44.6389 93.2886 44.277C92.9643 43.7949 92.6715 43.3596 92.2793 43.834C92.192 43.972 92.0925 44.1188 91.9887 44.2719C91.4512 45.0645 90.7996 46.0253 91.15 46.8045C91.2122 46.8843 91.2861 46.9568 91.3597 47.029C91.5355 47.2015 91.71 47.3726 91.7205 47.6391C91.7253 47.8611 91.6414 48.1456 91.5576 48.4298C91.3504 49.1322 91.1439 49.8323 92.2785 49.5816C92.379 49.5848 92.5006 49.5649 92.6256 49.5444C92.9314 49.4942 93.2574 49.4408 93.3433 49.7152C92.8066 50.9789 91.4251 51.4236 90.174 51.5022C89.9735 51.5129 89.8385 51.6884 89.7096 51.856C89.5637 52.0457 89.4255 52.2252 89.209 52.1443C89.0954 51.9459 89.0378 51.6927 88.9833 51.4538C88.8491 50.8646 88.7346 50.3618 87.8495 50.9797C87.3623 51.584 87.4149 52.7446 87.4487 53.488C87.4667 53.5716 87.4986 53.657 87.5307 53.7427C87.6162 53.9714 87.7028 54.203 87.5297 54.4122C87.177 54.7438 86.8063 55.0492 86.4201 55.3287C87.1104 54.9194 87.6355 54.6265 88.5748 54.5607C88.7124 54.5513 88.8522 54.5466 89.0039 54.5466C89.4752 54.5466 89.9472 54.5921 90.4427 54.6442ZM71.3777 30.8514C71.3586 30.719 71.3395 30.586 71.2652 30.485L71.266 30.4858L71.2534 30.4701C71.1713 30.3795 71.0501 30.3143 70.9243 30.2466C70.7717 30.1645 70.6123 30.0787 70.5076 29.9396C70.1061 29.4956 70.1226 28.7208 70.73 28.4654C71.2262 28.2777 71.1616 28.675 71.1083 29.0036C71.1002 29.0534 71.0924 29.1016 71.0868 29.1459C71.0554 29.4744 71.1803 29.7604 71.3241 30.0779C71.3912 30.2618 71.5141 30.4193 71.6364 30.576C71.7864 30.7682 71.9354 30.959 71.9787 31.1954C72.0015 31.4759 71.6078 31.4948 71.4561 31.1608C71.4091 31.0704 71.3934 30.9611 71.3777 30.8514ZM88.4446 39.8307C88.3829 39.775 88.3261 39.7238 88.2746 39.6997L88.2754 39.6989L88.2629 39.6934C87.7001 39.6283 87.0785 41.7511 86.7126 43.0005C86.6196 43.3179 86.5432 43.579 86.4884 43.7334C86.3745 44.1169 86.0924 44.0548 85.9187 43.7554C85.7179 43.4321 85.9523 43.13 86.1733 42.8452C86.3009 42.6807 86.424 42.5221 86.4562 42.3684C86.4945 41.8006 85.7862 42.0304 85.4103 42.1524C85.3774 42.1631 85.347 42.173 85.3199 42.1814C84.9584 42.3134 84.5089 42.2608 84.5128 41.8073C84.5207 41.3767 84.9686 40.9233 85.4189 41.005C85.8456 41.1103 86.336 41.1857 86.6621 40.7983C87.2397 40.1775 86.9364 39.1316 86.6629 38.4133C86.4208 37.8585 87.0409 37.8538 87.422 37.8813C88.0742 37.919 88.1717 38.4125 88.2605 39.0208C88.3266 39.3706 88.5454 39.4336 88.7971 39.5061C88.8655 39.5258 88.9362 39.5462 89.007 39.5732C89.2334 39.6927 89.0864 39.9991 88.8805 40.0345C88.7166 40.0761 88.5703 39.9441 88.4446 39.8307ZM81.43 38.484C81.632 38.752 82.6952 39.7956 83.0284 39.6848H83.03L83.0425 39.6785C83.182 39.5725 83.2001 39.3388 83.2179 39.1086C83.2362 38.873 83.2542 38.641 83.4017 38.5532C83.5423 38.4455 83.7608 38.462 83.9376 38.4801C84.7494 38.5744 85.7002 38.8047 86.1434 39.453C86.5497 40.1084 85.8346 40.0683 85.3773 39.93C84.9482 39.817 84.8413 39.9591 84.668 40.1897C84.6194 40.2543 84.5655 40.3258 84.4979 40.4007C84.2765 40.5826 84.0379 40.445 83.7982 40.3068C83.5428 40.1595 83.286 40.0115 83.0472 40.2482C83.0011 40.2945 82.9513 40.3549 82.8985 40.419C82.6767 40.688 82.401 41.0224 82.116 40.6537C82.0547 40.5744 82.0029 40.4691 81.9604 40.3716C81.709 39.772 81.4551 39.2903 80.9656 38.9068C80.8052 38.7756 80.5184 38.6247 80.3722 38.8274C80.2941 38.9156 80.2717 39.0534 80.2491 39.1915C80.2204 39.3675 80.1917 39.5439 80.0477 39.6188C79.8402 39.6054 79.6705 39.2384 79.6296 38.9854C79.6103 38.847 79.6423 38.7094 79.674 38.5731C79.7221 38.3666 79.7694 38.1633 79.6359 37.9654C79.552 37.831 79.4613 37.6987 79.3703 37.5662C79.106 37.181 78.8398 36.7932 78.7346 36.3418C78.6453 35.883 79.1061 36.0197 79.6533 36.1819C80.2571 36.3609 80.966 36.5711 81.1573 36.0472C81.2752 35.7721 81.177 35.4735 80.8579 35.4146C80.8232 35.4063 80.7881 35.3991 80.754 35.3922C80.639 35.3687 80.5351 35.3475 80.4933 35.2935C80.4265 35.2204 80.4941 35.1073 80.6528 35.0546C81.2052 34.8873 81.8449 35.402 82.0547 35.9175C82.3266 36.5006 82.0995 37.0357 81.6492 37.4609C81.3027 37.7556 81.0889 38.0864 81.43 38.484ZM78.4218 56.4813C78.5279 56.5748 78.6521 56.6888 78.6206 56.8184V56.8169L78.6159 56.8279C78.5356 56.9664 78.2868 56.989 78.1155 57.0045C78.109 57.0051 78.1027 57.0057 78.0965 57.0062C76.9853 57.0927 76.0588 56.8066 75.0144 56.3399C74.8627 56.266 74.6757 56.1583 74.6403 56.0051C74.6067 55.8057 74.7792 55.6307 74.967 55.4402C75.0509 55.3551 75.1379 55.2669 75.2109 55.1721C75.3225 55.0361 75.4183 54.8931 75.4781 54.7454C75.6612 54.2943 75.3979 54.2409 75.1142 54.4381C74.3653 55.0039 73.6486 55.3128 72.9162 54.6C72.7475 54.4417 72.6324 54.2613 72.5193 54.0842C72.4118 53.9157 72.3061 53.75 72.1579 53.6091C71.9025 53.3592 71.5536 53.2083 71.2007 53.1721C71.1091 53.1588 71.0046 53.1596 70.9 53.1604C70.7514 53.1615 70.6025 53.1626 70.4895 53.1234C70.3662 53.0756 70.3515 52.9577 70.3369 52.8397C70.3296 52.7811 70.3223 52.7224 70.3017 52.6723C70.2138 52.4693 69.9991 52.4504 69.7543 52.4289C69.6447 52.4192 69.5291 52.409 69.4161 52.3816C69.2599 52.3536 69.1128 52.3093 68.9696 52.2663C68.7794 52.2091 68.5962 52.154 68.4079 52.1419C68.3937 52.1404 68.3787 52.139 68.3632 52.1376C68.1796 52.1205 67.9205 52.0963 67.9654 51.8629C67.982 51.7912 68.0095 51.7168 68.0376 51.641C68.1158 51.4293 68.198 51.2069 68.0574 51.0032C67.9653 50.8586 67.7703 50.6648 67.5694 50.4651C67.2321 50.1297 66.8783 49.778 66.9674 49.6154C67.2063 49.4033 67.7918 49.7632 67.9898 49.9738C68.1805 50.1689 68.2985 50.4093 68.4161 50.649C68.5282 50.8774 68.64 51.1052 68.8141 51.2924C69.0381 51.5525 69.5025 51.8323 69.7493 51.459C69.8317 51.3336 69.8829 51.1771 69.9339 51.0208C69.9735 50.8999 70.0129 50.7791 70.0668 50.6732C70.2058 50.3274 70.531 50.2402 70.864 50.1508C71.1108 50.0845 71.362 50.0171 71.5449 49.8425C71.5995 49.7983 71.6744 49.7153 71.7569 49.6239C72.039 49.3114 72.4102 48.9002 72.3646 49.5981C72.33 49.8787 72.2097 50.1364 72.0549 50.3691C72.0431 50.3889 72.0303 50.4093 72.0172 50.4301C71.9205 50.5847 71.8076 50.7652 71.9198 50.9286C72.0416 51.0787 72.3465 51.1569 72.6399 51.232C72.8102 51.2756 72.9765 51.3182 73.1009 51.3734C73.6761 51.5753 74.2828 52.0814 74.2647 52.7368C74.2439 53.0696 74.0897 53.4224 73.9477 53.7474C73.918 53.8153 73.8889 53.882 73.8616 53.947C73.5755 54.5497 74.025 54.5206 74.3763 54.2723C74.5561 54.1461 74.7054 53.9625 74.8551 53.7784C75.1202 53.4524 75.3864 53.125 75.8254 53.1124C76.8486 53.015 77.9393 53.2405 77.1645 54.4782C77.1079 54.587 77.0121 54.705 76.9128 54.8271C76.6392 55.1636 76.3396 55.5322 76.7645 55.8314C76.9837 55.9557 77.2321 56.0134 77.4799 56.071C77.821 56.1502 78.161 56.2291 78.4218 56.4813ZM106.215 31.5704C106.264 31.2935 106.314 31.0107 106.474 30.9911L106.473 30.9903L106.482 30.9934C106.562 31.0443 106.607 31.1418 106.653 31.2407C106.7 31.3433 106.748 31.4474 106.837 31.5026C106.925 31.5689 107.056 31.5268 107.178 31.4877C107.331 31.4386 107.469 31.3943 107.488 31.5749C107.472 31.8126 107.334 31.9666 107.182 32.1369C107.098 32.2306 107.009 32.3293 106.934 32.4496C106.764 32.7073 106.68 33.0468 106.691 33.3612C106.7 33.8987 106.884 34.426 107.098 34.921C108.052 36.877 108.082 37.2628 107.57 39.35C107.56 39.3929 107.55 39.4359 107.54 39.4792C107.277 40.6247 106.986 41.8874 106.322 42.7166C106.057 43.0473 105.666 43.2196 105.278 43.3904C105.237 43.4083 105.196 43.4262 105.156 43.4442C104.983 43.5244 104.813 43.6179 104.656 43.7256C104.552 43.7846 104.432 43.8856 104.305 43.9928C104.006 44.2438 103.668 44.5284 103.402 44.3841C103.309 44.315 103.41 44.0839 103.521 43.977C103.633 43.8529 103.771 43.75 103.91 43.6469C104.146 43.4712 104.382 43.295 104.49 43.0128C104.586 42.7647 104.56 42.5061 104.533 42.2464C104.513 42.0448 104.493 41.8424 104.529 41.6439C104.568 41.3994 104.641 41.1618 104.715 40.924C104.793 40.6697 104.871 40.4152 104.908 40.1516C104.968 39.8734 104.989 39.5427 105.01 39.2009C105.059 38.4267 105.111 37.5957 105.631 37.189C105.652 37.172 105.673 37.1549 105.695 37.1377C105.93 36.9518 106.192 36.7445 106.199 36.4259C106.205 36.258 106.175 36.0776 106.143 35.8935C106.113 35.7132 106.082 35.5294 106.084 35.3501C106.082 35.2349 106.083 35.1217 106.085 35.0098C106.09 34.6001 106.094 34.2064 105.933 33.7855C105.847 33.5408 105.722 33.3115 105.597 33.0829C105.471 32.8526 105.346 32.6229 105.261 32.3789C105.165 32.1132 105.131 31.7742 105.094 31.4151C105.087 31.3472 105.08 31.2785 105.073 31.2095C105.07 31.1587 105.065 31.103 105.059 31.0446C105.03 30.7191 104.992 30.3055 105.26 30.1329C105.327 30.1007 105.393 30.1353 105.416 30.2021C105.449 30.3156 105.429 30.4889 105.409 30.6744C105.384 30.9012 105.357 31.1463 105.419 31.3235C105.466 31.5482 105.76 32.3781 106.056 32.0747C106.141 31.99 106.177 31.7819 106.215 31.5704ZM90.1151 42.0305C90.1088 41.7413 90.0939 41.4741 89.9555 41.4663L89.954 41.4655L89.9453 41.4671C89.8362 41.5073 89.7535 41.6652 89.685 41.7959C89.6692 41.8261 89.6541 41.8549 89.6396 41.8804C89.2452 42.6545 88.8444 43.4301 88.4334 44.1939C88.3768 44.2937 88.3037 44.4108 88.2385 44.4878C88.1906 44.5444 88.1568 44.5672 88.1426 44.5499C88.1293 44.535 88.1332 44.4855 88.1528 44.4093C88.1888 44.298 88.2343 44.1789 88.2812 44.0561C88.4695 43.5636 88.6808 43.0111 88.387 42.6671C88.3526 42.6209 88.3164 42.5763 88.2803 42.5318C88.1883 42.4185 88.0964 42.3054 88.035 42.1673C87.9202 41.9252 87.9187 41.6376 87.9721 41.3767C88.1236 40.606 88.4042 40.7512 88.712 40.9106C88.9245 41.0207 89.1501 41.1375 89.3552 40.9641C89.5901 40.6763 89.6772 40.2987 89.7609 39.9357C89.7741 39.8785 89.7872 39.8218 89.8007 39.7657C89.8754 39.365 89.9862 38.8793 90.3273 39.2235C90.4608 39.3508 90.6109 39.475 90.7917 39.5206C90.8263 39.5314 90.8616 39.5408 90.8967 39.5502C91.0221 39.5835 91.1448 39.6162 91.2215 39.7107C91.3052 39.8136 91.3361 39.9808 91.3692 40.1593C91.389 40.266 91.4095 40.3766 91.4424 40.4801C91.4772 40.6186 91.5419 40.7485 91.6065 40.8782C91.6893 41.0443 91.7719 41.2101 91.7913 41.3932C91.8153 41.6388 91.6698 41.8367 91.5286 42.029C91.494 42.076 91.4597 42.1227 91.4282 42.1696C91.1642 42.5437 91.1115 43.0089 91.106 43.4631C91.1208 43.9911 90.9021 44.1227 90.6028 44.3027C90.4714 44.3818 90.3244 44.4702 90.1748 44.6057C89.9519 44.8298 89.7719 45.1036 89.5926 45.3762C89.4312 45.6217 89.2703 45.8662 89.0793 46.0729C88.8582 46.3108 88.6238 46.5385 88.3895 46.7661C87.8561 47.2843 87.3234 47.8017 86.9505 48.4367C86.6016 49.0756 86.2385 48.6709 86.0028 48.1585C85.8244 47.7593 85.9415 47.2666 86.1977 46.9137C86.51 46.462 86.9994 46.2952 87.4856 46.1295C87.896 45.9897 88.3041 45.8506 88.6015 45.5417C89.4448 44.6254 90.053 43.269 90.1151 42.0305ZM82.7981 55.2208C82.6779 55.3246 82.4422 55.5375 82.5372 55.6947L82.5364 55.6931L82.5443 55.7002C82.6824 55.7693 82.8899 55.6901 83.117 55.6034C83.2206 55.5639 83.3283 55.5228 83.4354 55.4935C83.7521 55.3937 84.1985 55.3167 84.4429 55.5878C84.6141 55.8704 84.2 56.0886 83.939 56.2261C83.9017 56.2458 83.8675 56.2638 83.8386 56.2801C82.7581 56.7941 81.6359 56.9795 80.4618 56.8954C79.9361 56.8601 79.8175 56.5371 80.3282 56.2966C80.4321 56.2362 80.5751 56.2026 80.7138 56.1701C80.9738 56.109 81.2186 56.0515 81.1612 55.8275C81.0897 55.6232 80.8453 55.4157 80.6245 55.5297C80.5642 55.5555 80.5069 55.5982 80.449 55.6413C80.3484 55.7163 80.2461 55.7925 80.1239 55.7835C79.9738 55.7638 79.9353 55.5179 80.076 55.3473C80.2489 55.1375 80.4776 55.0283 80.799 54.8892C81.2626 54.7008 81.766 54.5631 82.2604 54.4278C82.4323 54.3808 82.603 54.3341 82.7706 54.2857C83.1169 54.1874 83.4265 54.0595 83.7354 53.932C84.0118 53.8178 84.2877 53.7038 84.5891 53.6114C84.7757 53.556 84.9489 53.463 85.1215 53.3704C85.3158 53.2661 85.5092 53.1623 85.7199 53.1132C85.9941 53.0661 87.1336 53.055 86.7509 53.5823C86.6618 53.6961 86.5202 53.7762 86.3662 53.8633C86.2257 53.9429 86.0747 54.0282 85.9438 54.1505C85.7931 54.2821 85.6751 54.4478 85.5595 54.6103C85.5328 54.6478 85.5062 54.6851 85.4794 54.7218C85.3002 54.9859 85.0283 55.1611 84.7054 55.0888C84.0649 54.9088 83.3427 54.7666 82.7981 55.2208ZM79.7782 50.0547C79.7397 49.9062 79.6988 49.7443 79.7939 49.6233L79.8049 49.6099C80.0532 49.3734 80.7102 49.4033 80.9608 49.562C81.3184 49.8253 81.1966 50.3816 81.0614 50.7455C80.9883 50.9328 80.8975 51.0884 80.8152 51.2293C80.6439 51.5229 80.5095 51.7531 80.6481 52.0759C80.722 52.2645 80.9436 52.5985 81.1659 52.3957C81.3247 52.1761 81.442 51.8915 81.5614 51.6018C81.8222 50.9691 82.0931 50.312 82.8272 50.2528C82.9985 50.2292 83.1683 50.1977 83.3239 50.1207C83.4254 50.0746 83.5181 50.0068 83.6119 49.9381C83.7483 49.8383 83.8872 49.7367 84.0594 49.6972C84.417 49.628 84.9262 49.6225 85.1934 49.8928C85.4 50.2417 84.8932 50.7588 84.5529 50.8429C84.3027 50.9073 84.0604 50.8211 83.8224 50.7364C83.4886 50.6175 83.1633 50.5017 82.8366 50.8091C82.5316 51.0778 82.3509 51.5308 82.1677 51.9902C81.9714 52.4822 81.7723 52.9815 81.4143 53.2696C80.6756 53.8338 80.3172 53.4063 79.9047 52.7651C79.2658 51.9472 79.4426 51.5955 79.6388 51.2054C79.7854 50.9136 79.9429 50.6004 79.7782 50.0547ZM83.3414 46.9934C83.5154 47.0448 83.7849 47.1243 83.7545 47.298V47.2988L83.7498 47.3098C83.6116 47.4623 83.3553 47.5298 83.095 47.5984C82.8122 47.6729 82.5246 47.7487 82.3785 47.9361C82.2072 48.1467 82.4932 48.3667 82.7235 48.3518C82.7856 48.3565 82.8525 48.3488 82.9198 48.3411C83.0338 48.328 83.1491 48.3148 83.2445 48.3612C83.4174 48.5223 83.1683 48.8587 83.0402 48.9907C82.7873 49.2398 82.4594 49.1253 82.0392 48.9787C81.9344 48.9421 81.8239 48.9035 81.7074 48.8681C81.4895 48.787 81.26 48.7637 81.032 48.7404C80.7494 48.7116 80.469 48.683 80.2159 48.5451C79.874 48.3542 79.6626 47.9628 79.4607 47.5589C79.438 47.5064 79.4105 47.4521 79.3823 47.3964C79.2819 47.1979 79.1732 46.983 79.2438 46.7786C79.2796 46.6875 79.3719 46.6076 79.4674 46.5251C79.6256 46.3883 79.7924 46.244 79.7247 46.0289C79.7205 45.9993 79.7136 45.9696 79.7067 45.9399C79.689 45.8637 79.6713 45.7875 79.6996 45.7145C79.8009 45.4796 80.63 45.4261 80.7667 45.6878C80.8602 45.8444 80.7985 46.0149 80.7358 46.188C80.6735 46.3599 80.6103 46.5344 80.6968 46.7008C80.828 46.975 81.1628 47.2029 81.4716 47.1628C81.6018 47.1414 81.7208 47.0829 81.84 47.0244C81.9087 46.9907 81.9775 46.9569 82.0484 46.9302C82.4152 46.7819 82.8393 46.8758 83.2275 46.9618C83.2403 46.9647 83.253 46.9675 83.2657 46.9703C83.2873 46.9775 83.3131 46.9851 83.3414 46.9934ZM90.4255 33.0468C90.4546 32.9156 90.5127 32.7207 90.6188 32.6759H90.618L90.629 32.672C90.7351 32.6429 90.8404 32.7671 90.9025 32.8653C91.3858 33.6205 91.3072 35.0656 91.1532 36.0236C91.0274 36.7293 91.4769 36.4935 91.8981 36.2719C92.2636 36.0731 92.6675 36.3874 92.9567 36.6302C93.3802 36.954 93.5453 37.42 93.1932 37.7626C92.9848 37.9718 92.7891 37.8275 92.6057 37.6922C92.4301 37.5627 92.2656 37.4415 92.1119 37.6463C92.028 37.7471 91.989 37.9377 91.9485 38.1366C91.8754 38.4944 91.7969 38.879 91.4408 38.8149C91.2154 38.7461 91.01 38.6164 90.8053 38.4872C90.706 38.4245 90.6068 38.3619 90.5056 38.3064C90.3406 38.2058 90.1732 38.0691 90.1544 37.8672C90.1395 37.7073 90.2059 37.5593 90.2717 37.4127C90.3065 37.3351 90.3411 37.2579 90.3634 37.1795C90.446 36.9256 90.4008 36.5152 90.3626 36.1682C90.3565 36.1126 90.3505 36.0586 90.3453 36.0071C90.2432 35.0688 90.2227 33.989 90.4255 33.0468ZM73.2651 48.931C73.2565 48.8123 73.262 48.7196 73.2973 48.6661L73.2966 48.6669L73.3044 48.6567C73.3673 48.5656 73.5732 48.6261 73.6918 48.663C73.7133 48.6696 73.735 48.6762 73.757 48.6829C74.5123 48.9132 75.5578 49.232 75.9503 49.7475C76.3456 50.2606 76.366 51.8291 75.8222 52.2268C75.4817 52.433 74.8329 51.8685 74.4136 51.5036C74.3152 51.4181 74.2295 51.3435 74.1633 51.2924C73.592 50.8225 73.394 50.4107 73.3406 49.7475C73.3186 49.485 73.2918 49.1864 73.2651 48.931ZM77.0233 44.921C77.1387 44.8394 77.2503 44.7606 77.3672 44.7794V44.781L77.3782 44.7857C77.4681 44.8483 77.4815 44.99 77.4932 45.1134C77.496 45.1432 77.4987 45.1719 77.5024 45.1982C77.5417 45.676 77.5778 46.1232 77.6116 46.557C77.6202 46.7039 77.6297 46.8839 77.5236 46.9915C77.4384 47.0715 77.3123 47.0705 77.1887 47.0695C77.1241 47.069 77.0603 47.0685 77.0034 47.0795C76.8878 47.1008 76.8226 47.1377 76.7401 47.2288C76.5725 47.4449 76.5178 47.7618 76.4647 48.0698C76.4144 48.361 76.3655 48.6442 76.2238 48.8265C75.9873 49.1321 75.6478 48.9105 75.6596 48.5561C75.6561 48.382 75.7081 48.1864 75.7576 48.0003C75.7745 47.9371 75.791 47.8749 75.805 47.8151C75.8796 47.5196 75.8835 47.2461 75.8356 46.9569C75.8333 46.8417 75.783 46.6381 75.7254 46.4045C75.5864 45.842 75.4045 45.1052 75.746 45.0081C75.8792 44.9728 76.036 45.0104 76.1965 45.0489C76.3864 45.0945 76.5814 45.1413 76.7488 45.0701C76.8452 45.0467 76.9354 44.9831 77.0233 44.921ZM65.358 47.8574C65.3366 47.9479 65.315 48.0392 65.2449 48.0658L65.2456 48.0634H65.237C65.158 48.04 65.0826 47.9498 65.0129 47.8664C64.9842 47.832 64.9564 47.7987 64.9297 47.7719C64.7566 47.5715 64.5439 47.4248 64.3345 47.2804C64.121 47.1332 63.9109 46.9883 63.7494 46.7911C63.652 46.6858 63.5034 46.4131 63.7376 46.4029C63.8258 46.3961 63.956 46.4374 64.0938 46.481C64.2114 46.5182 64.3346 46.5572 64.4417 46.5695C64.7322 46.6311 64.8821 46.4336 65.0325 46.2355C65.1775 46.0444 65.323 45.8528 65.5953 45.8921C66.2516 46.0159 66.289 45.9244 66.5097 45.3841C66.5287 45.3376 66.5491 45.2877 66.5714 45.2344C66.581 45.2172 66.5917 45.1969 66.6034 45.1747C66.6885 45.0133 66.8279 44.7491 67.0012 44.8375C67.2032 45.0442 67.0224 45.6367 66.9156 45.9306C66.5533 46.7958 66.6625 47.6501 67.0987 48.4603C67.145 48.5601 67.1977 48.6881 67.2118 48.7824C67.2535 49.1361 66.9226 48.9986 66.657 48.7526C66.4337 48.5435 66.2386 48.2455 66.0698 47.9878C66.0515 47.9598 66.0335 47.9323 66.0158 47.9055L66.0071 47.8922C65.775 47.5397 65.5423 47.1864 65.3887 47.7483C65.3761 47.7812 65.3671 47.8192 65.358 47.8574ZM52.0805 37.7768C52.1858 37.9002 52.3186 38.0471 52.4797 38.0668H52.4789L52.497 38.0683C52.7783 38.0723 52.9559 37.7729 52.963 37.5065C52.9652 37.4799 52.9668 37.4534 52.9684 37.4271C52.9751 37.315 52.9816 37.2062 53.0377 37.1088C53.2506 36.8094 53.7064 37.1434 53.8816 37.3941C53.9108 37.4358 53.944 37.4789 53.9781 37.5231C54.1575 37.7563 54.3611 38.0209 54.1339 38.2805C53.8007 38.6035 53.1437 39.2039 52.6966 38.8667C52.6822 38.8576 52.6677 38.8483 52.6532 38.839C52.5682 38.7844 52.4814 38.7286 52.3854 38.6884C52.0052 38.5489 51.5777 38.6319 51.1647 38.7122C50.9751 38.7491 50.7885 38.7853 50.611 38.7992C50.5796 38.8041 50.5483 38.8091 50.5173 38.8142C50.1412 38.8752 49.8169 38.9279 49.9454 38.5438C49.9737 38.4779 50.0058 38.3954 50.0418 38.3027C50.2562 37.7505 50.6098 36.8397 51.1461 36.9737C51.451 37.0483 51.8086 37.4475 52.0805 37.7768ZM74.5547 37.0687C74.0172 37.644 73.027 36.7631 72.6278 36.3379V36.3387L72.6129 36.319C72.2553 35.7973 72.0219 35.1529 72.2066 34.5352C72.2368 34.4069 72.2741 34.2589 72.3114 34.1114C72.3439 33.9825 72.3764 33.8539 72.4039 33.7391C72.4494 33.5458 72.5068 33.3061 72.6365 33.1906C72.9068 32.9588 73.2141 33.1183 73.2306 33.5089C73.2722 33.9183 73.1873 34.3953 73.1135 34.7882C72.9697 35.2684 73.1614 35.5623 73.541 35.791C73.8962 36.0212 74.1484 36.099 74.5335 35.9882C74.5679 35.9832 74.6135 35.9686 74.6632 35.9526C74.8094 35.9056 74.9908 35.8472 75.0254 35.9921C74.9963 36.3277 74.7677 36.7913 74.5547 37.0687ZM77.6664 51.5294C77.7935 51.943 77.8409 52.4112 77.8876 52.8724C77.9877 53.86 78.0844 54.8155 78.953 55.1336C79.1023 55.1807 79.3742 55.246 79.4347 55.0754C79.4528 55.0089 79.4141 54.9088 79.3716 54.7988C79.3272 54.6839 79.2786 54.5583 79.2862 54.4491C79.2999 54.2812 79.355 54.1083 79.4105 53.9339C79.5175 53.5984 79.6262 53.257 79.4458 52.9332C79.1932 52.4309 78.5321 52.0445 77.9623 51.7115C77.8974 51.6735 77.8337 51.6363 77.7719 51.5997C77.7382 51.5806 77.702 51.5565 77.6664 51.5294ZM47.4446 37.5512C47.2362 37.6309 47.0475 37.703 46.89 37.6094L46.8908 37.6102L46.879 37.6C46.8338 37.5561 46.8252 37.5384 46.8063 37.4996C46.8025 37.4919 46.7984 37.4833 46.7934 37.4734C46.6873 37.1473 46.5851 36.8652 46.1781 36.8754C46.1312 36.8734 46.0808 36.8743 46.0297 36.8753C45.8053 36.8794 45.5676 36.8838 45.5541 36.6373C45.7497 35.9032 46.7223 36.2736 47.3683 36.5196C47.4699 36.5583 47.5633 36.5938 47.6444 36.6216C47.9649 36.7557 48.362 36.7106 48.7561 36.6658C49.2212 36.6129 49.682 36.5606 50.0075 36.8039C50.2173 36.9674 50.2801 37.2856 50.1159 37.5033C49.9297 37.7595 49.547 37.8404 49.2538 37.743C49.129 37.7042 49.0099 37.6394 48.8908 37.5746C48.7348 37.4896 48.5788 37.4047 48.4098 37.3784C48.1851 37.3375 47.9556 37.3854 47.7387 37.453C47.6374 37.4775 47.539 37.5151 47.4446 37.5512ZM67.6392 38.844C67.8018 38.9761 67.9467 39.0938 67.9277 39.2439L67.9238 39.2589C67.8802 39.3836 67.7292 39.4659 67.6095 39.5311L67.6 39.5363C67.0594 39.8184 66.2908 40.1264 65.8853 39.5559C65.7973 39.3925 65.8987 39.2149 66.0315 39.0255C66.1792 38.8251 66.3026 38.5689 66.2444 38.3174C66.1774 38.0577 65.9956 37.837 65.8143 37.617C65.5689 37.3191 65.3245 37.0224 65.3675 36.6318C65.4099 36.4204 65.6299 36.3096 65.8287 36.3953C66.2631 36.6454 66.4951 37.1167 66.7242 37.582C66.8587 37.8551 66.9921 38.126 67.1647 38.3489C67.2417 38.4573 67.3273 38.5595 67.4224 38.653C67.4894 38.7224 67.5661 38.7847 67.6392 38.844ZM57.206 39.7558C56.9722 39.9512 56.7209 40.1613 56.4655 40.172H56.4458C56.0836 40.1681 55.9335 39.6156 56.06 39.2966C56.16 39.0345 56.3976 38.9608 56.6531 38.8816C56.8189 38.8301 56.9923 38.7763 57.1405 38.6671C57.2762 38.5763 57.3735 38.449 57.4709 38.3215C57.5614 38.2031 57.6521 38.0845 57.7739 37.9945C58.4387 37.4837 59.4996 37.9402 58.8725 38.6695C58.6861 38.8564 58.4042 39.0038 58.1281 39.1483C57.9049 39.265 57.6855 39.3798 57.5232 39.5119C57.4223 39.5751 57.3161 39.6638 57.206 39.7558ZM69.7391 40.7048C71.5434 41.3217 69.5693 43.1032 69.321 42.5704L69.3202 42.5696L69.3139 42.5523C69.2935 42.4244 69.2976 42.2859 69.3018 42.1465C69.3086 41.9161 69.3156 41.6831 69.2118 41.4907C69.1108 41.2462 68.9394 41.0267 68.7528 40.7877C68.6869 40.7032 68.619 40.6162 68.5517 40.5249C68.4149 40.348 68.2876 40.0903 68.5069 39.9253C68.6955 39.7846 69.0546 39.6518 69.277 39.6997C69.4229 39.7622 69.3739 39.9202 69.3224 40.0862C69.2755 40.2376 69.2266 40.3956 69.3218 40.4934C69.3916 40.5783 69.5374 40.6311 69.6644 40.6772C69.6904 40.6866 69.7155 40.6958 69.7391 40.7048ZM69.8647 48.7932C70.0495 48.8995 70.1922 48.9817 70.2813 48.8343L70.2821 48.8335L70.2892 48.8194C70.3135 48.7656 70.329 48.6897 70.3461 48.6058C70.376 48.4592 70.4109 48.288 70.5068 48.1656C70.976 47.584 71.6345 48.2033 71.2479 48.7903C70.9115 49.3231 70.3159 49.7899 69.6558 49.6312C69.2951 49.5573 68.8574 49.4331 68.6483 49.1117C68.4888 48.8563 68.6216 48.487 68.932 48.45C69.178 48.4162 69.5018 48.5773 69.765 48.7369C69.7995 48.7557 69.8327 48.7748 69.8647 48.7932ZM78.0014 35.2778C78.7354 35.4201 78.12 36.3583 77.6815 36.4361H77.6823L77.6619 36.4393C77.5659 36.4524 77.4669 36.4249 77.371 36.3983C77.2322 36.3598 77.1 36.323 76.9931 36.4141C76.8365 36.5708 76.7723 36.834 76.7101 37.0887C76.6808 37.2084 76.6521 37.3262 76.6144 37.4302C76.5523 37.6652 76.4509 38.0385 76.2993 38.0919C75.768 38.1673 75.86 36.3599 76.1248 36.0967C76.2433 35.9539 76.427 35.8984 76.6051 35.8446C76.6525 35.8303 76.6995 35.8161 76.7448 35.8004C76.9374 35.7374 77.1164 35.6316 77.2863 35.5312C77.5401 35.3813 77.7736 35.2435 78.0014 35.2778ZM73.2581 46.1798C73.772 46.8564 72.7575 47.5927 72.1052 47.5518L72.106 47.551H72.0785C70.9681 47.4921 71.4585 45.977 72.2978 45.8906C72.6388 45.8285 73.0789 45.9731 73.2581 46.1798ZM68.0018 43.0449C68.1454 43.2066 68.2859 43.3647 68.3057 43.4993L68.3088 43.5189C68.3348 43.8364 67.923 44.1853 67.6267 43.9605C66.8833 43.3806 66.2971 42.5437 66.0433 41.6934C65.8892 41.1355 66.3898 41.2549 66.7215 41.5174C67.0365 41.7606 67.2754 42.09 67.5149 42.4201C67.6027 42.5412 67.6906 42.6624 67.7823 42.7794C67.8435 42.8668 67.9231 42.9564 68.0018 43.0449ZM64.5337 39.3626C64.4394 39.4907 64.2838 39.6549 64.158 39.6683L64.1596 39.6691L64.14 39.6714C64.0127 39.6817 63.9082 39.5811 63.8264 39.4805C63.3581 38.862 62.9235 38.1776 63.0665 37.431L63.0688 37.421C63.0956 37.3022 63.1382 37.1135 63.2551 37.0845C63.3046 37.0774 63.3589 37.119 63.4123 37.2C63.4709 37.2881 63.5165 37.3913 63.5625 37.4955C63.633 37.6554 63.7047 37.8178 63.8264 37.9324C63.9332 38.032 64.0789 38.0309 64.2293 38.0297C64.3599 38.0287 64.494 38.0277 64.6091 38.0927C65.0853 38.4007 64.9164 38.8856 64.5337 39.3626ZM89.5328 35.7745C89.5548 35.9057 89.4974 36.099 89.3552 36.0739L89.3544 36.0747L89.3418 36.0723C89.1983 36.0305 89.1146 35.9104 88.9989 35.7442C88.96 35.6883 88.9175 35.6273 88.868 35.5623C88.6542 35.2629 88.4342 34.9454 88.2267 34.6036C87.9815 34.1996 87.2986 33.0272 88.1984 33.1678C88.9057 33.3619 89.4188 35.0303 89.5328 35.7745ZM54.7634 36.7796C54.8993 36.6585 55.128 36.6719 55.2576 36.7976L55.2726 36.8118C55.3495 36.8871 55.3869 36.9909 55.4232 37.0919C55.4604 37.1952 55.4965 37.2955 55.5728 37.3595C55.6621 37.4527 55.8351 37.4948 55.9989 37.5347C56.2991 37.6077 56.5685 37.6733 56.236 38.0322C55.8085 38.5139 55.3519 39.0035 54.7272 39.2046C54.5425 39.2707 54.2329 39.2848 54.2958 39.0043C54.3376 38.8569 54.4138 38.7128 54.4908 38.5671C54.5831 38.3926 54.6766 38.2158 54.7138 38.0282C54.7461 37.8939 54.7594 37.754 54.7539 37.6157C54.7513 37.4964 54.7313 37.3794 54.7128 37.271C54.6764 37.0579 54.6456 36.878 54.7634 36.7796ZM71.0539 36.445C71.2735 36.7833 71.5858 37.2647 71.3076 37.3501V37.3493L71.2935 37.3524C71.1671 37.3781 71 37.2823 70.8 37.1676C70.7486 37.1382 70.6952 37.1075 70.6396 37.0774C70.5861 37.0458 70.5315 37.0139 70.476 36.9817C70.0066 36.7084 69.4854 36.405 69.1874 35.9544C68.9194 35.5969 69.2236 35.0609 69.6573 35.0609C70.1691 35.1171 70.4903 35.5901 70.7726 36.0057C70.8141 36.0669 70.8547 36.1268 70.895 36.1839C70.9243 36.2453 70.9845 36.338 71.0539 36.445ZM69.7017 45.9629C69.7922 46.1735 69.8652 46.3437 69.8287 46.4886V46.4894L69.8239 46.5082C69.7629 46.7155 69.5018 46.9009 69.3043 47.041C69.2907 47.0507 69.2773 47.0601 69.2644 47.0693C69.2561 47.0747 69.2478 47.0801 69.2396 47.0855C69.0143 47.2326 68.829 47.3536 68.7198 47.1118C68.5305 46.5106 68.2656 45.5063 68.4086 45.0057C68.4982 44.6827 68.8699 44.6261 69.0837 44.8745C69.3281 45.1212 69.508 45.5196 69.6511 45.8434C69.6682 45.8846 69.6852 45.9244 69.7017 45.9629ZM81.5681 44.4306C81.4754 44.3971 81.3511 44.3523 81.342 44.2534L81.3435 44.2434C81.3631 44.1794 81.4535 44.1287 81.5335 44.0838C81.5566 44.0708 81.5788 44.0584 81.5982 44.0462C82.034 43.8213 82.2789 43.3936 82.5271 42.9599C82.756 42.5602 82.9878 42.1552 83.3749 41.8993C83.8402 41.6038 83.8897 42.1044 83.7663 42.4368C83.6616 42.7427 83.4438 42.9767 83.2248 43.212C83.1052 43.3406 82.9852 43.4695 82.883 43.6108C82.8118 43.703 82.7469 43.7928 82.6856 43.8778C82.3634 44.3237 82.1384 44.6351 81.6123 44.447C81.599 44.4417 81.584 44.4363 81.5681 44.4306ZM74.0666 40.2619C73.9222 39.8442 73.7842 39.4454 74.3496 39.3705L74.3504 39.3712L74.3779 39.3689C75.9936 39.2722 74.759 41.9834 73.941 41.8506C73.8317 41.8231 73.75 41.7248 73.7626 41.6038C73.7798 41.4653 73.8792 41.3544 73.9793 41.2427C74.0796 41.1308 74.1806 41.0181 74.2003 40.8761C74.216 40.6936 74.1404 40.4753 74.0666 40.2619ZM83.6052 45.5047C83.584 45.4277 83.547 45.2855 83.5997 45.2454H83.5989L83.6075 45.2399C83.6466 45.2178 83.7318 45.2509 83.7844 45.2713C83.7879 45.2727 83.7913 45.274 83.7946 45.2752C84.3874 45.5726 84.498 45.4796 84.8149 45.2135C84.8967 45.1448 84.9922 45.0646 85.1132 44.9766C85.1729 44.9444 85.2523 44.9538 85.2869 45.0206C85.4268 45.4246 85.4928 46.142 85.3301 46.5664C85.2405 46.7817 85.0244 46.8972 84.7981 46.8815C84.2299 46.8587 83.7749 46.087 83.6052 45.5047ZM64.7962 33.4162C64.6649 33.5388 64.5227 33.6566 64.4024 33.6527L64.4032 33.6519H64.3828C64.2564 33.6441 64.1487 33.4952 64.0359 33.3391C64.0119 33.306 63.9878 33.2726 63.9632 33.2401C63.7274 32.9109 63.1522 32.0944 63.7698 32.0119C64.1856 31.9726 64.6115 32.0881 64.9737 32.3034C65.4382 32.6005 65.2284 33.0162 64.7962 33.4162ZM79.1466 42.5747C79.1702 42.7193 79.1905 42.8441 79.2446 42.8737L79.2438 42.8745L79.2532 42.8792C79.2768 42.8887 79.3004 42.8824 79.3247 42.8706C79.3853 42.8419 79.4609 42.7593 79.5444 42.6681C79.6438 42.5594 79.7544 42.4386 79.8638 42.3826C80.4501 42.0824 80.8265 42.9468 80.5443 43.4002C80.0642 44.2623 78.41 43.3334 78.6638 42.3346C78.7173 42.0777 78.9381 41.9119 79.0599 42.216C79.1052 42.3205 79.127 42.4545 79.1466 42.5747ZM93.3039 33.8427C93.4386 33.8505 93.5843 33.859 93.6812 33.9458H93.6804L93.6938 33.96C93.7566 34.033 93.7566 34.1383 93.7527 34.2326C93.7386 34.4645 93.7056 34.6963 93.6608 34.9258C93.6364 35.0814 93.5429 35.2472 93.3622 35.2102C93.2974 35.1957 93.2325 35.1763 93.1672 35.1567C93.0313 35.116 92.8936 35.0748 92.7508 35.0759C92.6739 35.0696 92.5931 35.0707 92.5151 35.0717C92.3372 35.0741 92.1743 35.0762 92.1087 34.991C92.0285 34.8693 92.0688 34.676 92.1021 34.5167C92.1086 34.4857 92.1148 34.456 92.1197 34.4283C92.2588 33.7949 92.5307 33.7973 93.2341 33.8382C93.2568 33.8399 93.2802 33.8413 93.3039 33.8427ZM78.4437 39.0697C78.4222 38.7268 78.4007 38.3839 78.454 38.0707L78.4532 38.0715L78.458 38.066C78.5061 38.0383 78.5576 38.1274 78.5952 38.1926C78.6024 38.205 78.6091 38.2166 78.6151 38.2263C79.0253 38.9626 79.7679 40.5461 79.1126 41.0592C78.8925 41.2439 78.3676 41.3303 78.2937 40.961C78.2854 40.7801 78.3299 40.5993 78.3746 40.4175C78.4187 40.2384 78.463 40.0583 78.4572 39.8765C78.4781 39.6176 78.4609 39.3436 78.4437 39.0697ZM132.205 37.9497C132.399 38.7913 129.733 38.8235 129.244 38.3371V38.33C129.245 38.2621 129.445 38.2004 129.693 38.1239C129.735 38.1111 129.778 38.0978 129.822 38.084C129.875 38.0707 129.943 38.0521 130.023 38.0303C130.646 37.8605 131.971 37.4996 132.205 37.9497ZM61.6149 34.2105C61.651 34.109 61.6975 33.9782 61.784 33.9529L61.7848 33.9521H61.7974C61.8677 33.9619 61.9162 34.0728 61.9498 34.1498C61.9512 34.1528 61.9525 34.1558 61.9538 34.1588C62.2312 34.8763 62.3954 35.358 62.305 36.088C62.3037 36.0961 62.3024 36.1046 62.301 36.1133C62.2829 36.229 62.258 36.3882 62.1447 36.4189C62.0622 36.4346 61.9695 36.3505 61.9082 36.2837C61.3785 35.6786 61.3157 35.0845 61.5962 34.2617C61.6022 34.2461 61.6084 34.2288 61.6149 34.2105ZM88.8744 48.9527C89.1685 48.8981 89.4425 48.8472 89.4605 48.8988L89.462 48.9043C89.4716 48.9424 89.3664 49.041 89.2321 49.167C89.1892 49.2072 89.1434 49.2501 89.0974 49.2948C89.0104 49.3691 88.9159 49.4564 88.8154 49.5492C88.3517 49.9774 87.7607 50.5232 87.1878 50.4547C86.7863 50.3368 86.769 49.8598 87.0912 49.6312C87.5784 49.2492 88.2825 49.0819 88.8687 48.9538L88.8744 48.9527ZM56.8285 33.6881C57.4934 34.0409 58.2784 35.3281 56.9951 35.3037H56.9959L56.97 35.3014C56.306 35.2291 56.4073 34.4338 56.5582 33.8413C56.5873 33.703 56.6957 33.6087 56.8285 33.6881ZM85.3506 19.287C85.2817 19.2632 85.1981 19.2343 85.1879 19.1956H85.1871L85.1887 19.1901C85.2171 19.1524 85.3276 19.1381 85.4097 19.1275C85.425 19.1255 85.4393 19.1236 85.4519 19.1218C86.3171 19.0243 87.2546 19.0675 88.0947 19.517C88.2943 19.6648 88.0185 19.7669 87.8731 19.7952C87.116 19.9619 86.487 19.718 85.8815 19.4831C85.7221 19.4213 85.5644 19.3601 85.4063 19.3072C85.3907 19.3009 85.3713 19.2942 85.3506 19.287ZM83.6921 43.4604C83.7378 43.2649 83.7897 43.0428 83.9447 43.0411V43.0403L83.962 43.0427C84.1148 43.0951 84.288 43.298 84.4317 43.4664C84.4734 43.5153 84.5126 43.5613 84.5482 43.5998C84.7635 43.8662 84.8735 44.1264 84.615 44.2757C84.3525 44.4148 84.0217 44.4525 83.7388 44.3652C83.4661 44.2702 83.5305 43.9912 83.628 43.68C83.6535 43.6254 83.6722 43.5454 83.6921 43.4604ZM136.581 38.6153C136.523 38.6561 136.437 38.7041 136.378 38.6742H136.379L136.366 38.6663C136.312 38.6263 136.303 38.521 136.299 38.4455C136.298 38.3693 136.296 38.2936 136.295 38.2187C136.282 37.675 136.271 37.1668 136.587 36.7442C136.7 36.635 136.828 36.7497 136.894 36.8589C137.28 37.4719 137.151 38.2082 136.581 38.6153ZM67.8232 37.0499C67.9026 36.9799 68.0024 36.8935 68.0849 36.8668H68.0857L68.103 36.8613C68.2031 36.8308 68.312 36.8761 68.4643 36.9395C68.4888 36.9497 68.5145 36.9604 68.5415 36.9713C68.8715 37.112 69.2856 37.2896 69.563 37.5135C69.8648 37.7398 69.7139 37.9677 69.3949 38.0157C68.9147 38.0455 68.1485 37.7045 67.725 37.4585C67.5277 37.3328 67.6338 37.2118 67.8232 37.0499ZM85.7607 51.459C85.8338 51.4747 85.9431 51.503 85.9706 51.562L85.9745 51.5745C85.9871 51.6358 85.9101 51.7034 85.8582 51.7474C85.8115 51.7836 85.7653 51.8201 85.7194 51.8563C85.3022 52.1854 84.9071 52.497 84.3698 52.4822C84.2181 52.4586 84.2009 52.2999 84.2425 52.1741C84.4303 51.5525 85.0181 51.3128 85.7607 51.459ZM50.4822 35.0785C50.3492 35.0846 50.2408 35.0896 50.2141 35.0641L50.2133 35.0633L50.2086 35.0578C50.1788 35.0205 50.2926 34.9075 50.4225 34.7786C50.4295 34.7716 50.4365 34.7646 50.4436 34.7576C50.4828 34.7242 50.5236 34.6882 50.566 34.6509C50.8985 34.3581 51.3245 33.9831 51.7677 34.1211C52.031 34.2523 52.1049 34.679 51.84 34.8315C51.5328 35.0228 51.1263 35.0448 50.7614 35.0645C50.7081 35.0674 50.6558 35.0702 50.6047 35.0735C50.5627 35.0747 50.5214 35.0767 50.4822 35.0785ZM53.9885 33.9812C54.5347 33.9215 55.1547 34.6444 55.0997 35.1466V35.1458L55.0926 35.1544C55.0539 35.2 54.9447 35.1667 54.8057 35.1243C54.7698 35.1133 54.7318 35.1018 54.6926 35.0908C54.6262 35.0661 54.5459 35.0408 54.4586 35.0134C54.0824 34.8953 53.5765 34.7365 53.4911 34.4016C53.4706 34.2201 53.7449 34.0008 53.9885 33.9812ZM78.3332 48.7503C78.1663 48.8697 77.9829 49.001 77.7939 49.052V49.0536L77.7758 49.052C77.7405 49.0465 77.7122 49.0284 77.687 48.9954C77.6061 48.8689 77.5385 48.6779 77.4937 48.5255C77.3193 47.896 77.7703 47.8622 78.4642 48.2465C78.6025 48.3188 78.7935 48.4618 78.5939 48.5781C78.5134 48.6213 78.4258 48.684 78.3332 48.7503ZM77.0458 34.0236C77.104 34.0181 77.1865 34.015 77.221 34.0527L77.2218 34.0535L77.2281 34.0621C77.2619 34.437 76.1602 35.2582 75.783 35.2118C75.658 35.1906 75.603 35.0436 75.6054 34.9258C75.6046 34.4448 76.5334 34.0731 77.0458 34.0236ZM48.27 35.5041C47.7466 35.7132 46.7863 34.9886 47.4362 34.6295L47.4566 34.6232C47.6395 34.5943 47.8917 34.718 48.0995 34.8199C48.1462 34.8428 48.1906 34.8646 48.2315 34.8833C48.655 35.1026 48.7132 35.3509 48.27 35.5041ZM68.3049 35.4421C68.334 35.4963 68.3678 35.5882 68.334 35.6307L68.3246 35.6409C68.2788 35.6804 68.1878 35.6656 68.1205 35.6547L68.1179 35.6542C67.9262 35.613 67.7403 35.5807 67.5581 35.549C67.2676 35.4985 66.9864 35.4496 66.7057 35.369C66.5847 35.3006 66.7065 35.1882 66.7827 35.1316C67.2975 34.7497 68.0212 34.8959 68.3049 35.4421ZM115.693 32.8276C115.878 32.9062 115.911 33.1168 115.773 33.248L115.772 33.2488L115.759 33.2582C115.699 33.3056 115.602 33.2774 115.465 33.2376C115.423 33.2253 115.377 33.2119 115.327 33.1993C115.247 33.1716 115.157 33.1448 115.061 33.1167C114.726 33.0179 114.331 32.9018 114.146 32.6657C114.101 32.558 114.211 32.4677 114.303 32.426C114.651 32.259 115.196 32.5563 115.602 32.7777C115.633 32.7949 115.664 32.8116 115.693 32.8276ZM126.479 42.7692C126.361 42.6097 126.415 42.3001 126.63 42.315L126.631 42.3166H126.647C126.713 42.3286 126.806 42.3334 126.91 42.3388C127.289 42.3583 127.819 42.3856 127.735 42.7959C127.698 42.9154 127.619 43.0325 127.503 43.1118C127.197 43.3272 126.66 43.0828 126.479 42.7692ZM74.451 45.6289C74.7519 45.9149 74.6961 46.8823 74.4596 47.1558H74.4517C74.4142 47.1528 74.369 47.0636 74.3127 46.9525C74.2948 46.917 74.2756 46.8793 74.2553 46.8414C74.2356 46.8007 74.215 46.7591 74.194 46.7168C74.0511 46.4289 73.892 46.1081 73.8907 45.7915C73.8789 45.5126 74.2506 45.4301 74.451 45.6289ZM72.6443 38.1414C72.6632 38.1878 72.6797 38.2467 72.6459 38.2836H72.6467L72.6341 38.2946C72.587 38.33 72.4809 38.33 72.4094 38.3253C71.8239 38.286 71.5827 38.0943 71.5088 37.6314C71.4978 37.5591 71.5041 37.4774 71.5496 37.4208C71.6243 37.3402 71.6805 37.3333 71.772 37.3221C71.7769 37.3215 71.7819 37.3208 71.787 37.3202C72.2576 37.2901 72.4168 37.6413 72.5827 38.0073C72.6029 38.052 72.6233 38.0969 72.6443 38.1414ZM112.047 37.9806C112.004 37.9927 111.963 38.0043 111.924 38.0157V38.0149H111.916C111.884 38.0112 111.92 37.9555 111.976 37.8717C111.992 37.847 112.01 37.8199 112.028 37.7909C112.061 37.7476 112.101 37.6901 112.146 37.6252C112.349 37.3336 112.655 36.8921 112.926 36.9069C113.05 36.9391 113.091 37.2463 113.011 37.4161C112.853 37.7529 112.391 37.8834 112.047 37.9806ZM64.4212 45.0559C64.4694 45.0832 64.53 45.1176 64.5439 45.1621V45.1629L64.5463 45.1778C64.5256 45.2568 64.4585 45.3004 64.3911 45.3441C64.3841 45.3487 64.3772 45.3532 64.3702 45.3578C63.9757 45.6135 63.8136 45.4746 63.4348 45.1497L63.4327 45.1479C63.4151 45.1321 63.3965 45.1167 63.3778 45.1012C63.304 45.0402 63.2291 44.9783 63.2103 44.8823C63.2119 44.8289 63.2677 44.792 63.3164 44.7692C63.633 44.6234 63.9614 44.8036 64.3106 44.9953C64.3436 45.0134 64.3769 45.0316 64.4103 45.0497C64.4138 45.0517 64.4175 45.0538 64.4212 45.0559ZM104.617 34.8833C104.615 34.793 104.648 34.5501 104.769 34.6271V34.6264L104.779 34.6366C104.818 34.6861 104.831 34.782 104.831 34.855C104.83 35.044 104.83 35.2345 104.831 35.4254C104.832 35.744 104.834 36.0639 104.826 36.3803C104.823 36.5234 104.706 36.6758 104.638 36.4691C104.604 36.1468 104.61 35.8141 104.616 35.482C104.619 35.2814 104.622 35.081 104.617 34.8833ZM69.7665 47.1211C69.8363 46.9697 69.946 46.7317 70.0212 46.6772L70.0204 46.6764H70.029C70.0569 46.6776 70.0912 46.7361 70.1341 46.8093C70.1456 46.8289 70.1577 46.8496 70.1705 46.8705C70.3528 47.1668 70.6554 47.8041 70.0723 47.8402C69.6094 47.8764 69.5795 47.5251 69.7399 47.1786C69.7478 47.1616 69.7568 47.1422 69.7665 47.1211ZM77.4089 40.5956C77.5094 40.7771 77.4859 40.9689 77.243 40.9751H77.2423L77.2226 40.9728C77.1692 40.9634 77.1236 40.9249 77.0851 40.8832C77.0101 40.7985 76.9319 40.7113 76.8496 40.6195C76.7189 40.4738 76.5779 40.3164 76.4226 40.139C76.2835 39.9787 76.4163 39.9174 76.5782 39.9198C77.0697 39.9152 77.1664 40.1092 77.3837 40.5452C77.3919 40.5617 77.4003 40.5784 77.4089 40.5956ZM61.6819 37.222C61.7109 37.2613 61.7471 37.3163 61.7282 37.3587L61.7267 37.3579L61.7196 37.3705C61.6897 37.4122 61.5946 37.4239 61.5341 37.4271C60.9927 37.4609 60.7601 37.1819 60.7884 36.5249C60.7917 36.4949 60.7927 36.4642 60.7938 36.4335C60.7966 36.3542 60.7994 36.2749 60.8402 36.2075C60.8868 36.186 60.9171 36.2233 60.948 36.2613C60.9567 36.272 60.9654 36.2828 60.9746 36.2923C61.1995 36.5859 61.4032 36.8544 61.6073 37.1236L61.6819 37.222ZM66.7199 32.4064C66.7466 32.6012 66.4692 32.6476 66.3584 32.6146H66.3576L66.3419 32.606C66.2712 32.5394 66.2262 32.4036 66.1834 32.2745C66.1606 32.2056 66.1384 32.1386 66.1132 32.085C66.1048 32.0558 66.0929 32.0269 66.0811 31.9984C66.052 31.928 66.0241 31.8602 66.0543 31.7981C66.0901 31.7485 66.1595 31.7395 66.2217 31.7315C66.2373 31.7295 66.2524 31.7276 66.2665 31.725C66.2974 31.7221 66.33 31.717 66.3626 31.712C66.4597 31.697 66.5563 31.6821 66.6075 31.7227C66.6586 31.7623 66.6654 31.8347 66.6717 31.9015C66.6728 31.9128 66.6738 31.924 66.6751 31.9349C66.6806 31.996 66.6869 32.0571 66.6933 32.1182C66.7032 32.2143 66.7132 32.3103 66.7199 32.4064ZM81.1306 41.3131C81.1903 41.3594 81.2445 41.4074 81.2547 41.4844L81.2485 41.5017C81.2256 41.5438 81.1688 41.5763 81.1196 41.6043C81.1128 41.6082 81.1063 41.6119 81.0999 41.6156C81.0849 41.6239 81.0703 41.632 81.0559 41.64C80.7439 41.8132 80.5784 41.9051 80.3117 41.7233C80.2669 41.6918 80.2151 41.647 80.2041 41.5967C80.1967 41.5164 80.2782 41.4579 80.3517 41.4052C80.3795 41.3852 80.4062 41.3661 80.4265 41.3468C80.722 41.1158 80.8383 41.0671 81.1306 41.3131ZM57.6521 37.6778C57.5633 37.7045 57.4022 37.5945 57.3275 37.5395L57.311 37.5237C57.1994 37.3886 57.1319 37.2125 57.0831 37.0389C56.9331 36.4471 57.6961 36.8212 57.7095 37.4962C57.711 37.5583 57.704 37.6518 57.6521 37.6778ZM77.0555 26.4211C77.1281 26.5057 77.2066 26.5971 77.2234 26.6839V26.7067C77.2102 26.7932 77.1333 26.8826 77.0611 26.9664C77.0257 27.0075 76.9915 27.0472 76.9664 27.0847C76.9513 27.1004 76.938 27.1185 76.925 27.1363C76.8919 27.1813 76.8607 27.2237 76.8077 27.2175C76.7763 27.2002 76.7456 27.1727 76.726 27.142C76.6309 26.988 76.5484 26.8088 76.5594 26.6957C76.5688 26.5495 76.6552 26.4143 76.7448 26.2808C76.766 26.2501 76.799 26.225 76.8321 26.2085C76.8768 26.1975 76.9161 26.2462 76.9601 26.302C76.9851 26.3391 77.0196 26.3793 77.0555 26.4211ZM45.3514 34.7568C45.2712 34.6751 45.3309 34.4708 45.4339 34.4165L45.4527 34.411C45.5062 34.4016 45.569 34.4291 45.6233 34.4535C45.6652 34.4726 45.7065 34.4908 45.7466 34.5084C46.0568 34.6449 46.3002 34.752 46.2849 35.079C46.2826 35.1364 46.2637 35.2126 46.2111 35.2315C46.1836 35.2417 46.149 35.2354 46.1113 35.2181C45.9986 35.1563 45.8847 35.0886 45.7707 35.0209C45.7034 34.981 45.6361 34.941 45.569 34.9022C45.5485 34.8895 45.5268 34.8771 45.505 34.8648C45.4463 34.8315 45.3875 34.7981 45.3514 34.7568ZM119.299 44.4045C119.256 44.5444 118.997 44.5318 118.888 44.4761H118.889L118.875 44.4643C118.83 44.4042 118.824 44.3281 118.818 44.2516C118.816 44.216 118.813 44.1802 118.806 44.146C118.804 44.1144 118.799 44.0825 118.795 44.0507C118.783 43.9764 118.772 43.9034 118.803 43.8395C118.83 43.7908 118.897 43.7727 118.979 43.7664C119.02 43.7675 119.064 43.7612 119.108 43.7549C119.197 43.7423 119.287 43.7294 119.358 43.7751C119.394 43.8136 119.387 43.871 119.38 43.925L119.379 43.9315C119.369 43.9889 119.361 44.047 119.353 44.105C119.339 44.2059 119.325 44.3068 119.299 44.4045ZM106.812 48.9459C106.922 48.843 107.104 48.9341 107.11 49.0724L107.109 49.0732V49.0921C107.103 49.1479 107.056 49.2005 107.013 49.2422C106.911 49.336 106.809 49.4326 106.707 49.5296C106.539 49.6891 106.371 49.8493 106.196 49.9989C105.985 50.1498 105.812 49.8669 106.003 49.7113C106.091 49.6278 106.179 49.5426 106.267 49.4572C106.446 49.2837 106.626 49.1091 106.812 48.9459ZM77.8316 42.5735C77.8882 42.6828 77.7648 42.8659 77.6674 42.9138H77.6666L77.6485 42.9177C77.5882 42.9239 77.5081 42.8715 77.4261 42.8179C77.3938 42.7967 77.3612 42.7754 77.3295 42.7574C77.2845 42.7287 77.2382 42.7001 77.1918 42.6714C77.1152 42.624 77.0384 42.5764 76.9664 42.528C76.8368 42.4486 76.8792 42.3221 76.9546 42.2183L76.9588 42.2116C76.9983 42.1479 77.0492 42.0659 77.1236 42.0659C77.2604 42.1047 77.3795 42.2014 77.4974 42.297C77.5657 42.3525 77.6337 42.4077 77.7043 42.4509C77.7578 42.4902 77.8088 42.5295 77.8316 42.5735ZM92.5355 38.4078C92.5441 38.3905 92.5551 38.3787 92.5685 38.3748V38.3756L92.5826 38.374C92.8105 38.4762 92.9464 38.8267 92.8993 39.0019C92.8781 39.1764 92.6298 39.3705 92.4058 39.3021C92.383 39.2887 92.3696 39.2675 92.3649 39.24C92.3649 39.1465 92.3879 39.0518 92.4108 38.9575C92.424 38.9029 92.4372 38.8484 92.4459 38.7944C92.4571 38.7496 92.4671 38.6991 92.4772 38.6477C92.4941 38.5622 92.5114 38.4746 92.5355 38.4078ZM132.513 39.8113C132.465 39.8954 132.248 39.9072 132.176 39.8734V39.8718L132.163 39.8616C132.112 39.7864 132.095 39.6558 132.078 39.5313C132.069 39.462 132.06 39.3946 132.046 39.3398C132.043 39.3148 132.038 39.2883 132.033 39.2619C132.019 39.1931 132.006 39.125 132.03 39.0852C132.076 39.0388 132.137 39.0365 132.2 39.0443C132.379 39.0632 132.465 39.1206 132.504 39.2251C132.542 39.3862 132.576 39.6392 132.513 39.8113ZM52.1015 40.0245C51.9768 39.9227 51.7744 39.7575 51.9721 39.629L51.9901 39.6211C52.0806 39.6033 52.1741 39.6217 52.2676 39.6401C52.3186 39.6502 52.3695 39.6602 52.42 39.6644C52.4665 39.6755 52.5159 39.6811 52.5655 39.6867C52.6658 39.6981 52.7665 39.7095 52.8443 39.7673C52.9991 39.9284 52.717 40.062 52.5968 40.1147C52.4066 40.1995 52.3021 40.1846 52.1402 40.0565C52.1288 40.0467 52.1157 40.036 52.1015 40.0245ZM95.1429 28.2336C95.0391 28.3444 94.9661 28.5141 95.0454 28.654L95.0541 28.6681C95.0954 28.7372 95.1623 28.7875 95.2331 28.8408C95.3186 28.9051 95.4097 28.9737 95.4682 29.0846C95.5146 29.1679 95.5444 29.2583 95.5672 29.3526C95.6442 29.6795 95.634 30.1094 95.6112 30.4724C95.5979 30.8708 95.4077 31.05 95.0116 30.9038C94.0474 30.5989 93.4847 29.6229 93.4282 28.6579C93.3425 27.865 93.3598 26.786 93.7244 26.5692C94.1643 26.3754 94.945 26.7538 95.3855 26.9674C95.4006 26.9747 95.4154 26.9819 95.4297 26.9888C95.8132 27.2018 96.1362 27.4666 95.8737 27.7864C95.7993 27.8688 95.6801 27.9206 95.5537 27.9756C95.4064 28.0397 95.2495 28.1079 95.1429 28.2336ZM79.3267 22.6731C79.5313 22.6902 79.7062 22.7048 79.7734 22.849L79.7797 22.8647C79.8122 22.9719 79.782 23.1021 79.7537 23.224C79.7451 23.2612 79.7367 23.2976 79.7302 23.3323C79.6529 23.6625 79.7434 23.9732 79.842 24.3122C79.8537 24.3524 79.8655 24.393 79.8772 24.434C79.9345 24.5849 80.0273 25.2026 79.7263 24.8906C79.6672 24.8254 79.608 24.7343 79.5516 24.6473C79.527 24.6095 79.5029 24.5724 79.4795 24.5385C79.2697 24.1951 78.975 24.1959 78.6324 24.225C78.3629 24.2376 78.076 24.1323 77.8804 23.9374C77.4694 23.5515 77.5833 23.0557 77.8308 22.493C77.8342 22.486 77.8376 22.4789 77.841 22.4716C77.8945 22.3584 77.9629 22.2138 78.0729 22.1732C78.1845 22.152 78.2722 22.2411 78.3568 22.327C78.395 22.3657 78.4325 22.4038 78.4713 22.4309C78.6599 22.5881 78.9129 22.6329 79.1841 22.6596C79.2325 22.6653 79.2804 22.6693 79.3267 22.6731ZM92.2486 28.6265C92.2801 28.7491 92.3076 28.911 92.2486 29.0092L92.24 29.0225C92.1795 29.1129 92.0467 29.1216 91.9398 29.0964C91.0612 28.9094 90.7815 27.113 90.7995 26.0859C90.8019 25.9405 90.8231 25.6804 91.0188 25.8045C91.6438 26.349 91.8834 27.258 92.1064 28.1039C92.1534 28.2822 92.1996 28.4578 92.2486 28.6265ZM83.3727 22.5953C83.6212 22.8338 83.9114 23.1125 83.8417 23.4667L83.8386 23.4895C83.803 23.6304 83.7861 23.7781 83.7692 23.9265C83.7507 24.0892 83.7321 24.2527 83.6885 24.4089C83.5628 24.8545 83.2806 25.0651 83.0559 24.6053C82.5027 23.5547 82.4366 21.7645 83.3042 22.5292C83.3265 22.5509 83.3494 22.5729 83.3727 22.5953ZM100.841 35.2833C100.883 35.3627 100.932 35.4672 100.888 35.5387L100.881 35.5489C100.828 35.6165 100.687 35.622 100.591 35.6118C99.7322 35.5348 99.2064 34.3733 98.9597 33.4641C98.9227 33.3234 98.878 33.0696 99.0878 33.1073C99.6966 33.3133 100.217 34.2116 100.617 34.9036C100.697 35.0406 100.771 35.1695 100.841 35.2833ZM76.5814 23.7063C76.3558 23.4627 76.2867 23.0478 76.2835 22.7508H76.2827L76.2796 22.7303C76.2624 22.6021 76.1846 22.485 76.1026 22.3615C76.0499 22.2822 75.9955 22.2002 75.9543 22.1111C75.8002 21.8188 76.0061 21.704 76.2584 21.7645C77.0568 21.9303 77.3295 22.9024 77.1982 23.6961C77.1377 24.0969 76.7951 23.9751 76.5814 23.7063ZM72.8174 24.0442C72.6287 23.9545 72.4195 23.8551 72.3449 23.6686L72.3441 23.6678L72.3426 23.6505C72.3308 23.5419 72.4721 23.429 72.6154 23.3144C72.6442 23.2913 72.6731 23.2682 72.7009 23.2451C72.7592 23.1974 72.8178 23.15 72.8767 23.1024C72.9219 23.0658 72.9672 23.0292 73.0129 22.992C73.0623 22.9572 73.1167 22.9101 73.1741 22.8605C73.4101 22.6563 73.695 22.41 73.8797 22.8026C73.9952 23.0203 74.1406 23.2961 73.8734 23.3464C73.8271 23.3593 73.7669 23.3654 73.7039 23.3719C73.5045 23.3924 73.2763 23.4158 73.3689 23.6623C73.5323 24.0458 73.4671 24.3444 72.9704 24.1205C72.9235 24.0947 72.8713 24.0698 72.8174 24.0442ZM111.361 44.6151C111.283 44.7676 111.047 44.8988 110.956 44.6937L110.948 44.6741C110.922 44.5955 110.94 44.4941 110.962 44.4077C110.975 44.3606 110.988 44.3138 111 44.2673C111.139 43.7581 111.267 43.2901 111.658 42.9963C111.827 42.8659 111.957 42.9484 111.955 43.1535C111.964 43.6302 111.695 44.0696 111.429 44.503C111.407 44.5405 111.384 44.5778 111.361 44.6151ZM100.502 31.7431C100.524 31.6653 100.564 31.5561 100.623 31.5199V31.5207L100.637 31.5136C100.687 31.4924 100.746 31.5262 100.79 31.56C100.823 31.5913 100.885 31.6429 100.961 31.7072C101.279 31.9754 101.858 32.4636 101.775 32.6107C101.696 32.6978 101.579 32.7273 101.465 32.756C101.458 32.7578 101.45 32.7597 101.443 32.7616C100.665 32.947 100.302 32.4276 100.502 31.7431ZM105.587 48.164C105.388 48.6701 104.465 49.1337 103.877 49.1541L103.877 49.1549L103.872 49.151C103.846 49.1299 103.926 49.0567 104.039 48.953C104.073 48.9218 104.11 48.8878 104.149 48.8516C104.405 48.6166 104.762 48.3039 105.056 48.1003C105.319 47.9039 105.729 47.72 105.587 48.164ZM82.8591 21.0883C82.903 21.1252 82.9553 21.1691 82.9616 21.2223V21.2412C82.9376 21.3216 82.8819 21.3525 82.8202 21.3868C82.8011 21.3974 82.7815 21.4083 82.762 21.4211C82.0021 21.8415 81.7946 21.3174 82.1105 20.6958C82.1585 20.5952 82.23 20.5874 82.307 20.6486C82.4203 20.7365 82.543 20.8349 82.6848 20.9487C82.7397 20.9927 82.7975 21.039 82.8586 21.0879L82.8591 21.0883ZM93.6241 46.7362C93.6832 46.7852 93.7419 46.8339 93.7732 46.909H93.7739L93.7763 46.9247C93.7779 46.9554 93.7598 46.9821 93.7299 47.0065C93.6238 47.0874 93.473 47.188 93.3496 47.2674C92.7445 47.654 92.4883 47.6477 92.8797 47.0842C92.9221 47.0318 92.9622 46.9746 93.0024 46.917C93.1021 46.7745 93.2028 46.6306 93.3433 46.5562C93.4051 46.54 93.4635 46.5927 93.5346 46.6569C93.5394 46.6613 93.5443 46.6657 93.5492 46.6701C93.5727 46.6937 93.5984 46.715 93.6241 46.7362ZM109.224 30.5604C109.236 30.5266 109.256 30.5078 109.282 30.5031H109.283L109.297 30.5015C109.68 30.6383 109.743 31.0074 109.804 31.3655C109.838 31.5669 109.872 31.7649 109.961 31.916C109.967 31.9271 109.974 31.9391 109.981 31.9515C110.001 31.9865 110.022 32.0243 110.032 32.0527C110.082 32.1714 109.945 32.162 109.865 32.147C109.447 32.0724 109.245 31.7415 109.21 31.1121C109.209 31.0822 109.208 31.0507 109.207 31.0183C109.201 30.8637 109.194 30.6884 109.224 30.5604ZM102.179 34.3878C102.219 34.4197 102.265 34.4562 102.277 34.4983L102.276 34.499L102.277 34.5148C102.266 34.5782 102.201 34.6084 102.143 34.6354C102.125 34.6439 102.108 34.6521 102.093 34.6609C101.654 34.8723 101.534 34.7599 101.208 34.4016C101.197 34.3892 101.185 34.377 101.174 34.3646C101.13 34.3168 101.085 34.2685 101.056 34.2122C101.027 34.1132 101.069 34.0676 101.162 34.0307C101.518 33.8864 101.739 34.0541 102.055 34.2942C102.09 34.3208 102.127 34.3483 102.164 34.3765C102.169 34.3802 102.174 34.3839 102.179 34.3878ZM98.9019 31.2846C98.9139 31.2651 98.9217 31.2524 98.9573 31.2331H98.9581L98.9723 31.2307C99.0439 31.2623 99.0846 31.3293 99.1249 31.3956C99.1398 31.4202 99.1547 31.4447 99.1711 31.4673C99.4037 31.8272 99.4697 31.9718 99.2316 32.3097C99.1876 32.3718 99.1412 32.4362 99.0658 32.4535C99.0273 32.4394 98.9825 32.4229 98.9589 32.3875C98.8497 32.2327 98.7106 32.026 98.7011 31.8516C98.6846 31.7188 98.7884 31.4806 98.8866 31.3078C98.8931 31.2989 98.8977 31.2913 98.9019 31.2846ZM135.937 35.5379C135.734 35.8106 135.019 35.5678 134.909 35.3124L134.908 35.2951C134.992 35.0193 135.447 34.8668 135.716 34.9674C135.933 35.0311 136.051 35.3745 135.937 35.5379ZM107.778 28.9444C107.954 29.0979 108.141 29.2615 108.129 29.4901L108.12 29.5043C108.089 29.5451 108.013 29.5546 107.957 29.5561C107.459 29.5726 107.004 29.1443 107.17 28.6948C107.257 28.451 107.427 28.6144 107.555 28.7373C107.578 28.7594 107.599 28.7801 107.619 28.797C107.666 28.8463 107.722 28.8949 107.778 28.9444ZM99.4013 47.3569C99.3188 47.4497 99.1797 47.4041 99.1491 47.2878L99.1459 47.2721C99.1365 47.2073 99.1942 47.131 99.265 47.0374C99.2887 47.006 99.3138 46.9727 99.3385 46.9373C99.4516 46.7848 99.5719 46.6245 99.7015 46.4776C99.7193 46.4595 99.7384 46.4393 99.7588 46.4178C99.9122 46.2556 100.132 46.0231 100.316 46.1452C100.484 46.3243 99.685 47.0945 99.4013 47.3569ZM57.8006 32.5502C57.781 32.5871 57.7432 32.6162 57.7087 32.639V32.6398L57.6937 32.6374C57.6639 32.617 57.6332 32.5887 57.6136 32.558C57.5978 32.5335 57.5816 32.5095 57.5656 32.4857C57.496 32.3819 57.4295 32.2828 57.4046 32.1722C57.3739 32.0559 57.4729 31.791 57.6207 31.7078C57.6497 31.6936 57.7134 31.7431 57.7173 31.7494C57.7261 31.7584 57.7352 31.7678 57.7446 31.7773C57.8452 31.88 57.9738 32.0111 57.9853 32.1376C58.0026 32.2311 57.8973 32.4071 57.8006 32.5502ZM72.561 53.1344C72.5422 53.1706 72.5068 53.2012 72.4738 53.224V53.2248L72.4604 53.2224C72.385 53.1561 72.3369 53.0428 72.2979 52.9509C72.2865 52.924 72.2758 52.899 72.2655 52.8774C72.1838 52.6496 72.2404 52.5435 72.3842 52.292C72.3947 52.2776 72.4026 52.2643 72.41 52.2521C72.4318 52.2158 72.4479 52.189 72.5068 52.1702C72.5422 52.1781 72.5791 52.1946 72.6035 52.2228C72.7127 52.3541 72.8148 52.4814 72.8078 52.637C72.8085 52.7471 72.6851 52.9402 72.5824 53.101C72.5751 53.1123 72.568 53.1235 72.561 53.1344ZM105.972 37.5929C106.004 37.4962 106.037 37.3996 106.125 37.3461L106.145 37.3406C106.204 37.3281 106.276 37.3642 106.332 37.3964C106.797 37.6699 106.864 37.9976 106.561 38.4942C106.522 38.5579 106.463 38.6271 106.395 38.6491C106.322 38.6758 106.242 38.6412 106.183 38.5917C105.844 38.2899 105.8 38.0785 105.972 37.5929Z" fill="#F1F1F1"/>
<path d="M139.857 84.2V84.96H147.897V84.2L146.137 83.12V56H139.537V56.76L141.697 57.88V83.12L139.857 84.2Z" fill="#F1F1F1"/>
<path d="M149.737 84.2V84.96H158.177V84.2L156.177 83.16L150.217 72.72L154.137 68.04L156.937 66.76V66H150.057V66.76L152.057 67.92L146.457 74.88L151.217 83.2L149.737 84.2Z" fill="#F1F1F1"/>
<path fill-rule="evenodd" clip-rule="evenodd" d="M157.713 75.24C157.713 82.28 160.993 85.44 165.833 85.44C168.953 85.44 170.873 83.8 172.193 81.32L172.073 80.08H171.513C169.993 82.2 168.513 83.24 166.633 83.24C164.753 83.24 163.433 81.96 162.873 79.96C162.633 79.12 162.393 77.52 162.393 75.6V74.8L172.353 75.04V73.96C172.353 68.64 169.833 65.48 165.593 65.48C161.073 65.48 157.713 69.4 157.713 75.24ZM167.913 73.28L162.433 73.56C162.433 72.64 162.593 70.84 162.793 69.76C163.153 68.24 163.873 66.84 165.313 66.84C166.873 66.84 167.473 68.2 167.713 69.8C167.833 70.8 167.913 72.4 167.913 73.28Z" fill="#F1F1F1"/>
<path fill-rule="evenodd" clip-rule="evenodd" d="M127.828 85.4C125.308 85.4 123.028 84.2 123.028 80.32C123.028 74.84 128.148 73.44 132.628 73.44V70.04C132.628 68.24 131.668 66.92 129.868 66.92C128.388 67.08 127.068 68.12 126.268 69.44L125.268 72.2H124.388V67.12C125.388 66.48 127.828 65.44 130.428 65.44C135.308 65.44 137.068 67.56 137.068 69.8V83.12L138.868 84.2V84.96H132.748V82.64C131.588 84.48 129.868 85.4 127.828 85.4ZM129.788 82.96C131.148 82.96 132.188 82.04 132.628 81.2V74.68C129.228 74.8 127.508 76.24 127.508 79.6C127.508 82.12 128.268 83 129.788 82.96Z" fill="#F1F1F1"/>
<path d="M108.623 84C109.943 84.68 112.183 85.4 114.823 85.4C118.903 85.4 121.343 82.52 121.343 79.24C121.343 75.36 119.023 74 115.583 72.92C113.543 72.16 111.863 71.4 111.863 69.36C111.863 67.88 112.903 66.84 114.863 66.84C116.543 67.16 117.583 68.04 118.543 69.44L119.423 71.84H120.223V66.68C119.103 66.08 117.463 65.44 114.943 65.44C111.463 65.44 108.863 67.76 108.863 71.32C108.863 75.12 111.383 76.56 113.863 77.32C116.703 78.28 118.263 79 118.263 81.08C118.263 82.92 116.823 84 114.943 84C113.223 84 111.503 82.68 110.503 81.24L109.503 78.36H108.623V84Z" fill="#F1F1F1"/>
<path fill-rule="evenodd" clip-rule="evenodd" d="M100.091 85.44C95.2506 85.44 91.9706 82.28 91.9706 75.24C91.9706 69.4 95.3306 65.48 99.8506 65.48C104.091 65.48 106.611 68.64 106.611 73.96V75.04L96.6506 74.8V75.6C96.6506 77.52 96.8906 79.12 97.1306 79.96C97.6906 81.96 99.0106 83.24 100.891 83.24C102.771 83.24 104.251 82.2 105.771 80.08H106.331L106.451 81.32C105.131 83.8 103.211 85.44 100.091 85.44ZM96.6906 73.56L102.171 73.28C102.171 72.4 102.091 70.8 101.971 69.8C101.731 68.2 101.131 66.84 99.5706 66.84C98.1306 66.84 97.4106 68.24 97.0506 69.76C96.8506 70.84 96.6906 72.64 96.6906 73.56Z" fill="#F1F1F1"/>
<path d="M63.1797 84.2V84.96H71.2197V84.2L69.4597 83.12V70.6C70.0197 69.52 71.2997 68.24 72.6997 68.24C74.0997 68.24 74.7797 69 74.7797 70.48V83.12L73.0597 84.2V84.96H80.9797V84.2L79.2197 83.12V70.56C79.8197 69.44 81.0597 68.24 82.4597 68.24C83.8597 68.24 84.5797 69 84.5797 70.48V83.12L82.8197 84.2V84.96H90.8197V84.2L88.9797 83.12V69.88C88.9797 67.32 86.8997 65.52 84.4197 65.52C82.0997 65.52 80.6197 66.68 79.1397 68.88C78.6997 67.08 77.0197 65.52 74.5797 65.52C72.2197 65.52 70.8197 66.76 69.4197 68.88V66H63.0997V66.76L65.0197 67.84V83.12L63.1797 84.2Z" fill="#F1F1F1"/>
<path fill-rule="evenodd" clip-rule="evenodd" d="M51.0313 85.4C48.5113 85.4 46.2313 84.2 46.2313 80.32C46.2313 74.84 51.3513 73.44 55.8313 73.44V70.04C55.8313 68.24 54.8713 66.92 53.0713 66.92C51.5913 67.08 50.2713 68.12 49.4713 69.44L48.4713 72.2H47.5913V67.12C48.5913 66.48 51.0313 65.44 53.6313 65.44C58.5113 65.44 60.2713 67.56 60.2713 69.8V83.12L62.0713 84.2V84.96H55.9513V82.64C54.7913 84.48 53.0713 85.4 51.0313 85.4ZM52.9913 82.96C54.3513 82.96 55.3913 82.04 55.8313 81.2V74.68C52.4313 74.8 50.7113 76.24 50.7113 79.6C50.7113 82.12 51.4713 83 52.9913 82.96Z" fill="#F1F1F1"/>
<path d="M28.36 60.4L40.64 85.2H42.84V59.28L45.44 58.04V57.24H38.48V58.04L41.12 59.28V75.4L32 57.24H24.04V58.04L26.64 59.2V82.92L24 84.16V84.96H31V84.16L28.36 82.92V60.4Z" fill="#F1F1F1"/>
</svg>
