<svg width="196" height="78" viewBox="0 0 196 78" fill="none" xmlns="http://www.w3.org/2000/svg">
<path fill-rule="evenodd" clip-rule="evenodd" d="M148.097 53.36H140.057C139.946 53.36 139.857 53.2705 139.857 53.16V52.4C139.857 52.3291 139.894 52.2634 139.955 52.2275L141.697 51.2055V26.2016L139.645 25.1376C139.578 25.1032 139.537 25.0347 139.537 24.96V24.2C139.537 24.0895 139.626 24 139.737 24H146.337C146.447 24 146.537 24.0895 146.537 24.2V42.9101L151.955 36.1761L150.156 35.133C150.095 35.0972 150.057 35.0313 150.057 34.96V34.2C150.057 34.0895 150.146 34 150.257 34H157.137C157.247 34 157.337 34.0895 157.337 34.2V34.96C157.337 35.0383 157.291 35.1094 157.22 35.1419L154.461 36.4031L150.659 40.9417L156.521 51.2097L158.469 52.2226C158.535 52.257 158.577 52.3254 158.577 52.4V53.16C158.577 53.2705 158.487 53.36 158.377 53.36H149.937C149.826 53.36 149.737 53.2705 149.737 53.16V52.4C149.737 52.3336 149.77 52.2715 149.825 52.2343L151.151 51.3382L146.537 43.273V51.2081L148.201 52.2295C148.26 52.2659 148.297 52.3305 148.297 52.4V53.16C148.297 53.2705 148.207 53.36 148.097 53.36Z" fill="#111111"/>
<path fill-rule="evenodd" clip-rule="evenodd" d="M162.793 43.2049L172.548 43.4399C172.602 43.4412 172.654 43.4208 172.693 43.3831C172.731 43.3455 172.753 43.2939 172.753 43.24V42.16C172.753 39.4713 172.116 37.3019 170.919 35.8003C169.717 34.2929 167.967 33.48 165.793 33.48C161.127 33.48 157.713 37.5281 157.713 43.44C157.713 46.9879 158.539 49.591 160.006 51.3098C161.476 53.0333 163.567 53.84 166.033 53.84C167.63 53.84 168.931 53.4193 170.002 52.6742C171.071 51.9308 171.899 50.8725 172.569 49.614C172.588 49.5793 172.596 49.5399 172.592 49.5007L172.472 48.2607C172.462 48.1582 172.376 48.08 172.273 48.08H171.713C171.648 48.08 171.588 48.1111 171.55 48.1635C170.047 50.2605 168.619 51.24 166.833 51.24C165.069 51.24 163.809 50.0478 163.265 48.1061L163.265 48.1051C163.032 47.2875 162.793 45.7069 162.793 43.8V43.2049ZM162.835 41.5494L167.912 41.29C167.902 40.3916 167.825 38.95 167.715 38.0272C167.596 37.2388 167.392 36.5359 167.044 36.0341C166.703 35.5434 166.222 35.24 165.513 35.24C164.87 35.24 164.384 35.5482 164.008 36.05C163.627 36.5572 163.366 37.2548 163.189 38.0015C163.005 38.9927 162.856 40.5987 162.835 41.5494Z" fill="#111111"/>
<path fill-rule="evenodd" clip-rule="evenodd" d="M126.25 42.8507C128.078 41.8226 130.43 41.4613 132.628 41.4409V38.24C132.628 37.3734 132.397 36.6433 131.97 36.1334C131.548 35.6304 130.92 35.3226 130.079 35.32C128.688 35.4747 127.426 36.4555 126.649 37.7269L125.656 40.4681C125.627 40.5473 125.552 40.6 125.468 40.6H124.588C124.478 40.6 124.388 40.5105 124.388 40.4V35.32C124.388 35.2518 124.423 35.1883 124.48 35.1515C125.506 34.495 127.983 33.44 130.628 33.44C133.094 33.44 134.803 33.9752 135.9 34.8216C137.003 35.6727 137.468 36.8234 137.468 38V51.2068L139.171 52.2285C139.231 52.2646 139.268 52.3298 139.268 52.4V53.16C139.268 53.2705 139.179 53.36 139.068 53.36H132.948C132.838 53.36 132.748 53.2705 132.748 53.16V51.4784C131.568 53.0228 129.93 53.8 128.028 53.8C126.74 53.8 125.485 53.4936 124.55 52.6646C123.611 51.8316 123.028 50.5 123.028 48.52C123.028 45.7021 124.352 43.9183 126.25 42.8507ZM129.988 50.9599C131.233 50.96 132.201 50.1294 132.628 49.3498V43.089C131.056 43.1717 129.9 43.5546 129.129 44.2715C128.329 45.0155 127.908 46.1527 127.908 47.8C127.908 49.0493 128.098 49.8461 128.441 50.3235C128.77 50.7827 129.265 50.979 129.983 50.9601L129.988 50.9599Z" fill="#111111"/>
<path d="M110.883 49.3483C111.867 50.7533 113.525 52 115.143 52C116.047 52 116.828 51.7406 117.38 51.2769C117.928 50.8163 118.263 50.1432 118.263 49.28C118.263 48.7858 118.171 48.3829 117.997 48.0406C117.823 47.6982 117.562 47.4056 117.208 47.1399C116.494 46.6026 115.426 46.1916 114.002 45.7104C112.751 45.3266 111.466 44.7648 110.493 43.8022C109.512 42.8323 108.863 41.47 108.863 39.52C108.863 37.6889 109.533 36.165 110.661 35.0996C111.788 34.0354 113.359 33.44 115.143 33.44C117.702 33.44 119.374 34.0908 120.518 34.7037C120.583 34.7385 120.623 34.8063 120.623 34.88V40.04C120.623 40.1505 120.534 40.24 120.423 40.24H119.623C119.54 40.24 119.465 40.1876 119.436 40.1089L118.564 37.7325C117.632 36.3792 116.639 35.5487 115.045 35.24C114.108 35.2434 113.416 35.4935 112.961 35.8951C112.505 36.297 112.263 36.8692 112.263 37.56C112.263 38.512 112.65 39.157 113.283 39.6638C113.929 40.1801 114.827 40.5502 115.848 40.9308C117.571 41.4718 119.047 42.0924 120.091 43.085C121.147 44.0887 121.743 45.4545 121.743 47.44C121.743 50.8288 119.216 53.8 115.023 53.8C112.349 53.8 110.078 53.0713 108.732 52.3778C108.665 52.3435 108.623 52.2749 108.623 52.2V46.56C108.623 46.4495 108.713 46.36 108.823 46.36H109.703C109.789 46.36 109.864 46.4139 109.892 46.4944L110.883 49.3483Z" fill="#111111"/>
<path fill-rule="evenodd" clip-rule="evenodd" d="M106.806 43.4399L97.0506 43.2049V43.8C97.0506 45.7069 97.2893 47.2875 97.5229 48.1051L97.5232 48.1061C98.0669 50.0478 99.3264 51.24 101.091 51.24C102.877 51.24 104.305 50.2605 105.808 48.1635C105.846 48.1111 105.906 48.08 105.971 48.08H106.531C106.634 48.08 106.72 48.1582 106.73 48.2607L106.85 49.5007C106.853 49.5399 106.846 49.5793 106.827 49.614C106.157 50.8725 105.328 51.9308 104.26 52.6742C103.189 53.4193 101.888 53.84 100.291 53.84C97.825 53.84 95.7341 53.0333 94.2635 51.3098C92.7969 49.591 91.9706 46.9879 91.9706 43.44C91.9706 37.5281 95.3852 33.48 100.051 33.48C102.225 33.48 103.975 34.2929 105.177 35.8003C106.374 37.3019 107.011 39.4713 107.011 42.16V43.24C107.011 43.2939 106.989 43.3455 106.95 43.3831C106.912 43.4208 106.86 43.4412 106.806 43.4399ZM102.17 41.29L97.0931 41.5494C97.1138 40.5986 97.2633 38.9924 97.4464 38.0012C97.6236 37.2546 97.8853 36.5572 98.2656 36.05C98.642 35.5482 99.1274 35.24 99.7706 35.24C100.48 35.24 100.961 35.5434 101.301 36.0341C101.65 36.5358 101.854 37.2386 101.972 38.0268C102.083 38.9497 102.159 40.3915 102.17 41.29Z" fill="#111111"/>
<path fill-rule="evenodd" clip-rule="evenodd" d="M65.0197 51.2055L63.2784 52.2275C63.2173 52.2634 63.1797 52.3291 63.1797 52.4V53.16C63.1797 53.2705 63.2692 53.36 63.3797 53.36H71.4197C71.5301 53.36 71.6197 53.2705 71.6197 53.16V52.4C71.6197 52.3305 71.5835 52.2659 71.5243 52.2295L69.8597 51.2081V38.8494C70.1293 38.3446 70.5624 37.7957 71.0901 37.3708C71.6336 36.9331 72.2606 36.64 72.8997 36.64C73.5644 36.64 74.0224 36.8197 74.3175 37.1404C74.6155 37.4643 74.7797 37.9668 74.7797 38.68V51.2094L73.1533 52.2306C73.095 52.2672 73.0597 52.3312 73.0597 52.4V53.16C73.0597 53.2705 73.1492 53.36 73.2597 53.36H81.1797C81.2901 53.36 81.3797 53.2705 81.3797 53.16V52.4C81.3797 52.3305 81.3436 52.2659 81.2843 52.2295L79.6197 51.2081V38.8108C79.9081 38.2865 80.3414 37.7473 80.8632 37.3373C81.3999 36.9156 82.0176 36.64 82.6597 36.64C83.3245 36.64 83.7939 36.8198 84.0994 37.1425C84.4068 37.4672 84.5797 37.9695 84.5797 38.68V51.2081L82.9151 52.2295C82.8558 52.2659 82.8197 52.3305 82.8197 52.4V53.16C82.8197 53.2705 82.9092 53.36 83.0197 53.36H91.0197C91.1301 53.36 91.2197 53.2705 91.2197 53.16V52.4C91.2197 52.3291 91.1821 52.2634 91.1209 52.2275L89.3797 51.2055V38.08C89.3797 35.3957 87.1957 33.52 84.6197 33.52C83.4228 33.52 82.4336 33.8203 81.5535 34.4087C80.7708 34.9321 80.0828 35.6778 79.4121 36.6231C78.8109 34.915 77.1274 33.52 74.7797 33.52C73.5606 33.52 72.5801 33.8415 71.7249 34.4413C71.0215 34.9345 70.4096 35.6112 69.8197 36.4352V34.2C69.8197 34.0895 69.7301 34 69.6197 34H63.2997C63.1892 34 63.0997 34.0895 63.0997 34.2V34.96C63.0997 35.0323 63.1387 35.0989 63.2016 35.1343L65.0197 36.157V51.2055Z" fill="#111111"/>
<path fill-rule="evenodd" clip-rule="evenodd" d="M49.4532 42.8507C51.2809 41.8226 53.633 41.4613 55.8312 41.4409V38.24C55.8312 37.3734 55.6001 36.6433 55.1729 36.1334C54.7514 35.6304 54.1234 35.3226 53.282 35.32C51.8909 35.4747 50.6288 36.4555 49.8525 37.7269L48.8593 40.4681C48.8306 40.5473 48.7554 40.6 48.6712 40.6H47.7912C47.6808 40.6 47.5912 40.5105 47.5912 40.4V35.32C47.5912 35.2518 47.626 35.1883 47.6834 35.1515C48.7093 34.495 51.1862 33.44 53.8312 33.44C56.2969 33.44 58.0061 33.9752 59.1034 34.8216C60.2066 35.6727 60.6712 36.8234 60.6712 38V51.2068L62.3741 52.2285C62.4344 52.2646 62.4713 52.3298 62.4713 52.4V53.16C62.4713 53.2705 62.3817 53.36 62.2712 53.36H56.1513C56.0408 53.36 55.9512 53.2705 55.9512 53.16V51.4784C54.7707 53.0228 53.1334 53.8 51.2312 53.8C49.9431 53.8 48.6881 53.4936 47.7535 52.6646C46.8144 51.8316 46.2312 50.5 46.2312 48.52C46.2312 45.7021 47.5553 43.9183 49.4532 42.8507ZM53.1912 50.96C54.4363 50.96 55.4042 50.1294 55.8312 49.3498V43.089C54.2592 43.1717 53.1034 43.5546 52.3324 44.2715C51.5323 45.0155 51.1112 46.1527 51.1112 47.8C51.1112 49.0493 51.3015 49.8461 51.6438 50.3235C51.9731 50.7827 52.4684 50.979 53.186 50.9601L53.1912 50.96Z" fill="#111111"/>
<path fill-rule="evenodd" clip-rule="evenodd" d="M28.76 29.4546L40.6608 53.4888C40.6945 53.5569 40.764 53.6 40.84 53.6H43.04C43.1505 53.6 43.24 53.5105 43.24 53.4V27.6062L45.7261 26.4205C45.7957 26.3873 45.84 26.3171 45.84 26.24V25.44C45.84 25.3295 45.7505 25.24 45.64 25.24H38.68C38.5695 25.24 38.48 25.3295 38.48 25.44V26.24C38.48 26.3175 38.5248 26.3881 38.595 26.421L41.12 27.607V42.7561L32.3787 25.3502C32.3448 25.2827 32.2756 25.24 32.2 25.24H24.24C24.1295 25.24 24.04 25.3295 24.04 25.44V26.24C24.04 26.3189 24.0864 26.3905 24.1585 26.4227L26.64 27.5298V50.993L24.115 52.179C24.0448 52.2119 24 52.2825 24 52.36V53.16C24 53.2705 24.0895 53.36 24.2 53.36H31.2C31.3105 53.36 31.4 53.2705 31.4 53.16V52.36C31.4 52.2825 31.3552 52.2119 31.285 52.179L28.76 50.993V29.4546Z" fill="#111111"/>
</svg>
