<svg width="120" height="120" viewBox="0 0 120 120" fill="none" xmlns="http://www.w3.org/2000/svg">
<g clip-path="url(#clip0_2_126)">
<path d="M57.7268 50.6685C57.6594 50.7715 57.5092 50.8052 57.3926 50.8544C56.8657 51.0566 56.0634 51.3678 56.2936 51.7762C56.7261 52.2712 57.8655 51.9178 58.5244 52.1403C62.3676 52.9339 65.9545 54.8131 68.8567 57.4889C69.6253 58.2556 70.3121 59.0185 71.0971 59.766C71.598 60.1955 72.1441 61.8359 72.8954 60.8467C73.0023 60.6945 73.0794 60.4903 73.2075 60.4344C73.3346 60.3997 73.3837 60.575 73.3934 60.6771C73.4454 61.1819 72.7991 61.5537 72.8135 62.1325C72.8395 62.7692 73.403 63.2017 73.7382 63.6929C74.2911 64.451 74.5107 65.3737 74.9056 66.2098C75.132 66.701 75.3891 67.1807 75.5567 67.697C75.7956 68.4213 75.8727 69.2063 76.1414 69.9259C76.2974 70.3641 76.5007 70.7927 76.5835 71.2541C76.7058 72.4899 76.5267 72.9128 77.1258 74.1341C77.3704 74.6754 76.9332 75.0077 76.9177 75.5462C77.0892 76.5739 78.0659 76.4313 77.9503 77.985C77.9734 78.8114 77.4831 79.5637 77.0853 80.29C76.7097 81.049 76.5161 81.9053 76.519 82.7461C76.5132 82.9099 76.5257 83.0438 76.4419 83.1642C76.3639 83.351 75.8495 83.4233 76.0171 83.6814C76.1029 83.8268 76.4236 83.9521 76.4699 84.1669C76.5199 84.4057 76.3745 84.6359 76.3215 84.8671C76.0451 86.1039 75.1117 86.9977 74.5068 88.0717C74.3113 88.4425 74.2718 88.848 74.1803 89.2478C74.0561 89.8141 73.7228 90.3227 73.3914 90.8245C73.1805 91.0913 73.0466 91.4911 72.7124 91.6163C72.5005 91.675 72.199 91.545 71.9621 91.623C71.7001 91.6876 71.5671 92.0093 71.7107 92.2347C71.8108 92.4148 72.0786 92.5439 72.146 92.7037C72.2529 93.1131 71.5874 93.222 71.3533 93.4281C70.1291 94.4635 69.1543 95.8053 67.959 96.8879C66.7174 98.0091 65.5269 99.1909 64.2304 100.242C62.7991 101.202 61.177 101.812 59.7775 102.819C57.3859 104.244 54.5213 104.563 51.8002 104.957C50.9112 105.148 50.3776 105.331 49.4847 105.057C49.216 105.089 48.9848 105.306 48.6977 105.28C45.8727 105.386 43.0938 105.226 40.3063 104.709C38.9029 104.562 38.0187 103.116 36.5565 103.104C36.2994 103.144 36.177 103.417 35.9276 103.321C35.7108 103.211 35.7802 102.976 35.6559 102.759C34.9066 101.663 33.2633 101.184 32.1364 100.497C29.4115 99.1486 27.2558 96.9871 25.0761 94.9085C24.2439 94.1852 23.5889 93.3366 23.0274 92.3955C22.7201 91.9698 22.3281 91.6086 22.0641 91.1511C21.7241 90.5625 21.5286 89.9095 21.2233 89.3007C20.76 88.4127 20.2023 87.5785 19.8363 86.6423C19.1562 85.0068 18.3539 83.4059 18.1179 81.6201C18.0707 80.7802 17.7114 80.0347 17.3936 79.2738C16.962 78.2075 17.199 77.0584 17.1682 75.9497C17.1662 75.132 17.0401 74.2189 17.4648 73.4801C17.643 73.2036 18.1574 72.8896 17.7914 72.5699C17.1268 72.2183 17.0873 71.8118 17.1489 71.0923C17.1778 69.7602 18.4078 68.5764 17.8174 67.2356C17.774 67.1249 17.7211 66.9399 17.7923 66.8677C18.14 66.6654 18.7575 67.0603 19.0378 66.5142C19.215 66.1414 19.1668 65.6704 18.9906 65.3102C18.849 64.9894 18.4839 64.9759 18.1969 64.8941C17.4456 64.502 18.5562 63.2894 19.0532 62.9638C19.267 62.8145 19.4558 62.7085 19.5184 62.5255C19.5714 61.9197 19.214 61.2262 19.9056 60.7889C20.2071 60.5558 21.1732 60.4123 20.9748 61.0595C20.9073 61.3023 20.7975 61.5816 20.864 61.8436C20.9189 62.0854 21.0952 62.2395 21.3225 62.094C21.6673 61.858 21.937 61.4111 21.9832 60.9921C22.0237 60.55 21.7867 59.974 21.9726 59.5492C22.1923 59.1042 22.4215 59.4963 22.5708 59.7717C22.8087 60.2013 23.2807 60.4123 23.7555 60.2861C24.0657 60.2264 24.3306 60.0655 24.582 60.1416C24.8045 60.1955 24.9075 60.4344 25.0684 60.5654C25.2774 60.6993 25.4643 60.4508 25.5336 60.262C25.6367 59.9779 25.6396 59.6176 25.8804 59.4009C26.4207 58.954 28.1237 59.2535 28.3288 59.9364C28.4984 60.2177 27.7538 60.8785 27.6633 60.4556C27.6498 60.2957 27.7914 60.0771 27.776 59.9018C27.7028 59.607 27.2626 59.6417 27.0391 59.7294C26.4053 59.9596 26.8792 61.2522 25.8216 61.9852C25.5375 62.1971 25.1522 62.1586 24.8709 61.9659C24.0715 61.3533 23.6843 62.3888 23.14 62.7943C22.7817 63.0514 22.3685 63.2065 22.0035 63.456C21.7511 63.6188 21.5286 63.8394 21.2396 63.9357C20.8361 64.0907 20.1743 63.7864 20.0568 64.3344C19.9663 64.8912 20.7051 65.8255 21.2628 65.3699C22.0391 64.3865 22.2558 64.6754 23.3866 64.7111C23.7632 64.7082 24.1138 64.6706 24.4192 64.8517C24.6985 64.9981 24.6186 65.235 24.3633 65.3497C23.507 65.8004 22.7798 66.3186 21.962 66.8359C21.6143 67.0565 20.9545 67.3608 21.2965 67.8521C21.7184 68.4936 22.3676 67.6787 22.6392 68.1526C23.0206 69.1784 21.2782 68.7334 20.9892 69.6186C20.8438 70.2004 21.4005 70.681 21.598 71.1944C22.5939 73.481 20.4421 73.5051 20.628 74.8989C20.6771 75.2861 20.8149 75.6685 20.8611 76.0538C20.9227 76.5383 20.8447 77.1932 21.0075 77.6633C21.1154 78.09 21.6249 78.2431 21.8551 78.5533C21.9669 79.0224 21.0836 79.319 21.3466 79.8055C21.6557 80.2071 22.7567 80.4518 23.0428 79.8729C23.1815 79.53 22.8559 79.1457 22.8607 78.8345C22.8684 78.2008 25.0318 78.0389 24.1225 78.8943C23.3857 79.6485 23.7392 80.0646 23.7671 80.9748C23.7382 81.6712 23.455 82.3483 23.926 82.8482C24.2265 83.0948 24.2285 83.5437 24.449 83.8191C24.6581 84.0397 25.1464 84.162 25.3285 83.8673C25.5394 83.1632 24.1668 83.1343 24.842 82.2366C25.4228 81.7039 26.0566 83.1661 26.5469 82.3464C26.7848 81.9804 26.5103 81.5807 26.5469 81.1925C26.5825 80.7696 26.9755 80.5491 27.2683 80.2765C27.6719 79.896 28.0004 79.4067 28.2171 78.8933C28.3491 78.6438 28.273 78.3895 27.957 78.4156C27.4995 78.43 27.121 78.6486 26.7954 79.0214C26.4323 79.5088 26.2705 79.766 25.602 79.7794C25.0183 79.8498 25.2379 80.8814 24.6369 80.9054C24.0541 80.8159 24.4539 80.0511 24.7043 79.8006C24.9403 79.5406 25.2533 79.3624 25.5346 79.1572C26.0547 78.8143 26.388 78.2759 26.674 77.7307C27.2963 76.729 26.4082 76.3986 27.3753 75.8448C27.7663 75.5587 28.2816 75.5596 28.6862 75.3082C29.135 75.0019 28.7083 74.5136 28.272 74.6041C27.6719 74.7217 27.3367 75.4046 26.7251 75.55C26.1741 75.7581 26.3581 74.4992 26.2772 74.1871C26.2185 73.3684 26.0615 72.5178 26.3755 71.729C26.4631 71.5306 26.5806 71.2098 26.8233 71.2098C27.0776 71.2589 27.1788 71.5855 27.4215 71.6529C28.0466 71.7935 28.7228 71.5855 29.3556 71.5123C29.6609 71.4362 29.79 71.6481 29.7062 71.9235C29.5983 72.8126 28.1285 73.2345 28.6294 73.4849C29.4375 73.7768 29.3922 74.1148 29.4462 74.8854C29.4645 75.1272 29.6696 75.498 29.6138 75.6675C29.4914 75.8669 29.1832 75.7927 28.9867 75.8823C28.5484 75.9623 28.1872 76.5334 28.6033 76.8561C28.9414 77.0603 29.3258 77.0863 29.3354 77.567C29.4038 78.3337 29.737 78.9482 29.8093 79.713C29.8411 80.6011 30.5847 79.7448 30.9035 80.132C31.0143 80.5134 30.5269 80.9314 30.6569 81.31C30.7176 81.4785 30.8833 81.5883 30.9574 81.7502C31.02 81.8783 31.0181 82.0333 31.0692 82.1634C31.2079 82.4851 31.8166 82.4263 32.1027 82.3011C32.4937 82.0844 32.3136 81.6221 32.1258 81.3264C31.9563 81.0066 31.9168 80.5876 31.8436 80.2033C31.6808 79.5502 31.8359 78.8384 31.6789 78.1786C31.3639 77.1432 31.5334 76.0393 31.4352 74.9759C31.3803 74.1543 31.0884 73.2826 31.4178 72.487C32.0651 71.3418 32.1036 71.65 32.0285 70.2948C32.0593 70.0241 32.1634 69.764 32.2385 69.503C32.513 68.5437 32.3724 67.4726 32.8809 66.5816C33.8249 64.9576 34.5483 63.2065 35.6193 61.6808C38.1006 58.6188 40.8245 55.8419 44.4259 54.1351C45.3005 53.7575 46.1279 53.3433 46.9351 52.8318C47.4099 52.5833 47.932 52.6392 48.4627 52.5169C48.9328 52.4282 49.2969 52.0719 49.7486 51.9804C50.4094 51.9322 51.5113 51.7347 50.8756 50.8313C50.6001 50.4932 50.8939 50.2061 51.178 49.947C51.2859 49.8382 51.4034 49.711 51.5623 49.7168C51.6663 49.7284 51.7492 49.8064 51.7877 49.9056C52.0333 50.3737 51.1433 50.9777 51.6452 51.3784C52.174 51.6076 52.8559 51.3581 53.3837 51.2599C54.2198 51.1366 54.9268 50.7176 55.5452 50.1464C56.0489 49.7631 56.3764 50.2919 56.8571 50.4556C57.1422 50.5423 57.7085 50.4113 57.7268 50.6569L57.723 50.6646L57.7268 50.6685ZM48.4887 81.8927C48.5667 81.8012 48.7083 81.8397 48.8162 81.8629C49.1967 81.9881 49.6186 81.9948 49.9509 82.2087C50.288 82.6614 49.7823 83.1776 50.3082 83.8249C50.6868 84.3258 51.2079 84.6918 51.596 85.1821C51.7482 85.3853 52.1007 85.8765 52.2693 85.4932C52.2992 85.132 52.1749 84.7689 52.2289 84.3961C52.2982 83.4252 52.4176 83.665 53.1381 83.3038C53.4589 83.09 53.4078 82.5997 53.1169 82.3763C52.6228 82.0353 51.9958 82.0507 51.4246 81.9592C49.8719 81.8369 50.2129 81.5575 49.3181 80.6251C48.219 80.0077 47.8732 80.2851 47.4032 78.8557C47.0266 78.142 47.6671 77.1643 47.0815 77.1903C46.8667 77.1981 46.5305 77.3705 46.4005 77.358C46.099 77.2029 47.2404 76.2271 47.3223 75.9324C47.5458 75.5028 47.7288 74.7727 47.3907 74.3768C47.1701 74.1437 46.7761 74.3239 46.5353 74.1524C46.4246 74.0445 46.5315 73.7922 46.6596 73.614C46.8079 73.3809 47.1219 73.2345 47.1672 72.9455C47.1605 72.5371 46.8031 72.225 47.278 71.9139C47.6748 71.6635 47.8887 71.2435 48.2248 70.9324C48.4656 70.7176 48.7931 70.6511 49.0426 70.4469C49.3248 70.2495 49.4182 69.897 49.1533 69.6533C49.0378 69.5232 48.8393 69.4231 48.8268 69.2333C48.8596 68.9617 49.1562 68.56 49.2969 68.2817C49.8815 67.2732 50.4151 68.4521 51.1173 68.0495C51.3966 67.9253 51.5633 67.5968 51.8734 67.5689C52.3358 67.5294 53.0842 68.0669 53.3809 67.5564C53.4531 67.4369 53.4772 67.277 53.5619 67.1663C53.7372 67.0016 54.0166 67.3676 54.1996 67.487C54.5983 67.8367 53.507 68.0177 53.691 68.692C53.7825 68.9251 54.0329 68.8211 54.3046 68.7777C54.9374 68.6448 55.5654 68.7382 55.1907 69.503C54.9181 70.3689 53.9443 70.3795 53.1805 70.4412C51.9023 70.5972 50.549 70.8043 49.5415 71.6712C47.9638 73.0389 47.7567 75.6406 49.0002 77.2963C49.0898 77.4129 49.1697 77.54 49.2015 77.6854C49.2612 77.9214 49.1938 78.221 49.2824 78.4165C49.5223 79.1245 50.915 78.6217 50.393 78.0659C49.2978 77.3926 50.3766 77.2664 50.0973 76.4593C49.9595 76.1655 49.5926 76.0933 49.3845 75.8563C48.9125 75.3025 49.5694 74.9914 50.0106 74.7775C50.7195 74.4356 50.3111 73.3732 50.9064 72.9339C51.2175 72.6527 51.6654 72.8993 51.9919 72.7095C52.2683 72.5419 52.3483 72.0507 52.5881 71.912C52.9041 71.7762 53.376 71.6953 53.6525 71.9226C53.8769 72.1537 54.1081 72.513 54.4779 72.4369C55.157 72.225 54.5338 70.5038 55.9025 71.0701C56.4727 71.3726 56.0711 72.0228 56.0451 72.5015C55.9285 73.1015 56.3687 73.3828 56.702 72.8444C56.8542 72.5313 57.0015 72.0488 57.1836 71.7184C57.3936 71.3379 57.5419 70.9555 57.3531 70.525C57.1085 69.9798 56.8378 69.4394 56.3032 69.1177C56.1048 68.9819 55.8129 68.9097 55.6906 68.6968C55.445 68.1555 55.9333 67.9561 56.44 68.0736C57.0603 68.2104 57.5101 68.2701 57.4947 67.4726C57.4648 66.4525 57.226 65.106 56.4149 64.4886C56.1087 64.2516 55.6964 64.1312 55.4363 63.8355C54.9769 63.3799 55.6627 62.8212 55.1426 62.4976C54.5357 62.1797 52.9888 62.1672 52.5255 62.7047C52.3579 62.8906 52.2751 63.2489 51.9765 63.2393C51.544 63.1873 50.6049 62.9522 50.6848 63.6246C50.7677 63.9694 51.3485 64.1668 51.65 64.4134C51.9543 64.7371 50.7089 64.6822 50.5635 64.9239C50.2707 65.131 50.182 65.5423 50.001 65.8178C49.5772 66.3928 48.8172 66.7376 48.0736 67.095C46.6943 67.854 46.1279 66.7242 45.287 67.5795C44.8305 68.0977 44.3026 68.4676 43.6072 68.6188C43.3442 68.6997 43.2007 68.5774 43.3019 68.3086C43.5244 67.5795 43.8393 66.8889 44.057 66.1443C44.0975 66.0037 44.1158 65.8544 44.0744 65.7118C43.9954 65.367 43.5484 65.1079 43.5918 64.7563C43.7709 64.3527 44.4404 64.4134 44.7313 64.1399C44.9278 64.0002 44.921 63.6332 45.0241 63.4098C45.1214 63.2248 45.2697 63.3751 45.3092 63.586C45.3814 63.9415 45.2437 64.4943 45.5327 64.6976C46.4737 65.1435 48.4386 63.5889 49.2448 62.9946C49.6109 62.5159 48.7209 62.828 48.4926 62.7095C47.7085 62.2587 49.1167 61.6914 49.423 61.4304C49.6513 61.2676 49.7582 60.9892 49.8767 60.7532C50.3776 60.21 51.5575 61.0961 52.2231 60.8024C52.7394 60.655 53.1584 60.0376 52.7134 59.607C52.3791 59.2757 52.0911 59.1765 52.1894 58.6525C52.1903 58.4627 52.0044 58.404 51.8445 58.3857C51.5199 58.3423 51.1809 58.2836 50.9102 58.1063C50.6059 57.9301 50.4845 57.5612 50.287 57.2963C49.8247 56.8137 49.2468 57.3868 48.8104 57.6103C47.8838 58.0014 47.9821 56.5209 47.2857 56.6664C46.1549 56.911 44.9769 56.65 43.8201 56.5084C43.089 56.4034 42.2703 56.2002 41.572 56.5238C41.3398 56.6375 41.4063 56.8128 41.6384 56.8946C42.2722 57.1451 43.1044 56.9052 43.7334 57.1826C44.1697 57.3618 44.5145 57.7962 44.9778 57.9176C45.7946 58.0784 46.4371 57.3069 46.9543 58.3674C47.2818 59.0455 49.0589 58.7459 48.6448 59.7611C48.4406 60.1618 48.2277 60.7446 47.8964 61.0374C47.514 61.2801 47.043 60.9767 46.6269 61.0191C45.9584 61.0961 45.6309 61.2801 44.9894 60.9796C44.8025 60.9324 44.6176 60.9815 44.45 61.0663C43.9626 61.3023 43.4444 61.3938 42.9118 61.5344C42.3483 61.6692 41.78 62.0006 41.1847 61.9765C40.995 61.963 40.5481 61.834 40.7523 61.6038C40.8717 61.5017 41.2223 61.4689 41.3128 61.3832C41.413 61.2416 41.1395 61.1491 41.0412 61.0836C40.6627 60.8919 40.3814 60.8043 40.1609 61.0547C39.9942 61.2541 39.895 61.519 39.7496 61.7367C39.5887 61.9871 39.3845 62.2154 39.4346 62.4591C39.6552 63.1613 40.577 62.9744 41.1501 63.037C41.7521 63.0524 42.2674 63.6997 41.9871 64.268C41.8898 64.5791 41.5209 64.8006 41.465 65.1079C41.5026 65.4701 42.0796 65.7609 41.4429 65.9969C40.6078 66.2926 39.8025 66.1135 39.1485 65.5558C38.4136 64.9191 36.8773 64.4337 36.3678 65.551C36.047 66.8041 37.6353 66.4631 38.3693 66.5691C39.2853 66.755 40.4835 66.9563 40.8707 67.9445C40.9738 68.1266 41.1549 68.1256 41.3177 68.0322C41.7386 67.7952 42.1479 67.5506 42.5535 67.3204C42.8386 67.1374 43.0139 67.2847 42.7548 67.5901C42.4273 67.9378 41.8657 68.0688 41.6153 68.5032C41.334 68.9472 41.3995 69.5454 41.0287 69.8623C40.7186 70.0935 40.6704 70.3082 41.0817 70.4633C41.7155 70.7321 42.0863 70.263 42.5236 69.8343C42.5881 69.791 42.6382 69.7843 42.6604 69.8209C42.7345 70.0231 42.4639 70.4441 42.3926 70.6733C42.2549 71.0605 42.0873 71.3745 41.6663 71.3813C40.1792 71.4737 39.0021 71.5132 39.2843 73.2672C39.2882 73.4435 39.215 73.5899 39.0657 73.7007C38.5523 74.0127 37.8617 73.9395 37.3078 74.1418C36.5488 74.2054 34.7997 76.2715 36.3369 76.3215C36.8243 76.257 37.1797 75.7407 37.5968 75.5789C37.8482 75.4739 38.1333 75.4672 38.3741 75.3323C38.5879 75.2177 38.7604 75.0414 38.9443 74.8854C39.6099 74.3344 39.6349 74.4221 39.7226 73.6159C39.8825 73.3134 40.1011 73.038 40.366 72.7895C40.6251 72.6045 40.7561 72.7105 40.5471 72.9792C40.3313 73.2797 40.1348 73.5783 40.1686 73.9366C40.1647 74.4722 41.0133 75.29 41.2387 74.4385C41.3562 73.9684 41.3042 73.4714 41.4573 72.9869C41.6346 72.4234 42.0266 72.7712 42.1537 73.1179C42.4119 73.6602 42.1499 74.2661 42.4812 74.7708C42.6132 74.9345 42.6334 75.132 42.435 75.2466C41.9524 75.4999 41.8686 76.7454 42.2606 77.0854C42.9484 77.3445 43.1439 77.3743 43.1034 78.2162C43.1083 79.1996 42.7923 79.6995 41.8956 79.1322C41.5777 78.9954 41.1221 79.2497 41.1347 79.5878C41.2878 80.0386 41.858 79.9904 42.2578 80.1859C42.6353 80.3304 43.09 80.6993 43.4685 80.3699C43.7902 80.0376 43.9992 79.7958 44.4818 79.7014C44.7621 79.6205 45.0366 79.5242 45.2957 79.3922C45.4132 79.3258 45.6087 79.2882 45.5683 79.4751C45.4392 79.9856 44.7236 79.9991 44.5589 80.5067C44.3758 80.943 44.6224 81.5816 45.0588 81.7829C45.2552 81.8349 45.4806 81.7222 45.6752 81.7656C46.0171 81.8744 46.2618 82.2327 46.6635 82.252C46.964 82.279 47.2077 82.0574 47.4918 82.0054C48.01 81.9216 47.8405 82.3811 47.7625 82.7182C47.722 82.9291 47.7577 83.3973 47.9946 83.3838C48.3645 83.22 48.4377 82.7827 48.4329 82.2876C48.4319 82.1692 48.4155 81.9987 48.483 81.9052L48.4907 81.8956L48.4887 81.8927ZM59.4057 93.9135C59.5627 93.7874 59.5983 93.561 59.7265 93.3558C59.8382 93.142 60.0934 92.9445 60.3236 93.1141C60.5086 93.2162 60.707 93.5716 60.8409 93.5957C60.9632 93.6053 60.996 93.4136 61.0335 93.3173C61.1587 92.906 61.2888 92.5853 61.5113 92.252C61.8224 91.8426 62.1624 91.3533 62.5987 91.0567C62.827 90.9189 63.1073 90.9112 63.3703 90.8515C64.2054 90.7417 64.2294 89.2969 64.9913 89.5252C65.2427 89.5984 65.4277 89.8334 65.6945 89.8421C65.9603 89.8546 66.2156 89.6831 66.3466 89.4587C66.5787 89.0715 66.5026 88.5254 66.6326 88.0688C66.8166 87.4254 67.2491 86.9245 67.4764 86.2965C67.5486 86.1039 67.6007 85.8948 67.6585 85.6964C67.8087 85.1445 68.1304 84.7467 68.3577 84.2275C68.6034 83.6795 68.7498 83.1815 69.1774 82.8058C69.2757 82.7172 69.397 82.6084 69.3807 82.4716C69.3335 82.2183 68.8528 81.9438 68.6274 81.8754C68.1372 81.7059 67.7962 82.434 67.6132 82.8309C67.0844 83.9742 66.4515 85.1243 66.0065 86.2984C65.9305 86.5074 65.8544 86.7232 65.865 86.9447C65.8679 87.1172 65.9343 87.3146 65.9382 87.489C65.9411 87.6257 65.8939 87.7413 65.7686 87.7837C65.55 87.855 65.2071 87.7018 64.9595 87.829C64.5974 88.0033 64.4307 88.4127 64.2034 88.7238C63.9829 89.0532 63.6554 89.2853 63.3491 89.5464C62.748 90.0395 62.3165 90.6907 61.5845 91.0153C60.89 91.2946 60.3872 91.8253 59.8266 92.3156C59.4105 92.698 58.8673 92.96 58.3182 92.9715C58.1535 92.9879 58.0014 93.0197 57.8472 93.089C57.3165 93.3327 56.8869 93.7989 56.3543 94.0031C55.942 94.1688 55.4912 94.2121 55.0549 94.2824C54.608 94.3508 54.1851 94.4308 53.7343 94.4529C53.2258 94.4895 52.6931 94.503 52.2211 94.713C51.9332 94.8093 51.7328 95.1416 51.4612 95.2062C51.3678 95.2254 51.2782 95.2168 51.1799 95.1984C49.1437 94.7554 47.0439 94.6321 45.0453 93.9829C43.9357 93.6188 42.8858 93.1073 41.8243 92.6257C41.3793 92.4235 40.9305 92.226 40.4729 92.0459C40.2013 91.9158 39.9923 91.9977 39.8912 92.2645C39.5165 93.0524 39.3132 93.7893 39.3864 94.6408C39.3999 95.2216 39.1765 95.8111 39.3373 96.3774C39.4144 96.6789 39.6976 96.9823 39.8305 96.5402C39.9624 96.0634 39.7255 95.5076 39.8892 95.0626C39.9201 94.9788 39.9672 94.9018 40.0308 94.8382C40.5587 94.4231 40.5683 94.4992 40.5317 93.7931C40.5086 93.4955 40.7455 93.1988 41.0229 93.4464C41.2146 93.6747 41.2396 94.059 41.5536 94.1813C41.7983 94.2959 42.0815 94.2747 42.3859 94.3508C42.9985 94.4616 43.2662 94.9172 43.4724 95.4595C43.8403 96.3938 44.3864 96.4718 45.2514 96.0971C45.6627 95.9372 45.9921 95.6858 46.4207 95.6589C46.9293 95.6512 47.383 96.0008 47.9031 95.9141C48.6958 95.8043 49.0416 95.918 49.6793 96.3967C49.7968 96.4708 49.9258 96.5392 50.0578 96.5787C50.8062 96.8118 51.1318 95.9632 51.674 95.708C51.7877 95.6666 51.91 95.6666 52.0304 95.681C52.7105 95.7629 53.4069 95.9777 54.0936 95.6974C54.6956 95.4055 54.4982 96.1251 54.9306 96.311C55.4623 96.5267 55.7975 95.9343 56.0875 95.5924C56.5016 95.132 57.1364 94.9971 57.6584 94.6908C58.1073 94.426 58.5687 94.1707 59.0772 94.0522C59.188 94.0233 59.3036 93.9916 59.3913 93.9241L59.4038 93.9145L59.4057 93.9135ZM54.868 88.8663C54.921 88.8634 54.9692 88.8037 55.0231 88.7151C55.2938 88.2788 55.5086 87.5978 56.1048 87.5824C57.1306 87.6662 57.146 87.7529 57.9031 86.964C58.2605 86.6346 58.7257 86.4737 59.1293 86.2117C59.4924 85.9883 59.9827 85.5693 59.9008 85.1561C59.7428 84.8998 58.8249 85.1984 58.5446 85.2832C57.3261 85.7301 56.1607 86.3013 54.8767 86.544C53.7642 86.7492 52.618 86.8879 51.4872 86.8051C50.8688 86.7213 50.3265 86.3822 49.711 86.1954C49.3787 86.0952 49.0089 86.0278 48.6929 85.8891C48.1844 85.6762 47.7731 85.3015 47.3165 84.9981C46.8648 84.6956 46.3745 84.451 45.9333 84.1293C45.2658 83.6477 44.8189 82.8742 44.1919 82.3416C43.271 81.4593 42.9917 82.5978 42.7085 83.3086C42.591 83.6313 42.4427 83.8509 42.2115 84.0975C41.8214 84.5059 41.0826 85.3208 41.9303 85.6637C42.2818 85.786 42.7336 85.7638 43.062 85.5789C43.5061 85.3362 43.2007 84.6908 43.5562 84.3845C43.8634 84.1254 44.5483 84.1514 44.4471 84.6985C44.3864 85.1214 44.0464 85.5375 43.9771 85.9642C43.8885 86.5778 44.844 87.0112 45.131 86.3938C45.2668 86.1106 45.0722 85.7118 45.1859 85.4354C45.2581 85.2871 45.4681 85.2668 45.6319 85.3381C46.0865 85.5741 46.3822 86.1636 46.6962 86.5691C47.2375 87.3589 48.1632 87.7558 49.0532 88.0139C49.4645 88.115 49.8497 88.3327 50.2581 88.4541C50.524 88.5408 50.7869 88.4965 50.996 88.3154C51.2541 88.1112 51.3533 87.8425 51.6317 87.827C52.1595 87.8116 52.5284 88.2778 52.9493 88.5234C53.2682 88.7353 53.7295 88.6034 54.0782 88.4926C54.3537 88.3963 54.5232 88.5456 54.6879 88.7421C54.7197 88.7768 54.7997 88.8654 54.8584 88.8644H54.868V88.8663ZM33.4107 86.8022C33.4772 86.8426 33.4964 86.9717 33.507 87.0603C33.5436 87.566 33.7825 87.9445 34.3209 87.9099C34.5849 87.8742 34.7698 88.0216 34.868 88.2595C35.0751 88.7074 35.1252 89.2853 35.3487 89.7554C35.5278 90.1599 35.889 90.4412 36.0287 90.866C36.2127 91.4073 35.9411 92.0825 36.3793 92.5342C36.6769 92.8453 37.2308 92.7038 37.6247 92.9243C38.0139 93.1093 38.3385 93.5726 38.8114 93.4801C39.3421 93.3607 39.4539 92.6469 39.5849 92.1297C39.6292 91.9563 39.7322 91.8754 39.7159 91.7251C39.7062 91.6625 39.661 91.5951 39.5906 91.5152C38.5494 90.3439 37.3618 89.2873 36.2772 88.1555C35.2524 87.0064 34.4943 85.7051 33.7555 84.3653C33.3789 83.7325 32.8675 82.8241 32.0757 82.7683C31.8002 82.7635 31.4641 82.8867 31.3417 83.1526C31.2599 83.3443 31.4092 83.562 31.4843 83.8066C31.5315 83.9501 31.5546 84.0994 31.5527 84.2507C31.545 84.6311 31.4429 85.0241 31.3658 85.393C31.3417 85.5105 31.3321 85.6049 31.3639 85.6463C31.3986 85.6964 31.492 85.6733 31.6201 85.6194C31.9563 85.4807 32.4485 85.2765 32.75 85.5789C33.1535 85.9575 32.408 87.0622 32.9359 86.9091C33.0736 86.8792 33.2672 86.7386 33.3992 86.7983L33.4078 86.8032L33.4107 86.8022ZM63.8297 63.3549C63.743 63.1516 63.9135 62.8578 63.9183 62.6344C63.9809 62.1942 63.6977 62.2732 63.3173 62.382C63.011 62.4591 62.6941 62.513 62.4369 62.4206C62.016 62.2732 61.8407 61.8031 61.571 61.4862C61.3822 61.2599 61.1144 61.0268 60.8563 60.8544C60.6877 60.7436 60.498 60.7166 60.3246 60.8428C60.0877 61.0114 59.7997 61.2348 59.5136 61.1693C59.32 61.1308 59.0917 61.0075 58.8894 60.943C58.6515 60.8592 58.3934 60.8091 58.1468 60.811C57.3753 60.812 56.6962 61.2445 55.9237 61.2291C54.9913 61.2108 54.0243 60.7272 53.2845 61.3466C53.193 61.4179 53.0909 61.5469 53.1179 61.649C53.4232 62.1942 55.6521 62.041 56.2772 61.9746C56.7424 61.9447 57.9291 61.6558 58.0187 62.1191C58.1006 62.4244 57.8694 62.7365 57.9021 63.0389C57.9204 63.246 58.1343 63.4329 58.3548 63.456C58.7835 63.5176 59.0281 62.9609 59.3778 62.7423C59.9933 62.3281 61.2772 63.1873 61.8349 63.5234C62.5852 64.0243 63.3105 64.582 63.9992 65.1378C64.4722 65.5115 64.999 65.9237 65.3602 66.3716C65.7186 66.8003 65.8563 67.382 66.3071 67.7374C66.44 67.8501 66.5854 67.9436 66.7338 68.0332C66.9543 68.1593 67.1797 68.3183 67.4186 68.2807C67.644 68.2451 67.7345 68.0226 67.6825 67.8261C67.5573 67.2568 66.7049 66.4419 66.2329 66.0037C66.1347 65.9006 66.0152 65.8419 65.9459 65.7715C65.8765 65.6993 65.8351 65.5779 65.8014 65.4701C65.602 64.6667 64.8488 64.3287 64.9644 63.3789C64.9759 63.1468 65.0279 62.9002 65.0501 62.6739C65.0588 62.5438 65.0376 62.4417 64.9894 62.4263C64.8912 62.4119 64.8199 62.5564 64.7688 62.6344C64.5877 62.9648 64.3913 63.3356 64.0493 63.4184C63.9723 63.4367 63.8788 63.431 63.8345 63.3655L63.8278 63.3558L63.8297 63.3549ZM53.247 76.9322C53.2017 76.8532 53.2152 76.7454 53.2393 76.6539C53.4541 75.942 53.6563 75.0019 54.4067 74.712C54.5242 74.6831 54.6369 74.7091 54.7457 74.7554C55.1233 74.9422 55.6319 75.2745 56.0981 75.1069C56.4149 74.9981 56.78 74.7034 56.7781 74.3441C56.7463 74.1331 56.3726 74.11 56.0566 74.0021C55.7686 73.9126 55.5134 73.7488 55.2899 73.5754C54.5926 72.9831 54.0618 72.6556 53.1555 73.1545C52.3233 73.6255 51.2445 74.7833 51.0277 75.7061C50.9208 76.1703 51.0432 76.649 51.1289 77.1143C51.2743 77.9754 51.2242 78.3317 52.198 78.6236C53.2518 79.0108 54.5328 79.2343 55.5924 78.7604C56.5315 78.3905 56.6201 76.8792 55.8495 76.2426C54.6407 75.4142 54.3768 77.0449 53.5061 77.0594C53.4107 77.0574 53.3019 77.0228 53.2527 76.9447L53.246 76.9332L53.247 76.9322ZM64.554 77.4909C64.5858 77.3965 64.5406 77.277 64.4905 77.1826C64.2034 76.6105 63.8442 76.0181 63.8634 75.3612C63.874 75.0183 63.9992 74.6822 63.9963 74.3412C64.0089 73.9501 63.6852 73.6631 63.5253 73.3337C63.3654 73.0004 63.3288 72.618 63.1343 72.2992C62.8357 71.7453 62.1797 71.4612 61.9495 70.8486C61.7463 69.9605 62.305 69.6581 61.1212 69.2728C60.7561 69.1514 60.3535 68.9752 60.0327 69.1023C59.7245 69.2006 59.5136 69.5232 59.5675 69.8459C59.5897 70.0087 59.6812 70.1878 59.8555 70.2129C60.0019 70.2408 60.21 70.1281 60.339 70.1801C60.4691 70.2312 60.4922 70.392 60.5172 70.5163C60.5635 70.812 60.6579 71.0644 60.7985 71.2907C61.02 71.6615 61.3861 71.9486 61.6972 72.2491C62.7856 73.457 63.2845 75.7831 63.1112 77.6132C63.0389 78.1776 62.879 78.7488 62.3733 78.9867C62.2606 79.0436 62.3098 79.0985 62.4157 79.1437C63.1381 79.4539 64.3643 79.9336 64.9538 79.3614C65.1165 79.2083 65.2947 78.8808 65.1397 78.6852C64.9692 78.5167 64.6754 78.5658 64.4259 78.4676C64.1822 78.3886 64.0127 78.1748 64.1697 77.9523C64.2641 77.7866 64.4905 77.671 64.5502 77.5044L64.555 77.4909H64.554ZM35.418 69.007C35.4469 69.0657 35.5404 69.0821 35.6107 69.0898C36.1886 69.1668 37.67 69.0725 37.4437 69.7814C37.2674 70.3429 36.2714 70.8553 36.3398 71.4535C36.466 72.2607 37.8424 72.2751 38.4377 72.0199C39.4192 71.5672 38.3587 70.8245 38.6583 70.1358C38.8942 69.7505 39.4856 69.9384 39.87 69.8315C40.4797 69.6899 40.497 69.2901 40.1464 68.876C39.8998 68.6246 39.9201 68.2585 39.7833 67.959C39.6494 67.697 39.3797 67.5766 39.0888 67.5602C38.7363 67.5361 38.3683 67.6161 38.0196 67.6777C37.6373 67.749 37.3396 67.7827 36.963 67.8916C36.4853 68.0187 35.4537 68.4512 35.4132 68.9992L35.4171 69.0079L35.418 69.007ZM54.3527 83.6275C54.3874 83.7257 54.5232 83.7989 54.633 83.8297C55.5962 84.1303 56.2907 83.1121 57.0208 82.5246C57.4359 82.1663 57.9927 82.2115 58.3857 81.8465C58.7074 81.5508 58.7035 81.0538 58.9867 80.7475C59.2988 80.3843 60.0241 80.5895 59.9875 79.9365C59.9682 79.5521 59.6475 79.2728 59.6764 78.8528C59.7486 77.9783 60.4257 77.9349 61.0422 77.5438C61.5671 77.2125 61.1347 76.6365 60.6791 76.4535C59.9701 76.1944 59.4144 77.0305 59.2025 77.6113C58.8653 78.4984 59.137 79.5146 58.3693 80.2235C58.0572 80.5067 57.7028 80.6993 57.3589 80.943C56.7357 81.363 56.0489 81.8147 55.3699 81.9534C54.9095 82.0661 53.8721 81.7723 53.9732 82.5506C54.0329 82.8473 54.4471 83.0004 54.4009 83.2903C54.3816 83.3953 54.3142 83.508 54.3479 83.614L54.3527 83.6275ZM38.9193 78.2557C38.5802 78.4733 38.0832 78.5282 37.8318 78.8577C37.5795 79.1505 37.6238 79.6186 37.9079 79.8758C38.3587 80.2967 39.2545 80.3294 39.6176 79.7756C39.7602 79.5791 39.7775 79.3027 39.7717 79.0667C39.7765 78.953 39.8045 78.8673 39.8815 78.8008C40.2736 78.5244 40.89 78.2634 41.1713 77.8376C41.2599 77.6989 41.2281 77.5429 41.0942 77.4581C40.7513 77.2298 40.0019 77.4283 39.4962 77.7355C39.2265 77.8858 39.1158 78.0601 38.9308 78.247L38.9193 78.2566V78.2557ZM39.3999 83.639C39.4722 83.613 39.5666 83.6477 39.6426 83.6785C40.21 83.8875 40.968 84.2979 41.4901 83.9232C42.0372 83.4907 41.0875 82.2722 40.5943 82.1595C40.0578 82.0064 39.5531 82.4735 39.3065 83.0688C39.2468 83.2104 39.1639 83.3443 39.006 83.3761C38.6833 83.4233 38.1872 83.4541 38.1516 83.77C38.1275 84.0368 38.3481 84.3662 38.6149 84.4086C38.8798 84.4385 39.0984 84.0676 39.2497 83.7922C39.2853 83.7325 39.3267 83.6708 39.3874 83.6438L39.399 83.639H39.3999ZM68.8933 78.7835C69.1784 79.0542 69.5598 78.9829 69.687 78.5899C69.7794 78.3115 69.7814 77.9609 69.8295 77.6691C69.9461 76.9987 70.1454 75.892 69.8969 75.2813C69.7794 75.0077 69.425 74.6504 69.1476 74.9384C68.7873 75.3468 68.7035 75.9613 68.6775 76.4911C68.6428 77.1942 68.6274 77.8636 68.77 78.5446C68.7912 78.6313 68.8268 78.7093 68.8817 78.77L68.8933 78.7825V78.7835ZM46.9948 65.1936C46.6076 65.7292 46.7559 66.9255 47.5438 66.4082C47.827 66.2175 47.7894 65.7927 48.0794 65.6155C48.402 65.4132 48.7498 65.7677 49.0888 65.6434C49.6195 65.4826 49.8228 64.6947 49.4269 64.3152C48.9366 63.8548 48.2624 64.3181 47.7952 64.609C47.4909 64.8266 47.2337 64.9673 47.0044 65.1811L46.9938 65.1927L46.9948 65.1936ZM58.5976 58.7055C58.7055 58.7565 58.7989 58.7498 58.9058 58.7161C59.4924 58.4878 58.821 57.5043 58.6448 57.1653C58.2335 56.4718 57.6324 55.4527 56.9958 55.1146C56.3379 54.8083 55.9227 55.5635 56.4381 56.0374C56.6866 56.2811 57.0266 56.439 57.2789 56.677C57.8126 57.1672 58.0649 57.8145 58.378 58.4483C58.4252 58.5456 58.4887 58.6467 58.5822 58.6968L58.5976 58.7045V58.7055ZM31.2098 90.3285C30.9911 90.7754 31.2088 91.3899 31.7781 91.0528C32.3656 90.7195 32.5111 89.792 32.3897 89.1659C32.3175 88.8317 32.0189 88.4175 31.65 88.4849C31.2926 88.5986 31.2917 89.1717 31.439 89.4433C31.6384 89.8835 31.4814 89.9885 31.2194 90.3131L31.2098 90.3285ZM37.0121 78.0072C37.3387 78.3684 38.2662 77.5477 38.5619 77.3329C38.8345 77.1229 39.1553 76.99 39.4606 76.7964C39.7409 76.6018 40.3179 76.2859 40.1088 75.89C40.0385 75.7802 39.9123 75.7167 39.7823 75.7388C39.3383 75.8457 38.9646 76.2638 38.5841 76.4901C37.9879 76.8041 37.4437 77.1875 37.0863 77.7654C37.043 77.8309 36.9919 77.9349 37.0092 77.9956L37.0121 78.0062V78.0072ZM57.3281 60.0838C57.3888 59.9403 57.3531 59.7457 57.251 59.635C56.9958 59.4067 56.5431 59.4789 56.2666 59.2352C55.9892 59.0214 55.7128 58.5369 55.3381 58.8981C55.1474 59.0696 55.0597 59.3296 55.1387 59.5714C55.3776 60.3053 56.8166 60.7773 57.3204 60.0992L57.3281 60.0828V60.0838ZM68.5109 70.1763C68.402 70.1118 68.2181 70.2187 68.1073 70.262C67.6459 70.4518 67.879 70.9054 67.9696 71.3254C68.0938 71.8494 68.1083 72.4552 68.5812 72.7875C69.1341 73.1719 69.4934 72.6585 69.3441 72.1008C69.2631 71.7733 69.0195 71.6009 68.744 71.466C68.5889 71.387 68.3905 71.3331 68.3308 71.2146C68.2874 71.1366 68.3028 71.0412 68.325 70.9574C68.3809 70.7706 68.4444 70.5808 68.5032 70.3901C68.5196 70.3256 68.5523 70.2389 68.5167 70.1821L68.5109 70.1753V70.1763ZM59.0503 66.544C59.0069 66.2743 59.3643 66.1318 59.3778 65.8698C59.3816 65.5982 59.1668 65.3179 58.9578 65.131C58.7931 64.9384 57.619 64.3181 57.6748 64.8719C57.7971 65.4325 58.1449 65.8891 58.4964 66.2676C58.6852 66.4496 58.6794 66.6587 58.6756 66.9293C58.6669 67.1162 58.7738 67.462 59.0002 67.3185C59.1582 67.1875 59.111 66.78 59.0532 66.5594L59.0512 66.545L59.0503 66.544ZM28.3886 88.6342C28.4608 88.5966 28.5118 88.5321 28.5513 88.4628C28.6409 88.2942 28.7449 88.1054 28.849 87.9128C29.0435 87.5371 29.2429 87.1807 29.3094 86.7694C29.3315 86.5835 29.3306 86.387 29.215 86.2734C29.0551 86.126 28.7083 86.2907 28.5773 86.4651C28.2527 86.8494 27.1393 88.9376 28.3731 88.6419L28.3886 88.6342ZM50.0366 61.0653C49.9836 61.1019 49.9653 61.1838 49.9576 61.2522C49.9095 61.729 49.8083 62.4186 50.1512 62.6825C50.4238 62.9041 50.759 62.6951 51.048 62.5708C51.2801 62.4562 51.6403 62.2722 51.8012 62.1374C51.885 62.0353 51.7097 61.9505 51.6403 61.885C51.2551 61.6018 50.5095 60.9738 50.0472 61.0576L50.0366 61.0644V61.0653ZM62.0401 82.8482C61.9736 82.8242 61.886 82.8617 61.8214 82.8993C61.1857 83.2711 60.7311 83.8817 60.629 84.5974C60.6184 84.6745 60.6232 84.7756 60.6858 84.818C60.7455 84.8633 60.8582 84.8478 60.9372 84.8267C61.755 84.6167 62.3271 83.8605 62.1691 83.0611C62.1547 82.9831 62.121 82.8829 62.0526 82.8521L62.0401 82.8473V82.8482ZM54.8912 57.4716C54.6003 57.225 54.2323 56.6943 53.7989 56.8089C53.3914 56.9688 53.4049 57.8261 53.56 58.1208C53.8259 58.5302 54.7785 58.3 55.0183 57.9628C55.1271 57.8068 55.0501 57.6344 54.9056 57.4851L54.8921 57.4706L54.8912 57.4716ZM64.6715 56.2705C64.6879 56.177 64.4057 56.021 64.2988 55.9208C63.9588 55.654 62.7894 54.7814 62.8183 55.732C62.8915 56.0412 63.2653 56.4949 63.5629 56.6808C63.849 56.8503 64.188 56.7001 64.4298 56.5103C64.5348 56.4294 64.6542 56.3446 64.6696 56.2801L64.6715 56.2705ZM59.5088 73.5504C59.5136 73.5928 59.5492 73.613 59.5858 73.6275C59.6812 73.6621 59.8334 73.7151 60.0116 73.7796C60.4026 73.9174 60.9391 74.1004 61.3562 74.1408C61.6673 74.1707 61.8975 74.1139 61.9235 73.8933C61.9399 73.7584 61.8917 73.6101 61.7819 73.5263C61.4438 73.3057 60.8592 73.2836 60.4999 73.2239C60.0376 73.1661 59.6436 72.9311 59.5088 73.5408V73.5504ZM68.455 80.6849C68.5484 80.7658 68.69 80.7831 68.8442 80.8293C69.0859 80.8871 69.3624 80.9719 69.5993 80.8688C69.9018 80.7253 69.7717 80.0906 69.6253 79.8392C69.1533 79.1813 67.9233 80.0106 68.4425 80.6733L68.455 80.6849ZM35.2138 69.5743C34.8074 69.8209 34.8314 71.3851 35.5182 71.2522C36.0056 71.1212 36.0682 70.0992 35.8524 69.7111C35.733 69.5107 35.4257 69.5059 35.2292 69.5675L35.2138 69.5743ZM60.6348 74.6764C60.394 74.817 60.2764 75.2158 60.2138 75.4864C60.1108 75.9825 60.3641 76.2551 60.8399 76.1058C61.5536 75.9131 61.5594 74.4202 60.6502 74.6706L60.6348 74.6773V74.6764ZM36.5334 61.5623C36.3157 61.7444 36.1164 62.1094 36.0123 62.3849C35.8823 62.7095 36.0884 62.9831 36.4265 62.9301C36.8484 62.8521 37.224 62.1778 37.434 61.7771C37.4571 61.7328 37.4822 61.6808 37.4745 61.6346C37.4658 61.5315 37.2587 61.4718 37.1219 61.4458C36.9332 61.4121 36.7232 61.4516 36.5479 61.5537L36.5334 61.5633V61.5623ZM37.6642 81.6577C37.9243 81.4516 38.2576 81.0355 38.0746 80.6926C37.9359 80.4402 37.4889 80.2206 37.2038 80.4161C36.9226 80.602 36.8763 81.021 36.9312 81.3283C36.9842 81.702 37.3579 81.7646 37.6517 81.6644L37.6642 81.6577ZM62.566 80.3487C62.2568 80.6598 62.1007 81.2223 62.6565 81.363C62.9445 81.4208 63.0765 81.0817 63.2624 80.8631C63.4569 80.6194 63.8201 80.3005 63.5899 80.028C63.245 79.6215 62.8338 80.0665 62.5785 80.3343L62.566 80.3477V80.3487ZM39.3758 64.7631C39.3527 65.0183 39.4192 65.3448 39.7438 65.3843C40.0867 65.4344 40.5635 65.3747 40.7397 65.0472C41.0875 64.3479 40.2533 64.3007 39.7804 64.4799C39.633 64.5396 39.4384 64.5945 39.3807 64.7467L39.3758 64.7631ZM55.0934 56.4506C55.1031 56.413 55.0414 56.3148 55.0116 56.2647C54.5945 55.5779 54.1033 54.8864 53.3173 54.7486C53.2421 54.7361 53.1372 54.7361 53.0929 54.792C53.0505 54.842 53.0659 54.9297 53.09 54.9942C53.3404 55.6704 54.3036 56.0807 54.9441 56.414C54.9865 56.4333 55.0626 56.4795 55.0905 56.4564L55.0934 56.4516V56.4506ZM44.0724 87.5284C43.5513 88.0727 44.2747 88.6236 44.7929 88.2595C45.0077 88.1016 45.1849 87.7827 45.104 87.5352C44.9316 87.1277 44.3508 87.227 44.0869 87.5121L44.0715 87.5284H44.0724ZM30.3814 87.4928C30.3487 87.4716 30.287 87.4986 30.2475 87.5178C29.8199 87.7269 29.1196 88.4714 29.1736 88.8866C29.1948 89.0359 29.3306 89.2054 29.4953 89.162C29.895 89.0725 30.497 87.8607 30.3872 87.4986L30.3805 87.4938L30.3814 87.4928ZM57.0873 73.1015C57.0699 73.2017 57.2154 73.2412 57.2953 73.2682C57.7047 73.3789 58.1323 73.4955 58.6294 73.6265C58.7343 73.6563 58.8721 73.6525 58.8576 73.5157C58.8076 73.1892 58.7151 72.8685 58.6525 72.565C58.6197 72.3772 58.5157 72.3242 58.3433 72.4128C57.9426 72.6122 57.5804 72.7962 57.2318 72.9725C57.1778 73.0004 57.1123 73.0418 57.0902 73.0919L57.0863 73.1025L57.0873 73.1015ZM68.8422 69.8767C68.9222 69.8623 68.9983 69.7987 69.0474 69.7303C69.606 68.9559 67.2972 68.1574 67.6238 69.2516C67.671 69.345 67.7663 69.398 67.8569 69.4423C68.1352 69.582 68.3914 69.7207 68.6766 69.8575C68.7238 69.8758 68.7738 69.8854 68.8239 69.8796L68.8422 69.8767ZM61.3437 81.2233C61.2204 81.1289 60.8601 81.1241 60.6762 81.1405C60.2215 81.1742 59.9229 81.4795 60.0559 81.9524C60.2562 82.6623 60.9276 81.8089 61.1539 81.5354C61.2223 81.4391 61.3783 81.2801 61.3485 81.231L61.3446 81.2233H61.3437ZM22.4851 81.4265C22.4359 81.4699 22.4003 81.5277 22.3733 81.5874C22.2077 81.9602 22.1441 82.1701 22.2549 82.565C22.2818 82.6864 22.3926 82.75 22.5063 82.6922C22.8357 82.5477 23.0283 82.4186 23.0562 81.9871C23.063 81.8041 23.0774 81.5585 22.9715 81.4111C22.9012 81.2975 22.6295 81.3071 22.5014 81.413L22.4851 81.4265ZM20.0183 75.2562C19.7255 75.3805 18.8933 76.283 19.0869 76.6481C19.214 76.8821 19.607 76.912 19.7611 76.6721C19.9913 76.3553 20.0424 75.9074 20.0578 75.5288C20.0578 75.4026 20.0607 75.2774 20.0241 75.2591L20.0183 75.2572V75.2562ZM26.8108 86.7598C26.3909 86.7232 25.7956 87.4071 26.1741 87.7769C26.3793 87.9571 26.8368 88.0004 26.9823 87.7095C27.1296 87.4408 27.0747 86.9438 26.8253 86.7656L26.8108 86.7608V86.7598ZM67.3329 66.6432C67.6565 66.5604 67.9214 65.9815 67.8424 65.6569C67.7471 65.263 67.1123 65.4094 66.9813 65.7089C66.8946 65.9401 67.016 66.1867 67.1268 66.3918C67.1817 66.4737 67.2318 66.6095 67.3204 66.6413L67.3329 66.6432ZM27.6064 82.4841C27.5891 82.8925 28.2547 83.3221 28.5494 82.9224C28.7286 82.6883 28.7681 82.1981 28.3818 82.1788C28.1391 82.1605 27.7413 82.2684 27.6112 82.4697L27.6064 82.4841ZM64.7563 73.1073C64.8016 73.0717 64.7891 72.9465 64.7997 72.829C64.8054 72.698 64.8093 72.5602 64.7997 72.4292C64.7823 72.0141 64.608 71.8137 64.2651 72.0131C63.8509 72.2424 63.6631 72.6363 64.161 72.9185C64.3267 73.0043 64.5608 73.1343 64.7467 73.1131L64.7553 73.1073H64.7563ZM33.1815 91.6548C33.2836 91.7492 33.3943 91.6095 33.4358 91.5142C33.6891 90.996 34.0705 90.4123 33.8586 89.9076C33.8104 89.8006 33.7035 89.8372 33.6409 89.9133C33.2749 90.3092 33.0919 90.9189 33.1179 91.466C33.1208 91.5286 33.1333 91.598 33.1718 91.6433L33.1815 91.6539V91.6548ZM72.6662 84.476C72.7085 84.5377 72.8338 84.4809 72.9079 84.4183C73.0967 84.2853 73.3231 84.1187 73.4887 83.9444C73.6043 83.8162 73.743 83.6583 73.6881 83.4791C73.6178 83.2874 73.271 83.1709 73.0996 83.3327C72.8549 83.5437 72.7711 83.9029 72.6902 84.2015C72.6662 84.3171 72.6257 84.4144 72.6594 84.4674L72.6652 84.476H72.6662ZM52.8058 69.0253C52.7952 68.7662 52.4966 68.4387 52.2308 68.3963C51.9428 68.3587 51.7954 68.7392 51.8128 68.9752C51.8638 69.4144 52.6093 69.3017 52.802 69.0397L52.8058 69.0262V69.0253ZM51.3812 55.549C51.3591 55.499 51.2445 55.4768 51.1289 55.4546C50.8361 55.4132 50.4778 55.4007 50.2215 55.5731C50.0173 55.7032 50.0703 56.0586 50.2697 56.1751C50.6068 56.3639 51.3196 55.8794 51.3841 55.5577L51.3812 55.549ZM61.1164 66.4882C61.3735 66.5354 61.6962 66.4795 61.9043 66.4882C61.9938 66.4843 62.0198 66.4362 61.9929 66.336C61.858 65.6492 61.336 65.315 61.1135 66.2454C61.1 66.3264 61.0615 66.4092 61.1058 66.4814L61.1164 66.4882ZM20.5741 71.0942C20.6299 71.048 20.6107 70.9025 20.6213 70.8062C20.6502 70.4864 20.5394 70.1782 20.1705 70.2129C19.8237 70.2427 19.7881 70.6887 19.7669 70.9854C19.7669 71.0143 19.7717 71.0384 19.7814 71.0567C19.817 71.1222 19.9432 71.1 20.0472 71.1096C20.2013 71.1029 20.4161 71.1539 20.5625 71.1029L20.5741 71.0942ZM41.6452 81.7617C41.6981 81.7829 41.7925 81.7261 41.8821 81.6779C42.0381 81.5874 42.199 81.4622 42.304 81.3167C42.6045 80.9295 41.9823 80.7552 41.7126 80.8891C41.4371 81.0364 41.4853 81.5498 41.6346 81.756L41.6452 81.7617ZM26.6452 85.8187C26.6557 85.8602 26.8253 85.8698 26.9177 85.8891C27.1614 85.9131 27.8453 86.048 27.748 85.6165C27.6199 85.2042 27.2712 85.1089 26.9592 85.4026C26.8532 85.498 26.6644 85.6964 26.6432 85.811L26.6452 85.8187ZM44.711 65.5211C44.6532 65.5914 44.6215 65.7407 44.7081 65.8043C45.0193 66.0422 45.6588 66.4766 45.7619 65.8582C45.8207 65.4951 45.4055 65.4566 45.0578 65.4691C44.9461 65.4797 44.7785 65.4643 44.7207 65.5124L44.711 65.5211ZM29.7852 80.1946C29.7698 80.0626 29.6041 80.1252 29.5232 80.1715C29.0387 80.4267 28.8962 80.6078 28.7709 81.1183C28.7469 81.2426 28.8625 81.2445 28.9501 81.2079C29.4731 81.0027 29.6744 80.6213 29.7862 80.21V80.1946H29.7852ZM57.4186 75.7061C57.3502 75.6608 57.2491 75.6945 57.1701 75.6955C57.0381 75.7099 56.8811 75.7147 56.7665 75.7369C56.6365 75.7696 56.7761 76.256 56.8484 76.3061C56.9177 76.3813 57.0353 76.414 57.2269 76.4477C57.2915 76.4574 57.3993 76.4853 57.4244 76.4044C57.4465 76.2127 57.4446 76.0345 57.4571 75.8265C57.4571 75.7908 57.4543 75.7417 57.4302 75.7166L57.4186 75.7061ZM26.2743 84.242C26.3369 84.4298 26.5806 84.3268 26.7078 84.2815C26.9659 84.1929 26.9409 83.9472 26.9486 83.6747C26.9418 83.6612 26.9293 83.6342 26.9226 83.6207C26.8966 83.6111 26.8657 83.6043 26.8388 83.6082C26.6866 83.6313 26.5546 83.6477 26.4535 83.7411C26.3774 83.8114 26.2811 84.0551 26.2714 84.2266L26.2743 84.243V84.242ZM50.1503 70.1108C50.2215 70.1599 50.3294 70.1223 50.4132 70.1243C50.5721 70.1098 50.734 70.1079 50.8833 70.0857C50.942 70.0703 50.9613 70.0097 50.9661 69.9528C50.9642 69.8189 50.9931 69.686 50.9016 69.5974C50.7609 69.5011 50.4999 69.5088 50.3256 69.5396C50.1098 69.5858 50.13 69.739 50.1156 69.9933C50.1156 70.028 50.1175 70.0751 50.1387 70.1002L50.1493 70.1118L50.1503 70.1108ZM70.5837 65.4065C70.55 65.3949 70.5461 65.3997 70.5211 65.3997C70.3082 65.4248 70.0954 65.4508 70.0125 65.5182C69.9133 65.5702 69.8623 65.8062 69.8459 65.9912C69.842 66.0297 69.8372 66.0759 69.8594 66.1106C69.9143 66.1318 69.9711 66.126 70.0289 66.1173C70.4248 66.0692 70.4585 65.968 70.5664 65.5779C70.5808 65.523 70.603 65.471 70.5914 65.4142L70.5827 65.4075L70.5837 65.4065ZM34.3787 95.0559C34.3999 95.0732 34.4779 95.0482 34.5608 95.0337C34.6504 95.0145 34.7409 94.9923 34.8324 94.9605C35.1551 94.8584 35.2957 94.6465 35.0144 94.3826C34.606 93.9858 34.3961 94.7698 34.3749 95.0511L34.3787 95.0559ZM63.5003 81.8282C63.4569 81.9004 63.5167 82.0449 63.5301 82.1355C63.6583 82.6643 63.9752 82.5785 64.057 82.0151C64.0599 81.9409 64.1148 81.8051 64.031 81.7771C63.8933 81.7839 63.6544 81.78 63.5118 81.8205L63.5013 81.8292L63.5003 81.8282ZM40.8592 59.6783C40.7908 59.4288 40.5221 59.6725 40.4123 59.738C40.2225 59.8632 40.1666 60.0077 40.1917 60.261C40.1975 60.341 40.2639 60.3718 40.3313 60.3362C40.6049 60.209 40.7648 59.9923 40.8601 59.6947V59.6783H40.8592ZM23.3963 60.7301C23.3635 60.7234 23.3259 60.7186 23.2932 60.7292C23.1747 60.7552 23.011 60.7802 22.9368 60.8659C22.8617 60.9526 22.8665 61.1241 22.8588 61.2483C22.8559 61.2801 22.853 61.3427 22.8809 61.3851C22.9474 61.4246 23.0399 61.4005 23.1208 61.4082C23.2094 61.3986 23.3211 61.4371 23.3924 61.3784C23.4377 61.2165 23.402 61.0461 23.4175 60.8264C23.4165 60.8004 23.4175 60.76 23.4049 60.7398L23.3972 60.7301H23.3963ZM64.4548 67.7731C64.5502 67.8213 64.7091 67.7731 64.817 67.7818C64.921 67.7673 65.0289 67.7972 65.1137 67.748C65.1377 67.7269 65.1204 67.6498 65.1108 67.6093C65.079 67.4572 64.9904 67.2308 64.8257 67.2318C64.6937 67.2318 64.5512 67.3791 64.4635 67.6392C64.4519 67.6748 64.4317 67.7326 64.4471 67.7625L64.4548 67.7741V67.7731ZM62.1248 85.8082C62.1422 85.7378 62.12 85.576 62.1104 85.4941C62.1036 85.3718 61.9649 85.3256 61.8233 85.3333C61.6866 85.3468 61.4795 85.2948 61.4169 85.4402C61.2811 85.7465 61.6663 85.8159 61.8927 85.8255C61.9649 85.8216 62.0661 85.8611 62.1181 85.8197L62.1239 85.8082H62.1248ZM64.5916 74.0147C64.5145 74.031 64.4375 74.1582 64.4847 74.2401C64.6253 74.4539 64.7621 74.6976 64.9249 74.895C64.9827 74.9403 65.0925 74.9066 65.1166 74.8382C65.1358 74.6629 65.052 74.4741 64.9798 74.3287C64.9143 74.2237 64.7631 74.059 64.6051 74.0137H64.5906L64.5916 74.0147ZM60.7369 59.5011C60.7802 59.5069 60.8409 59.4635 60.8852 59.4423C60.9401 59.4144 60.994 59.3864 61.0008 59.3393C61.0104 59.294 60.9796 59.2323 60.9622 59.1765C60.9044 59.0561 60.8958 58.8865 60.8014 58.797C60.7263 58.7835 60.6569 58.8557 60.5837 58.8856C60.5163 58.9328 60.4094 58.953 60.3728 59.0301C60.367 59.0898 60.4257 59.1331 60.4594 59.1842C60.5481 59.2824 60.6174 59.425 60.7234 59.4972L60.7369 59.5001V59.5011ZM63.1256 60.0983C63.0823 60.2244 63.1323 60.445 63.1227 60.5933C63.1246 60.6174 63.1266 60.654 63.1439 60.6704C63.2239 60.7166 63.4203 60.6425 63.5013 60.6068C63.823 60.4315 63.4608 60.1368 63.1381 60.0925L63.1266 60.0973L63.1256 60.0983ZM58.9723 67.8723C58.9472 67.8761 58.9231 67.8993 58.8981 67.9282C58.8499 67.984 58.7767 68.0389 58.7902 68.0958C58.8759 68.247 59.0252 68.3712 59.1399 68.5061C59.2208 68.5774 59.2814 68.4637 59.3402 68.4117C59.3749 68.3741 59.4153 68.3366 59.4452 68.3C59.4712 68.2662 59.4722 68.2268 59.4375 68.1969C59.2978 68.0986 59.1399 67.9397 58.9857 67.8713H58.9732L58.9723 67.8723ZM46.3446 83.6477C46.3745 83.6602 46.4419 83.6448 46.5007 83.6381C46.6008 83.6226 46.7261 83.6149 46.7771 83.5292C46.8185 83.4473 46.8079 83.3828 46.7973 83.2788C46.78 83.1603 46.7694 83.0438 46.6644 82.9946C46.6153 82.9715 46.5517 82.9609 46.5016 82.9792C46.3417 83.0534 46.3466 83.2768 46.3283 83.4339C46.3321 83.4984 46.2984 83.5976 46.335 83.6419L46.3456 83.6477H46.3446ZM57.1306 63.9915C57.1142 63.744 57.0507 63.1738 56.6654 63.3655C56.2368 63.56 56.937 63.9636 57.1258 63.9964L57.1297 63.9915H57.1306ZM25.7561 85.6348C25.7927 85.6146 25.7995 85.5481 25.8168 85.4913C25.8399 85.4181 25.8399 85.3612 25.7715 85.3372C25.5741 85.2794 25.366 85.2273 25.1637 85.1715C25.132 85.1647 25.0896 85.157 25.0645 85.1801C24.9721 85.315 25.0645 85.4922 25.2071 85.5375C25.3381 85.5789 25.5654 85.6367 25.7426 85.6406L25.7561 85.6348ZM66.1828 61.858C66.1501 61.8185 66.0422 61.7694 65.9854 61.7896C65.943 61.8128 65.9459 61.8185 65.9276 61.8378C65.8467 61.9592 65.7648 62.0728 65.7369 62.2C65.7128 62.2982 65.7908 62.5814 65.9459 62.6469C66.126 62.6633 66.0942 62.408 66.1308 62.2886C66.1453 62.1499 66.2011 62.0064 66.1886 61.8696L66.1819 61.8571L66.1828 61.858ZM44.9172 39.0695C45.0241 38.9472 45.2764 38.9877 45.444 38.9761C45.6771 38.9703 45.9122 38.9626 46.1404 38.9164C46.5941 38.8403 46.938 38.4964 47.3907 38.3876C47.8829 38.2614 48.3886 38.4858 48.8817 38.3741C49.3094 38.2768 49.6427 37.9599 50.079 37.8819C51.3109 37.5785 52.4437 38.6323 53.6698 38.2691C54.2237 38.1362 54.7659 37.8858 55.3458 37.9253C56.3128 38.0081 57.0564 38.6785 58.0052 38.8721C58.8692 39.0686 59.79 38.8008 60.5914 38.9819C60.9362 39.0512 61.2579 39.2429 61.5729 39.398C62.1807 39.6956 62.8549 39.661 63.3847 40.0588C63.8133 40.3304 65.4855 42.5284 65.1512 42.9021C65.0597 42.9821 64.8257 42.9715 64.7361 43.0774C64.5839 43.2643 64.7496 43.5282 64.8854 43.6775C65.236 44.0455 65.9054 44.1803 66.3591 44.4674C67.0536 44.9653 68.0331 45.6405 68.3597 46.362C68.5167 46.6914 68.2219 47.0536 68.326 47.3801C68.5061 47.7201 69.085 47.5785 69.2545 47.9493C69.4731 48.3732 68.9588 48.8548 69.1505 49.2757C69.2834 49.6176 69.7476 49.5955 70.0096 49.7554C70.3082 49.9441 70.4045 50.3227 70.5269 50.6348C70.6492 50.9728 70.8014 51.3495 70.8255 51.6895C70.863 52.2221 70.6983 52.7268 70.7253 53.2672C70.7349 53.586 70.8052 53.8731 70.8823 54.1736C71.2281 55.1898 70.7253 56.1722 70.4065 57.1383C70.3824 57.2308 70.3304 57.3522 70.2726 57.408C70.156 57.5034 70.0539 57.3531 70.0087 57.2491C69.8151 56.8108 70.1464 56.3061 69.9769 55.8332C69.8835 55.5616 69.634 55.3246 69.3691 55.2264C69.0378 55.0511 68.4627 55.4151 68.2499 55.1166C68.2007 55.0308 68.2287 54.9037 68.247 54.8016C68.4069 54.1312 68.5176 53.4425 68.7392 52.7952C68.8933 52.3252 69.32 51.7347 68.9761 51.2657C68.8942 51.1674 68.7729 51.0875 68.6457 51.1048C68.1632 51.1799 68.2296 52.9782 67.8174 52.8309C67.5814 52.7374 67.4437 52.3897 67.4186 52.1489C67.3936 51.8667 67.512 51.6066 67.6026 51.3456C67.827 50.8187 67.6623 50.3025 67.2452 49.9114C67.0247 49.6783 66.7896 49.4356 66.5305 49.2458C66.072 48.9106 65.4941 48.875 64.9884 48.5552C64.7679 48.4194 64.5704 48.2489 64.3739 48.0794C64.2054 47.9734 63.8913 47.5255 63.7498 47.8598C63.6168 48.2672 63.5311 48.8759 63.1757 49.0387C62.9628 49.1408 62.7085 49.1196 62.4899 49.2073C62.2635 49.2718 62.0892 49.4991 61.8551 49.5213C61.7049 49.5309 61.6076 49.1206 61.5325 48.8769C61.4198 48.4907 61.2907 48.0283 61.125 47.6825C60.942 47.225 60.4951 47.0776 60.3757 47.6141C60.315 47.9551 60.4248 48.3982 60.3834 48.7613C60.3631 48.9867 60.2658 49.1861 60.1503 49.1832C60.0703 49.1774 60.0212 49.1187 59.9634 49.0252C59.8411 48.8124 59.7631 48.5504 59.66 48.325C59.4905 47.8819 59.1167 47.5515 59.2631 47.1171C59.3537 46.9129 59.7399 46.8975 59.9056 46.7473C60.0356 46.6413 59.9663 46.4814 59.8459 46.3967C59.606 46.2108 59.2882 46.2146 59.0021 46.1549C58.64 46.0827 58.3231 45.889 57.9936 45.7783C57.3666 45.5827 57.6796 46.518 57.8655 46.7925C58.0351 47.0921 58.3134 47.3483 58.3992 47.6873C58.4724 48.0303 58.2017 48.1246 57.9224 47.9994C56.5527 47.4832 56.3215 47.2684 55.5124 46.1019C54.6629 45.1647 54.1389 46.3726 54.8748 47.0218C55.0501 47.1942 55.2264 47.2982 55.2687 47.4976C55.3352 47.8058 55.0655 47.8318 54.8594 47.6787C54.3277 47.3435 54.0599 46.8349 53.6332 46.3938C53.3144 46.0432 52.6912 45.9507 52.4225 45.5481C52.2462 45.2341 52.592 45.0761 52.8675 45.026C53.1978 44.9576 53.7026 44.8575 53.4781 44.3999C53.2672 43.9655 52.7894 43.8066 52.2972 43.7228C52.067 43.6881 51.8185 43.6506 51.7193 43.7517C51.5248 43.9752 51.8522 44.3181 51.6394 44.5425C51.2262 44.9056 50.9565 44.4664 50.6328 44.1013C50.5211 43.9858 50.3872 43.8817 50.2369 43.8307C49.9489 43.7315 49.6571 43.847 49.3075 43.874C48.9434 43.9154 48.5879 43.8162 48.2373 43.7449C47.5419 43.6342 46.8648 44.0474 46.178 43.9857C45.3882 43.978 44.6715 43.6631 43.9019 43.6236C43.2691 43.5668 42.4976 44.1042 41.9543 43.6062C41.6615 43.3057 41.8696 42.7683 41.6086 42.4196C41.5325 42.3107 41.4227 42.2202 41.2936 42.2337C40.9064 42.277 40.9526 43.1073 40.7397 42.9676C40.4585 42.6893 40.4633 42.3926 39.9653 42.6199C39.4096 42.8174 38.6197 42.3685 38.1699 42.7779C37.9272 42.9859 37.8077 43.4126 38.0746 43.64C38.5696 44.0618 39.4298 44.1129 40.0405 44.2381C40.3535 44.2882 40.6174 44.3672 40.917 44.4548C42.0998 44.7852 43.3365 44.9307 44.4924 45.367C44.764 45.4826 45.2447 45.6376 45.2687 45.969C45.2331 46.2974 44.8796 46.335 44.5791 46.2637C44.3749 46.2223 44.1505 46.1472 43.9636 46.0827C43.8201 46.0326 43.6284 45.9603 43.5504 46.1356C43.4502 46.3841 43.4348 46.8311 43.0283 46.6567C42.6979 46.5093 42.4003 46.2897 42.0507 46.1876C41.6432 46.0817 41.1009 46.0143 40.7272 46.2483C40.3834 46.4361 40.2456 46.9486 39.8363 47.0044C39.7139 47.016 39.6263 46.8975 39.6369 46.7742C39.6504 46.4689 39.8151 46.1636 39.7765 45.8534C39.7476 45.3708 38.8239 44.3662 38.4348 45.0983C38.3462 45.3015 38.4213 45.6617 38.352 45.7918C38.3182 45.8573 38.2547 45.8601 38.1805 45.8438C37.6084 45.655 36.8099 45.2321 36.3398 45.7099C35.6617 46.4747 36.859 47.2009 36.5517 47.9676C36.4621 48.1169 36.204 48.1295 36.1144 48.2865C35.9825 48.5562 36.4467 49.1601 36.6663 49.3229C37.5101 49.8719 38.6881 49.2256 40.0193 50.0694C40.2225 50.21 40.9613 50.5086 40.8457 50.785C40.8023 50.8775 40.6983 50.9545 40.6155 51.0191C40.3304 51.2281 40.0472 51.4236 39.737 51.414C39.6118 51.4111 39.4856 51.3735 39.3778 51.309C39.1206 51.1655 38.9963 50.8659 38.7382 50.7234C38.4348 50.5529 38.0659 50.6088 37.7345 50.551C36.6548 50.4026 34.7033 49.712 33.9395 50.7571C33.8018 50.9806 33.5831 51.1616 33.3173 51.0239C32.8925 50.8399 32.3531 50.6723 32.0343 51.0605C31.6326 51.5854 32.2982 52.146 32.75 52.3541C33.2691 52.5968 33.9116 52.2626 34.45 52.0401C34.9778 51.8195 35.5057 51.6798 36.0605 51.6413C36.3292 51.6423 37.0083 51.4853 36.7935 51.9881C36.36 53.2768 35.5548 52.5737 34.5983 52.7789C34.1533 52.8819 34.0667 53.2547 34.4365 53.5648C34.8112 53.874 34.9711 54.0638 34.449 54.2189C33.9838 54.3672 33.4945 54.476 33.0736 54.7216C32.9233 54.8305 33.0717 54.9576 33.1988 55.0106C33.7989 55.288 34.4577 55.2765 34.7582 55.8255C34.8189 55.9401 34.8709 56.1067 34.7756 56.2088C34.7004 56.2946 34.5415 56.2936 34.3932 56.2551C34.0204 56.1722 33.6265 55.8996 33.2287 56.0085C33.0832 56.0499 32.958 56.152 32.8809 56.282C32.723 56.5431 32.7548 56.8879 32.5246 57.0391C32.3155 57.174 32.0343 57.1682 31.7945 57.1846C31.6914 57.1875 31.6105 57.1817 31.5758 57.1614C31.5305 57.1364 31.5585 57.0863 31.6365 57.017C31.8648 56.8195 32.1865 56.6249 32.2809 56.3148C32.4282 55.7571 31.7848 55.4922 32.0295 54.8305C32.1056 54.5271 32.2655 54.1928 32.2703 53.8827C32.2818 53.429 31.8301 53.3394 31.5199 53.586C31.3042 53.7093 31.0981 54.0214 30.9122 53.9867C30.8332 53.9684 30.7657 53.9145 30.6993 53.8615C30.3795 53.535 29.9335 53.8153 29.5483 53.7893C29.2323 53.7844 28.9694 53.5552 28.6611 53.5841C28.4011 53.6072 28.1458 53.7555 27.9522 53.9164C27.7788 54.0705 27.9426 54.2641 28.1034 54.3421C28.3057 54.4587 28.4762 54.4385 28.7112 54.4038C28.9106 54.373 29.1591 54.3527 29.3547 54.4096C29.6176 54.4866 29.8594 54.659 30.1426 54.659C30.3477 54.6687 30.55 54.5714 30.7089 54.6195C30.8977 54.6773 31.0441 54.9152 31.0046 55.1089C30.9777 55.2225 30.8524 55.2928 30.7494 55.341C30.4151 55.4893 30.0742 55.655 29.7274 55.7494C29.1957 55.9131 28.6486 55.7407 28.0967 55.7879C27.4591 55.8467 26.8657 56.1462 26.2579 56.3061C25.7927 56.4352 25.3044 56.5045 24.8497 56.6712C24.4751 56.806 24.1485 57.0256 23.8114 57.1961C23.5436 57.3339 23.2499 57.4273 22.9676 57.5332C22.4109 57.7346 21.9129 58.0601 21.3774 58.325C21.0239 58.5032 20.6675 58.6804 20.3525 58.9222C19.9538 59.2217 19.6349 59.6157 19.2988 59.9807C19.2034 60.0973 18.9973 60.2081 18.9145 60.0434C18.8047 59.844 18.8413 59.6118 18.9212 59.3865C19.1582 58.7931 19.6677 58.3106 20.0299 57.7914C20.8264 56.7193 21.6307 55.6463 22.4841 54.6176C23.1439 53.8499 23.9838 53.2903 24.5935 52.486C25.0087 51.884 24.8998 51.1048 25.3535 50.5442C26.0826 49.7438 27.2433 49.4982 28.1054 48.8759C28.2845 48.7565 28.4541 48.6361 28.6361 48.5176C29.161 48.1728 29.7245 47.8212 30.0549 47.2953C31.4005 44.7448 32.2366 47.6479 33.0274 45.7831C33.0851 45.6097 33.3163 45.1715 33.1661 45.0308C33.036 44.9663 32.6565 45.2427 32.4331 45.1483C32.2096 45.0771 32.0728 44.8286 32.0507 44.6041C32.015 44.2689 32.2895 44.0214 32.5881 43.9241C33.5465 43.559 34.3325 44.685 35.2678 44.3065C35.7282 44.0782 34.4587 43.4252 34.8902 42.9551C35.4373 42.4562 36.912 42.8675 37.4485 42.4282C37.6517 42.1817 37.3493 41.9081 37.1335 41.7916C36.912 41.6461 36.3851 41.5344 36.8908 41.3398C37.7461 40.9728 38.5812 40.5635 39.4741 40.2976C40.6714 39.868 42.0458 40.1676 43.1535 39.5348C43.587 39.2892 44.0012 38.8124 44.5425 38.9164C44.6475 38.9395 44.6773 38.9819 44.6032 39.0252C44.4365 39.1196 44.111 39.1755 43.9963 39.3653C43.8268 39.6253 44.1919 39.8074 44.4462 39.7977C44.6349 39.7997 45.0405 39.818 44.9942 39.5579C44.9836 39.4096 44.8449 39.216 44.9143 39.0782L44.9201 39.0695H44.9172ZM61.9177 40.8505C61.7723 40.9035 61.6211 40.7658 61.4429 40.6897C61.2281 40.5847 60.9834 40.4932 60.7513 40.5134C60.1483 40.5818 59.9576 41.1212 60.3236 41.6009C60.6348 41.99 61.0711 42.3396 61.518 42.5419C61.9081 42.7028 62.277 42.4581 62.2106 42.0256C62.1903 41.7309 61.9534 41.2868 62.4725 41.4679C63.0543 41.6731 63.2932 42.2655 63.8307 42.435C64.0474 42.5072 64.1302 42.3907 64.0397 42.1855C63.8268 41.6875 63.5562 41.3504 63.1323 40.9622C62.8694 40.758 62.4042 40.1907 62.121 40.6396C62.0613 40.7205 62.0198 40.7966 61.9293 40.8447L61.9168 40.8505H61.9177ZM54.5935 39.0956C54.5646 39.1273 54.5916 39.1996 54.6475 39.2863C55.0848 39.9085 55.8043 40.3843 56.4419 40.7744C56.7704 40.9622 57.017 41.1684 57.3078 41.4371C57.462 41.571 57.6401 41.7097 57.8395 41.7473C58.1641 41.8234 58.4338 41.4516 58.2653 41.1616C58.0842 40.7571 57.6055 40.6685 57.2655 40.4614C57.0218 40.2774 56.8571 40.001 56.5931 39.8411C56.1029 39.5117 55.3612 39.2198 54.7919 39.0898C54.6995 39.0695 54.6282 39.0657 54.5983 39.0917L54.5935 39.0965V39.0956ZM60.5933 43.5013C60.6232 43.4049 60.4941 43.299 60.3824 43.1632C60.3265 43.0986 60.2707 43.0341 60.2138 42.9686C59.8526 42.5997 59.4606 42.0025 58.9202 42.0593C58.3539 42.1316 58.1824 42.6613 58.6091 43.0505C59.084 43.5186 60.0511 44.1129 60.5904 43.5128L60.5943 43.5022L60.5933 43.5013ZM63.3144 44.2429C63.5379 44.5097 63.9588 44.8276 64.2843 44.9798C64.5001 45.0771 64.7101 45.0491 64.7814 44.8372C64.8729 44.5675 64.6003 44.1524 64.3816 43.8798C64.2641 43.7324 64.1341 43.5976 63.9829 43.4791C63.5244 43.1131 63.0572 43.1304 62.9619 43.4078C62.8665 43.6775 63.1555 44.0262 63.3076 44.2333L63.3154 44.2439L63.3144 44.2429ZM50.9777 42.1846C50.9719 42.0497 50.7089 41.9611 50.575 41.8667C50.2148 41.6702 48.9742 40.9285 49.0927 41.8243C49.1765 42.2346 49.6166 42.4485 49.9576 42.6402C50.4797 42.9031 50.9025 42.8183 50.9786 42.198V42.1846H50.9777ZM28.9202 52.4523C28.9472 52.4947 29.0252 52.4937 29.0782 52.4899C29.4288 52.4591 29.7997 52.4427 30.1474 52.3724C30.3997 52.3117 30.6906 52.2587 30.8621 52.0584C30.9276 51.9698 31.0509 51.8291 31.0152 51.7058C30.995 51.6442 30.9073 51.6143 30.8399 51.6028C30.1291 51.4679 29.3489 51.57 28.9674 52.2433C28.9347 52.3011 28.8923 52.3878 28.9145 52.4417L28.9193 52.4514L28.9202 52.4523ZM56.2136 43.8374C56.0692 43.902 56.1096 44.059 56.1944 44.163C56.3225 44.3643 56.4987 44.6311 56.6741 44.8151C56.8253 44.9692 57.0247 45.1474 57.2481 45.0645C57.4465 44.9846 57.6401 44.6301 57.5448 44.4028C57.3907 44.0618 56.9543 43.9626 56.624 43.875C56.4862 43.8499 56.3206 43.7931 56.2252 43.8316L56.2127 43.8374H56.2136ZM51.9601 39.8969C51.8734 39.9326 51.8484 40.0886 51.8291 40.2013C51.7636 40.5722 51.9254 41.2666 52.4225 41.0576C52.774 40.916 52.801 40.4219 52.6286 40.132C52.54 39.9856 52.3965 39.9403 52.2395 39.9104C52.1508 39.895 52.042 39.868 51.9746 39.8921L51.9601 39.8979V39.8969ZM53.9077 41.1472C53.8721 41.1684 53.8711 41.2502 53.8673 41.2984C53.8413 41.8503 53.7584 42.3984 54.0667 42.8549C54.1399 42.9397 54.2294 42.8723 54.2786 42.7962C54.6138 42.3155 54.4567 41.6856 54.0445 41.2348C54.0108 41.1982 53.9549 41.1376 53.9145 41.1443L53.9068 41.1472H53.9077ZM35.6136 45.9651C35.6463 45.8939 35.628 45.7792 35.629 45.6839C35.6251 45.5799 35.6145 45.471 35.5664 45.3872C35.393 45.0771 34.9123 45.1715 34.7284 45.4161C34.4259 45.838 34.8546 46.1559 35.2784 46.1067C35.3882 46.0932 35.5432 46.0721 35.6068 45.9796L35.6145 45.9651H35.6136ZM44.6195 41.5671C44.58 41.4988 44.5617 41.4429 44.4722 41.4217C44.3026 41.3784 44.161 41.3918 44.2111 41.5854C44.3248 42.0844 44.844 42.3791 45.3679 42.4408C45.4142 42.4456 45.4816 42.4514 45.5018 42.4119C45.5307 42.3522 45.3853 42.198 45.3111 42.1171C45.1975 41.9987 45.0684 41.8985 44.9316 41.8079C44.8305 41.7347 44.6783 41.6673 44.6272 41.5797L44.6186 41.5662L44.6195 41.5671ZM33.4512 48.1256C33.3279 48.1112 33.2238 48.2162 33.2527 48.3394C33.2865 48.8297 33.4261 49.4346 34.0108 49.1851C34.4018 49.0175 34.0676 48.6438 33.7604 48.3597C33.664 48.2788 33.5523 48.1449 33.4666 48.1275L33.4521 48.1256H33.4512ZM47.5063 41.624C47.4687 41.648 47.5063 41.8012 47.5149 41.8917C47.5612 42.1374 47.6594 42.7866 48.0283 42.5727C48.3712 42.3281 48.5369 41.8811 48.0177 41.7164C47.8838 41.6712 47.6218 41.597 47.513 41.6201L47.5053 41.6249L47.5063 41.624ZM46.5045 41.6326C46.5469 41.5864 46.5084 41.4833 46.5074 41.4217C46.4882 41.2714 46.492 41.1607 46.3292 41.0932C46.1356 41.0191 45.8284 40.9228 45.6675 41.0971C45.603 41.1684 45.5606 41.2994 45.5432 41.4227C45.5413 41.4535 45.5423 41.493 45.5615 41.5151C45.601 41.5652 45.7002 41.5556 45.7792 41.571C45.9979 41.5845 46.2772 41.6596 46.4939 41.6384L46.5045 41.6317V41.6326ZM61.3947 45.5211C61.5209 45.5664 61.6904 45.5076 61.8224 45.5076C61.9409 45.4845 62.0622 45.5144 62.1489 45.4498C62.173 45.4219 62.1768 45.3785 62.1759 45.3391C62.1634 45.1512 62.147 44.973 62.041 44.8873C61.8956 44.7814 61.6365 44.8295 61.5084 44.9393C61.3822 45.0645 61.3928 45.2398 61.3668 45.418C61.3649 45.4489 61.3639 45.4912 61.3851 45.5124L61.3957 45.5211H61.3947ZM55.8881 43.8085C56.0798 43.6323 55.8669 43.1959 55.6299 43.1873C55.498 43.1738 55.2707 43.3308 55.2158 43.5147C55.2215 43.5976 55.3333 43.6014 55.3968 43.6371C55.5567 43.6891 55.7128 43.7912 55.8765 43.8124L55.8881 43.8076V43.8085ZM34.0089 46.964C34.0021 46.9534 33.9366 46.9649 33.9308 46.9659C33.8124 46.9881 33.6467 47.0006 33.5648 47.0728C33.482 47.146 33.4704 47.3059 33.4531 47.4215C33.4521 47.4273 33.4454 47.4918 33.4608 47.4995C33.4675 47.5159 33.5321 47.5111 33.5379 47.5092C33.6534 47.4947 33.8124 47.487 33.8875 47.4061C33.9626 47.3261 33.9819 47.1634 34.0089 47.0459C34.0098 47.0401 34.0243 46.9755 34.0146 46.9688L34.0089 46.963V46.964ZM96.0037 45.2813C95.9141 45.3882 95.68 45.3285 95.5307 45.3448C94.1977 45.3275 94.5935 46.6991 92.8309 46.5277C92.3993 46.4872 91.9755 46.3716 91.546 46.3148C90.6877 46.1953 89.8237 46.3186 88.9578 46.2782C88.0081 46.23 87.0834 46.0518 86.152 46.23C84.0358 46.6625 82.5612 48.4993 80.9584 49.8526C80.0722 50.5982 79.2294 51.4612 78.1776 51.9804C77.644 52.2549 76.6866 52.4119 76.5748 53.1189C76.5604 53.1873 76.571 53.2624 76.5315 53.3115C76.4843 53.3443 76.3976 53.1988 76.3658 53.141C75.9439 52.3483 76.5122 51.3678 76.3283 50.4845C76.2705 50.0414 76.1481 49.6099 76.0643 49.1716C76.0306 48.9829 75.9825 48.771 76.0354 48.6669C76.1587 48.4858 76.4458 48.6005 76.6904 48.5311C76.8282 48.508 76.9929 48.4088 76.962 48.2508C76.9283 48.0601 76.675 48.0322 76.5103 48.0986C76.3572 48.1449 76.2079 48.2643 76.048 48.2364C75.9353 48.2104 75.8601 48.1083 75.7918 48.0197C75.6714 47.853 75.5587 47.7085 75.68 47.6064C75.9382 47.4571 76.4506 47.54 76.4901 47.1383C76.5209 46.5084 75.5587 47.0054 75.8139 46.3032C76.1385 45.5278 77.5708 46.2464 77.7076 45.1936C77.7403 44.7043 77.1056 44.2622 76.6375 44.0175C76.57 43.9819 76.4978 43.9357 76.4621 43.8759C76.362 43.7257 76.6163 43.456 76.7983 43.4059C77.3021 43.2749 77.7095 43.7604 77.933 44.163C78.2624 44.7602 78.6448 45.9016 79.424 45.5847C79.974 45.3275 79.477 45.0539 79.2988 44.7544C79.1389 44.5049 79.0965 44.1909 78.9212 43.9655C78.7382 43.7295 78.4242 43.5802 78.3452 43.2701C78.1834 42.7085 78.7729 42.1691 79.1447 41.7569C79.2863 41.5999 79.423 41.4227 79.5136 41.4381C79.5463 41.4419 79.5714 41.4699 79.5868 41.518C79.6311 41.6721 79.6051 41.8628 79.6224 42.0256C79.6494 42.3974 79.8603 42.6999 79.8594 43.0582C79.87 43.3009 79.816 43.5696 79.9412 43.7652C80.1108 44.0503 80.5442 44.0233 80.6877 43.7238C80.8004 43.5302 80.8187 43.2913 80.8197 43.0707C80.7658 42.3281 81.0114 42.1258 81.3918 41.5604C81.5556 41.2705 81.2734 41.0615 81.0701 40.9006C80.8216 40.6974 80.707 40.4074 80.4749 40.1657C79.9634 39.6571 79.3836 39.5367 79.4327 38.6987C79.4683 38.3992 78.9434 38.2508 78.8567 38.5706C78.7411 39.1476 78.8133 39.8141 78.2778 40.1763C78.0803 40.3025 77.8222 40.1734 77.7885 39.9451C77.7182 39.6879 78.0129 39.451 78.0187 39.2314C77.9965 38.9597 77.4947 38.823 77.3107 38.8817C77.042 38.9925 77.0025 39.3797 76.9399 39.633C76.8494 40.0905 76.7299 40.5654 76.5854 41.0403C76.3446 41.8012 76.1722 40.8081 76.2059 40.5124C76.3157 39.0628 75.2861 39.5097 74.8825 40.5067C74.7804 40.7677 74.7794 41.0952 74.7688 41.3629C74.7688 41.6789 74.6215 41.7685 74.293 41.6702C73.9434 41.6076 73.0765 40.9786 72.8829 41.3418C72.774 41.5546 72.8569 41.9582 72.6247 42.1383C72.1036 42.5361 71.5151 42.9628 70.8592 42.9147C70.2244 42.8829 69.3412 42.2809 69.9162 41.6163C70.1609 41.3427 70.5336 41.1376 70.8717 40.9594C71.3138 40.7301 71.7376 40.55 72.1306 40.2485C72.7586 39.7881 73.3067 39.214 73.9857 38.8422C74.4905 38.5668 75.0559 38.4223 75.5789 38.1853C75.9699 38.011 76.3446 37.7528 76.6808 37.4831C77.2077 37.0574 77.6469 36.5517 77.984 35.9584C78.3115 35.3737 78.5494 34.686 78.9193 34.1273C79.0724 33.8981 79.2554 33.6727 79.4808 33.5802C80.2909 33.2855 79.8401 34.2709 79.7043 34.6378C79.5849 34.9644 79.4972 35.3207 79.293 35.6213C79.0387 36.0085 78.5552 36.3234 78.5321 36.8224C78.508 37.5043 79.8815 37.645 80.4662 37.7711C81.1241 37.8896 81.3167 37.4841 81.3234 36.8831C81.3389 36.3138 81.2329 35.7542 81.1828 35.1898C80.9565 33.0254 81.964 31.0181 82.3531 28.9424C82.3839 28.5533 82.3329 28.1728 82.3878 27.7837C82.5265 27.0141 82.8087 26.2743 83.0534 25.5307C83.1323 25.2649 83.3972 25.027 83.3703 25.5625C83.2576 26.5768 83.1314 27.5833 83.0765 28.6043C83.064 29.084 82.9734 29.5666 83.0091 30.0501C83.0668 31.0692 84.2593 30.837 83.9761 32.0458C83.9068 32.3753 83.8143 32.6546 83.5995 32.9253C83.3828 33.2229 82.9224 33.5485 83.1497 33.9569C83.2971 34.2333 83.5985 34.4076 83.7719 34.6812C84.0175 35.0125 83.9337 35.4074 83.927 35.7927C83.9174 36.6172 84.2901 37.2818 84.8478 37.8646C85.0799 38.1063 85.3044 38.3558 85.4816 38.6409C85.7648 39.085 85.9786 39.5791 86.2406 40.0337C87.2558 42.0218 89.7062 41.8436 91.6702 42.278C92.8588 42.5467 94.0541 43.2971 91.8648 42.9619C91.2175 42.8684 90.5789 42.7162 89.9422 42.565C88.6977 42.2539 87.4148 42.1036 86.1703 41.8002C85.1763 41.5874 83.9366 40.732 83.7815 42.3627C83.6448 43.6534 84.6638 43.219 85.5009 43.1564C85.7725 43.1381 86.0509 43.169 86.31 43.2248C86.7617 43.3231 87.2009 43.483 87.6575 43.5725C88.4464 43.7286 89.2314 43.821 90.0145 43.9935C90.6213 44.11 91.1491 44.4722 91.7511 44.5849C92.3339 44.6638 92.9426 44.3681 93.5417 44.5868C93.9318 44.711 94.2757 45.0087 94.6898 44.9952C95.0068 45.0106 95.3439 44.8902 95.6502 44.9576C95.8081 45.0039 96.0152 45.1483 96.0066 45.2736L96.0046 45.2813H96.0037ZM83.246 34.8729C83.2075 34.8603 83.1545 34.895 83.1189 34.922C82.7336 35.209 82.6989 35.6039 82.8761 35.9825C82.8954 36.0239 82.9253 36.0711 82.9676 36.0817C83.011 36.0932 83.0611 36.0624 83.0967 36.0316C83.43 35.7205 83.3635 35.4623 83.3067 35.0096C83.3009 34.9644 83.2922 34.9008 83.2576 34.8786L83.246 34.8729ZM78.3365 46.8484C78.3048 46.4612 78.0081 46.4227 77.6536 46.4246C77.6055 46.4236 77.5438 46.4294 77.5265 46.4756C77.5188 46.4949 77.5188 46.5209 77.5236 46.5488C77.6035 46.9428 77.8232 47.2712 78.1593 47.0497C78.2238 47.0006 78.3173 46.9457 78.3346 46.8657L78.3365 46.8494V46.8484ZM70.2225 45.1387C70.0877 45.2755 70.2167 45.7012 70.0164 45.7677C69.9557 45.7869 69.8555 45.7388 69.7919 45.6954C69.4856 45.4883 69.2574 45.2533 69.0272 44.9701C68.4724 44.3219 68.1006 43.5205 67.6151 42.8434C67.4437 42.5978 67.1711 42.3705 66.9177 42.2414C66.6249 42.1008 66.4361 41.8696 66.4207 41.5161C66.3947 41.2743 66.4699 40.9093 66.7733 40.9488C67.5207 41.0923 68.088 41.7906 68.5668 42.3271C68.8008 42.6007 68.9491 42.933 69.0917 43.2624C69.3585 43.9646 69.8343 44.1986 70.5327 44.4336C71.2945 44.7274 71.5344 44.4664 71.9678 43.8143C72.0603 43.6746 72.1402 43.6082 72.2096 43.6785C72.3676 43.8923 72.4398 44.1851 72.5496 44.4182C72.6864 44.7245 72.4205 44.7679 72.1846 44.8295C72.0324 44.8767 71.9014 44.948 71.8128 45.079C71.5296 45.5346 71.858 46.0229 72.1499 46.4121C72.2847 46.5768 72.3878 46.7598 72.5496 46.6509C72.8655 46.3427 72.802 45.6983 73.1246 45.4151C73.4704 45.1599 73.9453 45.3776 74.3142 45.4749C74.4433 45.5153 74.5396 45.5548 74.5511 45.6068C74.5723 45.6665 74.4413 45.7638 74.3749 45.813C74.0859 46.0258 73.7642 46.2801 73.7324 46.596C73.7055 46.8725 73.8413 47.1374 73.8576 47.4109C73.8846 47.7326 73.849 48.0611 73.9087 48.3809C73.9597 48.9357 74.7708 50.5808 73.6746 50.2793C73.5716 50.2601 73.404 50.1849 73.3635 50.314C73.3452 50.3776 73.3587 50.4912 73.3683 50.5712C73.4646 51.3774 73.507 52.2009 73.6804 52.9869C73.8259 53.6496 74.1437 54.2805 74.162 54.9673C74.189 55.4498 73.9443 55.8939 73.9453 56.3687C73.9443 56.5363 73.9703 56.703 73.9761 56.8696C74.004 57.4311 73.5754 57.8704 73.4897 58.4204C73.3308 59.0474 72.8732 58.2239 72.6796 58.0322C72.5111 57.8367 72.3387 57.9811 72.174 58.1603C72.0459 58.2865 71.9332 58.4608 71.7819 58.4859C71.4968 58.5186 71.3119 58.1738 71.3244 57.9262C71.4304 56.9197 72.619 56.5517 72.4793 55.3381C72.4581 55.0318 72.3175 54.6937 72.1749 54.4259C72.0555 54.2111 72.0006 53.9646 72.0555 53.7189C72.1162 53.3934 72.3348 53.1478 72.3916 52.827C72.487 52.4013 72.1846 52.1431 71.8128 52.017C71.5508 51.9081 71.0335 51.7309 71.4959 51.4737C71.9977 51.1973 72.4639 50.9507 72.224 50.3275C71.9909 49.6465 71.6384 49.0262 71.3475 48.4175C71.1857 48.1169 71.0037 47.8212 70.9256 47.5101C70.863 47.2761 70.8418 47.0333 70.7638 46.8022C70.6588 46.4766 70.4643 46.2002 70.4209 45.8553C70.3766 45.6954 70.4623 45.078 70.2283 45.1368L70.2215 45.1426L70.2225 45.1387ZM73.3558 49.9856C73.4454 49.9904 73.5176 49.9124 73.5186 49.8228C73.5292 49.3209 73.4386 48.0071 72.6459 48.4964C72.2375 48.7671 72.6488 49.3181 72.9975 49.6889C73.1006 49.7843 73.2335 49.9701 73.3433 49.9836H73.3558V49.9856ZM99.3681 44.2217C99.2978 44.3364 99.5078 44.4134 99.6003 44.45C100.049 44.6051 100.615 44.7881 100.97 45.0905C101.662 45.6935 101.192 46.4612 100.335 46.1347C99.8941 45.9574 99.5097 45.603 99.0484 45.4739C98.3828 45.3053 97.6845 45.314 97.0035 45.2581C96.5594 45.2312 96.5893 45.4623 96.9736 45.601C98.1343 46.0566 99.3142 46.4381 100.462 46.9226C101.77 47.5294 103.853 48.1545 104.536 46.3909C104.702 45.9603 104.452 45.5606 103.991 45.5847C103.552 45.6001 103.013 45.9343 102.601 45.9016C102.389 45.8862 102.168 45.7359 102.118 45.5221C102.039 45.2081 102.446 44.9605 102.738 44.9239C103.059 44.8652 103.307 44.9538 103.592 44.8372C103.816 44.7496 103.795 44.5386 103.604 44.4096C103.05 43.9944 102.316 44.1697 101.602 44.1986C101.123 44.2217 100.651 44.1736 100.173 44.1485C99.9326 44.1524 99.5723 44.0811 99.3749 44.2121L99.3681 44.2188V44.2217ZM83.4752 24.3132C83.8027 24.582 84.2266 21.3206 84.3778 20.9671C84.7274 19.5666 85.5327 18.6631 84.7168 17.1894C84.5723 16.938 84.3132 16.7848 84.1206 17.0796C83.692 17.8463 83.3038 18.6871 82.303 18.6236C82.1335 18.6284 81.9466 18.6005 81.8118 18.6949C81.44 19.0108 81.5729 19.607 81.7338 20.0067C81.8311 20.2967 82.0247 20.3294 82.2751 20.2119C83.0341 19.8343 83.2556 20.4065 83.3818 21.0229C83.561 21.963 83.4492 23.0379 83.4175 24.0089C83.4136 24.1033 83.4184 24.2468 83.4695 24.3065L83.4762 24.3132H83.4752ZM27.2414 70.5837C27.3512 70.6174 27.4803 70.5712 27.5872 70.5279C27.9936 70.3603 28.2691 70.2341 28.4492 69.9047C28.6525 69.4886 28.7324 68.9887 28.7257 68.5388C28.7276 68.2441 28.5369 67.9378 28.664 67.6517C28.8047 67.3425 29.2054 67.3175 29.4866 67.2019C29.8642 67.0748 29.894 66.5672 29.66 66.2888C29.4144 65.9757 28.901 65.8033 28.5118 65.8303C28.2576 65.8419 28.3414 66.0653 28.4194 66.2214C28.7555 66.8889 28.1275 67.1701 27.4774 67.2761C27.2356 67.3011 27.0882 67.3868 27.0998 67.6546C27.1113 68.0881 27.1219 68.5186 27.0507 68.9463C26.9746 69.3624 26.8407 69.8064 26.9958 70.2187C27.0401 70.3545 27.0882 70.5259 27.2279 70.5799L27.2423 70.5847L27.2414 70.5837ZM28.8644 64.8209C28.8567 64.7631 28.7613 64.7207 28.6987 64.6937C27.9147 64.3749 26.8185 63.6978 26.1038 64.3402C26.0008 64.4914 26.125 64.687 26.2059 64.9422C26.465 65.7012 25.9439 65.9883 25.2784 66.0807C24.8931 66.1443 24.5396 66.2069 24.1668 66.2599C23.7979 66.3167 23.3847 66.4034 23.1169 66.6789C22.9676 66.8513 22.9744 67.1634 23.2701 67.1354C23.5966 67.1094 23.9279 66.989 24.2526 66.9332C24.4539 66.8966 24.6609 66.8869 24.8623 66.9293C25.1686 66.989 25.4161 67.1595 25.7166 67.1865C25.9083 67.2077 26.099 67.1788 26.2868 67.1354C26.8715 66.9746 27.0747 67.0411 26.9572 66.3475C26.9197 66.0075 27.0285 65.629 27.3627 65.4826C27.5978 65.3689 27.8896 65.4161 28.1352 65.3285C28.3664 65.2514 28.5706 65.0819 28.7671 64.947C28.8258 64.9027 28.8625 64.8632 28.8644 64.8286V64.8209ZM22.0911 75.1127C22.147 75.1907 22.2616 75.2148 22.356 75.235C22.6565 75.2928 22.906 75.3709 22.9657 75.5885C23.1314 76.2011 22.1903 76.4891 22.2626 77.069C22.4234 77.697 23.7758 77.3059 24.2853 77.1528C24.4105 77.1066 24.5569 77.0122 24.4529 76.8764C24.1813 76.5749 23.8316 76.0701 24.215 75.7012C24.5232 75.4142 25.1031 75.235 25.2803 74.7746C25.4787 74.3402 25.0299 74.0667 24.6398 74.085C24.372 74.0908 24.1842 74.2391 23.926 74.2853C23.5263 74.3672 23.0909 74.1649 22.697 74.295C22.4263 74.373 22.2375 74.5569 22.1075 74.8353C22.0699 74.9172 22.0372 75.0222 22.0834 75.1021L22.0911 75.1137V75.1127ZM29.6475 57.2029C29.7033 57.0767 29.4731 57.0449 29.3643 57.0526C28.2508 57.0805 27.2077 57.1932 26.1154 57.4321C25.4768 57.5747 24.8016 57.7028 24.1899 58.0139C23.9068 58.1651 23.5995 58.3934 23.7026 58.7238C23.769 58.9443 23.9559 59.0426 24.1967 58.9935C24.9672 58.8316 25.7686 58.2335 26.4708 57.88C27.3589 57.3878 28.9154 57.8964 29.6426 57.2144L29.6475 57.2038V57.2029ZM37.1557 47.957C36.8927 48.5822 37.6864 48.4945 38.1815 48.6631C38.7835 48.8865 39.0329 49.7688 39.5694 48.8336C40.4344 47.3897 38.481 47.0304 37.3194 47.774C37.2568 47.8203 37.2029 47.8761 37.1653 47.9407L37.1566 47.957H37.1557ZM30.6877 61.6404C30.7368 61.5893 30.733 61.4949 30.7263 61.4188C30.6694 60.8081 30.5095 59.7698 31.2483 59.7823C31.5797 59.7881 31.8628 60.0299 32.2038 59.9711C32.3444 59.949 32.4648 59.8729 32.4639 59.7794C32.4244 59.5569 32.0998 59.4558 31.9091 59.3749C31.1924 59.1254 30.4643 59.3643 30.0376 60.0077C29.7101 60.4036 29.6465 60.9757 30.0289 61.3687C30.1666 61.5315 30.498 61.7656 30.6791 61.6481L30.6868 61.6404H30.6877ZM49.764 46.073C49.9827 46.0817 49.7727 45.8284 49.6764 45.6935C49.0878 44.8931 47.75 43.3876 47.2972 44.3585C47.2106 44.5473 47.1557 44.8324 47.2452 45.0154C47.4725 45.3814 48.01 45.2466 48.4849 45.3362C48.7893 45.3766 49.0676 45.5018 49.2959 45.706C49.4279 45.8081 49.5906 46.0249 49.7515 46.0711L49.764 46.074V46.073ZM74.424 59.9114C74.4818 59.947 74.5675 59.921 74.633 59.8921C75.2331 59.607 75.472 58.7922 75.6338 58.168C75.734 57.748 75.7378 57.4456 75.4546 57.2231C75.3583 57.1393 75.1917 57.0959 75.1503 57.2607C75.1002 57.5111 75.1599 57.7972 75.0462 58.0389C74.9297 58.3655 74.5569 58.5013 74.423 58.7912C74.3075 59.0638 74.345 59.3855 74.3479 59.6725C74.3508 59.7814 74.3662 59.8681 74.4144 59.9056L74.424 59.9124V59.9114ZM66.0557 54.1707C66.2165 54.1447 66.1847 53.8682 66.1491 53.7228C66.099 53.4281 66.0335 53.0611 65.9228 52.7692C65.8197 52.4976 65.6473 52.1884 65.3256 52.1855C64.9942 52.1942 64.5666 52.4764 64.6629 52.8357C64.8035 53.3028 65.2658 53.6217 65.628 53.9193C65.7648 54.0137 65.9343 54.19 66.0441 54.1726L66.0557 54.1707ZM42.3483 48.4252C41.5585 48.5138 41.8166 49.7554 42.4928 49.9634C42.9455 50.131 43.56 49.6513 43.2768 49.1774C43.1651 48.9752 42.9291 48.7883 42.7249 48.638C42.5929 48.5475 42.488 48.4425 42.3647 48.4271L42.3483 48.4252ZM29.5377 64.8536C29.5415 64.9287 29.6484 65.0318 29.7534 65.1551C29.9634 65.3843 30.2716 65.8264 30.6174 65.6088C30.7966 65.4729 30.7927 65.0973 30.8621 64.8526C30.9468 64.5338 31.1067 64.2304 31.3167 63.979C31.3543 63.926 31.4207 63.8605 31.4053 63.7979C31.2262 63.665 30.734 63.9501 30.4777 64.1071C30.2456 64.2545 30.0356 64.4105 29.8228 64.5685C29.6831 64.6793 29.5348 64.7554 29.5377 64.843V64.8536ZM45.3034 48.1352C45.3092 48.5562 46.047 49.0108 46.4544 48.9973C46.9919 49.0329 47.173 48.1863 46.7733 47.9243C46.4188 47.7297 45.9709 47.8578 45.6049 47.9676C45.4739 48.0148 45.34 48.0495 45.3082 48.1246L45.3044 48.1352H45.3034ZM62.067 50.1994C62.0237 50.1705 61.9592 50.2129 61.912 50.2408C61.5305 50.4768 60.8977 50.838 60.9276 51.2242C60.9873 51.6692 61.7087 51.9678 62.094 51.9736C62.2077 51.9563 62.2086 51.832 62.2038 51.7386C62.1768 51.3032 62.1499 50.8592 62.1191 50.3795C62.1142 50.3236 62.1075 50.2389 62.0738 50.2071L62.0661 50.2013L62.067 50.1994ZM37.1528 55.1772C37.1162 55.2379 37.2847 55.4874 37.3329 55.602C37.5101 55.9035 37.8954 56.7964 38.324 56.6692C38.6621 56.4833 38.7555 55.9112 38.4338 55.6232C38.1853 55.3689 37.8164 55.2244 37.4706 55.1666C37.3387 55.1474 37.1913 55.131 37.1566 55.1715L37.1518 55.1772H37.1528ZM62.6026 52.1826C62.6652 52.3194 62.8463 52.3762 62.9792 52.4331C63.7209 52.6912 63.6245 51.4891 63.1824 50.8601C63.1506 50.8187 63.1179 50.7908 63.0861 50.7831C62.9965 50.7571 62.9224 50.9266 62.8655 51.0538C62.8366 51.1193 62.8106 51.1857 62.7875 51.2531C62.7085 51.5305 62.5814 51.8917 62.5987 52.1682L62.6035 52.1826H62.6026ZM80.4787 30.5442C80.4315 30.5423 80.3785 30.5962 80.3448 30.6376C79.975 31.0846 79.7168 31.9534 79.8025 32.4302C79.8112 32.4764 79.8324 32.5342 79.8757 32.5458C79.9191 32.5592 79.9807 32.5265 80.0212 32.4957C80.4787 32.1508 80.7802 31.1963 80.5827 30.6608C80.5664 30.6136 80.5346 30.5519 80.4893 30.5442H80.4797H80.4787ZM23.5773 70.8602C23.4945 71.2715 23.9212 71.4024 24.293 71.4015C24.4991 71.3996 24.7765 71.4872 24.894 71.2724C24.9432 71.1645 24.9201 71.0191 24.868 70.9151C24.6754 70.5163 24.0329 70.5413 23.6843 70.7407C23.6409 70.7658 23.6034 70.7995 23.5841 70.8448L23.5783 70.8602H23.5773ZM21.571 60.0983C21.6779 60.0414 21.7752 59.9008 21.7029 59.7814C21.5411 59.3874 21.2705 58.9039 20.8775 59.3123C20.6078 59.5945 20.9661 59.8507 21.2753 60.0029C21.3716 60.0443 21.4939 60.1214 21.5585 60.1021L21.57 60.0983H21.571ZM55.3227 48.247C55.156 48.1728 55.1348 48.3539 55.1329 48.4733C55.1002 48.9694 55.0867 49.1389 55.5095 49.3749C55.5558 49.3999 55.6184 49.424 55.6646 49.4067C55.7108 49.3903 55.7311 49.3335 55.7397 49.2843C55.8062 48.8393 55.6608 48.4839 55.3381 48.2537L55.3227 48.247ZM45.4691 52.1075C45.4816 52.1393 45.5452 52.1576 45.5837 52.1672C46.1404 52.3011 46.441 52.0844 46.4438 51.5238C46.4419 51.4862 46.4333 51.4535 46.4159 51.4323C46.3861 51.3928 46.3283 51.3957 46.2811 51.4073C45.9247 51.5065 45.7725 51.6856 45.5192 51.9842C45.4932 52.016 45.4585 52.0565 45.4652 52.095L45.4691 52.1075ZM44.6032 52.6267C44.5926 52.409 44.2554 52.46 44.0811 52.4408C43.7787 52.4388 43.4695 52.5111 43.5205 52.7644C43.5379 52.8549 43.5947 52.9484 43.6756 52.9908C43.9116 53.116 44.3171 52.8704 44.5377 52.7114C44.5646 52.6912 44.5916 52.67 44.6003 52.6392L44.6022 52.6276L44.6032 52.6267ZM95.3622 43.2479C95.3631 43.2884 95.4151 43.3346 95.4508 43.3654C95.8303 43.6939 96.1356 43.7719 96.5055 43.6438C96.5431 43.6303 96.5893 43.6072 96.596 43.5696C96.6037 43.5321 96.5691 43.4887 96.5402 43.4598C96.2454 43.1718 95.9054 43.0784 95.4729 43.1747C95.4334 43.1844 95.3737 43.1988 95.3631 43.2364V43.2479H95.3622ZM58.5234 50.6617C58.5205 50.7031 58.5735 50.7735 58.6062 50.8139C58.953 51.2512 59.3238 51.2233 59.6494 50.7802C59.6783 50.7417 59.7168 50.682 59.7139 50.6415C59.711 50.5943 59.6465 50.5895 59.6041 50.5905C59.2593 50.5982 58.9395 50.6078 58.6255 50.6155C58.5899 50.6174 58.5379 50.6184 58.5263 50.6521L58.5244 50.6627L58.5234 50.6617ZM77.2972 58.8432C77.2741 58.8432 77.2385 58.8817 77.2144 58.9029C76.9399 59.1601 76.4862 59.2651 76.4236 59.712C76.4101 59.7881 76.4304 59.8844 76.5248 59.8719C76.7299 59.8237 76.9341 59.7438 77.12 59.686C77.2086 59.6571 77.2578 59.5762 77.2655 59.4847C77.2741 59.2603 77.3271 59.0435 77.3021 58.8461L77.2972 58.8442V58.8432ZM29.1312 62.5265C29.0782 62.4022 28.927 62.4148 28.8586 62.5217C28.6284 62.8087 28.455 62.9994 28.5176 63.3423C28.5321 63.4252 28.6101 63.4512 28.6814 63.4165C29.0098 63.2585 29.0435 63.0543 29.1273 62.6864C29.1379 62.6392 29.1476 62.5872 29.137 62.5438L29.1322 62.5275L29.1312 62.5265ZM36.7395 54.7024C36.7521 54.6783 36.7261 54.6147 36.7107 54.582C36.4766 54.0638 36.099 53.954 35.6714 54.2709C35.6434 54.293 35.6242 54.3152 35.6193 54.3344C35.6136 54.3537 35.6222 54.371 35.6434 54.3845C35.811 54.4568 35.9921 54.4972 36.1607 54.5569C36.3263 54.6089 36.5026 54.6687 36.6712 54.7178C36.701 54.7245 36.7232 54.7236 36.7347 54.712L36.7405 54.7033L36.7395 54.7024ZM54.4751 63.5851C54.4625 63.5234 54.3354 63.4945 54.2169 63.4753C53.7998 63.4271 53.1834 63.507 53.0129 63.9492C52.9012 64.2911 53.3009 64.4924 53.5908 64.4529C53.9549 64.4221 54.2102 64.0262 54.4202 63.7247C54.4462 63.6872 54.4808 63.6332 54.476 63.5947L54.4741 63.5851H54.4751ZM42.1046 72.3146C42.1248 72.3416 42.1624 72.3445 42.2144 72.3358C42.4311 72.2992 42.6719 72.2645 42.8887 72.199C43.0948 72.1316 43.3625 72.0343 43.3625 71.7906C43.3481 71.4911 42.6344 71.5036 42.2915 71.5065C42.1306 71.5007 42.1325 71.6481 42.121 71.7829C42.1171 71.9303 42.0593 72.1875 42.0979 72.305L42.1036 72.3146H42.1046ZM43.8962 77.3801C43.9019 77.3897 43.9135 77.409 43.9193 77.4186C44.0599 77.5073 44.2439 77.5949 44.3941 77.6431C44.7553 77.7519 44.8902 77.6036 44.817 77.1701C44.7977 77.0863 44.7833 76.9418 44.7351 76.886C44.6927 76.8609 44.6773 76.8783 44.6398 76.8937C44.4317 77.0353 44.1293 77.1778 43.8991 77.3705L43.8962 77.3801ZM44.7765 73.9761C44.737 73.9809 44.7197 74.0253 44.711 74.0628C44.6253 74.4125 44.7631 74.8055 45.0809 75.1012C45.1156 75.132 45.1628 75.159 45.2061 75.1522C45.2475 75.1464 45.2813 75.1108 45.3053 75.0761C45.524 74.7573 45.3968 74.4057 44.9364 74.0522C44.895 74.0204 44.8353 73.9781 44.79 73.9761H44.7765ZM46.1366 80.3978C46.152 80.4421 46.1973 80.499 46.2531 80.525C46.3051 80.5433 46.361 80.5423 46.4159 80.5327C46.8522 80.498 46.8677 80.2697 46.911 79.9239C46.911 79.9066 46.9081 79.8729 46.9081 79.8555C46.8715 79.8122 46.8214 79.8064 46.7665 79.8064C46.5874 79.8035 46.4727 79.8103 46.3909 79.8613C46.2868 79.9143 46.1481 80.2139 46.1337 80.3843L46.1366 80.3978ZM44.4462 76.3254C44.6523 75.7908 43.6602 75.5288 43.5706 76.0923C43.5552 76.2589 43.769 76.2329 43.8798 76.2637C44.006 76.2859 44.1312 76.3081 44.2574 76.3302C44.32 76.337 44.3826 76.3659 44.4346 76.335L44.4452 76.3254H44.4462ZM55.3747 68.2133C55.4537 68.1584 55.4286 68.0043 55.366 67.932C55.1474 67.6065 54.869 67.5939 54.5849 67.8049C54.5155 67.853 54.5232 67.9031 54.5974 67.933C54.8546 68.0197 55.1137 68.1767 55.3631 68.2181L55.3747 68.2123V68.2133Z" fill="#111111"/>
</g>
<defs>
<clipPath id="clip0_2_126">
<rect width="90" height="90.3237" fill="white" transform="translate(15 15)"/>
</clipPath>
</defs>
</svg>
