<svg width="196" height="110" viewBox="0 0 196 110" fill="none" xmlns="http://www.w3.org/2000/svg">
<path d="M62.3638 42.469C61.8027 42.4572 62.4534 40.5539 61.5505 41.1315C61.376 41.2722 61.3029 41.7681 61.031 41.5622C60.1823 40.8313 61.6943 37.6644 59.7305 38.7827C59.4075 39.1394 59.7525 39.5496 59.8829 40.0031C59.9458 40.7968 60.2507 41.6926 60.2302 42.4596C60.1862 43.0851 59.2283 43.3146 59.2071 42.5358C59.1992 41.6997 58.2837 41.5716 57.6936 41.9268C57.0885 42.2223 56.723 43.2164 55.9443 42.9067C55.2669 42.1366 57.4358 41.8152 56.8527 41.0977C56.6492 41.0074 56.1706 41.192 55.8233 41.2125C55.3966 41.3083 54.5754 41.0215 54.5431 41.6054C54.6532 41.8089 55.1506 41.5771 55.193 41.8176C55.0791 42.6977 53.9286 42.3409 53.2559 42.1225C52.4669 41.9268 52.0182 41.1362 51.2662 40.8958C50.4827 40.7685 49.7849 40.3473 49.1334 39.8828C48.834 39.6235 48.8827 39.1882 48.5417 38.9956C47.8651 38.6726 46.7115 39.0774 46.2148 38.2561C44.996 37.875 43.5092 37.9984 42.4766 37.0837C41.5469 35.4696 41.6491 34.015 43.9713 34.7104C44.3367 34.4433 43.8164 33.8232 44.7044 33.6197C46.959 33.0468 49.348 32.7804 51.6615 32.9117C52.0426 32.9313 52.1385 33.215 52.4057 33.1993C53.0131 32.6209 52.7373 32.4032 53.586 32.9502C53.7746 32.9675 53.8634 32.6893 53.9443 32.5368C54.3695 31.7093 54.9832 32.7223 55.6213 33.1238C55.7282 33.226 56.2154 33.5309 56.0732 33.1678C55.0822 30.5101 57.1608 33.8319 58.0338 32.9682C58.4865 32.7317 58.4535 32.0245 58.8142 31.8233C59.4436 31.5883 60.5737 32.5015 60.4023 33.1702C60.1823 33.4649 59.6919 33.094 59.4483 33.3612C59.2479 33.5561 59.2472 34.0409 59.0169 34.1698C58.7961 34.2751 58.5336 34.0087 58.3293 34.1156C58.1816 34.312 58.3662 34.6366 58.4841 34.8244C59.9222 35.9921 60.5917 32.7906 61.8247 32.4559C62.3764 32.1345 62.2624 31.4909 62.3693 30.9565C62.631 30.1652 62.8628 29.461 62.9563 28.6469C64.6647 25.4611 67.8953 23.1657 71.0119 21.4337C72.5113 20.6518 79.767 17.1705 80.7721 19.1626C80.996 19.7025 80.8616 20.3398 81.0259 20.8978C81.4864 21.8675 82.5371 23.0156 82.1551 24.1865C81.7716 24.581 81.0943 24.1063 80.6919 23.9468C80.2298 23.7119 80.7155 23.2749 80.8577 22.9795C81.0314 22.5543 80.589 22.1559 80.4404 21.6993C80.1261 20.3783 78.7289 20.875 77.7521 20.9536C75.4181 20.3335 74.8374 21.231 75.4331 23.4792C74.9726 25.4745 74.2441 22.2023 73.705 21.9029C72.7337 21.1217 72.3298 22.5512 71.5589 22.8246C70.9727 22.8608 68.9028 23.8242 70.2379 24.1118C71.7569 23.3174 72.208 24.2824 70.6528 24.8301C69.8701 25.1201 68.8336 23.9374 68.2984 24.5456C68.4203 24.9456 68.359 25.3409 67.9464 25.5719C66.693 26.5039 65.3547 27.3495 64.0848 28.2744C62.2412 29.9451 66.7653 27.3299 67.17 27.1578C70.898 25.311 75.0779 24.6274 79.2004 25.2497C80.6369 25.4486 82.5779 25.1397 83.1972 26.7892C83.939 28.0277 83.5036 29.3267 83.7457 30.6327C83.8895 31.4256 83.6514 32.2115 83.7449 33.0193C83.7999 33.7234 84.0781 34.4543 83.8502 35.1238C83.3551 36.1784 82.5095 36.9619 84.0938 37.6267C85.5059 37.2259 84.2502 32.2083 84.8474 30.676C84.6345 29.4579 83.3457 25.5515 85.9327 26.7868C87.3118 27.6261 88.8025 28.0599 90.2815 28.7373C91.2936 29.2284 90.7915 30.2799 90.6587 31.219C90.6587 32.8794 91.5318 29.8579 92.0748 29.9671C94.0362 29.7801 95.2802 33.0067 97.002 33.1458C97.2244 32.1942 96.8707 31.0209 97.1364 30.0158C97.189 28.8654 97.3336 27.4084 96.5808 26.4269C95.1938 25.7385 93.3549 26.2847 93.6449 23.9044C93.2944 22.6879 94.2248 20.6471 92.496 20.273C91.9789 20.8105 92.9848 21.6883 93.0162 22.3657C93.1616 23.2867 93.4256 24.4081 92.1447 23.8344C91.5443 23.6773 91.516 24.3507 91.3109 24.7201C90.7891 25.2827 90.661 23.2608 89.8917 23.0651C89.1153 22.5732 88.6328 22.739 89.0862 23.6168C89.3864 24.6706 89.8131 25.9373 89.6567 27.0352C89.241 27.4831 88.5424 26.768 87.9908 26.7931C87.2034 26.6532 86.5197 26.1786 85.7959 25.8116C85.1185 25.5609 84.8081 25.0218 84.6455 24.3382C84.339 23.9091 84.1551 23.2317 84.8726 23.3299C85.4517 23.5248 86.1535 25.913 87.0965 25.0069C87.3267 24.7075 87.1358 23.939 87.568 23.8926C87.968 24.1048 87.8195 24.8152 87.8878 25.249C87.924 25.634 88.1574 25.9625 88.4387 25.6709C88.8827 25.0352 88.6029 24.2706 88.3994 23.5209C88.0426 22.5457 86.8089 18.9363 86.592 21.715C86.4584 22.4034 85.7158 22.2172 85.1358 22.1795C84.0537 22.2879 83.5437 21.242 83.1288 20.4176C81.6553 17.6161 85.6026 18.1049 87.3566 18.3226C88.3483 18.3257 88.8662 18.9214 89.0147 19.866C89.1294 20.2439 90.1448 22.5024 90.4009 21.2891C90.3907 20.8538 89.821 20.1276 90.5801 20.1929C90.6964 20.1685 90.9164 20.2353 90.9337 20.0899C90.8096 19.6058 89.5475 18.9387 90.775 18.9214C94.0857 18.8774 96.991 21.6011 100.003 22.5763C101.337 21.7913 102.443 23.2969 103.397 24.0773C103.724 24.1535 107.639 28.5196 105.987 27.8854C105.68 27.6701 105.472 27.3204 105.188 27.0737C104.826 26.7554 104.387 26.6619 104.169 26.3185C104.091 26.214 104.009 26.0293 103.862 26.0757C102.537 27.4077 106.043 29.1734 106.753 29.8178C110.249 32.2759 108.611 35.0617 110.819 35.5175C111.039 35.4704 111.05 35.1584 111.061 34.947C111.105 32.9816 111.068 30.5832 109.139 29.6661C108.518 29.3966 108.53 28.6736 108.167 28.1903C108.013 27.8406 105.336 26.2281 107.054 26.6053C109.362 27.6772 111.12 29.8681 112.061 32.1793C112.215 32.6162 112.741 35.0091 112.929 33.4225C112.875 31.1333 115.543 31.6205 117.012 32.0795C118.374 32.3136 119.798 32.5572 121.108 33.0798C122.572 33.4838 124.117 33.0861 125.61 33.1136C127.784 33.1105 129.973 33.2511 131.939 32.437C136.662 29.8076 140.652 26.0285 145.077 22.9323C145.918 22.3728 146.689 21.7873 147.646 21.4455C149.018 20.9889 148.841 22.4522 147.946 23.0478C146.09 24.3492 144.45 25.902 142.668 27.2741C141.631 27.8076 140.409 27.9617 139.489 28.7695C138.033 29.7086 136.568 30.6602 135.132 31.6331C134.315 32.1022 134.533 32.5596 134.503 33.2307C134.274 33.4853 133.71 33.0838 133.36 33.2559C132.648 33.7431 133.986 34.1965 134.203 34.4904C134.384 34.7427 134.156 35.0491 134.34 35.3926C135.223 36.7387 136.488 36.4456 137.169 35.0821C137.589 34.569 138.159 34.1745 138.399 33.5309C138.769 32.474 138.729 31.5011 139.626 30.6312C140.103 30.1424 140.613 29.5003 141.273 29.3165C142.108 29.2182 141.788 30.1502 141.408 30.6178C138.171 34.081 140.006 34.2429 140.486 38.0903C140.509 39.0577 140.297 40.0078 140.233 40.9665C140.256 41.9488 140.008 42.649 139.044 41.8372C138.354 41.2871 138.057 40.3567 137.569 39.6589C137.271 39.2848 136.774 39.5693 136.376 39.4781C135.696 39.2141 134.685 39.2133 134.182 39.8208C133.993 40.0927 133.966 40.517 133.593 40.6137C132.056 40.7803 132.51 41.2643 133.617 41.7201C138.529 43.0891 143.57 44.1044 148.388 45.8253C149.774 46.3809 157.133 47.4096 153.304 48.865C147.502 46.8516 141.391 45.6422 135.612 43.4553C134.561 43.2187 133.975 42.6757 133.48 43.8773C133.11 44.1562 130.506 44.2505 130.279 43.6729C130.323 43.1991 131.131 43.2769 131.353 43.1016C131.596 42.3472 129.982 42.7653 129.575 42.8117C127.979 42.5853 129.077 43.0042 128.23 43.6533C127.663 43.959 127.016 43.5079 126.425 43.6831C125.822 43.8843 125.419 44.5169 124.733 44.5099C123.972 44.4933 122.689 44.6442 122.548 43.6816C122.42 43.515 122.269 43.6329 122.198 43.8167C121.992 45.5165 120.007 44.7165 118.869 45.0584C117.248 44.821 117.191 45.8804 116.759 44.4713C116.065 44.5287 115.591 45.6556 114.792 45.5998C114.253 45.724 113.787 45.0426 113.31 45.2108C113.147 45.3366 113.11 45.7499 112.836 45.9204C112.449 46.1601 111.283 46.2678 111.594 45.4937C112.698 43.2965 113.727 40.1893 113.332 39.1496C112.764 38.1068 111.057 42.5303 110.935 43.0348C110.038 44.8462 108.643 46.3393 107.642 48.0901C107.065 49.9856 109.898 45.9731 110.212 45.8733C110.661 45.4686 110.941 45.7263 110.825 46.1695C110.542 47.7208 108.285 49.4339 106.584 50.5459C104.822 51.4637 103.089 53.2932 101.055 53.389C100.629 53.3474 100.381 52.9505 100.732 52.7006C101.249 52.4028 101.993 52.4107 102.177 51.7419C102.77 51.4197 103.044 52.6865 104.267 51.2421C104.693 50.6952 103.829 51.1077 103.631 50.9844C103.517 50.1671 106.086 48.7157 106.654 47.8976C109.769 44.645 111.171 41.4467 111.171 36.921C111.028 36.1949 110.905 36.5815 110.913 37.0617C110.767 39.6958 109.849 42.7213 108.085 44.6843C106.904 45.3876 109.04 41.8136 109.058 41.4019C109.637 40.4156 111.057 33.8169 108.742 37.6086C108.054 39.6086 107.364 41.6054 106.667 43.5983C106.301 44.5271 107.016 46.091 106.083 46.6654C104.977 46.5703 104.346 47.3216 103.729 48.131C103.065 48.6669 102.332 49.1086 101.686 49.6587C100.989 49.8936 100.762 48.7392 99.8671 49.4999C98.9972 50.0932 99.0294 50.4759 99.5489 51.1981C99.3784 51.8386 98.3285 52.2826 97.6974 52.2582C95.6425 51.7741 93.9388 53.5116 92.0693 54.1026C91.3793 54.3533 91.4485 54.6165 92.1887 54.5238C93.9671 54.2668 95.7509 53.8849 97.5316 53.5792C98.143 53.444 98.6617 52.6268 99.2919 53.0283C99.8381 53.3576 99.853 53.9957 99.1277 54.0161C97.5631 54.3085 96.0095 54.567 94.4252 54.754C93.4107 54.8232 92.3797 55.1572 91.362 55.0699C90.863 54.9819 90.4677 54.6071 89.9954 54.4059C89.476 54.1796 89.6473 53.9501 90.1809 53.8032C91.6268 53.3812 93.3518 53.3678 94.0629 51.9879C95.3344 52.2535 95.9309 51.0072 96.9383 50.5553C99.1528 50.3156 98.0676 48.7204 99.8836 47.8339C100.661 47.3334 101.088 48.5381 101.784 48.4823C102.822 48.2504 103.991 46.3691 102.509 45.8371C101.984 45.9409 101.64 47.6446 101.261 46.2458C101.332 44.836 103.148 43.8112 102.716 42.2301C102.718 41.2392 103.714 42.1083 103.969 40.2985C104.841 37.3964 102.666 41.1095 103.831 35.7933C104.025 33.9985 103.898 32.1455 103.642 30.3758C103.392 28.3844 103.499 25.1955 101.825 23.572C100.515 22.3838 100.888 24.2894 99.3501 23.5539C97.8106 23.0242 96.4401 22.1174 95.0295 21.3198C93.3321 21.0589 95.0083 22.4993 95.6063 22.7814C96.87 23.3952 97.8035 24.4285 98.9524 25.201C100.026 25.8721 101.28 26.1982 101.943 27.3794C103.656 31.5828 101.194 31.1545 98.6931 28.8945C97.3022 28.3106 97.8122 30.4371 97.8428 31.1514C97.956 32.1612 97.6707 33.2527 97.8805 34.2704C98.5186 36.5304 102.1 36.943 102.398 39.4294C102.242 44.1059 97.7438 41.0113 96.547 38.6522C94.7812 36.5265 94.0425 40.9217 94.6806 40.4502C95.7761 38.6687 95.8994 40.7009 95.8649 41.6745C95.7423 42.2388 95.9246 42.8124 96.5847 42.7999C97.9913 42.9743 98.5941 45.4128 98.4141 46.4611C98.1619 47.2996 97.2943 47.8072 96.5352 48.1899C94.4535 49.2815 94.1062 46.788 94.8975 45.4764C94.9745 45.1314 94.3419 45.2258 94.1274 45.0764C93.3478 44.9617 92.9659 43.0034 92.2791 43.834C91.74 44.6867 90.7318 45.8749 91.1498 46.8045C91.3604 47.0748 91.7054 47.2611 91.7204 47.6391C91.7369 48.41 90.6846 49.9337 92.2783 49.5817C92.6249 49.5927 93.2221 49.3286 93.3431 49.7152C92.8064 50.9789 91.4249 51.4237 90.1738 51.5022C89.7463 51.525 89.6167 52.2967 89.2088 52.1443C88.8151 51.4567 89.0933 50.1113 87.8493 50.9797C87.3621 51.584 87.4148 52.7447 87.4485 53.4881C87.5146 53.7945 87.7676 54.1246 87.5295 54.4122C82.9512 58.7178 75.3238 58.5968 70.3872 54.8098C66.3527 52.5891 62.5155 48.0642 61.2455 43.6462C61.2125 42.3111 62.022 43.4631 62.4487 43.8152C62.8133 44.0273 62.965 43.6698 62.8479 43.3625C62.7826 43.1841 62.6789 42.9044 62.8942 42.8337C63.2966 42.7747 64.5115 42.7826 64.286 42.0172C64.1186 41.8969 63.8718 42.0455 63.6832 42.0769C63.1669 42.1413 62.7834 42.1987 62.3764 42.4682L62.3662 42.4698L62.3638 42.469ZM71.265 30.485C71.4009 30.6697 71.3522 30.9612 71.4559 31.1608C71.6076 31.4948 72.0013 31.4759 71.9785 31.1954C71.8999 30.7663 71.4732 30.4874 71.3239 30.0779C71.1801 29.7605 71.0552 29.4744 71.0866 29.1459C71.129 28.8088 71.3011 28.2493 70.7298 28.4654C70.1224 28.7208 70.1059 29.4956 70.5074 29.9396C70.6984 30.1934 71.0717 30.2697 71.2532 30.4701L71.2658 30.4858L71.265 30.485ZM88.2745 39.6997C88.4308 39.7728 88.6359 40.0966 88.8803 40.0345C89.0862 39.9991 89.2332 39.6927 89.0069 39.5732C88.6752 39.4467 88.3444 39.4656 88.2603 39.0208C88.1715 38.4125 88.0741 37.919 87.4218 37.8813C87.0407 37.8538 86.4207 37.8585 86.6627 38.4133C86.9362 39.1316 87.2395 40.1775 86.6619 40.7983C86.3358 41.1858 85.8454 41.1103 85.4187 41.005C84.9684 40.9233 84.5205 41.3767 84.5127 41.8074C84.5087 42.2608 84.9582 42.3134 85.3197 42.1814C85.656 42.0769 86.4977 41.7508 86.456 42.3684C86.368 42.7881 85.6018 43.2454 85.9185 43.7554C86.0922 44.0549 86.3743 44.1169 86.4882 43.7334C86.7586 42.9712 87.557 39.6117 88.2627 39.6934L88.2752 39.6989L88.2745 39.6997ZM83.0282 39.6848C82.695 39.7956 81.6318 38.752 81.4298 38.484C81.0888 38.0864 81.3025 37.7556 81.6491 37.4609C82.0993 37.0357 82.3264 36.5006 82.0545 35.9175C81.8447 35.402 81.2051 34.8873 80.6526 35.0546C80.4939 35.1073 80.4263 35.2205 80.4931 35.2935C80.5473 35.3635 80.7061 35.3784 80.8577 35.4146C81.1768 35.4735 81.275 35.7721 81.1571 36.0472C80.7925 37.046 78.5466 35.3768 78.7344 36.3418C78.8758 36.9485 79.308 37.4405 79.6357 37.9654C79.8573 38.2939 79.5807 38.6373 79.6295 38.9854C79.6703 39.2384 79.8401 39.6054 80.0475 39.6188C80.3045 39.4852 80.1945 39.0278 80.3721 38.8275C80.5182 38.6247 80.8051 38.7756 80.9654 38.9068C81.455 39.2903 81.7088 39.772 81.9602 40.3716C82.0027 40.4691 82.0546 40.5744 82.1158 40.6537C82.4687 41.1103 82.8074 40.4887 83.0471 40.2482C83.5099 39.7893 84.0404 40.7763 84.4977 40.4007C84.8066 40.0589 84.8278 39.7854 85.3771 39.93C85.8344 40.0683 86.5495 40.1084 86.1433 39.453C85.7001 38.8047 84.7492 38.5744 83.9374 38.4801C83.7606 38.462 83.5421 38.4455 83.4015 38.5532C83.1099 38.7269 83.3245 39.464 83.0423 39.6785L83.0298 39.6848H83.0282ZM78.6204 56.8184C78.6519 56.6888 78.5277 56.5748 78.4216 56.4813C77.9713 56.046 77.2853 56.1269 76.7643 55.8314C76.1851 55.4236 76.9521 54.8868 77.1643 54.4782C77.9391 53.2405 76.8484 53.015 75.8252 53.1124C75.1384 53.1321 74.8743 53.9226 74.3761 54.2723C74.0249 54.5206 73.5754 54.5497 73.8614 53.947C74.0194 53.5706 74.2394 53.1391 74.2645 52.7368C74.2826 52.0814 73.6759 51.5753 73.1007 51.3734C72.762 51.2233 72.1121 51.1659 71.9196 50.9286C71.7923 50.7431 71.955 50.5357 72.0548 50.3691C72.2096 50.1365 72.3298 49.8787 72.3644 49.5982C72.4233 48.696 71.786 49.6469 71.5447 49.8425C71.1149 50.2528 70.3086 50.0712 70.0666 50.6732C69.9432 50.916 69.8953 51.2366 69.7491 51.459C69.5024 51.8323 69.0379 51.5525 68.814 51.2924C68.4572 50.9089 68.3621 50.3549 67.9896 49.9738C67.7916 49.7632 67.2061 49.4033 66.9672 49.6154C66.825 49.8748 67.8104 50.6158 68.0572 51.0032C68.2482 51.2798 68.0281 51.591 67.9653 51.8629C67.9165 52.116 68.2254 52.1231 68.4077 52.1419C68.7377 52.1631 69.0521 52.3164 69.4159 52.3816C69.7813 52.4704 70.1742 52.3785 70.3016 52.6724C70.3636 52.8232 70.3047 53.0519 70.4894 53.1234C70.6819 53.1902 70.9789 53.1399 71.2005 53.1721C71.5534 53.2083 71.9023 53.3592 72.1577 53.6091C72.4618 53.8983 72.5868 54.2912 72.916 54.6C73.6484 55.3128 74.3651 55.0039 75.114 54.4381C75.3977 54.2409 75.661 54.2943 75.4779 54.7454C75.4181 54.8931 75.3223 55.0362 75.2107 55.1721C74.9741 55.4794 74.5914 55.7167 74.6402 56.0051C74.6755 56.1583 74.8626 56.266 75.0142 56.3399C76.0586 56.8066 76.9851 57.0927 78.0963 57.0063C78.2676 56.9905 78.5324 56.9717 78.6157 56.8279L78.6204 56.8169V56.8184ZM106.474 30.9911C106.192 31.0257 106.251 31.8791 106.056 32.0747C105.759 32.3781 105.466 31.5482 105.419 31.3235C105.305 31.0013 105.488 30.4543 105.416 30.2021C105.393 30.1353 105.326 30.1007 105.26 30.1329C104.944 30.3365 105.053 30.8756 105.073 31.2095C105.12 31.6433 105.147 32.063 105.26 32.3789C105.43 32.8653 105.759 33.2944 105.933 33.7855C106.138 34.3215 106.074 34.8134 106.084 35.3501C106.079 35.7124 106.211 36.0935 106.199 36.4259C106.191 36.7741 105.879 36.9894 105.63 37.189C104.881 37.7752 105.104 39.2432 104.908 40.1516C104.836 40.6616 104.61 41.1378 104.529 41.6439C104.445 42.0981 104.66 42.572 104.49 43.0128C104.319 43.4608 103.823 43.6415 103.521 43.9771C103.41 44.0839 103.308 44.315 103.402 44.3841C103.781 44.59 104.308 43.9228 104.656 43.7256C104.812 43.6179 104.983 43.5244 105.156 43.4443C105.582 43.2541 106.029 43.082 106.322 42.7166C107.011 41.8561 107.298 40.5288 107.57 39.35C108.082 37.2629 108.052 36.877 107.098 34.9211C106.884 34.426 106.7 33.8987 106.691 33.3612C106.68 33.0468 106.764 32.7073 106.934 32.4496C107.145 32.1109 107.464 31.9435 107.487 31.575C107.454 31.2504 107.035 31.652 106.837 31.5027C106.663 31.3942 106.644 31.0972 106.482 30.9934L106.473 30.9903L106.474 30.9911ZM89.9554 41.4663C90.0937 41.4742 90.1086 41.7413 90.1149 42.0305C90.0528 43.269 89.4446 44.6254 88.6014 45.5417C87.9515 46.2167 86.7735 46.0807 86.1975 46.9137C85.9413 47.2666 85.8242 47.7593 86.0026 48.1585C86.2383 48.6709 86.6014 49.0756 86.9503 48.4367C87.487 47.5228 88.3546 46.8524 89.0792 46.0729C89.4823 45.6367 89.751 45.0316 90.1746 44.6057C90.665 44.1617 91.127 44.223 91.1058 43.4631C91.1113 43.0089 91.164 42.5437 91.428 42.1696C91.5883 41.9307 91.8209 41.6989 91.7911 41.3932C91.7565 41.0671 91.5215 40.796 91.4422 40.4801C91.3542 40.2035 91.3549 39.875 91.2214 39.7107C91.1231 39.5897 90.9494 39.5701 90.7915 39.5206C90.6108 39.475 90.4607 39.3508 90.3271 39.2235C89.986 38.8793 89.8752 39.365 89.8006 39.7657C89.7008 40.1775 89.6269 40.631 89.355 40.9641C88.8528 41.3885 88.2281 40.0738 87.9719 41.3767C87.9185 41.6376 87.92 41.9252 88.0348 42.1673C88.1204 42.3598 88.265 42.5036 88.3868 42.6671C88.7538 43.0969 88.3326 43.8521 88.1527 44.4093C88.133 44.4855 88.1291 44.535 88.1424 44.5499C88.1566 44.5672 88.1904 44.5444 88.2383 44.4878C88.3035 44.4108 88.3766 44.2937 88.4332 44.1939C88.8442 43.4301 89.245 42.6545 89.6395 41.8804C89.7165 41.7445 89.8108 41.5166 89.9452 41.4671L89.9538 41.4655L89.9554 41.4663ZM82.5371 55.6947C82.442 55.5375 82.6777 55.3246 82.798 55.2208C83.3425 54.7666 84.0647 54.9089 84.7052 55.0888C85.0282 55.1611 85.3001 54.9859 85.4792 54.7218C85.6223 54.5261 85.7582 54.3124 85.9437 54.1505C86.2179 53.8943 86.5802 53.8 86.7507 53.5824C87.1334 53.0551 85.994 53.0661 85.7197 53.1132C85.3221 53.2059 84.9857 53.4936 84.5889 53.6114C83.9508 53.8071 83.4266 54.0994 82.7704 54.2857C82.1206 54.4735 81.4235 54.6354 80.7988 54.8892C80.4774 55.0283 80.2487 55.1375 80.0758 55.3473C79.9351 55.5179 79.9736 55.7638 80.1237 55.7835C80.3163 55.7976 80.4593 55.6004 80.6243 55.5297C80.8451 55.4157 81.0895 55.6232 81.1611 55.8275C81.2491 56.1709 80.6267 56.123 80.3281 56.2966C79.8173 56.5371 79.9359 56.8601 80.4617 56.8954C81.6357 56.9795 82.7579 56.7941 83.8384 56.2801C84.0694 56.1497 84.6384 55.9108 84.4427 55.5878C84.1983 55.3167 83.752 55.3937 83.4353 55.4935C83.0934 55.587 82.7453 55.8008 82.5441 55.7002L82.5363 55.6931L82.5371 55.6947ZM79.7937 49.6233C79.6986 49.7443 79.7395 49.9062 79.778 50.0547C80.163 51.3301 78.7878 51.3356 79.9045 52.7651C80.3171 53.4063 80.6754 53.8338 81.4141 53.2696C82.1064 52.7124 82.2046 51.3655 82.8365 50.8091C83.396 50.2826 83.9516 50.9977 84.5527 50.8429C84.893 50.7588 85.3999 50.2418 85.1932 49.8928C84.926 49.6225 84.4168 49.628 84.0592 49.6972C83.7685 49.764 83.5728 50.0076 83.3237 50.1207C83.1681 50.1977 82.9983 50.2292 82.827 50.2528C81.7567 50.3392 81.6711 51.6963 81.1658 52.3957C80.9434 52.5985 80.7218 52.2645 80.6479 52.0759C80.4428 51.5981 80.8357 51.3231 81.0612 50.7455C81.1964 50.3816 81.3182 49.8253 80.9607 49.562C80.71 49.4033 80.053 49.3734 79.8047 49.6099L79.7937 49.6233ZM83.7543 47.298C83.7897 47.096 83.4195 47.0214 83.2655 46.9703C82.8671 46.8823 82.427 46.777 82.0483 46.9302C81.8542 47.0033 81.6766 47.129 81.4715 47.1628C81.1626 47.2029 80.8279 46.975 80.6966 46.7008C80.5229 46.3668 80.9528 45.9998 80.7666 45.6878C80.6298 45.4261 79.8008 45.4796 79.6994 45.7145C79.6601 45.8159 79.7096 45.9236 79.7245 46.0289C79.833 46.3739 79.3387 46.5365 79.2436 46.7786C79.1532 47.0403 79.3568 47.3192 79.4605 47.5589C79.6625 47.9628 79.8738 48.3542 80.2157 48.5451C80.673 48.7942 81.2192 48.6866 81.7072 48.8681C82.2911 49.0457 82.7241 49.3019 83.04 48.9907C83.1681 48.8587 83.4172 48.5223 83.2443 48.3612C83.0926 48.2874 82.8907 48.3644 82.7233 48.3518C82.493 48.3667 82.207 48.1467 82.3783 47.9361C82.6589 47.5762 83.4612 47.6281 83.7496 47.3098L83.7543 47.2988V47.298ZM90.6186 32.6759C90.5125 32.7207 90.4544 32.9156 90.4253 33.0468C90.2226 33.989 90.243 35.0688 90.3451 36.0071C90.3829 36.3796 90.4591 36.8849 90.3632 37.1796C90.2988 37.4059 90.1314 37.6228 90.1542 37.8672C90.173 38.0691 90.3404 38.2059 90.5055 38.3064C90.8151 38.4762 91.1058 38.7127 91.4406 38.8149C91.9946 38.9147 91.8767 37.9285 92.1117 37.6463C92.426 37.2275 92.7852 38.1721 93.193 37.7626C93.5451 37.42 93.38 36.954 92.9565 36.6303C92.6673 36.3874 92.2634 36.0731 91.898 36.2719C91.4767 36.4935 91.0273 36.7293 91.153 36.0236C91.307 35.0656 91.3856 33.6205 90.9023 32.8653C90.8402 32.7671 90.7349 32.6429 90.6288 32.672L90.6178 32.6759H90.6186ZM73.2972 48.6661C73.2618 48.7196 73.2563 48.8123 73.2649 48.931C73.2917 49.1864 73.3184 49.485 73.3404 49.7475C73.3938 50.4107 73.5919 50.8225 74.1632 51.2924C74.5113 51.5612 75.4016 52.4814 75.8221 52.2268C76.3659 51.8291 76.3454 50.2606 75.9502 49.7475C75.5462 49.217 74.4508 48.8948 73.6917 48.663C73.573 48.6261 73.3671 48.5656 73.3042 48.6567L73.2964 48.6669L73.2972 48.6661ZM77.367 44.7794C77.1611 44.7464 76.9717 45.0159 76.7486 45.0702C76.4397 45.2014 76.0366 44.9311 75.7458 45.0081C75.2625 45.1456 75.8276 46.564 75.8354 46.957C75.8834 47.2461 75.8794 47.5196 75.8048 47.8151C75.7498 48.0508 75.6547 48.3227 75.6594 48.5561C75.6476 48.9105 75.9871 49.1322 76.2236 48.8265C76.5152 48.4516 76.4138 47.6493 76.7399 47.2289C76.8224 47.1377 76.8877 47.1008 77.0032 47.0795C77.169 47.0473 77.3937 47.1133 77.5234 46.9915C77.6295 46.8839 77.6201 46.7039 77.6114 46.557C77.5776 46.1232 77.5415 45.676 77.5022 45.1982C77.4833 45.0631 77.4896 44.8635 77.378 44.7857L77.367 44.781V44.7794ZM65.2447 48.0658C65.3445 48.0281 65.3461 47.8591 65.3885 47.7483C65.5441 47.1793 65.7806 47.5487 66.0156 47.9055C66.1963 48.1797 66.4093 48.5208 66.6568 48.7526C66.9224 48.9986 67.2533 49.1361 67.2116 48.7825C67.1975 48.6882 67.1448 48.5601 67.0985 48.4603C66.6623 47.6501 66.5531 46.7959 66.9154 45.9306C67.0222 45.6367 67.203 45.0442 67.001 44.8375C66.8038 44.737 66.6505 45.0929 66.5712 45.2344C66.2906 45.9071 66.3079 46.0265 65.5952 45.8921C65.0404 45.812 65.0121 46.6906 64.4416 46.5695C64.2089 46.5428 63.9009 46.3904 63.7374 46.4029C63.5033 46.4132 63.6518 46.6858 63.7492 46.7911C64.0691 47.1817 64.5799 47.3672 64.9296 47.7719C65.0207 47.8638 65.1252 48.0304 65.2368 48.0634H65.2455L65.2447 48.0658ZM52.4795 38.0668C52.3184 38.0471 52.1856 37.9002 52.0803 37.7768C51.8084 37.4475 51.4509 37.0483 51.146 36.9737C50.5196 36.8173 50.1424 38.0856 49.9452 38.5438C49.8061 38.9595 50.1974 38.8636 50.6108 38.7992C51.175 38.7552 51.8304 38.4848 52.3852 38.6884C52.4976 38.7355 52.5974 38.8039 52.6964 38.8667C53.1436 39.2039 53.8005 38.6035 54.1337 38.2805C54.404 37.9717 54.0646 37.6558 53.8815 37.3941C53.7062 37.1434 53.2504 36.8094 53.0375 37.1088C52.9683 37.2291 52.9746 37.3666 52.9628 37.5065C52.9557 37.7729 52.7781 38.0723 52.4968 38.0683L52.4787 38.0668H52.4795ZM72.6276 36.3379C73.0268 36.7631 74.017 37.644 74.5545 37.0687C74.7675 36.7913 74.9961 36.3277 75.0252 35.9921C74.9789 35.798 74.6692 35.9686 74.5333 35.9882C74.1482 36.099 73.896 36.0212 73.5408 35.791C73.1612 35.5623 72.9695 35.2684 73.1133 34.7882C73.1871 34.3953 73.272 33.9183 73.2304 33.5089C73.2139 33.1183 72.9066 32.9588 72.6363 33.1906C72.5066 33.3062 72.4492 33.5458 72.4037 33.7392C72.3447 33.9851 72.263 34.2947 72.2064 34.5352C72.0217 35.1529 72.2551 35.7973 72.6127 36.3191L72.6276 36.3387V36.3379ZM77.4645 51.2979C77.4189 51.169 77.5627 51.2358 77.6429 51.4567C78.0806 52.7588 77.6546 54.6582 78.9528 55.1336C79.1022 55.1808 79.3741 55.246 79.4346 55.0754C79.4715 54.9395 79.2711 54.6629 79.286 54.4491C79.3261 53.958 79.7198 53.4252 79.4456 52.9333C79.1642 52.3737 78.376 51.958 77.7717 51.5997C77.6554 51.5337 77.5077 51.4079 77.4692 51.3089L77.4645 51.2979ZM46.8899 37.6094C47.1185 37.7454 47.4132 37.5316 47.7386 37.453C47.9555 37.3854 48.1849 37.3375 48.4097 37.3784C48.7075 37.4247 48.9653 37.6534 49.2537 37.743C49.5468 37.8404 49.9295 37.7595 50.1157 37.5033C50.28 37.2856 50.2171 36.9674 50.0073 36.8039C49.4061 36.3544 48.3429 36.9139 47.6443 36.6216C47.047 36.4173 45.7802 35.7878 45.5539 36.6373C45.5704 36.9399 45.9248 36.8644 46.1779 36.8754C46.5849 36.8652 46.6871 37.1473 46.7932 37.4735C46.8231 37.5324 46.8246 37.5473 46.8789 37.6L46.8906 37.6102L46.8899 37.6094ZM67.9275 39.2439C67.955 39.0263 67.6383 38.877 67.4222 38.653C67.3272 38.5595 67.2415 38.4573 67.1645 38.3489C66.6977 37.7461 66.5177 36.7921 65.8286 36.3953C65.6297 36.3096 65.4097 36.4204 65.3673 36.6318C65.2926 37.3108 66.0863 37.7061 66.2443 38.3174C66.3024 38.5689 66.179 38.8251 66.0313 39.0255C65.8985 39.2149 65.7971 39.3925 65.8851 39.5559C66.2906 40.1264 67.0592 39.8184 67.5998 39.5363C67.7209 39.4703 67.8788 39.387 67.9236 39.2589L67.9275 39.2439ZM56.4653 40.172C56.8409 40.1563 57.2079 39.7092 57.523 39.5119C57.8861 39.2164 58.5352 39.0074 58.8723 38.6695C59.4994 37.9402 58.4385 37.4837 57.7737 37.9945C57.5207 38.1815 57.402 38.4919 57.1403 38.6671C56.7639 38.9445 56.2248 38.8644 56.0598 39.2966C55.9333 39.6157 56.0834 40.1681 56.4456 40.172H56.4661H56.4653ZM69.3208 42.5704C69.5692 43.1032 71.5432 41.3217 69.7389 40.7048C69.5998 40.6514 69.4057 40.5956 69.3216 40.4934C69.122 40.2883 69.5558 39.8192 69.2768 39.6997C69.0544 39.6518 68.6953 39.7846 68.5067 39.9253C68.2874 40.0903 68.4148 40.3481 68.5515 40.5249C68.8092 40.8746 69.0749 41.1598 69.2116 41.4907C69.3782 41.7995 69.2595 42.2128 69.3138 42.5523L69.32 42.5696L69.3208 42.5704ZM70.2811 48.8343C70.1766 49.0072 69.9982 48.8642 69.7648 48.7369C69.5016 48.5773 69.1778 48.4163 68.9318 48.45C68.6214 48.487 68.4886 48.8563 68.6481 49.1117C68.8572 49.4331 69.2949 49.5573 69.6556 49.6312C70.3157 49.7899 70.9114 49.3231 71.2477 48.7903C71.6343 48.2033 70.9758 47.5841 70.5067 48.1656C70.3558 48.3581 70.3558 48.6717 70.289 48.8194L70.2819 48.8335L70.2811 48.8343ZM77.6814 36.4361C78.1199 36.3584 78.7352 35.4201 78.0012 35.2778C77.6208 35.2205 77.2248 35.6432 76.7446 35.8004C76.5293 35.8751 76.2747 35.9159 76.1246 36.0967C75.8598 36.3599 75.7678 38.1673 76.2991 38.0919C76.4507 38.0385 76.5521 37.6652 76.6142 37.4302C76.7321 37.1049 76.7627 36.6444 76.993 36.4141C77.1737 36.2601 77.4267 36.4715 77.6617 36.4393L77.6821 36.4361H77.6814ZM72.1051 47.5518C72.7573 47.5927 73.7718 46.8564 73.2579 46.1798C73.0787 45.9731 72.6386 45.8285 72.2976 45.8906C71.4583 45.977 70.9679 47.4921 72.0783 47.551H72.1058L72.1051 47.5518ZM68.3055 43.4993C68.2749 43.291 67.955 43.0262 67.7822 42.7794C67.4403 42.3433 67.1519 41.8498 66.7213 41.5174C66.3896 41.2549 65.8891 41.1355 66.0431 41.6934C66.2969 42.5437 66.8832 43.3806 67.6266 43.9605C67.9228 44.1853 68.3346 43.8364 68.3087 43.5189L68.3055 43.4993ZM64.1579 39.6683C64.2836 39.6549 64.4392 39.4907 64.5335 39.3626C64.9162 38.8856 65.0852 38.4007 64.6089 38.0927C64.3614 37.9528 64.0258 38.1186 63.8262 37.9324C63.6251 37.743 63.5606 37.4232 63.4121 37.2C63.3587 37.119 63.3044 37.0774 63.2549 37.0845C63.1347 37.1143 63.0931 37.3131 63.0663 37.431C62.9233 38.1776 63.3579 38.862 63.8262 39.4805C63.908 39.5811 64.0125 39.6817 64.1398 39.6714L64.1594 39.6691L64.1579 39.6683ZM89.355 36.0739C89.4972 36.099 89.5546 35.9057 89.5326 35.7745C89.4186 35.0303 88.9055 33.3619 88.1982 33.1678C87.2984 33.0272 87.9813 34.1997 88.2265 34.6036C88.434 34.9454 88.654 35.2629 88.8678 35.5623C89.065 35.8208 89.1499 36.0165 89.3416 36.0723L89.3542 36.0747L89.355 36.0739ZM55.2575 36.7976C55.1278 36.6719 54.8991 36.6585 54.7632 36.7796C54.5856 36.9281 54.7459 37.2621 54.7537 37.6157C54.7592 37.754 54.7459 37.8939 54.7137 38.0283C54.6453 38.3725 54.3875 38.6805 54.2956 39.0043C54.2327 39.2848 54.5423 39.2707 54.727 39.2047C55.3518 39.0035 55.8083 38.5139 56.2358 38.0322C56.7498 37.4774 55.8256 37.6235 55.5726 37.3595C55.4217 37.233 55.428 36.9642 55.2724 36.8118L55.2575 36.7976ZM71.3074 37.3501C71.6736 37.2377 71.0167 36.4393 70.8949 36.1839C70.5805 35.7383 70.2442 35.1254 69.6572 35.0609C69.2234 35.0609 68.9193 35.5969 69.1872 35.9544C69.5204 36.4582 70.1326 36.778 70.6395 37.0774C70.9114 37.2251 71.1345 37.3847 71.2933 37.3524L71.3074 37.3493V37.3501ZM69.8285 46.4886C69.8717 46.3173 69.7617 46.1106 69.6509 45.8434C69.5079 45.5197 69.3279 45.1212 69.0835 44.8745C68.8698 44.6262 68.4981 44.6827 68.4085 45.0057C68.2654 45.5063 68.5303 46.5106 68.7197 47.1118C68.8328 47.3624 69.0277 47.2234 69.2642 47.0693C69.4646 46.9263 69.7585 46.7298 69.8238 46.5082L69.8285 46.4894V46.4886ZM81.3418 44.2529C81.352 44.3692 81.521 44.4108 81.6121 44.447C82.2384 44.6709 82.438 44.1869 82.8828 43.6109C83.172 43.2109 83.6042 42.9099 83.7661 42.4368C83.8895 42.1044 83.84 41.6038 83.3748 41.8993C82.5677 42.4329 82.4357 43.614 81.598 44.0462C81.5115 44.1004 81.3685 44.1609 81.3434 44.2435L81.3418 44.2537V44.2529ZM74.3494 39.3705C73.4952 39.4836 74.2465 40.3363 74.2001 40.8761C74.1608 41.1598 73.797 41.3264 73.7624 41.6038C73.7498 41.7248 73.8315 41.8231 73.9408 41.8506C74.7588 41.9834 75.9934 39.2722 74.3777 39.3689L74.3502 39.3713L74.3494 39.3705ZM83.5995 45.2454C83.5469 45.2855 83.5838 45.4277 83.605 45.5047C83.7747 46.087 84.2297 46.8587 84.7979 46.8815C85.0242 46.8972 85.2403 46.7817 85.3299 46.5664C85.4926 46.142 85.4266 45.4246 85.2867 45.0206C85.2521 44.9539 85.1728 44.9444 85.113 44.9766C84.5229 45.4057 84.5402 45.6493 83.7944 45.2753C83.7433 45.2556 83.649 45.2163 83.6074 45.2399L83.5987 45.2454H83.5995ZM64.4023 33.6527C64.5225 33.6566 64.6647 33.5388 64.796 33.4162C65.2282 33.0162 65.438 32.6005 64.9736 32.3034C64.6113 32.0881 64.1854 31.9726 63.7697 32.0119C63.152 32.0944 63.7272 32.9109 63.963 33.2401C64.1036 33.4256 64.2294 33.6425 64.3826 33.6519H64.403L64.4023 33.6527ZM79.2444 42.8737C79.1454 42.8195 79.1595 42.4462 79.0597 42.216C78.9379 41.9119 78.7171 42.0777 78.6637 42.3347C78.4098 43.3335 80.064 44.2623 80.5442 43.4002C80.8263 42.9468 80.4499 42.0824 79.8636 42.3826C79.6625 42.4855 79.4574 42.8077 79.3245 42.8706C79.3002 42.8824 79.2766 42.8887 79.253 42.8792L79.2436 42.8745L79.2444 42.8737ZM93.681 33.9458C93.5671 33.8437 93.3856 33.85 93.2339 33.8382C92.5306 33.7973 92.2587 33.7949 92.1196 34.4283C92.0889 34.5981 92.0127 34.8456 92.1086 34.991C92.2029 35.1136 92.4983 35.0554 92.7506 35.0759C92.962 35.0743 93.1624 35.1654 93.362 35.2102C93.5427 35.2472 93.6362 35.0814 93.6606 34.9258C93.7054 34.6963 93.7384 34.4645 93.7525 34.2327C93.7565 34.1384 93.7565 34.0331 93.6936 33.96L93.6802 33.9458H93.681ZM78.4538 38.0707C78.358 38.6341 78.5041 39.2935 78.457 39.8765C78.4688 40.2427 78.277 40.6019 78.2935 40.961C78.3674 41.3303 78.8923 41.2439 79.1124 41.0592C79.7678 40.5461 79.0251 38.9626 78.6149 38.2263C78.5772 38.1658 78.5151 38.033 78.4578 38.066L78.4531 38.0715L78.4538 38.0707ZM129.243 38.3371C129.733 38.8235 132.399 38.7913 132.205 37.9497C131.941 37.442 130.289 37.9662 129.822 38.0841C129.518 38.1799 129.245 38.2506 129.243 38.33V38.3379V38.3371ZM61.7838 33.9529C61.6817 33.9828 61.6353 34.1596 61.596 34.2617C61.3155 35.0845 61.3784 35.6786 61.908 36.2837C61.9693 36.3505 62.062 36.4346 62.1445 36.4189C62.2664 36.3859 62.286 36.2043 62.3049 36.088C62.3952 35.358 62.231 34.8763 61.9536 34.1588C61.9198 34.0818 61.8703 33.9623 61.7972 33.9521H61.7846L61.7838 33.9529ZM89.4603 48.8988C89.4422 48.8469 89.1648 48.8988 88.8686 48.9538C88.2823 49.0819 87.5782 49.2492 87.091 49.6312C86.7688 49.8598 86.7861 50.3368 87.1876 50.4547C87.8847 50.538 88.6084 49.7121 89.0972 49.2948C89.2874 49.1101 89.4744 48.9546 89.4619 48.9043L89.4603 48.8988ZM56.9949 35.3038C58.2782 35.3281 57.4932 34.0409 56.8284 33.6881C56.6955 33.6087 56.5871 33.703 56.558 33.8413C56.4071 34.4338 56.3058 35.2291 56.9698 35.3014L56.9957 35.3038H56.9949ZM85.1877 19.1956C85.201 19.2459 85.3386 19.2797 85.4061 19.3072C86.1645 19.5611 86.9165 20.0058 87.8729 19.7952C88.0183 19.7669 88.2941 19.6648 88.0945 19.517C87.2544 19.0675 86.3169 19.0243 85.4517 19.1218C85.3716 19.1336 85.2223 19.1453 85.1885 19.1901L85.1869 19.1956H85.1877ZM83.9445 43.0411C83.7221 43.0435 83.7119 43.5 83.6278 43.68C83.5304 43.9912 83.4659 44.2702 83.7386 44.3653C84.0215 44.4525 84.3523 44.4148 84.6148 44.2757C84.8733 44.1264 84.7633 43.8662 84.548 43.5998C84.3901 43.4285 84.159 43.1103 83.9618 43.0427L83.9445 43.0403V43.0411ZM136.378 38.6742C136.437 38.7041 136.523 38.6561 136.581 38.6153C137.15 38.2082 137.279 37.4719 136.893 36.8589C136.827 36.7497 136.7 36.635 136.587 36.7442C136.227 37.2251 136.292 37.8169 136.299 38.4455C136.303 38.521 136.312 38.6263 136.366 38.6664L136.379 38.6742H136.378ZM68.0847 36.8668C68.0022 36.8935 67.9024 36.9799 67.823 37.0499C67.6336 37.2118 67.5275 37.3328 67.7248 37.4585C68.1484 37.7045 68.9145 38.0455 69.3947 38.0157C69.7137 37.9677 69.8646 37.7399 69.5629 37.5135C69.2855 37.2896 68.8713 37.112 68.5413 36.9713C68.3472 36.8927 68.2191 36.8259 68.1028 36.8613L68.0855 36.8668H68.0847ZM85.9704 51.562C85.9429 51.503 85.8336 51.4747 85.7606 51.459C85.0179 51.3129 84.4301 51.5525 84.2423 52.1741C84.2007 52.2999 84.218 52.4586 84.3696 52.4822C84.9661 52.4987 85.3873 52.1128 85.858 51.7474C85.9099 51.7034 85.9869 51.6358 85.9743 51.5745L85.9704 51.562ZM50.214 35.0641C50.2485 35.0971 50.4198 35.079 50.6045 35.0735C51.0053 35.0476 51.4878 35.0507 51.8398 34.8315C52.1047 34.679 52.0308 34.2523 51.7676 34.1211C51.2678 33.9655 50.79 34.4621 50.4434 34.7576C50.3051 34.8951 50.177 35.0185 50.2084 35.0578L50.2132 35.0633L50.214 35.0641ZM55.0995 35.1466C55.1545 34.6444 54.5345 33.9215 53.9883 33.9812C53.7447 34.0008 53.4705 34.2201 53.4909 34.4016C53.5962 34.8142 54.3396 34.9596 54.6924 35.0908C54.8834 35.1442 55.0437 35.2118 55.0924 35.1544L55.0995 35.1458V35.1466ZM77.7937 49.052C78.0876 48.9726 78.3682 48.6992 78.5937 48.5781C78.7933 48.4618 78.6024 48.3188 78.4641 48.2465C77.7702 47.8622 77.3191 47.896 77.4935 48.5255C77.5383 48.6779 77.6059 48.8689 77.6869 48.9954C77.712 49.0284 77.7403 49.0465 77.7757 49.052L77.7937 49.0536V49.052ZM77.2209 34.0527C77.1863 34.015 77.1038 34.0181 77.0456 34.0236C76.5332 34.0731 75.6044 34.4448 75.6052 34.9258C75.6028 35.0436 75.6578 35.1906 75.7828 35.2118C76.16 35.2582 77.2617 34.437 77.2279 34.0621L77.2216 34.0535L77.2209 34.0527ZM47.436 34.6295C46.7861 34.9886 47.7464 35.7132 48.2698 35.5041C48.713 35.3509 48.6548 35.1026 48.2313 34.8833C48.0081 34.7812 47.6804 34.5879 47.4564 34.6232L47.436 34.6295ZM68.3338 35.6307C68.3676 35.5882 68.3338 35.4963 68.3047 35.4421C68.021 34.8959 67.2973 34.7497 66.7826 35.1317C66.7063 35.1882 66.5845 35.3006 66.7056 35.369C67.1621 35.5002 67.6203 35.5474 68.1177 35.6542C68.1853 35.6652 68.278 35.681 68.3244 35.6409L68.3338 35.6307ZM115.773 33.248C115.911 33.1168 115.878 32.9062 115.693 32.8276C115.281 32.6052 114.678 32.2461 114.303 32.426C114.211 32.4677 114.101 32.558 114.146 32.6657C114.384 32.969 114.967 33.0743 115.327 33.1993C115.538 33.2527 115.68 33.3203 115.759 33.2582L115.772 33.2488L115.773 33.248ZM126.63 42.315C126.415 42.3001 126.361 42.6097 126.479 42.7692C126.66 43.0828 127.197 43.3272 127.503 43.1118C127.619 43.0325 127.698 42.9154 127.735 42.7959C127.842 42.2726 126.95 42.3724 126.647 42.3166H126.63L126.63 42.315ZM74.4594 47.1558C74.696 46.8823 74.7518 45.9149 74.4508 45.6289C74.2504 45.4301 73.8787 45.5126 73.8905 45.7916C73.892 46.1546 74.1011 46.5232 74.2551 46.8414C74.3392 46.9978 74.4021 47.1518 74.4516 47.1558H74.4602H74.4594ZM72.6457 38.2837C72.6795 38.2467 72.663 38.1878 72.6441 38.1414C72.4508 37.7328 72.3149 37.2864 71.7868 37.3202C71.6862 37.3328 71.628 37.3359 71.5495 37.4208C71.5039 37.4774 71.4976 37.5591 71.5086 37.6314C71.5825 38.0943 71.8237 38.286 72.4092 38.3253C72.4807 38.33 72.5868 38.33 72.6339 38.2947L72.6465 38.2837H72.6457ZM111.924 38.0157C112.271 37.9127 112.833 37.7949 113.011 37.4161C113.091 37.2463 113.05 36.9391 112.926 36.9069C112.595 36.8888 112.21 37.5528 112.028 37.7909C111.948 37.9182 111.874 38.0102 111.916 38.0149H111.924V38.0157ZM64.5437 45.1621C64.5288 45.1142 64.4596 45.078 64.4101 45.0497C64.0235 44.8407 63.6628 44.6097 63.3162 44.7692C63.2675 44.792 63.2117 44.8289 63.2101 44.8823C63.2337 45.0026 63.3453 45.0694 63.4325 45.148C63.8129 45.4741 63.9748 45.614 64.37 45.3578C64.4439 45.309 64.5233 45.265 64.5461 45.1778L64.5437 45.1629V45.1621ZM104.769 34.6271C104.647 34.5501 104.615 34.793 104.617 34.8833C104.631 35.4083 104.584 35.9521 104.638 36.4692C104.706 36.6758 104.823 36.5234 104.826 36.3804C104.838 35.8743 104.827 35.3596 104.831 34.855C104.831 34.782 104.818 34.6861 104.779 34.6366L104.769 34.6264V34.6271ZM70.021 46.6772C69.9353 46.7393 69.8049 47.0395 69.7397 47.1786C69.5794 47.5251 69.6092 47.8764 70.0721 47.8402C70.6552 47.8041 70.3526 47.1668 70.1703 46.8705C70.1098 46.7715 70.0642 46.678 70.0289 46.6764H70.0202L70.021 46.6772ZM77.2429 40.9752C77.4857 40.9689 77.5093 40.7771 77.4087 40.5956C77.1729 40.1241 77.088 39.9151 76.578 39.9198C76.4162 39.9174 76.2834 39.9787 76.4224 40.139C76.6755 40.4282 76.8908 40.664 77.0849 40.8832C77.1234 40.9249 77.169 40.9634 77.2224 40.9728L77.2421 40.9752H77.2429ZM61.7281 37.3587C61.7469 37.3163 61.7108 37.2613 61.6817 37.222C61.4522 36.9194 61.2267 36.6216 60.9744 36.2923C60.9328 36.2491 60.8998 36.18 60.8401 36.2075C60.7835 36.301 60.8 36.4173 60.7882 36.5249C60.7599 37.1819 60.9925 37.4609 61.534 37.4271C61.5945 37.4239 61.6895 37.4122 61.7194 37.3705L61.7265 37.3579L61.7281 37.3587ZM66.3582 32.6146C66.469 32.6476 66.7464 32.6013 66.7197 32.4064C66.7087 32.2492 66.6891 32.092 66.6749 31.9349C66.6663 31.8602 66.667 31.7691 66.6073 31.7227C66.539 31.6685 66.3896 31.7133 66.2663 31.725C66.1963 31.7376 66.0989 31.736 66.0541 31.7981C66.0117 31.8854 66.084 31.9836 66.113 32.085C66.1853 32.239 66.2333 32.5038 66.3417 32.606L66.3574 32.6146H66.3582ZM81.2546 41.4844C81.2443 41.4074 81.1901 41.3594 81.1304 41.3131C80.8381 41.0671 80.7218 41.1158 80.4263 41.3469C80.3524 41.4168 80.1937 41.4859 80.2039 41.5967C80.2149 41.647 80.2668 41.6918 80.3116 41.7233C80.5905 41.9134 80.7587 41.8042 81.0998 41.6156C81.1524 41.585 81.2223 41.5496 81.2483 41.5017L81.2546 41.4844ZM57.3274 37.5395C57.402 37.5945 57.5631 37.7045 57.6519 37.6778C57.7038 37.6518 57.7108 37.5583 57.7093 37.4962C57.6959 36.8212 56.9329 36.4471 57.083 37.0389C57.1317 37.2126 57.1993 37.3886 57.3109 37.5237L57.3274 37.5395ZM77.2232 26.6839C77.1981 26.5542 77.0354 26.4144 76.96 26.302C76.916 26.2462 76.8767 26.1975 76.8319 26.2085C76.7989 26.225 76.7659 26.2501 76.7446 26.2808C76.6551 26.4144 76.5686 26.5495 76.5592 26.6957C76.5482 26.8088 76.6307 26.988 76.7258 27.142C76.7454 27.1727 76.7761 27.2002 76.8075 27.2175C76.8814 27.2261 76.9128 27.1405 76.9662 27.0847C77.0425 26.9707 77.2036 26.8356 77.2232 26.7067V26.6839ZM45.4337 34.4165C45.3308 34.4708 45.271 34.6751 45.3512 34.7568C45.4007 34.8134 45.4926 34.855 45.5689 34.9022C45.7496 35.0067 45.9319 35.1199 46.1111 35.2181C46.1488 35.2354 46.1834 35.2417 46.2109 35.2315C46.2635 35.2126 46.2824 35.1364 46.2848 35.079C46.302 34.7097 45.9893 34.6209 45.6231 34.4535C45.5689 34.4291 45.506 34.4016 45.4526 34.411L45.4337 34.4165ZM118.888 44.4761C118.997 44.5319 119.256 44.5444 119.299 44.4045C119.34 44.2505 119.35 44.0886 119.379 43.9315C119.386 43.8757 119.395 43.8152 119.358 43.7751C119.251 43.7067 119.102 43.7696 118.979 43.7664C118.897 43.7727 118.829 43.7908 118.803 43.8395C118.759 43.9307 118.8 44.0407 118.806 44.146C118.827 44.2537 118.809 44.3763 118.875 44.4643L118.888 44.4761H118.888ZM107.109 49.0724C107.104 48.9341 106.922 48.843 106.812 48.9459C106.535 49.1895 106.27 49.4583 106.003 49.7113C105.812 49.8669 105.985 50.1498 106.196 49.9989C106.476 49.7585 106.742 49.4905 107.013 49.2422C107.056 49.2005 107.102 49.1479 107.109 49.0921V49.0732L107.109 49.0724ZM77.6672 42.9138C77.7647 42.8659 77.888 42.6828 77.8315 42.5735C77.8087 42.5295 77.7576 42.4902 77.7041 42.451C77.5116 42.3331 77.3395 42.1272 77.1234 42.0659C77.0464 42.0659 76.9945 42.1539 76.9545 42.2183C76.879 42.3221 76.8366 42.4486 76.9662 42.528C77.0818 42.6058 77.2099 42.6812 77.3293 42.7574C77.4417 42.8211 77.5643 42.9264 77.6484 42.9177L77.6664 42.9138H77.6672ZM92.5683 38.3748C92.5549 38.3787 92.5439 38.3905 92.5353 38.4078C92.4968 38.5147 92.4755 38.675 92.4457 38.7944C92.4221 38.9414 92.3647 39.0923 92.3647 39.24C92.3695 39.2675 92.3828 39.2887 92.4056 39.3021C92.6296 39.3705 92.8779 39.1764 92.8991 39.0019C92.9463 38.8267 92.8103 38.4762 92.5824 38.374L92.5683 38.3756V38.3748ZM132.176 39.8734C132.248 39.9072 132.465 39.8954 132.513 39.8113C132.576 39.6392 132.542 39.3862 132.504 39.2251C132.465 39.1206 132.379 39.0632 132.2 39.0443C132.137 39.0365 132.076 39.0388 132.03 39.0852C131.997 39.1402 132.035 39.2494 132.046 39.3398C132.086 39.4931 132.083 39.7445 132.163 39.8616L132.176 39.8718V39.8734ZM51.9719 39.629C51.7518 39.772 52.0277 39.9606 52.14 40.0565C52.3019 40.1846 52.4064 40.1995 52.5966 40.1147C52.7168 40.062 52.999 39.9284 52.8442 39.7673C52.7278 39.6809 52.5605 39.6982 52.4198 39.6644C52.2768 39.6526 52.1298 39.5936 51.9899 39.6211L51.9719 39.629ZM95.0452 28.654C94.9659 28.5141 95.039 28.3444 95.1427 28.2336C95.3407 28.0002 95.7124 27.9648 95.8735 27.7864C96.136 27.4666 95.813 27.2018 95.4295 26.9888C94.9989 26.7806 94.1792 26.3688 93.7242 26.5692C93.3596 26.7861 93.3423 27.865 93.428 28.6579C93.4846 29.6229 94.0472 30.5989 95.0114 30.9038C95.4075 31.05 95.5977 30.8708 95.611 30.4724C95.6338 30.1094 95.644 29.6795 95.567 29.3526C95.5442 29.2583 95.5144 29.1679 95.468 29.0846C95.3611 28.8819 95.145 28.8206 95.0539 28.6681L95.0452 28.654ZM79.7733 22.849C79.6907 22.6722 79.4464 22.6903 79.1839 22.6596C78.9128 22.6329 78.6597 22.5881 78.4711 22.4309C78.3462 22.3437 78.2346 22.1425 78.0727 22.1732C77.9556 22.2164 77.8857 22.3775 77.8307 22.493C77.5831 23.0557 77.4692 23.5515 77.8802 23.9374C78.0758 24.1323 78.3627 24.2376 78.6322 24.225C78.9748 24.1959 79.2695 24.1951 79.4794 24.5386C79.5564 24.6501 79.6412 24.7971 79.7261 24.8906C80.0271 25.2026 79.9344 24.5849 79.877 24.434C79.767 24.0466 79.6436 23.7016 79.73 23.3323C79.7575 23.1838 79.822 23.0046 79.7795 22.8647L79.7733 22.849ZM92.2484 29.0092C92.3074 28.911 92.2799 28.7491 92.2484 28.6265C91.9671 27.6575 91.7754 26.4639 91.0186 25.8045C90.8229 25.6804 90.8017 25.9405 90.7994 26.0859C90.7813 27.113 91.061 28.9094 91.9396 29.0964C92.0465 29.1216 92.1793 29.1129 92.2398 29.0225L92.2484 29.0092ZM83.8415 23.4667C83.9178 23.0793 83.5634 22.7822 83.304 22.5292C82.4365 21.7645 82.5025 23.5547 83.0557 24.6054C83.2805 25.0651 83.5626 24.8545 83.6883 24.4089C83.7716 24.1103 83.7637 23.7849 83.8384 23.4895L83.8415 23.4667ZM100.888 35.5387C100.932 35.4672 100.882 35.3627 100.841 35.2833C100.419 34.5941 99.8169 33.3541 99.0876 33.1073C98.8778 33.0696 98.9226 33.3234 98.9595 33.4641C99.2063 34.3733 99.732 35.5348 100.591 35.6118C100.687 35.622 100.827 35.6165 100.881 35.5489L100.888 35.5387ZM76.2834 22.7508C76.2865 23.0478 76.3556 23.4627 76.5812 23.7064C76.7949 23.9751 77.1376 24.0969 77.1981 23.6961C77.3293 22.9024 77.0566 21.9304 76.2582 21.7645C76.006 21.704 75.8001 21.8188 75.9541 22.1111C76.0594 22.339 76.2511 22.5197 76.2794 22.7303L76.2826 22.7508H76.2834ZM116.407 46.1185C116.264 46.3267 116.611 46.41 116.774 46.4179C117.616 46.4721 118.633 46.5208 119.381 46.2316C119.779 46.0823 119.596 45.9102 119.288 45.8332C118.465 45.6053 117.626 45.7837 116.77 45.9479C116.647 45.9731 116.494 46.0242 116.419 46.1051L116.408 46.1177L116.407 46.1185ZM72.3447 23.6686C72.4406 23.9083 72.7589 24.0042 72.9703 24.1205C73.4669 24.3445 73.5321 24.0458 73.3687 23.6623C73.2469 23.3378 73.6807 23.3999 73.8732 23.3464C74.1404 23.2961 73.995 23.0203 73.8795 22.8026C73.65 22.3146 73.2657 22.8136 73.0127 22.992C72.9074 23.0777 72.8037 23.161 72.7007 23.2451C72.5349 23.3834 72.3282 23.5201 72.3424 23.6506L72.3439 23.6678L72.3447 23.6686ZM110.955 44.6937C111.047 44.8988 111.283 44.7676 111.361 44.6152C111.646 44.1452 111.964 43.6714 111.955 43.1535C111.957 42.9484 111.827 42.8659 111.658 42.9963C111.231 43.3169 111.118 43.845 110.962 44.4077C110.94 44.4941 110.922 44.5955 110.948 44.6741L110.955 44.6937ZM100.623 31.5199C100.563 31.5561 100.524 31.6653 100.502 31.7431C100.302 32.4276 100.665 32.947 101.443 32.7616C101.563 32.7309 101.69 32.7034 101.775 32.6107C101.877 32.4284 100.963 31.7219 100.79 31.56C100.746 31.5262 100.687 31.4924 100.637 31.5137L100.623 31.5207V31.5199ZM103.877 49.1542C104.465 49.1337 105.388 48.6701 105.587 48.164C105.729 47.72 105.319 47.9039 105.056 48.1003C104.762 48.3039 104.405 48.6166 104.148 48.8516C103.983 49.008 103.838 49.1235 103.872 49.151L103.876 49.1549L103.877 49.1542ZM82.9614 21.2223C82.9551 21.1689 82.9025 21.1249 82.8585 21.0879C82.6392 20.9127 82.464 20.7705 82.3068 20.6487C82.2298 20.5874 82.1583 20.5952 82.1103 20.6958C81.7944 21.3174 82.0019 21.8416 82.7618 21.4211C82.8443 21.3669 82.93 21.3465 82.9614 21.2412V21.2223ZM93.773 46.909C93.7282 46.8014 93.6268 46.7479 93.549 46.6701C93.4712 46.6002 93.4091 46.5389 93.3431 46.5562C93.1459 46.6607 93.0272 46.9019 92.8795 47.0843C92.4881 47.6477 92.7443 47.654 93.3494 47.2674C93.4728 47.188 93.6237 47.0874 93.7297 47.0065C93.7596 46.9821 93.7777 46.9554 93.7761 46.9247L93.7738 46.909H93.773ZM109.282 30.5031C109.256 30.5078 109.236 30.5266 109.224 30.5604C109.188 30.7152 109.205 30.9392 109.21 31.1121C109.245 31.7415 109.447 32.0724 109.865 32.147C109.945 32.162 110.082 32.1714 110.032 32.0527C110.018 32.0142 109.984 31.9584 109.961 31.916C109.712 31.4964 109.894 30.7152 109.297 30.5015L109.283 30.5031H109.282ZM102.277 34.4983C102.264 34.4511 102.207 34.411 102.164 34.3765C101.786 34.0951 101.557 33.8704 101.162 34.0307C101.069 34.0676 101.027 34.1132 101.055 34.2122C101.092 34.283 101.154 34.3411 101.208 34.4016C101.534 34.76 101.653 34.8723 102.093 34.6609C102.156 34.624 102.262 34.5981 102.277 34.5148L102.276 34.4991L102.277 34.4983ZM127.535 45.4654C127.575 45.4874 127.626 45.4678 127.669 45.4466C127.978 45.2745 128.302 45.0969 128.576 44.8729C128.648 44.7786 128.524 44.7071 128.445 44.6717C127.963 44.4564 127.496 44.7322 127.48 45.2753C127.478 45.335 127.482 45.4183 127.521 45.4544L127.534 45.4639L127.535 45.4654ZM98.9571 31.2331C98.9092 31.259 98.9116 31.2732 98.8864 31.3078C98.7882 31.4807 98.6845 31.7188 98.701 31.8516C98.7104 32.026 98.8495 32.2327 98.9587 32.3875C98.9823 32.4229 99.0271 32.4394 99.0656 32.4535C99.141 32.4362 99.1874 32.3718 99.2314 32.3097C99.4695 31.9718 99.4035 31.8272 99.1709 31.4673C99.1104 31.384 99.0703 31.274 98.9721 31.2308L98.9579 31.2331H98.9571ZM134.909 35.3124C135.019 35.5678 135.734 35.8106 135.937 35.5379C136.051 35.3745 135.932 35.0311 135.716 34.9674C135.447 34.8668 134.992 35.0193 134.908 35.2951L134.909 35.3124ZM108.129 29.4901C108.145 29.1876 107.812 28.999 107.619 28.797C107.491 28.6862 107.273 28.4072 107.17 28.6949C107.003 29.1444 107.459 29.5726 107.957 29.5561C108.013 29.5546 108.089 29.5451 108.12 29.5043L108.129 29.4901ZM99.1489 47.2878C99.1795 47.4041 99.3186 47.4497 99.4011 47.3569C99.6848 47.0945 100.484 46.3244 100.316 46.1452C100.108 46.0069 99.853 46.3236 99.7013 46.4776C99.5717 46.6245 99.4514 46.7849 99.3383 46.9373C99.24 47.0788 99.1332 47.1856 99.1457 47.2721L99.1489 47.2878ZM125.549 45.669C125.684 45.6407 125.781 45.4615 125.874 45.3884C125.954 45.2863 126.113 45.2124 126.024 45.0874C125.708 44.7888 125.244 44.667 125.33 45.2069C125.364 45.3507 125.402 45.5739 125.53 45.665L125.549 45.669ZM57.7085 32.639C57.7431 32.6162 57.7808 32.5871 57.8004 32.5502C57.8971 32.4072 58.0024 32.2311 57.9851 32.1376C57.9725 31.9993 57.8201 31.8555 57.7171 31.7494C57.7132 31.7431 57.6496 31.6936 57.6205 31.7078C57.4727 31.7911 57.3737 32.0559 57.4044 32.1722C57.435 32.3081 57.5285 32.4268 57.6134 32.558C57.6331 32.5887 57.6637 32.617 57.6936 32.6374L57.7085 32.6398V32.639ZM72.4736 53.224C72.5066 53.2012 72.542 53.1706 72.5608 53.1344C72.6669 52.9678 72.8084 52.7549 72.8076 52.637C72.8147 52.4814 72.7125 52.3541 72.6033 52.2229C72.5789 52.1946 72.542 52.1781 72.5066 52.1702C72.428 52.1953 72.4257 52.2346 72.384 52.292C72.2402 52.5435 72.1836 52.6496 72.2654 52.8775C72.3109 52.9725 72.3628 53.1368 72.4602 53.2224L72.4736 53.2248V53.224ZM106.125 37.3461C106.037 37.3996 106.004 37.4962 105.972 37.5929C105.799 38.0785 105.844 38.2899 106.183 38.5917C106.242 38.6412 106.322 38.6758 106.395 38.6491C106.463 38.6271 106.522 38.5579 106.561 38.4943C106.864 37.9976 106.797 37.6699 106.331 37.3964C106.276 37.3642 106.204 37.3281 106.144 37.3406L106.125 37.3461Z" fill="#111111"/>
<path fill-rule="evenodd" clip-rule="evenodd" d="M148.097 85.36H140.057C139.946 85.36 139.857 85.2705 139.857 85.16V84.4C139.857 84.3291 139.894 84.2634 139.955 84.2275L141.697 83.2055V58.2016L139.645 57.1376C139.578 57.1032 139.537 57.0347 139.537 56.96V56.2C139.537 56.0895 139.626 56 139.737 56H146.337C146.447 56 146.537 56.0895 146.537 56.2V74.9101L151.955 68.1761L150.156 67.133C150.095 67.0972 150.057 67.0313 150.057 66.96V66.2C150.057 66.0895 150.146 66 150.257 66H157.137C157.247 66 157.337 66.0895 157.337 66.2V66.96C157.337 67.0383 157.291 67.1094 157.22 67.1419L154.461 68.4031L150.659 72.9417L156.521 83.2097L158.469 84.2226C158.535 84.257 158.577 84.3254 158.577 84.4V85.16C158.577 85.2705 158.487 85.36 158.377 85.36H149.937C149.826 85.36 149.737 85.2705 149.737 85.16V84.4C149.737 84.3336 149.77 84.2715 149.825 84.2343L151.151 83.3382L146.537 75.273V83.2081L148.201 84.2295C148.26 84.2659 148.297 84.3305 148.297 84.4V85.16C148.297 85.2705 148.207 85.36 148.097 85.36Z" fill="#111111"/>
<path fill-rule="evenodd" clip-rule="evenodd" d="M162.793 75.2049L172.548 75.4399C172.602 75.4412 172.654 75.4208 172.693 75.3831C172.731 75.3455 172.753 75.2939 172.753 75.24V74.16C172.753 71.4713 172.116 69.3019 170.919 67.8003C169.717 66.2929 167.967 65.48 165.793 65.48C161.127 65.48 157.713 69.5281 157.713 75.44C157.713 78.9879 158.539 81.591 160.006 83.3098C161.476 85.0333 163.567 85.84 166.033 85.84C167.63 85.84 168.931 85.4193 170.002 84.6742C171.071 83.9308 171.899 82.8725 172.569 81.614C172.588 81.5793 172.596 81.5399 172.592 81.5007L172.472 80.2607C172.462 80.1582 172.376 80.08 172.273 80.08H171.713C171.648 80.08 171.588 80.1111 171.55 80.1635C170.047 82.2605 168.619 83.24 166.833 83.24C165.069 83.24 163.809 82.0478 163.265 80.1061L163.265 80.1051C163.032 79.2875 162.793 77.7069 162.793 75.8V75.2049ZM162.835 73.5494L167.912 73.29C167.902 72.3916 167.825 70.95 167.715 70.0272C167.596 69.2388 167.392 68.5359 167.044 68.0341C166.703 67.5434 166.222 67.24 165.513 67.24C164.87 67.24 164.384 67.5482 164.008 68.05C163.627 68.5572 163.366 69.2548 163.189 70.0015C163.005 70.9927 162.856 72.5987 162.835 73.5494Z" fill="#111111"/>
<path fill-rule="evenodd" clip-rule="evenodd" d="M126.25 74.8507C128.078 73.8226 130.43 73.4613 132.628 73.4409V70.24C132.628 69.3734 132.397 68.6433 131.97 68.1334C131.548 67.6304 130.92 67.3226 130.079 67.32C128.688 67.4747 127.426 68.4555 126.649 69.7269L125.656 72.4681C125.627 72.5473 125.552 72.6 125.468 72.6H124.588C124.478 72.6 124.388 72.5105 124.388 72.4V67.32C124.388 67.2518 124.423 67.1883 124.48 67.1515C125.506 66.495 127.983 65.44 130.628 65.44C133.094 65.44 134.803 65.9752 135.9 66.8216C137.003 67.6727 137.468 68.8234 137.468 70V83.2068L139.171 84.2285C139.231 84.2646 139.268 84.3298 139.268 84.4V85.16C139.268 85.2705 139.179 85.36 139.068 85.36H132.948C132.838 85.36 132.748 85.2705 132.748 85.16V83.4784C131.568 85.0228 129.93 85.8 128.028 85.8C126.74 85.8 125.485 85.4936 124.55 84.6646C123.611 83.8316 123.028 82.5 123.028 80.52C123.028 77.7021 124.352 75.9183 126.25 74.8507ZM129.988 82.9599C131.233 82.96 132.201 82.1294 132.628 81.3498V75.089C131.056 75.1717 129.9 75.5546 129.129 76.2715C128.329 77.0155 127.908 78.1527 127.908 79.8C127.908 81.0493 128.098 81.8461 128.441 82.3235C128.77 82.7827 129.265 82.979 129.983 82.9601L129.988 82.9599Z" fill="#111111"/>
<path d="M110.883 81.3483C111.867 82.7533 113.525 84 115.143 84C116.047 84 116.828 83.7406 117.38 83.2769C117.928 82.8163 118.263 82.1432 118.263 81.28C118.263 80.7858 118.171 80.3829 117.997 80.0406C117.823 79.6982 117.562 79.4056 117.208 79.1399C116.494 78.6026 115.426 78.1916 114.002 77.7104C112.751 77.3266 111.466 76.7648 110.493 75.8022C109.512 74.8323 108.863 73.47 108.863 71.52C108.863 69.6889 109.533 68.165 110.661 67.0996C111.788 66.0354 113.359 65.44 115.143 65.44C117.702 65.44 119.374 66.0908 120.518 66.7037C120.583 66.7385 120.623 66.8063 120.623 66.88V72.04C120.623 72.1505 120.534 72.24 120.423 72.24H119.623C119.54 72.24 119.465 72.1876 119.436 72.1089L118.564 69.7325C117.632 68.3792 116.639 67.5487 115.045 67.24C114.108 67.2434 113.416 67.4935 112.961 67.8951C112.505 68.297 112.263 68.8692 112.263 69.56C112.263 70.512 112.65 71.157 113.283 71.6638C113.929 72.1801 114.827 72.5502 115.848 72.9308C117.571 73.4718 119.047 74.0924 120.091 75.085C121.147 76.0887 121.743 77.4545 121.743 79.44C121.743 82.8288 119.216 85.8 115.023 85.8C112.349 85.8 110.078 85.0713 108.732 84.3778C108.665 84.3435 108.623 84.2749 108.623 84.2V78.56C108.623 78.4495 108.713 78.36 108.823 78.36H109.703C109.789 78.36 109.864 78.4139 109.892 78.4944L110.883 81.3483Z" fill="#111111"/>
<path fill-rule="evenodd" clip-rule="evenodd" d="M106.806 75.4399L97.0506 75.2049V75.8C97.0506 77.7069 97.2893 79.2875 97.5229 80.1051L97.5232 80.1061C98.0669 82.0478 99.3264 83.24 101.091 83.24C102.877 83.24 104.305 82.2605 105.808 80.1635C105.846 80.1111 105.906 80.08 105.971 80.08H106.531C106.634 80.08 106.72 80.1582 106.73 80.2607L106.85 81.5007C106.853 81.5399 106.846 81.5793 106.827 81.614C106.157 82.8725 105.328 83.9308 104.26 84.6742C103.189 85.4193 101.888 85.84 100.291 85.84C97.825 85.84 95.7341 85.0333 94.2635 83.3098C92.7969 81.591 91.9706 78.9879 91.9706 75.44C91.9706 69.5281 95.3852 65.48 100.051 65.48C102.225 65.48 103.975 66.2929 105.177 67.8003C106.374 69.3019 107.011 71.4713 107.011 74.16V75.24C107.011 75.2939 106.989 75.3455 106.95 75.3831C106.912 75.4208 106.86 75.4412 106.806 75.4399ZM102.17 73.29L97.0931 73.5494C97.1138 72.5986 97.2633 70.9924 97.4464 70.0012C97.6236 69.2546 97.8853 68.5572 98.2656 68.05C98.642 67.5482 99.1274 67.24 99.7706 67.24C100.48 67.24 100.961 67.5434 101.301 68.0341C101.65 68.5358 101.854 69.2386 101.972 70.0268C102.083 70.9497 102.159 72.3915 102.17 73.29Z" fill="#111111"/>
<path fill-rule="evenodd" clip-rule="evenodd" d="M65.0197 83.2055L63.2784 84.2275C63.2173 84.2634 63.1797 84.3291 63.1797 84.4V85.16C63.1797 85.2705 63.2692 85.36 63.3797 85.36H71.4197C71.5301 85.36 71.6197 85.2705 71.6197 85.16V84.4C71.6197 84.3305 71.5835 84.2659 71.5243 84.2295L69.8597 83.2081V70.8494C70.1293 70.3446 70.5624 69.7957 71.0901 69.3708C71.6336 68.9331 72.2606 68.64 72.8997 68.64C73.5644 68.64 74.0224 68.8197 74.3175 69.1404C74.6155 69.4643 74.7797 69.9668 74.7797 70.68V83.2094L73.1533 84.2306C73.095 84.2672 73.0597 84.3312 73.0597 84.4V85.16C73.0597 85.2705 73.1492 85.36 73.2597 85.36H81.1797C81.2901 85.36 81.3797 85.2705 81.3797 85.16V84.4C81.3797 84.3305 81.3436 84.2659 81.2843 84.2295L79.6197 83.2081V70.8108C79.9081 70.2865 80.3414 69.7473 80.8632 69.3373C81.3999 68.9156 82.0176 68.64 82.6597 68.64C83.3245 68.64 83.7939 68.8198 84.0994 69.1425C84.4068 69.4672 84.5797 69.9695 84.5797 70.68V83.2081L82.9151 84.2295C82.8558 84.2659 82.8197 84.3305 82.8197 84.4V85.16C82.8197 85.2705 82.9092 85.36 83.0197 85.36H91.0197C91.1301 85.36 91.2197 85.2705 91.2197 85.16V84.4C91.2197 84.3291 91.1821 84.2634 91.1209 84.2275L89.3797 83.2055V70.08C89.3797 67.3957 87.1957 65.52 84.6197 65.52C83.4228 65.52 82.4336 65.8203 81.5535 66.4087C80.7708 66.9321 80.0828 67.6778 79.4121 68.6231C78.8109 66.915 77.1274 65.52 74.7797 65.52C73.5606 65.52 72.5801 65.8415 71.7249 66.4413C71.0215 66.9345 70.4096 67.6112 69.8197 68.4352V66.2C69.8197 66.0895 69.7301 66 69.6197 66H63.2997C63.1892 66 63.0997 66.0895 63.0997 66.2V66.96C63.0997 67.0323 63.1387 67.0989 63.2016 67.1343L65.0197 68.157V83.2055Z" fill="#111111"/>
<path fill-rule="evenodd" clip-rule="evenodd" d="M49.4532 74.8507C51.2809 73.8226 53.633 73.4613 55.8312 73.4409V70.24C55.8312 69.3734 55.6001 68.6433 55.1729 68.1334C54.7514 67.6304 54.1234 67.3226 53.282 67.32C51.8909 67.4747 50.6288 68.4555 49.8525 69.7269L48.8593 72.4681C48.8306 72.5473 48.7554 72.6 48.6712 72.6H47.7912C47.6808 72.6 47.5912 72.5105 47.5912 72.4V67.32C47.5912 67.2518 47.626 67.1883 47.6834 67.1515C48.7093 66.495 51.1862 65.44 53.8312 65.44C56.2969 65.44 58.0061 65.9752 59.1034 66.8216C60.2066 67.6727 60.6712 68.8234 60.6712 70V83.2068L62.3741 84.2285C62.4344 84.2646 62.4713 84.3298 62.4713 84.4V85.16C62.4713 85.2705 62.3817 85.36 62.2712 85.36H56.1513C56.0408 85.36 55.9512 85.2705 55.9512 85.16V83.4784C54.7707 85.0228 53.1334 85.8 51.2312 85.8C49.9431 85.8 48.6881 85.4936 47.7535 84.6646C46.8144 83.8316 46.2312 82.5 46.2312 80.52C46.2312 77.7021 47.5553 75.9183 49.4532 74.8507ZM53.1912 82.96C54.4363 82.96 55.4042 82.1294 55.8312 81.3498V75.089C54.2592 75.1717 53.1034 75.5546 52.3324 76.2715C51.5323 77.0155 51.1112 78.1527 51.1112 79.8C51.1112 81.0493 51.3015 81.8461 51.6438 82.3235C51.9731 82.7827 52.4684 82.979 53.186 82.9601L53.1912 82.96Z" fill="#111111"/>
<path fill-rule="evenodd" clip-rule="evenodd" d="M28.76 61.4546L40.6608 85.4888C40.6945 85.5569 40.764 85.6 40.84 85.6H43.04C43.1505 85.6 43.24 85.5105 43.24 85.4V59.6062L45.7261 58.4205C45.7957 58.3873 45.84 58.3171 45.84 58.24V57.44C45.84 57.3295 45.7505 57.24 45.64 57.24H38.68C38.5695 57.24 38.48 57.3295 38.48 57.44V58.24C38.48 58.3175 38.5248 58.3881 38.595 58.421L41.12 59.607V74.7561L32.3787 57.3502C32.3448 57.2827 32.2756 57.24 32.2 57.24H24.24C24.1295 57.24 24.04 57.3295 24.04 57.44V58.24C24.04 58.3189 24.0864 58.3905 24.1585 58.4227L26.64 59.5298V82.993L24.115 84.179C24.0448 84.2119 24 84.2825 24 84.36V85.16C24 85.2705 24.0895 85.36 24.2 85.36H31.2C31.3105 85.36 31.4 85.2705 31.4 85.16V84.36C31.4 84.2825 31.3552 84.2119 31.285 84.179L28.76 82.993V61.4546Z" fill="#111111"/>
</svg>
