<svg width="308" height="78" viewBox="0 0 308 78" fill="none" xmlns="http://www.w3.org/2000/svg">
<path fill-rule="evenodd" clip-rule="evenodd" d="M131.359 50.1868C131.675 50.0477 131.888 49.8314 131.966 49.5542C132.121 49.0088 131.744 48.4501 130.845 47.8945C130.039 47.3965 128.837 47.2304 127.674 47.0696L127.666 47.0686C127.005 46.9774 126.379 46.891 125.898 46.7519C124.765 46.4234 123.63 46.0077 122.533 45.6053L122.512 45.5975C122.166 45.471 121.791 45.3554 121.393 45.2336L121.389 45.2325C119.76 44.7306 117.915 44.1622 117.57 42.6404C117.455 42.1351 117.608 41.5473 117.769 40.9257C117.894 40.4487 118.022 39.9544 118.032 39.4648C118.049 38.6326 117.77 37.9088 117.5 37.2079C117.267 36.6059 117.048 36.037 117.047 35.4602C117.046 34.6071 117.479 33.8275 117.953 33.1211C116.153 35.1892 116.404 35.9839 116.88 37.4905C117.091 38.1591 117.346 38.9679 117.487 40.0903C117.501 40.6835 117.426 41.2701 117.352 41.8563C117.305 42.2261 117.258 42.5956 117.233 42.9665C117.256 43.9488 117.008 44.649 116.044 43.8372C115.593 43.4779 115.31 42.9564 115.032 42.4435C114.885 42.171 114.738 41.9009 114.569 41.6589C114.379 41.4211 114.11 41.4494 113.836 41.4782C113.679 41.4947 113.521 41.5113 113.376 41.4781C112.696 41.2141 111.685 41.2133 111.182 41.8208C111.122 41.9073 111.078 42.0092 111.035 42.1111C110.941 42.3295 110.848 42.5478 110.593 42.6137C109.056 42.7803 109.51 43.2643 110.617 43.7201C112.269 44.1805 113.936 44.6009 115.603 45.0216C118.895 45.8518 122.191 46.6832 125.388 47.8253C125.714 47.9561 126.371 48.113 127.135 48.2955C129.088 48.7621 131.741 49.3959 131.359 50.1868ZM118.632 32.272C118.643 32.2613 118.655 32.2504 118.666 32.2396L118.679 32.228C119.02 31.9105 119.406 31.5498 119.508 30.999C119.573 30.6521 119.332 30.3797 119.137 30.1598L119.136 30.1589C119.101 30.1204 119.057 30.0693 119.022 30.0269C119.087 29.8327 119.191 29.635 119.325 29.4354C119.046 29.5562 118.757 29.6589 118.469 29.7616C117.77 30.0103 117.069 30.2597 116.489 30.7695C115.033 31.7086 113.568 32.6602 112.133 33.6331C111.476 34.0098 111.487 34.379 111.502 34.8573C111.505 34.9746 111.509 35.0985 111.503 35.2307C111.383 35.3644 111.17 35.3172 110.945 35.2671C110.741 35.2218 110.527 35.1741 110.361 35.2559C109.856 35.601 110.38 35.9292 110.806 36.1957C110.981 36.3054 111.14 36.4047 111.203 36.4904C111.292 36.615 111.282 36.7528 111.271 36.9018C111.26 37.0544 111.247 37.2188 111.34 37.3926C112.223 38.7387 113.488 38.4456 114.169 37.0821C114.302 36.9197 114.45 36.7691 114.598 36.6187C114.917 36.2942 115.236 35.9707 115.399 35.5309C115.506 35.2261 115.579 34.9284 115.649 34.638C115.824 33.9215 115.988 33.2502 116.626 32.6312C116.703 32.5527 116.78 32.4703 116.859 32.3865C117.271 31.9481 117.719 31.4708 118.273 31.3165C118.931 31.239 118.872 31.8013 118.632 32.272ZM125.623 24.0908C126.06 23.6351 126.327 23.1804 126.229 22.7202C126.143 22.3186 125.812 22.0412 125.248 21.8942C125.139 21.866 125.022 21.8518 124.9 21.8518C123.691 21.8518 122.025 23.22 120.129 24.8734L120.095 24.9034C119.673 25.2702 119.31 25.5861 119.074 25.7606C117.539 26.889 115.988 28.0435 114.479 29.1662L114.167 29.3982L113.965 29.5487C113.503 29.8932 113.04 30.2381 112.576 30.5825C112.302 30.7863 112.042 30.9844 111.79 31.1769L111.75 31.2072C110.008 32.5376 108.75 33.4987 106.483 33.6205C105.224 33.6881 103.76 33.7612 102.325 33.7612C101.233 33.7612 100.282 33.7195 99.4185 33.6355C98.3039 33.5266 97.1713 33.2928 96.0745 33.0664L96.0638 33.0641C94.599 32.7608 93.0831 32.4473 91.5405 32.4103C90.4985 32.3844 89.9688 32.3538 89.6168 32.1809C89.2792 32.0148 89.0096 31.6638 88.4741 30.9668L88.4687 30.9597C88.4334 30.914 88.3972 30.8669 88.3599 30.8185C88.3067 30.7493 88.2514 30.6773 88.1936 30.6029C86.9512 28.9998 85.5037 28.1236 83.9713 27.1963C83.5941 26.9684 83.2043 26.7319 82.8106 26.4812C82.1591 26.0661 81.5746 25.552 80.9562 25.0079L80.9498 25.0022C79.8967 24.0757 78.8068 23.117 77.3671 22.6864C77.1919 22.6345 77.0323 22.6086 76.8783 22.6086C76.6477 22.6086 76.4781 22.6665 76.354 22.7089L76.3534 22.7092L76.3489 22.7106C76.2716 22.7364 76.2285 22.7508 76.1884 22.7508C76.1616 22.7508 76.1286 22.7445 76.0901 22.7335C75.6273 22.596 75.1338 22.3068 74.612 22.0003L74.6091 21.9987C74.1605 21.7351 73.6963 21.4624 73.2257 21.2781C70.6561 20.2715 68.1477 19.3513 65.7171 19.1627C64.3033 19.0534 63.0122 19 61.7706 19C57.6756 19 54.089 19.6098 50.8058 20.8648C45.9784 22.7092 42.0319 25.9382 39.3915 30.2021C38.2886 31.9836 36.9895 32.0723 35.0232 32.2066L35.0206 32.2068L35.002 32.2081C34.5598 32.2383 34.1022 32.2696 33.6124 32.3231C31.9567 32.5054 30.3284 32.8661 28.7536 33.215C27.6919 33.4508 26.5941 33.6936 25.5065 33.8775C25.2119 33.9274 24.7773 33.9667 24.2729 34.0124L24.2358 34.0158L24.233 34.0161C21.9268 34.2243 18.7708 34.5092 18.1094 36.2743C17.7821 37.1452 18.19 37.9933 19.3216 38.7968C18.5672 37.3036 18.7879 36.0565 20.9714 36.7104C21.113 36.6069 21.1216 36.4505 21.1307 36.2858C21.1451 36.0254 21.1606 35.7444 21.7046 35.6197C23.9592 35.0468 26.3481 34.7804 28.6616 34.9117C28.8614 34.922 28.9829 35.0048 29.0916 35.0791C29.1904 35.1465 29.2787 35.2068 29.4058 35.1993C29.5631 35.0495 29.6612 34.9239 29.7349 34.8295C29.9458 34.5594 29.9572 34.5449 30.5862 34.9502C30.7414 34.9644 30.829 34.7785 30.9003 34.6272C30.9156 34.5947 30.9302 34.5638 30.9445 34.5368C31.2528 33.9368 31.6602 34.3044 32.1041 34.7049C32.2725 34.8568 32.446 35.0134 32.6215 35.1238C32.7284 35.226 33.2156 35.5309 33.0733 35.1678C32.5529 33.7719 32.8792 34.0256 33.4328 34.4559C33.9333 34.8449 34.6195 35.3783 35.034 34.9682C35.2742 34.8427 35.3776 34.5847 35.4757 34.3401C35.5625 34.1237 35.645 33.9177 35.8143 33.8233C36.4438 33.5883 37.5738 34.5015 37.4025 35.1702C37.2903 35.3205 37.1078 35.2977 36.9236 35.2747C36.7466 35.2525 36.5679 35.2302 36.4485 35.3612C36.3564 35.4508 36.3064 35.6017 36.257 35.7511C36.1989 35.9267 36.1415 36.1002 36.0171 36.1698C35.9061 36.2227 35.7845 36.1817 35.6651 36.1414C35.547 36.1016 35.4311 36.0624 35.3295 36.1156C35.1817 36.312 35.3664 36.6366 35.4843 36.8244C36.3444 37.5228 36.9296 36.6583 37.5248 35.779C37.9248 35.188 38.3293 34.5904 38.8249 34.4559C39.239 34.2146 39.2781 33.7917 39.317 33.3698C39.3299 33.2297 39.3428 33.0897 39.3695 32.9565C39.6312 32.1652 39.863 31.461 39.9565 30.6469C41.6649 27.4611 44.8955 25.1657 48.0121 23.4337C49.5115 22.6518 56.7672 19.1705 57.7722 21.1626C57.8944 21.4571 57.91 21.7807 57.9255 22.1045C57.9385 22.3742 57.9514 22.6442 58.0261 22.8978C58.1414 23.1406 58.2937 23.3947 58.4513 23.6574C58.923 24.444 59.4416 25.3088 59.1553 26.1865C58.8484 26.5022 58.3534 26.2613 57.9617 26.0707C57.8638 26.0231 57.7725 25.9787 57.6921 25.9468C57.3381 25.7668 57.5403 25.4683 57.7182 25.2056C57.7726 25.1254 57.8246 25.0486 57.8579 24.9795C57.9723 24.6994 57.8194 24.4309 57.6592 24.1498C57.5762 24.0042 57.4913 23.8551 57.4406 23.6993C57.1819 22.6121 56.1897 22.7561 55.302 22.8849C55.1112 22.9127 54.9251 22.9397 54.7523 22.9536C52.4183 22.3335 51.8376 23.231 52.4333 25.4792C52.1354 26.7697 51.7255 25.8568 51.3272 24.9698C51.1097 24.4853 50.8956 24.0086 50.7052 23.9029C50.0784 23.3988 49.6879 23.8153 49.2825 24.2477C49.0597 24.4853 48.8325 24.7277 48.5591 24.8246C47.9728 24.8608 45.9029 25.8242 47.2381 26.1118C48.7571 25.3174 49.2082 26.2824 47.653 26.8301C47.2897 26.9647 46.8717 26.782 46.4745 26.6084C46.016 26.408 45.5854 26.2197 45.2986 26.5456C45.4204 26.9456 45.3591 27.3409 44.9466 27.5719C44.2774 28.0695 43.584 28.5425 42.8897 29.016C42.2836 29.4294 41.6769 29.8433 41.085 30.2744C39.6228 31.5995 42.1661 30.2285 43.4829 29.5187C43.8264 29.3335 44.0864 29.1934 44.1702 29.1578C47.8982 27.311 52.0781 26.6274 56.2006 27.2497C56.5006 27.2913 56.8227 27.3106 57.1501 27.3303C58.3902 27.405 59.7074 27.4842 60.1973 28.7892C60.6682 29.5752 60.6648 30.3857 60.6614 31.2068C60.6594 31.6794 60.6574 32.1556 60.7459 32.6327C60.8227 33.0564 60.7905 33.4781 60.7581 33.9022C60.7299 34.2717 60.7015 34.6431 60.7451 35.0193C60.7619 35.2348 60.7997 35.4529 60.8374 35.6709C60.923 36.1651 61.0085 36.6592 60.8504 37.1238C60.7639 37.308 60.6668 37.4839 60.5738 37.6523C60.1341 38.4484 59.7864 39.078 61.094 39.6267C61.9304 39.3893 61.8309 37.5324 61.7348 35.7392C61.6686 34.5049 61.6041 33.3007 61.8476 32.676C61.8166 32.4988 61.7629 32.2649 61.7017 31.9981C61.3418 30.4306 60.722 27.7311 62.9328 28.7868C63.8215 29.3277 64.7566 29.7001 65.705 30.0779C66.2283 30.2863 66.7557 30.4964 67.2817 30.7373C68.0929 31.131 67.9314 31.8846 67.7669 32.6518C67.7261 32.8418 67.6852 33.0326 67.6589 33.219C67.6589 34.128 67.9205 33.6338 68.2464 33.0183C68.5159 32.5095 68.8292 31.9177 69.075 31.9671C70.1286 31.8667 70.9753 32.7513 71.8002 33.6132C72.5108 34.3558 73.2053 35.0815 74.0022 35.1458C74.109 34.6886 74.0829 34.1803 74.0564 33.664C74.0277 33.1056 73.9985 32.538 74.1365 32.0158C74.1408 31.9234 74.1456 31.829 74.1505 31.733C74.2066 30.6343 74.2733 29.3296 73.581 28.4269C73.1901 28.2329 72.7633 28.137 72.3584 28.0459C71.3266 27.8139 70.4368 27.6139 70.6451 25.9044C70.5312 25.5091 70.5525 25.0268 70.574 24.543C70.6185 23.5377 70.6633 22.5255 69.4962 22.273C69.1822 22.5994 69.4297 23.0512 69.6796 23.5075C69.8413 23.8026 70.004 24.0996 70.0164 24.3657C70.0256 24.4241 70.0353 24.4834 70.0451 24.5429C70.189 25.4222 70.3445 26.3717 69.1449 25.8344C68.6931 25.7162 68.5652 26.0683 68.4422 26.4073C68.4018 26.5187 68.3619 26.6287 68.3111 26.7201C68.0438 27.0083 67.8798 26.6182 67.68 26.1428C67.4898 25.6903 67.2671 25.1605 66.8919 25.0651C66.1155 24.5732 65.633 24.739 66.0864 25.6168C66.1187 25.7303 66.1526 25.8463 66.1869 25.9643C66.4718 26.9415 66.7965 28.0556 66.6569 29.0352C66.405 29.3066 66.0493 29.151 65.6853 28.9918C65.4486 28.8883 65.2084 28.7832 64.991 28.7931C64.3994 28.688 63.8664 28.394 63.3309 28.0986C63.1536 28.0008 62.9761 27.9029 62.7961 27.8116C62.1187 27.5609 61.8083 27.0218 61.6456 26.3382C61.3392 25.9091 61.1553 25.2317 61.8727 25.3299C62.0772 25.3987 62.2969 25.7409 62.5372 26.1149C62.9774 26.8004 63.4866 27.5931 64.0967 27.0069C64.1893 26.8865 64.2137 26.6903 64.238 26.4956C64.2741 26.2062 64.3098 25.9203 64.5682 25.8926C64.8544 26.0444 64.8598 26.4515 64.8647 26.8297C64.8667 26.9799 64.8686 27.1256 64.888 27.249C64.9242 27.634 65.1576 27.9625 65.4389 27.6709C65.8408 27.0955 65.6497 26.4144 65.4589 25.7345C65.4389 25.6632 65.4189 25.592 65.3996 25.5209C65.3799 25.4671 65.3576 25.4054 65.3329 25.3371C64.9099 24.1672 63.7971 21.0895 63.5922 23.715C63.4773 24.3071 62.9119 24.2522 62.387 24.2012C62.3015 24.1929 62.2172 24.1847 62.136 24.1795C61.0691 24.2864 60.5583 23.2711 60.1465 22.4524L60.129 22.4176C58.6555 19.6161 62.6028 20.1049 64.3568 20.3226C65.3485 20.3257 65.8664 20.9214 66.0149 21.866C66.1296 22.2439 67.1449 24.5024 67.4011 23.2891C67.398 23.1572 67.3435 22.9985 67.2902 22.8433C67.1676 22.4863 67.0512 22.1474 67.5803 22.1929C67.6152 22.1856 67.6593 22.1865 67.7046 22.1874C67.8103 22.1895 67.9218 22.1917 67.9339 22.0899C67.8918 21.9257 67.7186 21.7403 67.5562 21.5664C67.2399 21.2279 66.9642 20.9328 67.7752 20.9214C69.8388 20.894 71.745 21.9419 73.6176 22.9714C74.7493 23.5935 75.8687 24.209 77.0033 24.5763C78.0854 23.9397 79.0171 24.8095 79.8395 25.5774C80.0312 25.7563 80.217 25.9298 80.3973 26.0773C80.7242 26.1535 84.6393 30.5196 82.9874 29.8854C82.8133 29.7634 82.6709 29.5982 82.5286 29.433C82.4198 29.3067 82.3111 29.1806 82.1882 29.0737C82.0373 28.941 81.873 28.8474 81.717 28.7585C81.4987 28.634 81.2964 28.5188 81.169 28.3185C81.1548 28.2994 81.1404 28.2775 81.1255 28.255C81.0591 28.1541 80.9824 28.0378 80.8617 28.0757C79.8203 29.1233 81.7666 30.4393 82.9907 31.267C83.323 31.4916 83.602 31.6803 83.7536 31.8178C85.6322 33.1389 86.0281 34.5547 86.3351 35.6525C86.5994 36.5973 86.7977 37.3067 87.8188 37.5175C88.0328 37.4716 88.049 37.1753 88.0606 36.9646L88.0616 36.947C88.1056 34.9816 88.0679 32.5832 86.1394 31.6662C85.7456 31.4954 85.6063 31.1426 85.4648 30.784C85.383 30.5767 85.3004 30.3674 85.1674 30.1903C85.1167 30.0754 84.7936 29.8241 84.4435 29.5518C83.7283 28.9956 82.9008 28.3521 84.0546 28.6053C86.3618 29.6772 88.1198 31.8681 89.0612 34.1793C89.0895 34.2596 89.1304 34.4061 89.1794 34.5818C89.3971 35.3616 89.7756 36.7173 89.9295 35.4225C89.8753 33.1333 92.5432 33.6205 94.012 34.0795L94.0307 34.0827C95.3869 34.3159 96.8046 34.5596 98.1078 35.0798C99.065 35.3439 100.057 35.2654 101.047 35.187C101.571 35.1455 102.094 35.1041 102.611 35.1136C102.895 35.1132 103.18 35.1153 103.465 35.1173C105.354 35.1309 107.23 35.1445 108.939 34.437C111.902 32.7872 114.577 30.6848 117.252 28.5824C118.841 27.3341 120.429 26.0858 122.077 24.9323C122.217 24.8396 122.354 24.7463 122.491 24.6534C123.179 24.1856 123.848 23.7307 124.646 23.4455C125.467 23.1723 125.734 23.5865 125.623 24.0908ZM21.304 39.8756C21.7911 40.0926 22.2656 40.2826 22.6728 40.4457L22.6783 40.4479C23.028 40.5878 23.3305 40.7088 23.5105 40.796C24.635 41.3424 25.7042 41.8364 26.7382 42.2853C26.5317 42.1597 26.3305 42.0232 26.1336 41.8828C25.9952 41.763 25.9312 41.6056 25.8687 41.4519C25.796 41.273 25.7253 41.0992 25.5419 40.9956C25.2888 40.8748 24.9689 40.8558 24.6416 40.8364C24.0941 40.8039 23.5259 40.7701 23.215 40.2561C22.8126 40.1303 22.3809 40.0595 21.946 39.9881C21.7317 39.9529 21.5167 39.9176 21.304 39.8756ZM28.1294 42.8704C28.3112 42.9443 28.4922 43.0169 28.6724 43.0882C28.5453 43.0091 28.4115 42.9422 28.2664 42.8958C28.2204 42.8883 28.1747 42.8798 28.1294 42.8704ZM31.9439 44.2627C32.2361 44.3567 32.5283 44.4478 32.821 44.5362C32.8725 44.3218 33.1336 44.1413 33.3922 43.9625C33.7674 43.7032 34.1372 43.4475 33.8529 43.0977C33.728 43.0423 33.4994 43.0904 33.2612 43.1406C33.1113 43.1722 32.9576 43.2046 32.8234 43.2125C32.6936 43.2416 32.5272 43.2354 32.3577 43.229C31.97 43.2144 31.5657 43.1992 31.5433 43.6054C31.5961 43.7031 31.7382 43.7005 31.8764 43.6979C32.026 43.6952 32.1711 43.6925 32.1932 43.8176C32.1652 44.0338 32.0746 44.1754 31.9439 44.2627ZM33.7043 44.794C34.768 45.094 35.8463 45.3609 36.9648 45.6038C36.9978 45.6116 37.0316 45.6148 37.0646 45.6148C37.0913 45.6148 37.1181 45.6124 37.1448 45.6085C37.2006 45.5983 37.2532 45.5936 37.3082 45.5936C37.7096 45.5936 38.089 45.8646 38.4448 46.2791C38.3728 46.0681 38.3063 45.857 38.2457 45.6462C38.2194 44.5796 38.7306 45.1003 39.1549 45.5324C39.2617 45.6412 39.363 45.7444 39.4489 45.8152C39.8135 46.0273 39.9651 45.6698 39.8481 45.3625L39.8469 45.3594C39.7816 45.1809 39.6804 44.904 39.8944 44.8337C39.9497 44.8256 40.0204 44.8187 40.1005 44.811C40.6036 44.7623 41.4807 44.6774 41.2861 44.0172C41.167 43.9316 41.0077 43.9822 40.8577 44.0298C40.797 44.049 40.7378 44.0678 40.6834 44.0769C40.1671 44.1413 39.7836 44.1987 39.3766 44.4682L39.3663 44.4698L39.364 44.469C39.1183 44.4639 39.1049 44.096 39.0918 43.7326C39.0748 43.2661 39.0582 42.8069 38.5506 43.1315C38.4919 43.1789 38.4447 43.2665 38.3975 43.354C38.3045 43.5265 38.2116 43.6988 38.0312 43.5622C37.685 43.264 37.7316 42.5605 37.7749 41.9078C37.8376 40.9606 37.8933 40.1206 36.7306 40.7827C36.4933 41.0448 36.6167 41.3359 36.7505 41.6517C36.7988 41.7656 36.8485 41.8828 36.8831 42.0031C36.9098 42.3406 36.9803 42.6965 37.051 43.0532C37.1464 43.5353 37.2422 44.0188 37.2304 44.4596C37.1864 45.0851 36.2285 45.3146 36.2073 44.5358C36.1994 43.6997 35.2839 43.5716 34.6937 43.9268C34.4798 44.0313 34.2959 44.223 34.113 44.4136C33.9799 44.5524 33.8474 44.6905 33.7043 44.794ZM113.137 46.2065C114.574 46.4904 116.066 46.7889 117.583 47.1172C115.909 46.6146 114.247 46.074 112.612 45.4553C112.393 45.4059 112.193 45.3431 112.011 45.2857C111.32 45.068 110.872 44.9266 110.48 45.8773C110.437 45.9096 110.364 45.9394 110.269 45.966C110.416 45.9603 110.564 45.9574 110.714 45.9574C111.497 45.9574 112.289 46.0391 113.137 46.2065ZM108.869 46.097C108.129 46.0872 107.395 45.9674 107.279 45.6729C107.308 45.3627 107.664 45.2889 107.969 45.2258C108.13 45.1925 108.277 45.1621 108.354 45.1016C108.558 44.4668 107.447 44.6622 106.848 44.7677C106.735 44.7876 106.64 44.8043 106.575 44.8117C105.637 44.6786 105.63 44.7685 105.611 44.9971C105.598 45.1573 105.579 45.3857 105.23 45.6533C104.92 45.8203 104.587 45.7614 104.251 45.7022C103.973 45.653 103.693 45.6037 103.425 45.6831C103.18 45.7647 102.969 45.9173 102.758 46.0693C102.449 46.2922 102.141 46.5141 101.734 46.5099C101.635 46.5077 101.528 46.5084 101.416 46.5091C100.66 46.5137 99.6714 46.5199 99.5482 45.6816C99.4201 45.515 99.2692 45.6329 99.1985 45.8167C99.0572 46.9837 98.0773 46.9724 97.1084 46.9613C96.666 46.9563 96.2259 46.9512 95.8689 47.0584C95.2134 46.9624 94.8137 47.0786 94.5414 47.1577C94.1407 47.2742 94.0163 47.3103 93.7589 46.4713C93.4385 46.4978 93.165 46.7524 92.8848 47.0132C92.5581 47.3172 92.2221 47.6298 91.792 47.5998C91.5244 47.6615 91.2745 47.5242 91.0323 47.3911C90.7873 47.2565 90.5502 47.1262 90.3107 47.2108C90.2413 47.2641 90.1948 47.3692 90.1432 47.4855C90.0732 47.6435 89.994 47.8222 89.836 47.9204C89.4494 48.1601 88.2832 48.2678 88.5944 47.4937C89.6977 45.2965 90.7272 42.1893 90.3327 41.1496C89.7637 40.1068 88.0577 44.5303 87.9351 45.0348C87.4363 46.0424 86.7831 46.9515 86.1295 47.8613C85.608 48.5871 85.0863 49.3132 84.6424 50.0901C84.2532 51.3673 85.4129 49.9621 86.3067 48.879C86.7394 48.3547 87.1098 47.9058 87.2121 47.8733C87.6616 47.4686 87.9414 47.7263 87.8251 48.1695C87.7558 48.5495 87.568 48.9392 87.2991 49.3274C87.9816 48.7626 88.7019 48.41 89.9672 48.3597C91.067 48.3161 92.2068 48.2669 93.3739 48.2033C93.3757 48.1777 93.3862 48.1495 93.4077 48.1185L93.4084 48.1177L93.4194 48.1051C93.4941 48.0242 93.6473 47.9731 93.7699 47.9479C93.8058 47.9411 93.8416 47.9342 93.8775 47.9273C94.6967 47.7695 95.4994 47.6149 96.2878 47.8332C96.4306 47.8689 96.5466 47.9251 96.5902 47.9899C98.491 47.8379 100.431 47.6308 102.36 47.3347C102.353 47.3081 102.347 47.282 102.342 47.2573C102.338 47.2397 102.334 47.2228 102.33 47.2069C102.244 46.667 102.708 46.7888 103.024 47.0874C103.063 47.1422 103.054 47.1871 103.026 47.2289C103.536 47.1449 104.045 47.0543 104.552 46.9566C104.704 46.6343 105.07 46.504 105.445 46.6717C105.485 46.6895 105.536 46.7164 105.568 46.7506C105.576 46.749 105.583 46.7473 105.591 46.7456C105.807 46.6992 106.019 46.6537 106.225 46.6089L106.228 46.6081C107.192 46.3992 108.04 46.2155 108.869 46.097ZM77.5761 55.3647C77.6418 55.3423 77.7072 55.3198 77.7723 55.2972C77.5418 55.1558 77.4702 54.8872 77.7325 54.7006C77.8908 54.6095 78.0704 54.5469 78.2485 54.4849C78.6524 54.3442 79.0493 54.2059 79.1769 53.7419C79.3871 53.6278 79.5573 53.7131 79.7438 53.8066C80.0837 53.9771 80.4778 54.1747 81.2672 53.2421C81.5385 52.8938 81.2864 52.9346 81.0164 52.9784C80.8624 53.0033 80.7026 53.0292 80.6307 52.9844C80.5616 52.4856 81.4916 51.7506 82.3559 51.0675C82.9077 50.6313 83.4327 50.2164 83.6538 49.8976C86.7697 46.645 88.1708 43.4467 88.1708 38.921C88.0286 38.1949 87.9052 38.5815 87.9131 39.0617C87.7669 41.6958 86.849 44.7213 85.0848 46.6843C84.2805 47.1636 85.0161 45.6567 85.5721 44.5176C85.832 43.9851 86.0527 43.533 86.0585 43.4019C86.6369 42.4156 88.0569 35.8169 85.7418 39.6086C85.0542 41.6086 84.3642 43.6054 83.6672 45.5983C83.522 45.9665 83.5468 46.4344 83.5714 46.9009C83.609 47.6114 83.6464 48.3187 83.0833 48.6654C81.9768 48.5703 81.3466 49.3216 80.7289 50.131C80.4256 50.3758 80.1079 50.601 79.7908 50.8258C79.4137 51.0931 79.0374 51.3599 78.6865 51.6587C78.3941 51.7571 78.1844 51.6116 77.9737 51.4652C77.6815 51.2624 77.3873 51.058 76.8673 51.4999C75.9974 52.0932 76.0296 52.4759 76.5491 53.1981C76.3785 53.8386 75.3287 54.2826 74.6976 54.2582C73.3391 53.9382 72.1341 54.5891 70.9332 55.2378C70.3176 55.5704 69.703 55.9023 69.0695 56.1026C68.3795 56.3533 68.4486 56.6165 69.1889 56.5238C70.2932 56.3642 71.3996 56.1565 72.5061 55.9487C73.1815 55.8219 73.8569 55.6951 74.5318 55.5792C74.7551 55.5299 74.966 55.3895 75.1744 55.2508C75.5369 55.0097 75.892 54.7734 76.2921 55.0283C76.5713 55.1966 76.7116 55.4456 76.6853 55.6516C76.983 55.5613 77.28 55.4657 77.5761 55.3647ZM67.4427 56.6442C67.2977 56.5569 67.1508 56.472 66.9956 56.4059C66.4762 56.1796 66.6475 55.9501 67.1811 55.8032C67.5111 55.7069 67.8556 55.6318 68.1993 55.557C69.3616 55.3039 70.5142 55.0529 71.0631 53.9879C71.8843 54.1594 72.4239 53.7004 72.9745 53.2319C73.2764 52.975 73.5817 52.7153 73.9385 52.5553C75.1505 52.4241 75.3741 51.8869 75.6259 51.2821C75.8341 50.7818 76.0617 50.2353 76.8838 49.8339C77.3296 49.5468 77.6601 49.8207 77.9922 50.096C78.2392 50.3006 78.4871 50.5061 78.784 50.4823C79.8221 50.2504 80.9914 48.3691 79.5093 47.8371C79.3135 47.8758 79.1429 48.137 78.9863 48.3769C78.7228 48.7801 78.4989 49.1229 78.2614 48.2458C78.292 47.635 78.6503 47.0965 79.0114 46.5537C79.4837 45.8436 79.961 45.1263 79.716 44.2301C79.717 43.8012 79.9041 43.7208 80.1367 43.6208C80.4416 43.4897 80.8245 43.325 80.9694 42.2985C81.3412 41.0603 81.1586 41.0263 80.9174 40.9815C80.5932 40.9212 80.1634 40.8413 80.8311 37.7933C81.0252 35.9985 80.8987 34.1455 80.6425 32.3758C80.5944 31.9928 80.5596 31.5654 80.5227 31.1135C80.3678 29.2156 80.1775 26.8832 78.8256 25.572C78.1526 24.9615 77.9237 25.1677 77.6516 25.4128C77.3941 25.6448 77.098 25.9115 76.3502 25.5539C75.1463 25.1397 74.0457 24.4948 72.9485 23.8518C72.6427 23.6726 72.3371 23.4936 72.0297 23.3198C70.3323 23.0589 72.0085 24.4993 72.6065 24.7814C73.38 25.1571 74.0298 25.69 74.681 26.224C75.0937 26.5625 75.5069 26.9014 75.9526 27.201C76.247 27.385 76.5549 27.5431 76.8605 27.7C77.6694 28.1152 78.4619 28.5221 78.9427 29.3794C80.6566 33.5828 78.1946 33.1545 75.6933 30.8945C74.533 30.4074 74.6955 31.8063 74.7991 32.6982C74.8197 32.8756 74.8379 33.0329 74.843 33.1514C74.8934 33.6008 74.8648 34.0664 74.8361 34.5345C74.8003 35.1181 74.7643 35.7056 74.8807 36.2704C75.1819 37.337 76.1387 37.9921 77.0965 38.648C78.1682 39.3818 79.2412 40.1165 79.3985 41.4294C79.2421 46.1059 74.744 43.0113 73.5472 40.6522C71.7814 38.5265 71.0427 42.9217 71.6808 42.4502C72.7763 40.6687 72.8996 42.7009 72.8651 43.6745C72.7425 44.2388 72.9248 44.8124 73.5849 44.7999C74.9915 44.9743 75.5943 47.4128 75.4143 48.4611C75.1621 49.2996 74.2945 49.8072 73.5354 50.1899C71.4537 51.2815 71.1063 48.788 71.8977 47.4764C71.947 47.2556 71.7054 47.2148 71.469 47.1748C71.3361 47.1523 71.2048 47.1302 71.1276 47.0764C70.7932 47.0272 70.532 46.6389 70.2886 46.277C69.9643 45.7949 69.6715 45.3596 69.2793 45.834C69.192 45.972 69.0925 46.1188 68.9887 46.2719C68.4512 47.0645 67.7996 48.0253 68.15 48.8045C68.2122 48.8843 68.2861 48.9568 68.3597 49.029C68.5355 49.2015 68.71 49.3726 68.7205 49.6391C68.7253 49.8611 68.6414 50.1457 68.5576 50.4298C68.3504 51.1322 68.1439 51.8323 69.2785 51.5816C69.379 51.5848 69.5006 51.5649 69.6256 51.5444C69.9314 51.4942 70.2574 51.4408 70.3433 51.7152C69.8066 52.9789 68.4251 53.4237 67.174 53.5022C66.9735 53.5129 66.8385 53.6884 66.7096 53.856C66.5637 54.0457 66.4255 54.2252 66.209 54.1443C66.0954 53.9459 66.0378 53.6928 65.9833 53.4538C65.8491 52.8646 65.7346 52.3618 64.8495 52.9797C64.3623 53.584 64.4149 54.7447 64.4487 55.4881C64.4667 55.5716 64.4986 55.657 64.5307 55.7427C64.6162 55.9714 64.7028 56.203 64.5297 56.4122C64.177 56.7438 63.8063 57.0492 63.4202 57.3286C64.1104 56.9194 64.6356 56.6265 65.5748 56.5607C65.7124 56.5513 65.8522 56.5466 66.0039 56.5466C66.4752 56.5466 66.9472 56.5921 67.4427 56.6442ZM48.3777 32.8514C48.3586 32.719 48.3395 32.586 48.2652 32.485L48.266 32.4858L48.2534 32.4701C48.1713 32.3795 48.0501 32.3143 47.9243 32.2466C47.7717 32.1645 47.6123 32.0787 47.5076 31.9396C47.1061 31.4956 47.1226 30.7208 47.73 30.4654C48.2262 30.2777 48.1616 30.675 48.1083 31.0036C48.1002 31.0534 48.0924 31.1016 48.0868 31.1459C48.0554 31.4744 48.1803 31.7605 48.3241 32.0779C48.3912 32.2618 48.5141 32.4193 48.6364 32.576C48.7864 32.7682 48.9354 32.959 48.9787 33.1954C49.0015 33.4759 48.6078 33.4948 48.4561 33.1608C48.4091 33.0704 48.3934 32.9611 48.3777 32.8514ZM65.4446 41.8307C65.3829 41.775 65.3261 41.7238 65.2746 41.6997L65.2754 41.6989L65.2629 41.6934C64.7001 41.6283 64.0785 43.7511 63.7126 45.0005C63.6196 45.318 63.5432 45.579 63.4884 45.7334C63.3745 46.1169 63.0924 46.0549 62.9187 45.7554C62.7179 45.4321 62.9523 45.13 63.1733 44.8452C63.3009 44.6807 63.424 44.5221 63.4562 44.3684C63.4945 43.8006 62.7862 44.0305 62.4103 44.1524C62.3774 44.1631 62.347 44.173 62.3199 44.1814C61.9584 44.3134 61.5089 44.2608 61.5128 43.8074C61.5207 43.3767 61.9686 42.9233 62.4189 43.005C62.8456 43.1103 63.336 43.1858 63.6621 42.7983C64.2397 42.1775 63.9364 41.1316 63.6629 40.4133C63.4208 39.8585 64.0409 39.8538 64.422 39.8813C65.0742 39.919 65.1717 40.4125 65.2605 41.0208C65.3266 41.3706 65.5454 41.4336 65.7971 41.5061C65.8655 41.5258 65.9362 41.5462 66.007 41.5732C66.2334 41.6927 66.0864 41.9991 65.8805 42.0345C65.7166 42.0761 65.5703 41.9442 65.4446 41.8307ZM58.43 40.484C58.632 40.752 59.6952 41.7956 60.0284 41.6848H60.03L60.0425 41.6785C60.182 41.5725 60.2001 41.3388 60.2179 41.1086C60.2362 40.873 60.2542 40.641 60.4017 40.5532C60.5423 40.4455 60.7608 40.462 60.9376 40.4801C61.7494 40.5744 62.7002 40.8047 63.1434 41.453C63.5497 42.1084 62.8346 42.0683 62.3773 41.93C61.9482 41.8171 61.8413 41.9592 61.668 42.1897C61.6194 42.2543 61.5655 42.3259 61.4979 42.4007C61.2765 42.5826 61.0379 42.445 60.7982 42.3068C60.5428 42.1595 60.286 42.0115 60.0472 42.2482C60.0011 42.2945 59.9513 42.3549 59.8985 42.419C59.6767 42.688 59.401 43.0224 59.116 42.6537C59.0547 42.5744 59.0029 42.4691 58.9604 42.3716C58.709 41.772 58.4551 41.2903 57.9656 40.9068C57.8052 40.7756 57.5184 40.6247 57.3722 40.8275C57.2941 40.9156 57.2717 41.0534 57.2491 41.1915C57.2204 41.3675 57.1917 41.5439 57.0477 41.6188C56.8402 41.6054 56.6705 41.2384 56.6296 40.9854C56.6103 40.847 56.6423 40.7094 56.674 40.5731C56.7221 40.3666 56.7694 40.1633 56.6359 39.9654C56.552 39.831 56.4613 39.6987 56.3703 39.5662C56.106 39.181 55.8398 38.7932 55.7346 38.3418C55.6453 37.883 56.1061 38.0197 56.6533 38.1819C57.2571 38.3609 57.966 38.5711 58.1573 38.0472C58.2752 37.7721 58.177 37.4735 57.8579 37.4146C57.8232 37.4063 57.7881 37.3991 57.754 37.3922C57.639 37.3687 57.5351 37.3475 57.4933 37.2935C57.4265 37.2205 57.4941 37.1073 57.6528 37.0546C58.2052 36.8873 58.8449 37.402 59.0547 37.9175C59.3266 38.5006 59.0995 39.0357 58.6492 39.4609C58.3027 39.7556 58.0889 40.0864 58.43 40.484ZM55.4218 58.4813C55.5279 58.5748 55.6521 58.6888 55.6206 58.8184V58.8169L55.6159 58.8279C55.5356 58.9665 55.2868 58.989 55.1155 59.0045C55.109 59.0051 55.1027 59.0057 55.0965 59.0063C53.9853 59.0927 53.0588 58.8066 52.0144 58.3399C51.8627 58.266 51.6757 58.1583 51.6403 58.0051C51.6067 57.8057 51.7792 57.6308 51.967 57.4402C52.0509 57.3551 52.1379 57.267 52.2109 57.1721C52.3225 57.0362 52.4183 56.8931 52.4781 56.7454C52.6612 56.2943 52.3979 56.2409 52.1142 56.4381C51.3653 57.0039 50.6486 57.3128 49.9162 56.6C49.7475 56.4417 49.6324 56.2614 49.5193 56.0842C49.4118 55.9157 49.3061 55.75 49.1579 55.6091C48.9025 55.3592 48.5536 55.2083 48.2007 55.1721C48.1091 55.1588 48.0046 55.1596 47.9 55.1604C47.7514 55.1615 47.6025 55.1626 47.4895 55.1234C47.3662 55.0756 47.3515 54.9577 47.3369 54.8397C47.3296 54.7811 47.3223 54.7224 47.3017 54.6724C47.2138 54.4693 46.9991 54.4504 46.7543 54.4289C46.6447 54.4192 46.5291 54.409 46.4161 54.3816C46.2599 54.3536 46.1128 54.3094 45.9696 54.2663C45.7794 54.2091 45.5962 54.154 45.4079 54.1419C45.3937 54.1404 45.3787 54.139 45.3632 54.1376C45.1796 54.1205 44.9205 54.0963 44.9654 53.8629C44.982 53.7912 45.0095 53.7168 45.0376 53.641C45.1158 53.4293 45.198 53.2069 45.0574 53.0032C44.9653 52.8586 44.7703 52.6648 44.5694 52.4651C44.2321 52.1298 43.8783 51.778 43.9674 51.6154C44.2063 51.4033 44.7918 51.7632 44.9898 51.9738C45.1805 52.1689 45.2985 52.4093 45.4161 52.649C45.5282 52.8775 45.64 53.1053 45.8141 53.2924C46.0381 53.5525 46.5025 53.8323 46.7493 53.459C46.8317 53.3337 46.8829 53.1771 46.9339 53.0208C46.9735 52.8999 47.0129 52.7791 47.0668 52.6732C47.2058 52.3274 47.531 52.2402 47.864 52.1508C48.1108 52.0845 48.362 52.0171 48.5449 51.8425C48.5995 51.7983 48.6744 51.7153 48.7569 51.6239C49.039 51.3114 49.4102 50.9002 49.3646 51.5982C49.33 51.8787 49.2097 52.1365 49.0549 52.3691C49.0431 52.3889 49.0303 52.4093 49.0172 52.4302C48.9205 52.5847 48.8076 52.7652 48.9198 52.9286C49.0416 53.0787 49.3465 53.1569 49.6399 53.232C49.8102 53.2756 49.9765 53.3182 50.1009 53.3734C50.6761 53.5753 51.2828 54.0814 51.2647 54.7368C51.2439 55.0696 51.0897 55.4224 50.9477 55.7474C50.918 55.8153 50.8889 55.882 50.8616 55.947C50.5755 56.5497 51.025 56.5206 51.3763 56.2723C51.5561 56.1461 51.7054 55.9625 51.8551 55.7784C52.1202 55.4524 52.3864 55.125 52.8254 55.1124C53.8486 55.015 54.9393 55.2405 54.1645 56.4782C54.1079 56.5871 54.0121 56.705 53.9128 56.8271C53.6392 57.1636 53.3396 57.5322 53.7645 57.8314C53.9837 57.9557 54.2321 58.0134 54.4799 58.071C54.821 58.1502 55.161 58.2291 55.4218 58.4813ZM83.2148 33.5704C83.2639 33.2935 83.3139 33.0107 83.4739 32.9911L83.4731 32.9903L83.4817 32.9934C83.5616 33.0443 83.6068 33.1418 83.6526 33.2407C83.7002 33.3433 83.7485 33.4474 83.8369 33.5027C83.9247 33.5689 84.056 33.5268 84.1778 33.4877C84.3307 33.4386 84.4688 33.3943 84.4876 33.575C84.4724 33.8126 84.3343 33.9666 84.1817 34.1369C84.0976 34.2306 84.0092 34.3293 83.9344 34.4496C83.7638 34.7073 83.6798 35.0468 83.6908 35.3612C83.7002 35.8987 83.8841 36.426 84.0978 36.9211C85.0518 38.877 85.0817 39.2628 84.5701 41.35C84.5602 41.3929 84.5503 41.4359 84.5404 41.4792C84.2768 42.6247 83.9863 43.8874 83.3222 44.7166C83.0569 45.0473 82.6655 45.2196 82.2778 45.3904C82.2371 45.4083 82.1965 45.4262 82.156 45.4443C81.9831 45.5244 81.8126 45.6179 81.6562 45.7256C81.5521 45.7846 81.432 45.8856 81.3047 45.9928C81.0063 46.2438 80.6681 46.5284 80.402 46.3841C80.3085 46.315 80.4099 46.0839 80.5207 45.9771C80.6326 45.8529 80.771 45.75 80.9096 45.6469C81.1457 45.4712 81.3825 45.2951 81.4904 45.0128C81.586 44.7647 81.5598 44.5061 81.5334 44.2464C81.513 44.0448 81.4925 43.8425 81.5289 43.6439C81.5684 43.3994 81.6415 43.1618 81.7146 42.924C81.7928 42.6697 81.8711 42.4152 81.9085 42.1516C81.9684 41.8734 81.9891 41.5427 82.0104 41.2009C82.0587 40.4267 82.1106 39.5957 82.6307 39.189C82.6518 39.172 82.6733 39.1549 82.6951 39.1377C82.9298 38.9518 83.1916 38.7445 83.1988 38.4259C83.2052 38.258 83.1746 38.0776 83.1434 37.8936C83.1129 37.7132 83.0818 37.5294 83.0841 37.3501C83.0821 37.2349 83.0834 37.1217 83.0847 37.0098C83.0896 36.6002 83.0943 36.2064 82.9332 35.7855C82.8467 35.5408 82.7215 35.3115 82.5967 35.0829C82.471 34.8526 82.3457 34.6229 82.2605 34.3789C82.1654 34.1132 82.1308 33.7742 82.0942 33.4151C82.0872 33.3472 82.0802 33.2785 82.0727 33.2095C82.0697 33.1587 82.0647 33.103 82.0593 33.0446C82.0297 32.7191 81.992 32.3055 82.2598 32.1329C82.3265 32.1007 82.3933 32.1353 82.4161 32.2021C82.4487 32.3156 82.4295 32.4889 82.4089 32.6744C82.3838 32.9012 82.3566 33.1463 82.4193 33.3235C82.4664 33.5482 82.7595 34.3781 83.0558 34.0747C83.1405 33.99 83.1774 33.7819 83.2148 33.5704ZM67.1151 44.0305C67.1088 43.7413 67.0939 43.4742 66.9555 43.4663L66.954 43.4655L66.9453 43.4671C66.8362 43.5073 66.7535 43.6652 66.685 43.7959C66.6692 43.8261 66.6541 43.8549 66.6396 43.8804C66.2452 44.6545 65.8444 45.4301 65.4334 46.1939C65.3768 46.2937 65.3037 46.4108 65.2385 46.4878C65.1906 46.5444 65.1568 46.5672 65.1426 46.5499C65.1293 46.535 65.1332 46.4855 65.1528 46.4093C65.1888 46.2981 65.2343 46.179 65.2812 46.0561C65.4695 45.5636 65.6808 45.0111 65.387 44.6671C65.3526 44.6209 65.3164 44.5763 65.2803 44.5318C65.1883 44.4185 65.0964 44.3055 65.035 44.1673C64.9202 43.9252 64.9187 43.6376 64.9721 43.3767C65.1236 42.606 65.4042 42.7512 65.712 42.9106C65.9245 43.0207 66.1501 43.1375 66.3552 42.9641C66.5901 42.6763 66.6772 42.2987 66.7609 41.9357C66.7741 41.8785 66.7872 41.8218 66.8007 41.7657C66.8754 41.365 66.9862 40.8793 67.3273 41.2235C67.4608 41.3508 67.6109 41.475 67.7917 41.5206C67.8263 41.5314 67.8616 41.5408 67.8967 41.5502C68.0221 41.5835 68.1448 41.6162 68.2215 41.7107C68.3052 41.8136 68.3361 41.9808 68.3692 42.1594C68.389 42.266 68.4095 42.3767 68.4424 42.4801C68.4772 42.6186 68.5419 42.7485 68.6065 42.8782C68.6893 43.0443 68.7719 43.2101 68.7913 43.3932C68.8153 43.6388 68.6698 43.8367 68.5286 44.029C68.494 44.076 68.4597 44.1227 68.4282 44.1696C68.1642 44.5437 68.1115 45.0089 68.106 45.4631C68.1208 45.9912 67.9021 46.1227 67.6028 46.3027C67.4714 46.3818 67.3244 46.4702 67.1748 46.6057C66.9519 46.8298 66.7719 47.1036 66.5926 47.3762C66.4312 47.6217 66.2703 47.8662 66.0793 48.0729C65.8582 48.3108 65.6238 48.5385 65.3895 48.7661C64.8561 49.2843 64.3234 49.8017 63.9505 50.4367C63.6016 51.0756 63.2385 50.6709 63.0028 50.1585C62.8244 49.7593 62.9415 49.2666 63.1977 48.9137C63.51 48.462 63.9994 48.2952 64.4856 48.1295C64.896 47.9897 65.3041 47.8506 65.6015 47.5417C66.4448 46.6254 67.053 45.269 67.1151 44.0305ZM59.7981 57.2208C59.6779 57.3246 59.4422 57.5375 59.5372 57.6947L59.5364 57.6931L59.5443 57.7002C59.6824 57.7693 59.8899 57.6901 60.117 57.6035C60.2206 57.5639 60.3283 57.5228 60.4354 57.4935C60.7521 57.3937 61.1985 57.3167 61.4429 57.5878C61.6141 57.8704 61.2 58.0886 60.939 58.2262C60.9017 58.2458 60.8675 58.2638 60.8386 58.2801C59.7581 58.7941 58.6359 58.9795 57.4618 58.8955C56.9361 58.8601 56.8175 58.5371 57.3282 58.2966C57.4321 58.2362 57.5751 58.2026 57.7138 58.1701C57.9738 58.109 58.2186 58.0515 58.1612 57.8275C58.0897 57.6232 57.8453 57.4157 57.6245 57.5297C57.5642 57.5555 57.5069 57.5982 57.449 57.6414C57.3484 57.7163 57.2461 57.7925 57.1239 57.7835C56.9738 57.7638 56.9353 57.5179 57.076 57.3474C57.2489 57.1375 57.4776 57.0283 57.799 56.8892C58.2626 56.7008 58.766 56.5631 59.2604 56.4278C59.4323 56.3808 59.603 56.3341 59.7706 56.2857C60.1169 56.1874 60.4265 56.0595 60.7354 55.932C61.0118 55.8178 61.2877 55.7038 61.5891 55.6114C61.7757 55.556 61.9489 55.463 62.1215 55.3704C62.3158 55.2661 62.5092 55.1623 62.7199 55.1132C62.9941 55.0661 64.1336 55.0551 63.7509 55.5824C63.6618 55.6961 63.5202 55.7762 63.3662 55.8633C63.2257 55.9429 63.0747 56.0283 62.9438 56.1505C62.7931 56.2821 62.6751 56.4478 62.5595 56.6104C62.5328 56.6478 62.5062 56.6851 62.4794 56.7218C62.3002 56.9859 62.0283 57.1611 61.7054 57.0888C61.0649 56.9089 60.3427 56.7666 59.7981 57.2208ZM56.7782 52.0547C56.7397 51.9062 56.6988 51.7443 56.7939 51.6233L56.8049 51.6099C57.0532 51.3734 57.7102 51.4033 57.9608 51.562C58.3184 51.8253 58.1966 52.3816 58.0614 52.7455C57.9883 52.9328 57.8975 53.0884 57.8152 53.2293C57.6439 53.5229 57.5095 53.7531 57.6481 54.0759C57.722 54.2645 57.9436 54.5985 58.1659 54.3957C58.3247 54.1761 58.442 53.8915 58.5614 53.6018C58.8222 52.9692 59.0931 52.312 59.8272 52.2528C59.9985 52.2292 60.1683 52.1978 60.3239 52.1207C60.4254 52.0746 60.5181 52.0068 60.6119 51.9381C60.7483 51.8383 60.8872 51.7367 61.0594 51.6972C61.417 51.628 61.9262 51.6225 62.1934 51.8928C62.4 52.2418 61.8932 52.7588 61.5529 52.8429C61.3027 52.9074 61.0604 52.8211 60.8224 52.7364C60.4886 52.6176 60.1633 52.5018 59.8366 52.8091C59.5316 53.0778 59.3509 53.5308 59.1677 53.9902C58.9714 54.4822 58.7723 54.9815 58.4143 55.2696C57.6756 55.8338 57.3172 55.4063 56.9047 54.7651C56.2658 53.9472 56.4426 53.5955 56.6388 53.2054C56.7854 52.9136 56.9429 52.6004 56.7782 52.0547ZM60.3414 48.9934C60.5154 49.0448 60.7849 49.1243 60.7545 49.298V49.2988L60.7498 49.3098C60.6116 49.4623 60.3553 49.5298 60.095 49.5984C59.8122 49.6729 59.5246 49.7487 59.3785 49.9361C59.2072 50.1467 59.4932 50.3667 59.7235 50.3518C59.7856 50.3565 59.8525 50.3488 59.9198 50.3411C60.0338 50.328 60.1491 50.3148 60.2445 50.3612C60.4174 50.5223 60.1683 50.8587 60.0402 50.9907C59.7873 51.2398 59.4594 51.1254 59.0392 50.9787C58.9344 50.9421 58.8239 50.9035 58.7074 50.8681C58.4895 50.7871 58.26 50.7637 58.032 50.7404C57.7494 50.7116 57.469 50.683 57.2159 50.5451C56.874 50.3542 56.6626 49.9628 56.4607 49.5589C56.438 49.5064 56.4105 49.4521 56.3823 49.3964C56.2819 49.1979 56.1732 48.983 56.2438 48.7786C56.2796 48.6875 56.3719 48.6076 56.4674 48.5251C56.6256 48.3883 56.7924 48.244 56.7247 48.0289C56.7205 47.9994 56.7136 47.9696 56.7067 47.9399C56.689 47.8637 56.6713 47.7875 56.6996 47.7145C56.8009 47.4796 57.63 47.4261 57.7667 47.6878C57.8602 47.8444 57.7985 48.0149 57.7358 48.1881C57.6735 48.3599 57.6103 48.5344 57.6968 48.7008C57.828 48.975 58.1628 49.2029 58.4716 49.1628C58.6018 49.1414 58.7208 49.083 58.84 49.0244C58.9087 48.9907 58.9775 48.9569 59.0484 48.9302C59.4152 48.7819 59.8393 48.8759 60.2275 48.9619C60.2403 48.9647 60.253 48.9675 60.2657 48.9703C60.2873 48.9775 60.3131 48.9851 60.3414 48.9934ZM67.4255 35.0468C67.4546 34.9156 67.5127 34.7207 67.6188 34.6759H67.618L67.629 34.672C67.7351 34.6429 67.8404 34.7671 67.9025 34.8653C68.3858 35.6205 68.3072 37.0656 68.1532 38.0236C68.0274 38.7293 68.4769 38.4935 68.8981 38.2719C69.2636 38.0731 69.6675 38.3874 69.9567 38.6303C70.3802 38.954 70.5453 39.42 70.1932 39.7626C69.9848 39.9718 69.7891 39.8275 69.6057 39.6923C69.4301 39.5628 69.2656 39.4415 69.1119 39.6463C69.028 39.7471 68.989 39.9377 68.9485 40.1366C68.8754 40.4945 68.7969 40.879 68.4408 40.8149C68.2154 40.7461 68.01 40.6164 67.8053 40.4872C67.706 40.4245 67.6068 40.3619 67.5056 40.3064C67.3406 40.2059 67.1732 40.0691 67.1544 39.8672C67.1395 39.7073 67.2059 39.5593 67.2717 39.4127C67.3065 39.3351 67.3411 39.2579 67.3634 39.1796C67.446 38.9256 67.4008 38.5152 67.3626 38.1682C67.3565 38.1126 67.3505 38.0586 67.3453 38.0071C67.2432 37.0688 67.2227 35.989 67.4255 35.0468ZM50.2651 50.931C50.2565 50.8123 50.262 50.7196 50.2973 50.6661L50.2966 50.6669L50.3044 50.6567C50.3673 50.5656 50.5732 50.6261 50.6918 50.663C50.7133 50.6696 50.735 50.6762 50.757 50.6829C51.5123 50.9132 52.5578 51.232 52.9503 51.7475C53.3456 52.2606 53.366 53.8291 52.8222 54.2268C52.4817 54.433 51.8329 53.8685 51.4136 53.5037C51.3152 53.4181 51.2295 53.3435 51.1633 53.2924C50.592 52.8225 50.394 52.4107 50.3406 51.7475C50.3186 51.485 50.2918 51.1864 50.2651 50.931ZM54.0233 46.921C54.1387 46.8394 54.2503 46.7607 54.3672 46.7794V46.781L54.3782 46.7857C54.4681 46.8483 54.4815 46.99 54.4932 47.1134C54.496 47.1432 54.4987 47.172 54.5024 47.1982C54.5417 47.676 54.5778 48.1232 54.6116 48.557C54.6202 48.7039 54.6297 48.8839 54.5236 48.9915C54.4384 49.0715 54.3123 49.0705 54.1887 49.0695C54.1241 49.069 54.0603 49.0685 54.0034 49.0795C53.8878 49.1008 53.8226 49.1377 53.7401 49.2289C53.5725 49.4449 53.5178 49.7618 53.4647 50.0698C53.4144 50.361 53.3655 50.6443 53.2238 50.8265C52.9873 51.1322 52.6478 50.9105 52.6596 50.5561C52.6561 50.382 52.7081 50.1864 52.7576 50.0003C52.7745 49.9371 52.791 49.8749 52.805 49.8151C52.8796 49.5196 52.8835 49.2461 52.8356 48.957C52.8333 48.8417 52.783 48.6381 52.7254 48.4046C52.5864 47.842 52.4045 47.1052 52.746 47.0081C52.8792 46.9728 53.036 47.0104 53.1965 47.0489C53.3864 47.0945 53.5814 47.1413 53.7488 47.0702C53.8452 47.0467 53.9354 46.9831 54.0233 46.921ZM42.358 49.8574C42.3366 49.9479 42.315 50.0393 42.2449 50.0658L42.2456 50.0634H42.237C42.158 50.0401 42.0826 49.9498 42.0129 49.8664C41.9842 49.832 41.9564 49.7987 41.9297 49.7719C41.7566 49.5715 41.5439 49.4248 41.3345 49.2804C41.121 49.1332 40.9109 48.9883 40.7494 48.7911C40.652 48.6858 40.5034 48.4132 40.7376 48.4029C40.8258 48.3962 40.956 48.4374 41.0938 48.481C41.2114 48.5182 41.3346 48.5572 41.4417 48.5695C41.7322 48.6312 41.8821 48.4336 42.0325 48.2355C42.1775 48.0444 42.323 47.8528 42.5953 47.8921C43.2516 48.0159 43.289 47.9244 43.5097 47.3841C43.5287 47.3376 43.5491 47.2877 43.5714 47.2344C43.581 47.2172 43.5917 47.197 43.6034 47.1747C43.6885 47.0133 43.8279 46.7492 44.0012 46.8375C44.2032 47.0442 44.0224 47.6367 43.9156 47.9306C43.5533 48.7959 43.6625 49.6501 44.0987 50.4603C44.145 50.5601 44.1977 50.6882 44.2118 50.7825C44.2535 51.1361 43.9226 50.9986 43.657 50.7526C43.4337 50.5435 43.2386 50.2455 43.0698 49.9878C43.0515 49.9598 43.0335 49.9323 43.0158 49.9055L43.0071 49.8922C42.775 49.5397 42.5423 49.1864 42.3887 49.7483C42.3761 49.7812 42.3671 49.8192 42.358 49.8574ZM29.0805 39.7768C29.1858 39.9002 29.3186 40.0471 29.4797 40.0668H29.4789L29.497 40.0683C29.7783 40.0723 29.9559 39.7729 29.963 39.5065C29.9652 39.4799 29.9668 39.4534 29.9684 39.4271C29.9751 39.315 29.9816 39.2062 30.0377 39.1088C30.2506 38.8094 30.7064 39.1434 30.8816 39.3941C30.9108 39.4358 30.944 39.4789 30.9781 39.5232C31.1575 39.7563 31.3611 40.0209 31.1339 40.2805C30.8007 40.6035 30.1437 41.2039 29.6966 40.8667C29.6822 40.8576 29.6677 40.8483 29.6532 40.839C29.5682 40.7844 29.4814 40.7286 29.3854 40.6884C29.0052 40.5489 28.5777 40.6319 28.1647 40.7122C27.9751 40.7491 27.7885 40.7853 27.611 40.7992C27.5796 40.8041 27.5483 40.8091 27.5173 40.8142C27.1412 40.8752 26.8169 40.9279 26.9454 40.5438C26.9737 40.4779 27.0058 40.3954 27.0418 40.3027C27.2562 39.7505 27.6098 38.8398 28.1461 38.9737C28.451 39.0483 28.8086 39.4475 29.0805 39.7768ZM51.5547 39.0687C51.0172 39.644 50.027 38.7631 49.6278 38.3379V38.3387L49.6129 38.3191C49.2553 37.7973 49.0219 37.1529 49.2066 36.5352C49.2368 36.4069 49.2741 36.2589 49.3114 36.1114C49.3439 35.9825 49.3764 35.8539 49.4039 35.7392C49.4494 35.5458 49.5068 35.3062 49.6365 35.1906C49.9068 34.9588 50.2141 35.1183 50.2306 35.5089C50.2722 35.9183 50.1873 36.3953 50.1135 36.7882C49.9697 37.2684 50.1614 37.5623 50.541 37.791C50.8962 38.0212 51.1484 38.099 51.5335 37.9882C51.5679 37.9832 51.6135 37.9686 51.6632 37.9526C51.8094 37.9056 51.9908 37.8472 52.0254 37.9921C51.9963 38.3277 51.7677 38.7913 51.5547 39.0687ZM54.6664 53.5294C54.7935 53.943 54.8409 54.4112 54.8876 54.8724C54.9877 55.86 55.0844 56.8155 55.953 57.1336C56.1023 57.1808 56.3742 57.246 56.4347 57.0754C56.4528 57.0089 56.4141 56.9088 56.3716 56.7988C56.3272 56.6839 56.2786 56.5583 56.2862 56.4491C56.2999 56.2812 56.355 56.1084 56.4105 55.934C56.5175 55.5984 56.6262 55.257 56.4458 54.9333C56.1932 54.4309 55.5321 54.0445 54.9623 53.7115C54.8974 53.6736 54.8337 53.6363 54.7719 53.5997C54.7382 53.5806 54.702 53.5565 54.6664 53.5294ZM24.4446 39.5512C24.2362 39.6309 24.0475 39.703 23.89 39.6094L23.8908 39.6102L23.879 39.6C23.8338 39.5561 23.8252 39.5384 23.8063 39.4996C23.8025 39.4919 23.7984 39.4833 23.7934 39.4735C23.6873 39.1473 23.5851 38.8652 23.1781 38.8754C23.1312 38.8734 23.0808 38.8743 23.0297 38.8753C22.8053 38.8794 22.5676 38.8838 22.5541 38.6373C22.7497 37.9032 23.7223 38.2736 24.3683 38.5196C24.4699 38.5583 24.5633 38.5939 24.6444 38.6216C24.9649 38.7557 25.362 38.7106 25.7561 38.6658C26.2212 38.6129 26.682 38.5606 27.0075 38.8039C27.2173 38.9674 27.2801 39.2856 27.1159 39.5033C26.9297 39.7595 26.547 39.8404 26.2538 39.743C26.129 39.7042 26.0099 39.6394 25.8908 39.5746C25.7348 39.4896 25.5788 39.4047 25.4098 39.3784C25.1851 39.3375 24.9556 39.3854 24.7387 39.453C24.6374 39.4775 24.539 39.5151 24.4446 39.5512ZM44.6392 40.8441C44.8018 40.9761 44.9467 41.0938 44.9277 41.2439L44.9238 41.2589C44.8802 41.3836 44.7292 41.4659 44.6095 41.5311L44.6 41.5363C44.0594 41.8184 43.2908 42.1264 42.8853 41.5559C42.7973 41.3925 42.8987 41.2149 43.0315 41.0255C43.1792 40.8251 43.3026 40.5689 43.2444 40.3174C43.1774 40.0578 42.9956 39.837 42.8143 39.617C42.5689 39.3191 42.3245 39.0224 42.3675 38.6318C42.4099 38.4204 42.6299 38.3096 42.8287 38.3953C43.2631 38.6454 43.4951 39.1168 43.7242 39.582C43.8587 39.8551 43.9921 40.126 44.1647 40.3489C44.2417 40.4573 44.3273 40.5595 44.4224 40.653C44.4894 40.7224 44.5661 40.7847 44.6392 40.8441ZM34.206 41.7558C33.9722 41.9512 33.7209 42.1613 33.4655 42.172H33.4458C33.0836 42.1681 32.9335 41.6157 33.06 41.2966C33.16 41.0345 33.3976 40.9608 33.6531 40.8816C33.8189 40.8301 33.9923 40.7764 34.1405 40.6671C34.2762 40.5763 34.3735 40.449 34.4709 40.3215C34.5614 40.2031 34.6521 40.0845 34.7739 39.9945C35.4387 39.4837 36.4996 39.9402 35.8725 40.6695C35.6861 40.8564 35.4042 41.0038 35.1281 41.1483C34.9049 41.265 34.6855 41.3798 34.5232 41.5119C34.4223 41.5751 34.3161 41.6638 34.206 41.7558ZM46.7391 42.7048C48.5434 43.3217 46.5693 45.1032 46.321 44.5704L46.3202 44.5696L46.3139 44.5523C46.2935 44.4244 46.2976 44.2859 46.3018 44.1465C46.3086 43.9161 46.3156 43.6831 46.2118 43.4907C46.1108 43.2462 45.9394 43.0267 45.7528 42.7877C45.6869 42.7032 45.619 42.6162 45.5517 42.5249C45.4149 42.3481 45.2876 42.0903 45.5069 41.9253C45.6955 41.7846 46.0546 41.6518 46.277 41.6997C46.4229 41.7622 46.3739 41.9202 46.3224 42.0862C46.2755 42.2376 46.2266 42.3956 46.3218 42.4934C46.3916 42.5783 46.5374 42.6311 46.6644 42.6772C46.6904 42.6866 46.7155 42.6958 46.7391 42.7048ZM46.8647 50.7932C47.0495 50.8995 47.1922 50.9817 47.2813 50.8343L47.2821 50.8335L47.2892 50.8194C47.3135 50.7656 47.329 50.6897 47.3461 50.6058C47.376 50.4593 47.4109 50.288 47.5068 50.1656C47.976 49.5841 48.6345 50.2033 48.2479 50.7903C47.9115 51.3231 47.3159 51.7899 46.6558 51.6312C46.2951 51.5573 45.8574 51.4331 45.6483 51.1117C45.4888 50.8563 45.6216 50.487 45.932 50.45C46.178 50.4163 46.5018 50.5773 46.765 50.7369C46.7995 50.7557 46.8327 50.7748 46.8647 50.7932ZM55.0014 37.2778C55.7354 37.4201 55.12 38.3584 54.6815 38.4361H54.6823L54.6619 38.4393C54.5659 38.4525 54.4669 38.4249 54.371 38.3983C54.2322 38.3598 54.1 38.3231 53.9931 38.4141C53.8365 38.5708 53.7723 38.834 53.7101 39.0887C53.6808 39.2084 53.6521 39.3262 53.6144 39.4302C53.5523 39.6652 53.4509 40.0385 53.2993 40.0919C52.768 40.1673 52.86 38.3599 53.1248 38.0967C53.2433 37.9539 53.427 37.8984 53.6051 37.8446C53.6525 37.8303 53.6995 37.8161 53.7448 37.8004C53.9374 37.7374 54.1164 37.6316 54.2863 37.5313C54.5401 37.3814 54.7736 37.2435 55.0014 37.2778ZM50.2581 48.1798C50.772 48.8564 49.7575 49.5927 49.1052 49.5518L49.106 49.551H49.0785C47.9681 49.4921 48.4585 47.977 49.2978 47.8906C49.6388 47.8285 50.0789 47.9731 50.2581 48.1798ZM45.0018 45.0449C45.1454 45.2066 45.2859 45.3647 45.3057 45.4993L45.3088 45.5189C45.3348 45.8364 44.923 46.1853 44.6267 45.9605C43.8833 45.3806 43.2971 44.5437 43.0433 43.6934C42.8892 43.1355 43.3898 43.2549 43.7215 43.5174C44.0365 43.7606 44.2754 44.09 44.5149 44.4201C44.6027 44.5412 44.6906 44.6624 44.7823 44.7794C44.8435 44.8668 44.9231 44.9564 45.0018 45.0449ZM41.5337 41.3626C41.4394 41.4907 41.2838 41.6549 41.158 41.6683L41.1596 41.6691L41.14 41.6714C41.0127 41.6817 40.9082 41.5811 40.8264 41.4805C40.3581 40.862 39.9235 40.1776 40.0665 39.431L40.0688 39.421C40.0956 39.3022 40.1382 39.1135 40.2551 39.0845C40.3046 39.0774 40.3589 39.119 40.4123 39.2C40.4709 39.2881 40.5165 39.3913 40.5625 39.4955C40.633 39.6554 40.7047 39.8178 40.8264 39.9324C40.9332 40.032 41.0789 40.0309 41.2293 40.0297C41.3599 40.0287 41.494 40.0277 41.6091 40.0927C42.0853 40.4007 41.9164 40.8856 41.5337 41.3626ZM66.5328 37.7745C66.5548 37.9057 66.4974 38.099 66.3552 38.0739L66.3544 38.0747L66.3418 38.0723C66.1983 38.0305 66.1146 37.9104 65.9989 37.7442C65.96 37.6883 65.9175 37.6273 65.868 37.5623C65.6542 37.2629 65.4342 36.9454 65.2267 36.6036C64.9815 36.1997 64.2986 35.0272 65.1984 35.1678C65.9057 35.3619 66.4188 37.0303 66.5328 37.7745ZM31.7634 38.7796C31.8993 38.6585 32.128 38.6719 32.2576 38.7976L32.2726 38.8118C32.3495 38.8872 32.3869 38.991 32.4232 39.0919C32.4604 39.1952 32.4965 39.2955 32.5728 39.3595C32.6621 39.4527 32.8351 39.4948 32.9989 39.5347C33.2991 39.6077 33.5685 39.6733 33.236 40.0322C32.8085 40.5139 32.3519 41.0035 31.7272 41.2047C31.5425 41.2707 31.2329 41.2848 31.2958 41.0043C31.3376 40.8569 31.4138 40.7128 31.4908 40.5671C31.5831 40.3926 31.6766 40.2158 31.7138 40.0283C31.7461 39.8939 31.7594 39.754 31.7539 39.6157C31.7513 39.4964 31.7313 39.3794 31.7128 39.271C31.6764 39.0579 31.6456 38.878 31.7634 38.7796ZM48.0539 38.445C48.2735 38.7834 48.5858 39.2647 48.3076 39.3501V39.3493L48.2935 39.3524C48.1671 39.3781 48 39.2823 47.8 39.1676C47.7486 39.1382 47.6952 39.1076 47.6396 39.0774C47.5861 39.0458 47.5315 39.0139 47.476 38.9817C47.0066 38.7084 46.4854 38.405 46.1874 37.9544C45.9194 37.5969 46.2236 37.0609 46.6573 37.0609C47.1691 37.1171 47.4903 37.5901 47.7726 38.0057C47.8141 38.0669 47.8547 38.1268 47.895 38.1839C47.9243 38.2453 47.9845 38.338 48.0539 38.445ZM46.7017 47.9629C46.7922 48.1735 46.8652 48.3437 46.8287 48.4886V48.4894L46.8239 48.5082C46.7629 48.7156 46.5018 48.9009 46.3043 49.041C46.2907 49.0507 46.2773 49.0601 46.2644 49.0693C46.2561 49.0747 46.2478 49.0801 46.2396 49.0855C46.0143 49.2327 45.829 49.3536 45.7198 49.1118C45.5305 48.5106 45.2656 47.5063 45.4086 47.0057C45.4982 46.6827 45.8699 46.6262 46.0837 46.8745C46.3281 47.1212 46.508 47.5197 46.6511 47.8434C46.6682 47.8846 46.6852 47.9244 46.7017 47.9629ZM58.5681 46.4306C58.4754 46.3971 58.3511 46.3524 58.342 46.2534L58.3435 46.2435C58.3631 46.1794 58.4535 46.1287 58.5335 46.0838C58.5566 46.0708 58.5788 46.0584 58.5982 46.0462C59.034 45.8213 59.2789 45.3936 59.5271 44.96C59.756 44.5602 59.9878 44.1552 60.3749 43.8993C60.8402 43.6038 60.8897 44.1044 60.7663 44.4368C60.6616 44.7428 60.4438 44.9767 60.2248 45.212C60.1052 45.3406 59.9852 45.4695 59.883 45.6109C59.8118 45.703 59.7469 45.7929 59.6856 45.8778C59.3634 46.3237 59.1384 46.6351 58.6123 46.447C58.599 46.4417 58.584 46.4363 58.5681 46.4306ZM51.0666 42.2619C50.9222 41.8442 50.7842 41.4454 51.3496 41.3705L51.3504 41.3713L51.3779 41.3689C52.9936 41.2722 51.759 43.9834 50.941 43.8506C50.8317 43.8231 50.75 43.7248 50.7626 43.6038C50.7798 43.4653 50.8792 43.3544 50.9793 43.2427C51.0796 43.1308 51.1806 43.0181 51.2003 42.8761C51.216 42.6936 51.1404 42.4753 51.0666 42.2619ZM60.6052 47.5047C60.584 47.4277 60.547 47.2855 60.5997 47.2454H60.5989L60.6075 47.2399C60.6466 47.2178 60.7318 47.2509 60.7844 47.2713C60.7879 47.2727 60.7913 47.274 60.7946 47.2753C61.3874 47.5726 61.498 47.4797 61.8149 47.2135C61.8967 47.1448 61.9922 47.0646 62.1132 46.9766C62.1729 46.9444 62.2523 46.9538 62.2869 47.0206C62.4268 47.4246 62.4928 48.142 62.3301 48.5664C62.2405 48.7817 62.0244 48.8972 61.7981 48.8815C61.2299 48.8587 60.7749 48.087 60.6052 47.5047ZM41.7962 35.4162C41.6649 35.5388 41.5227 35.6566 41.4024 35.6527L41.4032 35.6519H41.3828C41.2564 35.6441 41.1487 35.4952 41.0359 35.3391C41.0119 35.306 40.9878 35.2726 40.9632 35.2401C40.7274 34.9109 40.1522 34.0944 40.7698 34.0119C41.1856 33.9726 41.6115 34.0881 41.9737 34.3034C42.4382 34.6005 42.2284 35.0162 41.7962 35.4162ZM56.1466 44.5747C56.1702 44.7194 56.1905 44.8441 56.2446 44.8737L56.2438 44.8745L56.2532 44.8792C56.2768 44.8887 56.3004 44.8824 56.3247 44.8706C56.3853 44.8419 56.4609 44.7593 56.5444 44.6681C56.6438 44.5594 56.7544 44.4386 56.8638 44.3826C57.4501 44.0824 57.8265 44.9468 57.5443 45.4002C57.0642 46.2623 55.41 45.3335 55.6638 44.3347C55.7173 44.0777 55.9381 43.9119 56.0599 44.216C56.1052 44.3205 56.127 44.4545 56.1466 44.5747ZM70.3039 35.8427C70.4386 35.8505 70.5843 35.859 70.6812 35.9458H70.6804L70.6938 35.96C70.7566 36.0331 70.7566 36.1384 70.7527 36.2327C70.7386 36.4645 70.7056 36.6963 70.6608 36.9258C70.6364 37.0814 70.5429 37.2472 70.3622 37.2102C70.2974 37.1957 70.2325 37.1763 70.1672 37.1567C70.0313 37.1161 69.8936 37.0748 69.7508 37.0759C69.6739 37.0696 69.5931 37.0707 69.5151 37.0717C69.3372 37.0741 69.1743 37.0762 69.1087 36.991C69.0285 36.8693 69.0688 36.676 69.1021 36.5167C69.1086 36.4857 69.1148 36.456 69.1197 36.4283C69.2588 35.7949 69.5307 35.7973 70.2341 35.8382C70.2568 35.8399 70.2802 35.8413 70.3039 35.8427ZM55.4437 41.0697C55.4222 40.7268 55.4007 40.3839 55.454 40.0707L55.4532 40.0715L55.458 40.066C55.5061 40.0383 55.5576 40.1275 55.5952 40.1926C55.6024 40.205 55.6091 40.2166 55.6151 40.2263C56.0253 40.9626 56.7679 42.5461 56.1126 43.0592C55.8925 43.2439 55.3676 43.3303 55.2937 42.961C55.2854 42.7801 55.3299 42.5993 55.3746 42.4175C55.4187 42.2384 55.463 42.0583 55.4572 41.8765C55.4781 41.6176 55.4609 41.3437 55.4437 41.0697ZM109.205 39.9497C109.399 40.7913 106.733 40.8235 106.244 40.3371V40.33C106.245 40.2621 106.445 40.2004 106.693 40.1239C106.735 40.1111 106.778 40.0978 106.822 40.084C106.875 40.0707 106.943 40.0521 107.023 40.0303C107.646 39.8605 108.971 39.4996 109.205 39.9497ZM38.6149 36.2105C38.651 36.109 38.6975 35.9782 38.784 35.9529L38.7848 35.9521H38.7974C38.8677 35.9619 38.9162 36.0728 38.9498 36.1498C38.9512 36.1528 38.9525 36.1558 38.9538 36.1588C39.2312 36.8763 39.3954 37.358 39.305 38.088C39.3037 38.0961 39.3024 38.1046 39.301 38.1133C39.2829 38.229 39.258 38.3882 39.1447 38.4189C39.0622 38.4346 38.9695 38.3505 38.9082 38.2837C38.3785 37.6786 38.3157 37.0845 38.5962 36.2617C38.6022 36.2461 38.6084 36.2288 38.6149 36.2105ZM65.8744 50.9527C66.1685 50.8981 66.4425 50.8472 66.4605 50.8988L66.462 50.9043C66.4716 50.9424 66.3664 51.041 66.2321 51.167C66.1892 51.2072 66.1434 51.2502 66.0974 51.2948C66.0104 51.3691 65.9159 51.4564 65.8154 51.5492C65.3517 51.9774 64.7607 52.5232 64.1878 52.4547C63.7863 52.3368 63.769 51.8598 64.0912 51.6312C64.5784 51.2492 65.2825 51.0819 65.8687 50.9538L65.8744 50.9527ZM33.8285 35.6881C34.4934 36.0409 35.2784 37.3281 33.9951 37.3038H33.9959L33.97 37.3014C33.306 37.2291 33.4073 36.4338 33.5582 35.8413C33.5873 35.703 33.6957 35.6087 33.8285 35.6881ZM62.3506 21.287C62.2817 21.2632 62.1981 21.2343 62.1879 21.1956H62.1871L62.1887 21.1901C62.2171 21.1524 62.3276 21.1381 62.4097 21.1275C62.425 21.1255 62.4393 21.1236 62.4519 21.1218C63.3171 21.0243 64.2546 21.0675 65.0947 21.517C65.2943 21.6648 65.0185 21.7669 64.8731 21.7952C64.116 21.962 63.487 21.718 62.8815 21.4831C62.7221 21.4213 62.5644 21.3601 62.4063 21.3072C62.3907 21.3009 62.3713 21.2942 62.3506 21.287ZM60.6921 45.4604C60.7378 45.2649 60.7897 45.0428 60.9447 45.0411V45.0403L60.962 45.0427C61.1148 45.0951 61.288 45.298 61.4317 45.4664C61.4734 45.5153 61.5126 45.5613 61.5482 45.5998C61.7635 45.8662 61.8735 46.1264 61.615 46.2757C61.3525 46.4148 61.0217 46.4525 60.7388 46.3653C60.4661 46.2702 60.5305 45.9912 60.628 45.68C60.6535 45.6254 60.6722 45.5454 60.6921 45.4604ZM113.581 40.6153C113.523 40.6561 113.437 40.7041 113.378 40.6742H113.379L113.366 40.6664C113.312 40.6263 113.303 40.521 113.299 40.4455C113.298 40.3693 113.296 40.2937 113.295 40.2187C113.282 39.675 113.271 39.1668 113.587 38.7442C113.7 38.635 113.828 38.7497 113.894 38.8589C114.28 39.4719 114.151 40.2082 113.581 40.6153ZM44.8232 39.0499C44.9026 38.9799 45.0024 38.8935 45.0849 38.8668H45.0857L45.103 38.8613C45.2031 38.8308 45.312 38.8761 45.4643 38.9395C45.4888 38.9497 45.5145 38.9604 45.5415 38.9713C45.8715 39.112 46.2856 39.2896 46.563 39.5135C46.8648 39.7399 46.7139 39.9677 46.3949 40.0157C45.9147 40.0455 45.1485 39.7045 44.725 39.4585C44.5277 39.3328 44.6338 39.2118 44.8232 39.0499ZM62.7607 53.459C62.8338 53.4747 62.9431 53.503 62.9706 53.562L62.9745 53.5745C62.9871 53.6358 62.9101 53.7034 62.8582 53.7474C62.8115 53.7836 62.7653 53.8201 62.7194 53.8563C62.3022 54.1854 61.9071 54.497 61.3698 54.4822C61.2181 54.4586 61.2009 54.2999 61.2425 54.1741C61.4303 53.5525 62.0181 53.3129 62.7607 53.459ZM27.4822 37.0785C27.3492 37.0846 27.2408 37.0896 27.2141 37.0641L27.2133 37.0633L27.2086 37.0578C27.1788 37.0205 27.2926 36.9075 27.4225 36.7786C27.4295 36.7716 27.4365 36.7646 27.4436 36.7576C27.4828 36.7242 27.5236 36.6882 27.566 36.6509C27.8985 36.3582 28.3245 35.9831 28.7677 36.1211C29.031 36.2523 29.1049 36.679 28.84 36.8315C28.5328 37.0228 28.1263 37.0448 27.7614 37.0645C27.7081 37.0674 27.6558 37.0702 27.6047 37.0735C27.5627 37.0748 27.5214 37.0767 27.4822 37.0785ZM30.9885 35.9812C31.5347 35.9215 32.1547 36.6444 32.0997 37.1466V37.1458L32.0926 37.1544C32.0539 37.2 31.9447 37.1667 31.8057 37.1243C31.7698 37.1133 31.7318 37.1018 31.6926 37.0908C31.6262 37.0661 31.5459 37.0409 31.4586 37.0134C31.0824 36.8953 30.5765 36.7365 30.4911 36.4016C30.4706 36.2201 30.7449 36.0008 30.9885 35.9812ZM55.3332 50.7503C55.1663 50.8697 54.9829 51.001 54.7939 51.052V51.0536L54.7758 51.052C54.7405 51.0465 54.7122 51.0284 54.687 50.9954C54.6061 50.8689 54.5385 50.6779 54.4937 50.5255C54.3193 49.896 54.7703 49.8622 55.4642 50.2465C55.6025 50.3188 55.7935 50.4618 55.5939 50.5781C55.5134 50.6213 55.4258 50.684 55.3332 50.7503ZM54.0458 36.0236C54.104 36.0181 54.1865 36.015 54.221 36.0527L54.2218 36.0535L54.2281 36.0621C54.2619 36.437 53.1602 37.2582 52.783 37.2118C52.658 37.1906 52.603 37.0436 52.6054 36.9258C52.6046 36.4448 53.5334 36.0731 54.0458 36.0236ZM25.27 37.5041C24.7466 37.7132 23.7863 36.9886 24.4362 36.6295L24.4566 36.6232C24.6395 36.5943 24.8917 36.718 25.0995 36.82C25.1462 36.8428 25.1906 36.8646 25.2315 36.8833C25.655 37.1026 25.7132 37.3509 25.27 37.5041ZM45.3049 37.4421C45.334 37.4963 45.3678 37.5882 45.334 37.6307L45.3246 37.6409C45.2788 37.6805 45.1878 37.6656 45.1205 37.6547L45.1179 37.6542C44.9262 37.6131 44.7403 37.5807 44.5581 37.5491C44.2676 37.4985 43.9864 37.4496 43.7057 37.369C43.5847 37.3006 43.7065 37.1882 43.7827 37.1317C44.2975 36.7497 45.0212 36.8959 45.3049 37.4421ZM92.6933 34.8276C92.878 34.9062 92.911 35.1168 92.7727 35.248L92.7719 35.2488L92.7593 35.2582C92.6987 35.3056 92.6019 35.2774 92.4654 35.2376C92.4231 35.2253 92.3771 35.2119 92.3271 35.1993C92.2473 35.1716 92.1565 35.1448 92.0609 35.1167C91.7256 35.0179 91.3313 34.9018 91.146 34.6657C91.1012 34.558 91.2112 34.4677 91.3032 34.426C91.6511 34.259 92.1959 34.5563 92.6017 34.7777C92.6331 34.7949 92.6637 34.8116 92.6933 34.8276ZM103.479 44.7692C103.361 44.6097 103.415 44.3001 103.63 44.315L103.631 44.3166H103.647C103.713 44.3286 103.806 44.3334 103.91 44.3388C104.289 44.3583 104.819 44.3856 104.735 44.7959C104.698 44.9154 104.619 45.0325 104.503 45.1118C104.197 45.3272 103.66 45.0828 103.479 44.7692ZM51.451 47.6289C51.7519 47.9149 51.6961 48.8823 51.4596 49.1558H51.4517C51.4142 49.1528 51.369 49.0636 51.3127 48.9525C51.2948 48.917 51.2756 48.8793 51.2553 48.8414C51.2356 48.8007 51.215 48.7591 51.194 48.7168C51.0511 48.4289 50.892 48.1081 50.8907 47.7916C50.8789 47.5126 51.2506 47.4301 51.451 47.6289ZM49.6443 40.1414C49.6632 40.1878 49.6797 40.2467 49.6459 40.2837H49.6467L49.6341 40.2947C49.587 40.33 49.4809 40.33 49.4094 40.3253C48.8239 40.286 48.5827 40.0943 48.5088 39.6314C48.4978 39.5591 48.5041 39.4774 48.5496 39.4208C48.6243 39.3402 48.6805 39.3333 48.772 39.3221C48.7769 39.3215 48.7819 39.3209 48.787 39.3202C49.2576 39.2901 49.4168 39.6413 49.5827 40.0073C49.6029 40.052 49.6233 40.0969 49.6443 40.1414ZM89.0468 39.9806C89.0039 39.9927 88.9629 40.0043 88.9244 40.0157V40.0149H88.9158C88.8836 40.0113 88.9204 39.9555 88.9757 39.8717C88.992 39.847 89.0099 39.8199 89.0282 39.7909C89.0614 39.7476 89.1012 39.6901 89.1463 39.6252C89.3487 39.3337 89.6551 38.8921 89.9264 38.9069C90.0498 38.9391 90.0914 39.2463 90.0113 39.4161C89.8533 39.7529 89.391 39.8834 89.0468 39.9806ZM41.4212 47.0559C41.4694 47.0832 41.53 47.1176 41.5439 47.1621V47.1629L41.5463 47.1778C41.5256 47.2569 41.4585 47.3004 41.3911 47.3441C41.3841 47.3487 41.3772 47.3532 41.3702 47.3578C40.9757 47.6135 40.8136 47.4746 40.4348 47.1497L40.4327 47.148C40.4151 47.1321 40.3965 47.1167 40.3778 47.1013C40.304 47.0402 40.2291 46.9783 40.2103 46.8823C40.2119 46.8289 40.2677 46.792 40.3164 46.7692C40.633 46.6234 40.9614 46.8037 41.3106 46.9953C41.3436 47.0134 41.3769 47.0316 41.4103 47.0497C41.4138 47.0517 41.4175 47.0538 41.4212 47.0559ZM81.6169 36.8833C81.6154 36.793 81.6476 36.5501 81.7694 36.6271V36.6264L81.7788 36.6366C81.8181 36.6861 81.8307 36.782 81.8307 36.855C81.8295 37.0441 81.8303 37.2345 81.8311 37.4254C81.8325 37.744 81.8338 38.0639 81.826 38.3804C81.8228 38.5234 81.7057 38.6758 81.6382 38.4692C81.6044 38.1468 81.6099 37.8141 81.6155 37.482C81.6189 37.2814 81.6223 37.081 81.6169 36.8833ZM46.7665 49.1211C46.8363 48.9697 46.946 48.7317 47.0212 48.6772L47.0204 48.6764H47.029C47.0569 48.6776 47.0912 48.7361 47.1341 48.8093C47.1456 48.8289 47.1577 48.8496 47.1705 48.8705C47.3528 49.1668 47.6554 49.8041 47.0723 49.8402C46.6094 49.8764 46.5795 49.5251 46.7399 49.1786C46.7478 49.1616 46.7568 49.1422 46.7665 49.1211ZM54.4089 42.5956C54.5094 42.7771 54.4859 42.9689 54.243 42.9752H54.2423L54.2226 42.9728C54.1692 42.9634 54.1236 42.9249 54.0851 42.8832C54.0101 42.7985 53.9319 42.7113 53.8496 42.6195C53.7189 42.4738 53.5779 42.3165 53.4226 42.139C53.2835 41.9787 53.4163 41.9174 53.5782 41.9198C54.0697 41.9152 54.1664 42.1092 54.3837 42.5452C54.3919 42.5617 54.4003 42.5785 54.4089 42.5956ZM38.6819 39.222C38.7109 39.2613 38.7471 39.3163 38.7282 39.3587L38.7267 39.3579L38.7196 39.3705C38.6897 39.4122 38.5946 39.4239 38.5341 39.4271C37.9927 39.4609 37.7601 39.1819 37.7884 38.5249C37.7917 38.4949 37.7927 38.4642 37.7938 38.4335C37.7966 38.3542 37.7994 38.2749 37.8402 38.2075C37.8868 38.186 37.9171 38.2234 37.948 38.2613C37.9567 38.2721 37.9654 38.2828 37.9746 38.2923C38.1995 38.5859 38.4032 38.8544 38.6073 39.1236L38.6819 39.222ZM43.7199 34.4064C43.7466 34.6013 43.4692 34.6476 43.3584 34.6146H43.3576L43.3419 34.606C43.2712 34.5394 43.2262 34.4036 43.1834 34.2745C43.1606 34.2056 43.1384 34.1386 43.1132 34.085C43.1048 34.0558 43.0929 34.0269 43.0811 33.9984C43.052 33.928 43.0241 33.8603 43.0543 33.7981C43.0901 33.7485 43.1595 33.7396 43.2217 33.7315C43.2373 33.7295 43.2524 33.7276 43.2665 33.725C43.2974 33.7221 43.33 33.717 43.3626 33.712C43.4597 33.697 43.5563 33.6821 43.6075 33.7227C43.6586 33.7623 43.6654 33.8347 43.6717 33.9015C43.6728 33.9129 43.6738 33.924 43.6751 33.9349C43.6806 33.996 43.6869 34.0571 43.6933 34.1182C43.7032 34.2143 43.7132 34.3103 43.7199 34.4064ZM58.1306 43.3131C58.1903 43.3594 58.2445 43.4074 58.2547 43.4844L58.2485 43.5017C58.2256 43.5438 58.1688 43.5763 58.1196 43.6043C58.1128 43.6082 58.1063 43.6119 58.0999 43.6156C58.0849 43.6239 58.0703 43.632 58.0559 43.64C57.7439 43.8132 57.5784 43.9051 57.3117 43.7233C57.2669 43.6918 57.2151 43.647 57.2041 43.5967C57.1967 43.5164 57.2782 43.4579 57.3517 43.4052C57.3795 43.3852 57.4062 43.3661 57.4265 43.3469C57.722 43.1158 57.8383 43.0671 58.1306 43.3131ZM34.6521 39.6778C34.5633 39.7045 34.4022 39.5945 34.3275 39.5395L34.311 39.5238C34.1994 39.3886 34.1319 39.2126 34.0831 39.0389C33.9331 38.4471 34.6961 38.8212 34.7095 39.4962C34.711 39.5583 34.704 39.6518 34.6521 39.6778ZM54.0555 28.4211C54.1281 28.5058 54.2066 28.5971 54.2234 28.6839V28.7067C54.2102 28.7932 54.1333 28.8826 54.0611 28.9664C54.0257 29.0075 53.9915 29.0472 53.9664 29.0847C53.9513 29.1004 53.938 29.1186 53.925 29.1363C53.8919 29.1813 53.8607 29.2237 53.8077 29.2175C53.7763 29.2002 53.7456 29.1727 53.726 29.142C53.6309 28.988 53.5484 28.8088 53.5594 28.6957C53.5688 28.5495 53.6552 28.4144 53.7448 28.2808C53.766 28.2501 53.799 28.225 53.8321 28.2085C53.8768 28.1975 53.9161 28.2462 53.9601 28.302C53.9851 28.3391 54.0196 28.3793 54.0555 28.4211ZM22.3514 36.7568C22.2712 36.6751 22.3309 36.4708 22.4339 36.4165L22.4527 36.411C22.5062 36.4016 22.569 36.4291 22.6233 36.4535C22.6652 36.4727 22.7065 36.4908 22.7466 36.5084C23.0568 36.6449 23.3002 36.752 23.2849 37.079C23.2826 37.1364 23.2637 37.2126 23.2111 37.2315C23.1836 37.2417 23.149 37.2354 23.1113 37.2181C22.9986 37.1563 22.8847 37.0887 22.7707 37.0209C22.7034 36.981 22.6361 36.941 22.569 36.9022C22.5485 36.8895 22.5268 36.8771 22.505 36.8648C22.4463 36.8315 22.3875 36.7981 22.3514 36.7568ZM96.2988 46.4046C96.2563 46.5444 95.997 46.5319 95.8878 46.4761H95.8885L95.8752 46.4643C95.8302 46.4042 95.8243 46.3281 95.8183 46.2516C95.8156 46.216 95.8128 46.1802 95.806 46.146C95.8044 46.1144 95.7995 46.0825 95.7946 46.0507C95.7833 45.9764 95.7721 45.9034 95.8029 45.8395C95.8296 45.7908 95.8972 45.7727 95.9789 45.7664C96.0199 45.7675 96.0638 45.7612 96.108 45.7549C96.1968 45.7423 96.2871 45.7294 96.3585 45.7751C96.394 45.8136 96.3866 45.871 96.3797 45.925L96.3789 45.9315C96.3686 45.9889 96.3606 46.047 96.3527 46.105C96.339 46.2059 96.3252 46.3068 96.2988 46.4046ZM83.8118 50.9459C83.9218 50.843 84.1041 50.9341 84.1096 51.0724L84.1088 51.0732V51.0921C84.1025 51.1479 84.0562 51.2005 84.013 51.2422C83.9105 51.336 83.8088 51.4327 83.7069 51.5296C83.5391 51.6891 83.3705 51.8493 83.1965 51.9989C82.9851 52.1498 82.8122 51.8669 83.0032 51.7113C83.0913 51.6278 83.1792 51.5426 83.2673 51.4572C83.4464 51.2837 83.6264 51.1091 83.8118 50.9459ZM54.8316 44.5735C54.8882 44.6828 54.7648 44.8659 54.6674 44.9138H54.6666L54.6485 44.9177C54.5882 44.9239 54.5081 44.8715 54.4261 44.8179C54.3938 44.7967 54.3612 44.7754 54.3295 44.7574C54.2845 44.7287 54.2382 44.7001 54.1918 44.6714C54.1152 44.624 54.0384 44.5764 53.9664 44.528C53.8368 44.4486 53.8792 44.3221 53.9546 44.2183L53.9588 44.2116C53.9983 44.148 54.0492 44.0659 54.1236 44.0659C54.2604 44.1047 54.3795 44.2014 54.4974 44.2971C54.5657 44.3525 54.6337 44.4077 54.7043 44.451C54.7578 44.4902 54.8088 44.5295 54.8316 44.5735ZM69.5355 40.4078C69.5441 40.3905 69.5551 40.3787 69.5685 40.3748V40.3756L69.5826 40.374C69.8105 40.4762 69.9464 40.8267 69.8993 41.0019C69.8781 41.1764 69.6298 41.3705 69.4058 41.3021C69.383 41.2887 69.3696 41.2675 69.3649 41.24C69.3649 41.1465 69.3879 41.0518 69.4108 40.9575C69.424 40.9029 69.4372 40.8484 69.4459 40.7944C69.4571 40.7496 69.4671 40.6991 69.4772 40.6478C69.4941 40.5622 69.5114 40.4746 69.5355 40.4078ZM109.513 41.8113C109.465 41.8954 109.248 41.9072 109.176 41.8734V41.8718L109.163 41.8616C109.112 41.7864 109.095 41.6558 109.078 41.5314C109.069 41.462 109.06 41.3946 109.046 41.3398C109.043 41.3148 109.038 41.2883 109.033 41.262C109.019 41.1931 109.006 41.125 109.03 41.0852C109.076 41.0388 109.137 41.0365 109.2 41.0443C109.379 41.0632 109.465 41.1206 109.504 41.2251C109.542 41.3862 109.576 41.6392 109.513 41.8113ZM29.1015 42.0245C28.9768 41.9227 28.7744 41.7575 28.9721 41.629L28.9901 41.6211C29.0806 41.6033 29.1741 41.6218 29.2676 41.6401C29.3186 41.6502 29.3695 41.6602 29.42 41.6644C29.4665 41.6755 29.5159 41.6811 29.5655 41.6867C29.6658 41.6981 29.7665 41.7095 29.8443 41.7673C29.9991 41.9284 29.717 42.062 29.5968 42.1147C29.4066 42.1995 29.3021 42.1846 29.1402 42.0565C29.1288 42.0467 29.1157 42.036 29.1015 42.0245ZM72.1429 30.2336C72.0391 30.3444 71.9661 30.5141 72.0454 30.654L72.0541 30.6681C72.0954 30.7372 72.1623 30.7875 72.2331 30.8408C72.3186 30.9051 72.4097 30.9737 72.4682 31.0846C72.5146 31.1679 72.5444 31.2583 72.5672 31.3526C72.6442 31.6795 72.634 32.1094 72.6112 32.4724C72.5979 32.8708 72.4077 33.05 72.0116 32.9038C71.0474 32.5989 70.4847 31.6229 70.4282 30.6579C70.3425 29.865 70.3598 28.7861 70.7244 28.5692C71.1643 28.3754 71.945 28.7538 72.3855 28.9674C72.4006 28.9747 72.4154 28.9819 72.4297 28.9888C72.8132 29.2018 73.1362 29.4666 72.8737 29.7864C72.7993 29.8688 72.6801 29.9207 72.5537 29.9756C72.4064 30.0397 72.2495 30.1079 72.1429 30.2336ZM56.3267 24.6731C56.5313 24.6902 56.7062 24.7048 56.7734 24.849L56.7797 24.8647C56.8122 24.9719 56.782 25.1022 56.7537 25.224C56.7451 25.2612 56.7367 25.2976 56.7302 25.3323C56.6529 25.6625 56.7434 25.9732 56.842 26.3122C56.8537 26.3524 56.8655 26.393 56.8772 26.434C56.9345 26.5849 57.0273 27.2026 56.7263 26.8906C56.6672 26.8255 56.608 26.7344 56.5516 26.6473C56.527 26.6095 56.5029 26.5724 56.4795 26.5386C56.2697 26.1951 55.975 26.1959 55.6324 26.225C55.3629 26.2376 55.076 26.1323 54.8804 25.9374C54.4694 25.5515 54.5833 25.0557 54.8308 24.493C54.8342 24.486 54.8376 24.4789 54.841 24.4716C54.8945 24.3584 54.9629 24.2138 55.0729 24.1732C55.1845 24.1521 55.2722 24.2411 55.3568 24.327C55.395 24.3657 55.4325 24.4038 55.4713 24.4309C55.6599 24.5881 55.9129 24.6329 56.1841 24.6596C56.2325 24.6653 56.2804 24.6693 56.3267 24.6731ZM69.2486 30.6265C69.2801 30.7491 69.3076 30.911 69.2486 31.0092L69.24 31.0225C69.1795 31.1129 69.0467 31.1216 68.9398 31.0964C68.0612 30.9094 67.7815 29.113 67.7995 28.0859C67.8019 27.9405 67.8231 27.6804 68.0188 27.8045C68.6438 28.3491 68.8834 29.258 69.1064 30.1039C69.1534 30.2822 69.1996 30.4578 69.2486 30.6265ZM60.3727 24.5953C60.6212 24.8338 60.9114 25.1125 60.8417 25.4667L60.8386 25.4895C60.803 25.6304 60.7861 25.7781 60.7692 25.9265C60.7507 26.0892 60.7321 26.2527 60.6885 26.4089C60.5628 26.8545 60.2806 27.0651 60.0559 26.6054C59.5027 25.5547 59.4366 23.7645 60.3042 24.5292C60.3265 24.5509 60.3494 24.5729 60.3727 24.5953ZM77.841 37.2833C77.8826 37.3627 77.9321 37.4672 77.8881 37.5387L77.8811 37.5489C77.8276 37.6165 77.687 37.622 77.5911 37.6118C76.7322 37.5348 76.2064 36.3733 75.9597 35.4641C75.9227 35.3234 75.878 35.0696 76.0878 35.1073C76.6966 35.3133 77.2166 36.2116 77.6174 36.9037C77.6967 37.0406 77.7713 37.1695 77.841 37.2833ZM53.5814 25.7064C53.3558 25.4627 53.2867 25.0478 53.2835 24.7508H53.2827L53.2796 24.7303C53.2624 24.6021 53.1846 24.485 53.1026 24.3615C53.0499 24.2822 52.9955 24.2002 52.9543 24.1111C52.8002 23.8188 53.0061 23.704 53.2584 23.7645C54.0568 23.9304 54.3295 24.9024 54.1982 25.6961C54.1377 26.0969 53.7951 25.9751 53.5814 25.7064ZM49.8174 26.0442C49.6287 25.9545 49.4195 25.8551 49.3449 25.6686L49.3441 25.6678L49.3426 25.6506C49.3308 25.542 49.4721 25.429 49.6154 25.3144C49.6442 25.2913 49.6731 25.2682 49.7009 25.2451C49.7592 25.1974 49.8178 25.1501 49.8767 25.1024C49.9219 25.0659 49.9672 25.0292 50.0129 24.992C50.0623 24.9572 50.1167 24.9101 50.1741 24.8605C50.4101 24.6563 50.695 24.41 50.8797 24.8026C50.9952 25.0203 51.1406 25.2961 50.8734 25.3464C50.8271 25.3593 50.7669 25.3654 50.7039 25.3719C50.5045 25.3924 50.2763 25.4158 50.3689 25.6623C50.5323 26.0458 50.4671 26.3445 49.9704 26.1205C49.9235 26.0947 49.8713 26.0698 49.8174 26.0442ZM88.361 46.6152C88.2832 46.7676 88.0475 46.8988 87.9555 46.6937L87.9484 46.6741C87.9217 46.5955 87.9398 46.4941 87.9618 46.4077C87.9749 46.3606 87.9877 46.3138 88.0003 46.2673C88.1393 45.7582 88.267 45.2901 88.6581 44.9963C88.827 44.8659 88.9575 44.9484 88.9551 45.1535C88.9638 45.6302 88.6948 46.0697 88.4294 46.5031C88.4065 46.5405 88.3837 46.5778 88.361 46.6152ZM77.5023 33.7431C77.5243 33.6653 77.5636 33.5561 77.6233 33.5199V33.5207L77.6375 33.5137C77.687 33.4924 77.7459 33.5262 77.7899 33.56C77.8235 33.5913 77.8847 33.643 77.9609 33.7072C78.2789 33.9754 78.8578 34.4636 78.7753 34.6107C78.6956 34.6978 78.5785 34.7273 78.465 34.756C78.4576 34.7578 78.4503 34.7597 78.4429 34.7616C77.665 34.947 77.3019 34.4276 77.5023 33.7431ZM82.5874 50.164C82.3878 50.6701 81.4653 51.1337 80.8775 51.1542L80.8767 51.1549L80.872 51.151C80.846 51.1299 80.9259 51.0567 81.0392 50.953C81.0733 50.9218 81.1104 50.8878 81.1486 50.8516C81.4048 50.6166 81.7623 50.3039 82.0562 50.1003C82.3195 49.9039 82.7289 49.72 82.5874 50.164ZM59.8591 23.0883C59.903 23.1252 59.9553 23.1691 59.9616 23.2223V23.2412C59.9376 23.3216 59.8819 23.3525 59.8202 23.3868C59.8011 23.3974 59.7815 23.4083 59.762 23.4211C59.0021 23.8416 58.7946 23.3174 59.1105 22.6958C59.1585 22.5952 59.23 22.5874 59.307 22.6487C59.4203 22.7365 59.543 22.8349 59.6848 22.9487C59.7397 22.9927 59.7975 23.039 59.8586 23.0879L59.8591 23.0883ZM70.6241 48.7363C70.6832 48.7852 70.7419 48.8339 70.7732 48.909H70.7739L70.7763 48.9247C70.7779 48.9554 70.7598 48.9821 70.7299 49.0065C70.6238 49.0874 70.473 49.188 70.3496 49.2674C69.7445 49.654 69.4883 49.6477 69.8797 49.0843C69.9221 49.0318 69.9622 48.9746 70.0024 48.9171C70.1021 48.7745 70.2028 48.6306 70.3433 48.5562C70.4051 48.54 70.4635 48.5927 70.5346 48.6569C70.5394 48.6613 70.5443 48.6657 70.5492 48.6701C70.5727 48.6937 70.5984 48.715 70.6241 48.7363ZM86.2243 32.5604C86.2361 32.5266 86.2557 32.5078 86.2825 32.5031H86.2832L86.2974 32.5015C86.6796 32.6383 86.7425 33.0074 86.8036 33.3655C86.838 33.5669 86.8717 33.7649 86.9614 33.916C86.9674 33.9271 86.9741 33.9391 86.981 33.9515C87.0006 33.9865 87.0217 34.0243 87.0322 34.0527C87.0824 34.1714 86.9449 34.162 86.8648 34.147C86.4467 34.0724 86.2447 33.7415 86.2102 33.1121C86.2093 33.0822 86.2082 33.0507 86.2069 33.0184C86.2011 32.8638 86.1944 32.6884 86.2243 32.5604ZM79.1786 36.3878C79.2192 36.4197 79.2655 36.4562 79.2767 36.4983L79.2759 36.4991L79.2775 36.5148C79.2655 36.5782 79.2012 36.6084 79.1434 36.6354C79.1253 36.6439 79.1078 36.6521 79.0928 36.6609C78.6535 36.8723 78.5341 36.76 78.208 36.4016C78.1969 36.3892 78.1855 36.377 78.1741 36.3647C78.1297 36.3168 78.0849 36.2685 78.0555 36.2122C78.0272 36.1132 78.0689 36.0676 78.1624 36.0307C78.5182 35.8864 78.739 36.0541 79.0552 36.2942C79.0903 36.3208 79.1266 36.3484 79.1643 36.3765C79.169 36.3802 79.1738 36.3839 79.1786 36.3878ZM75.9019 33.2846C75.9139 33.2651 75.9217 33.2524 75.9573 33.2331H75.9581L75.9723 33.2308C76.0439 33.2623 76.0846 33.3293 76.1249 33.3956C76.1398 33.4202 76.1547 33.4447 76.1711 33.4673C76.4037 33.8272 76.4697 33.9718 76.2316 34.3097C76.1876 34.3718 76.1412 34.4362 76.0658 34.4535C76.0273 34.4394 75.9825 34.4229 75.9589 34.3875C75.8497 34.2327 75.7106 34.026 75.7011 33.8516C75.6846 33.7188 75.7884 33.4807 75.8866 33.3078C75.8931 33.2989 75.8977 33.2913 75.9019 33.2846ZM112.937 37.5379C112.734 37.8106 112.019 37.5678 111.909 37.3124L111.908 37.2951C111.992 37.0193 112.447 36.8668 112.716 36.9674C112.933 37.0311 113.051 37.3745 112.937 37.5379ZM84.7784 30.9445C84.954 31.0979 85.1413 31.2615 85.1288 31.4901L85.1202 31.5043C85.0888 31.5451 85.0133 31.5546 84.9567 31.5561C84.4593 31.5726 84.0035 31.1444 84.1701 30.6949C84.2574 30.451 84.4271 30.6144 84.5548 30.7373C84.5777 30.7594 84.5993 30.7801 84.6188 30.797C84.6661 30.8463 84.7216 30.8949 84.7784 30.9445ZM76.4013 49.3569C76.3188 49.4497 76.1797 49.4041 76.1491 49.2878L76.1459 49.2721C76.1365 49.2073 76.1942 49.131 76.265 49.0374C76.2887 49.006 76.3138 48.9728 76.3385 48.9373C76.4516 48.7849 76.5719 48.6245 76.7015 48.4776C76.7193 48.4596 76.7384 48.4393 76.7588 48.4178C76.9122 48.2556 77.1322 48.0231 77.316 48.1452C77.4842 48.3244 76.685 49.0945 76.4013 49.3569ZM34.8006 34.5502C34.781 34.5871 34.7432 34.6162 34.7087 34.639V34.6398L34.6937 34.6374C34.6639 34.617 34.6332 34.5887 34.6136 34.558C34.5978 34.5336 34.5816 34.5095 34.5656 34.4857C34.496 34.3819 34.4295 34.2828 34.4046 34.1722C34.3739 34.0559 34.4729 33.7911 34.6207 33.7078C34.6497 33.6936 34.7134 33.7431 34.7173 33.7494C34.7261 33.7584 34.7352 33.7678 34.7446 33.7773C34.8452 33.88 34.9738 34.0111 34.9853 34.1376C35.0026 34.2311 34.8973 34.4072 34.8006 34.5502ZM49.561 55.1344C49.5422 55.1706 49.5068 55.2012 49.4738 55.224V55.2248L49.4604 55.2224C49.385 55.1562 49.3369 55.0428 49.2979 54.9509C49.2865 54.924 49.2758 54.899 49.2655 54.8775C49.1838 54.6496 49.2404 54.5435 49.3842 54.292C49.3947 54.2776 49.4026 54.2643 49.41 54.2521C49.4318 54.2158 49.4479 54.189 49.5068 54.1702C49.5422 54.1781 49.5791 54.1946 49.6035 54.2229C49.7127 54.3541 49.8148 54.4814 49.8078 54.637C49.8085 54.7471 49.6851 54.9402 49.5824 55.101C49.5751 55.1123 49.568 55.1235 49.561 55.1344ZM82.9717 39.5929C83.0039 39.4962 83.0369 39.3996 83.125 39.3461L83.1446 39.3406C83.2043 39.3281 83.2758 39.3642 83.3316 39.3964C83.7969 39.6699 83.8644 39.9976 83.5611 40.4943C83.5218 40.5579 83.4629 40.6271 83.3953 40.6491C83.3222 40.6758 83.2421 40.6412 83.1831 40.5917C82.8444 40.2899 82.7996 40.0785 82.9717 39.5929Z" fill="#F1F1F1"/>
<path d="M257.857 49.2V49.96H265.897V49.2L264.137 48.12V21H257.537V21.76L259.697 22.88V48.12L257.857 49.2Z" fill="#F1F1F1"/>
<path d="M267.737 49.2V49.96H276.177V49.2L274.177 48.16L268.217 37.72L272.137 33.04L274.937 31.76V31H268.057V31.76L270.057 32.92L264.457 39.88L269.217 48.2L267.737 49.2Z" fill="#F1F1F1"/>
<path fill-rule="evenodd" clip-rule="evenodd" d="M275.713 40.24C275.713 47.28 278.993 50.44 283.833 50.44C286.953 50.44 288.873 48.8 290.193 46.32L290.073 45.08H289.513C287.993 47.2 286.513 48.24 284.633 48.24C282.753 48.24 281.433 46.96 280.873 44.96C280.633 44.12 280.393 42.52 280.393 40.6V39.8L290.353 40.04V38.96C290.353 33.64 287.833 30.48 283.593 30.48C279.073 30.48 275.713 34.4 275.713 40.24ZM285.913 38.28L280.433 38.56C280.433 37.64 280.593 35.84 280.793 34.76C281.153 33.24 281.873 31.84 283.313 31.84C284.873 31.84 285.473 33.2 285.713 34.8C285.833 35.8 285.913 37.4 285.913 38.28Z" fill="#F1F1F1"/>
<path fill-rule="evenodd" clip-rule="evenodd" d="M245.828 50.4C243.308 50.4 241.028 49.2 241.028 45.32C241.028 39.84 246.148 38.44 250.628 38.44V35.04C250.628 33.24 249.668 31.92 247.868 31.92C246.388 32.08 245.068 33.12 244.268 34.44L243.268 37.2H242.388V32.12C243.388 31.48 245.828 30.44 248.428 30.44C253.308 30.44 255.068 32.56 255.068 34.8V48.12L256.868 49.2V49.96H250.748V47.64C249.588 49.48 247.868 50.4 245.828 50.4ZM247.788 47.96C249.148 47.96 250.188 47.04 250.628 46.2V39.68C247.228 39.8 245.508 41.24 245.508 44.6C245.508 47.12 246.268 48 247.788 47.96Z" fill="#F1F1F1"/>
<path d="M226.623 49C227.943 49.68 230.183 50.4 232.823 50.4C236.903 50.4 239.343 47.52 239.343 44.24C239.343 40.36 237.023 39 233.583 37.92C231.543 37.16 229.863 36.4 229.863 34.36C229.863 32.88 230.903 31.84 232.863 31.84C234.543 32.16 235.583 33.04 236.543 34.44L237.423 36.84H238.223V31.68C237.103 31.08 235.463 30.44 232.943 30.44C229.463 30.44 226.863 32.76 226.863 36.32C226.863 40.12 229.383 41.56 231.863 42.32C234.703 43.28 236.263 44 236.263 46.08C236.263 47.92 234.823 49 232.943 49C231.223 49 229.503 47.68 228.503 46.24L227.503 43.36H226.623V49Z" fill="#F1F1F1"/>
<path fill-rule="evenodd" clip-rule="evenodd" d="M218.091 50.44C213.251 50.44 209.971 47.28 209.971 40.24C209.971 34.4 213.331 30.48 217.851 30.48C222.091 30.48 224.611 33.64 224.611 38.96V40.04L214.651 39.8V40.6C214.651 42.52 214.891 44.12 215.131 44.96C215.691 46.96 217.011 48.24 218.891 48.24C220.771 48.24 222.251 47.2 223.771 45.08H224.331L224.451 46.32C223.131 48.8 221.211 50.44 218.091 50.44ZM214.691 38.56L220.171 38.28C220.171 37.4 220.091 35.8 219.971 34.8C219.731 33.2 219.131 31.84 217.571 31.84C216.131 31.84 215.411 33.24 215.051 34.76C214.851 35.84 214.691 37.64 214.691 38.56Z" fill="#F1F1F1"/>
<path d="M181.18 49.2V49.96H189.22V49.2L187.46 48.12V35.6C188.02 34.52 189.3 33.24 190.7 33.24C192.1 33.24 192.78 34 192.78 35.48V48.12L191.06 49.2V49.96H198.98V49.2L197.22 48.12V35.56C197.82 34.44 199.06 33.24 200.46 33.24C201.86 33.24 202.58 34 202.58 35.48V48.12L200.82 49.2V49.96H208.82V49.2L206.98 48.12V34.88C206.98 32.32 204.9 30.52 202.42 30.52C200.1 30.52 198.62 31.68 197.14 33.88C196.7 32.08 195.02 30.52 192.58 30.52C190.22 30.52 188.82 31.76 187.42 33.88V31H181.1V31.76L183.02 32.84V48.12L181.18 49.2Z" fill="#F1F1F1"/>
<path fill-rule="evenodd" clip-rule="evenodd" d="M169.031 50.4C166.511 50.4 164.231 49.2 164.231 45.32C164.231 39.84 169.351 38.44 173.831 38.44V35.04C173.831 33.24 172.871 31.92 171.071 31.92C169.591 32.08 168.271 33.12 167.471 34.44L166.471 37.2H165.591V32.12C166.591 31.48 169.031 30.44 171.631 30.44C176.511 30.44 178.271 32.56 178.271 34.8V48.12L180.071 49.2V49.96H173.951V47.64C172.791 49.48 171.071 50.4 169.031 50.4ZM170.991 47.96C172.351 47.96 173.391 47.04 173.831 46.2V39.68C170.431 39.8 168.711 41.24 168.711 44.6C168.711 47.12 169.471 48 170.991 47.96Z" fill="#F1F1F1"/>
<path d="M146.36 25.4L158.64 50.2H160.84V24.28L163.44 23.04V22.24H156.48V23.04L159.12 24.28V40.4L150 22.24H142.04V23.04L144.64 24.2V47.92L142 49.16V49.96H149V49.16L146.36 47.92V25.4Z" fill="#F1F1F1"/>
</svg>
