<svg width="308" height="78" viewBox="0 0 308 78" fill="none" xmlns="http://www.w3.org/2000/svg">
<path d="M39.3638 44.469C38.8027 44.4572 39.4534 42.5539 38.5505 43.1315C38.376 43.2722 38.3029 43.7681 38.031 43.5622C37.1823 42.8313 38.6943 39.6644 36.7305 40.7827C36.4075 41.1394 36.7525 41.5496 36.8829 42.0031C36.9458 42.7968 37.2507 43.6926 37.2302 44.4596C37.1862 45.0851 36.2283 45.3146 36.2071 44.5358C36.1992 43.6997 35.2837 43.5716 34.6936 43.9268C34.0885 44.2223 33.723 45.2164 32.9443 44.9067C32.2669 44.1366 34.4358 43.8152 33.8527 43.0977C33.6492 43.0074 33.1706 43.192 32.8233 43.2125C32.3966 43.3083 31.5754 43.0215 31.5431 43.6054C31.6532 43.8089 32.1506 43.5771 32.193 43.8176C32.0791 44.6977 30.9286 44.3409 30.2559 44.1225C29.4669 43.9268 29.0182 43.1362 28.2662 42.8958C27.4827 42.7685 26.7849 42.3473 26.1334 41.8828C25.834 41.6235 25.8827 41.1881 25.5417 40.9956C24.8651 40.6726 23.7115 41.0773 23.2148 40.2561C21.996 39.875 20.5092 39.9984 19.4766 39.0837C18.5469 37.4696 18.6491 36.015 20.9713 36.7104C21.3367 36.4433 20.8164 35.8232 21.7044 35.6197C23.959 35.0468 26.348 34.7804 28.6615 34.9117C29.0426 34.9313 29.1385 35.215 29.4057 35.1993C30.0131 34.6209 29.7373 34.4032 30.586 34.9502C30.7746 34.9674 30.8634 34.6893 30.9443 34.5368C31.3695 33.7093 31.9832 34.7223 32.6213 35.1238C32.7282 35.226 33.2154 35.5309 33.0732 35.1678C32.0822 32.5101 34.1608 35.8319 35.0338 34.9682C35.4865 34.7317 35.4535 34.0244 35.8142 33.8233C36.4436 33.5883 37.5737 34.5014 37.4023 35.1702C37.1823 35.4649 36.6919 35.094 36.4483 35.3612C36.2479 35.556 36.2472 36.0409 36.0169 36.1698C35.7961 36.2751 35.5336 36.0087 35.3293 36.1156C35.1816 36.312 35.3662 36.6366 35.4841 36.8244C36.9222 37.9921 37.5917 34.7906 38.8247 34.4559C39.3764 34.1345 39.2624 33.4909 39.3693 32.9565C39.631 32.1652 39.8628 31.461 39.9563 30.6469C41.6647 27.4611 44.8953 25.1657 48.0119 23.4337C49.5113 22.6518 56.767 19.1705 57.7721 21.1626C57.996 21.7025 57.8616 22.3398 58.0259 22.8978C58.4864 23.8675 59.5371 25.0156 59.1551 26.1865C58.7716 26.581 58.0943 26.1063 57.6919 25.9468C57.2298 25.7118 57.7155 25.2749 57.8577 24.9794C58.0314 24.5543 57.589 24.1559 57.4404 23.6993C57.1261 22.3783 55.7289 22.875 54.7521 22.9536C52.4181 22.3335 51.8374 23.231 52.4331 25.4792C51.9726 27.4745 51.2441 24.2022 50.705 23.9028C49.7337 23.1217 49.3298 24.5512 48.5589 24.8246C47.9727 24.8608 45.9028 25.8242 47.2379 26.1118C48.7569 25.3174 49.208 26.2824 47.6528 26.8301C46.8701 27.1201 45.8336 25.9374 45.2984 26.5456C45.4203 26.9456 45.359 27.3409 44.9464 27.5719C43.693 28.5039 42.3547 29.3495 41.0848 30.2744C39.2412 31.9451 43.7653 29.3298 44.17 29.1577C47.898 27.311 52.0779 26.6273 56.2004 27.2497C57.6369 27.4485 59.5779 27.1397 60.1972 28.7892C60.939 30.0277 60.5036 31.3267 60.7457 32.6327C60.8895 33.4256 60.6514 34.2115 60.7449 35.0193C60.7999 35.7234 61.0781 36.4543 60.8502 37.1238C60.3551 38.1784 59.5095 38.9619 61.0938 39.6267C62.5059 39.2259 61.2502 34.2083 61.8474 32.6759C61.6345 31.4579 60.3457 27.5515 62.9327 28.7868C64.3118 29.6261 65.8025 30.0599 67.2815 30.7373C68.2936 31.2284 67.7915 32.2799 67.6587 33.219C67.6587 34.8794 68.5318 31.8579 69.0748 31.9671C71.0362 31.7801 72.2802 35.0067 74.002 35.1458C74.2244 34.1942 73.8707 33.0209 74.1364 32.0158C74.189 30.8654 74.3336 29.4084 73.5808 28.4269C72.1938 27.7385 70.3549 28.2847 70.6449 25.9044C70.2944 24.6879 71.2248 22.6471 69.496 22.273C68.9789 22.8105 69.9848 23.6883 70.0162 24.3657C70.1616 25.2867 70.4256 26.4081 69.1447 25.8344C68.5443 25.6773 68.516 26.3507 68.3109 26.7201C67.7891 27.2827 67.661 25.2608 66.8917 25.0651C66.1153 24.5732 65.6328 24.739 66.0862 25.6168C66.3864 26.6706 66.8131 27.9373 66.6567 29.0352C66.241 29.4831 65.5424 28.768 64.9908 28.7931C64.2034 28.6532 63.5197 28.1786 62.7959 27.8116C62.1185 27.5609 61.8081 27.0218 61.6455 26.3382C61.339 25.9091 61.1551 25.2317 61.8726 25.3299C62.4517 25.5248 63.1535 27.913 64.0965 27.0069C64.3267 26.7075 64.1358 25.939 64.568 25.8926C64.968 26.1048 64.8195 26.8152 64.8878 27.2489C64.924 27.634 65.1574 27.9625 65.4387 27.6709C65.8827 27.0352 65.6029 26.2706 65.3994 25.5209C65.0426 24.5457 63.8089 20.9363 63.592 23.715C63.4584 24.4034 62.7158 24.2172 62.1358 24.1795C61.0537 24.2879 60.5437 23.242 60.1288 22.4176C58.6553 19.6161 62.6026 20.1049 64.3566 20.3226C65.3483 20.3257 65.8662 20.9214 66.0147 21.866C66.1294 22.2439 67.1448 24.5024 67.4009 23.2891C67.3907 22.8538 66.821 22.1276 67.5801 22.1929C67.6964 22.1685 67.9164 22.2353 67.9337 22.0899C67.8096 21.6058 66.5475 20.9387 67.775 20.9214C71.0857 20.8774 73.991 23.6011 77.0031 24.5763C78.3374 23.7913 79.4431 25.2969 80.3971 26.0773C80.724 26.1535 84.6391 30.5196 82.9873 29.8854C82.68 29.6701 82.4717 29.3204 82.1881 29.0737C81.8258 28.7554 81.3873 28.6619 81.1688 28.3185C81.091 28.214 81.0093 28.0293 80.8616 28.0756C79.5374 29.4076 83.043 31.1734 83.7534 31.8178C87.2489 34.2759 85.6112 37.0617 87.8186 37.5175C88.0386 37.4703 88.0496 37.1584 88.0614 36.947C88.1054 34.9816 88.0677 32.5832 86.1393 31.6661C85.5177 31.3966 85.5302 30.6736 85.1672 30.1903C85.0131 29.8406 82.3358 28.2281 84.0544 28.6053C86.3616 29.6772 88.1196 31.8681 89.061 34.1793C89.215 34.6162 89.7407 37.0091 89.9294 35.4224C89.8751 33.1333 92.5431 33.6205 94.0118 34.0795C95.3736 34.3136 96.7984 34.5572 98.1076 35.0798C99.5716 35.4837 101.117 35.0861 102.61 35.1136C104.784 35.1105 106.973 35.2511 108.939 34.437C113.662 31.8076 117.652 28.0285 122.077 24.9323C122.918 24.3728 123.689 23.7873 124.646 23.4455C126.018 22.9889 125.841 24.4521 124.946 25.0478C123.09 26.3492 121.45 27.902 119.668 29.2741C118.631 29.8076 117.409 29.9617 116.489 30.7695C115.033 31.7086 113.568 32.6602 112.132 33.6331C111.315 34.1022 111.533 34.5596 111.503 35.2307C111.274 35.4853 110.71 35.0838 110.36 35.2559C109.648 35.7431 110.986 36.1965 111.203 36.4904C111.384 36.7427 111.156 37.0491 111.34 37.3925C112.223 38.7387 113.488 38.4456 114.169 37.0821C114.589 36.569 115.159 36.1745 115.399 35.5309C115.769 34.4739 115.729 33.5011 116.626 32.6312C117.103 32.1424 117.613 31.5003 118.273 31.3164C119.108 31.2182 118.788 32.1502 118.408 32.6178C115.171 36.081 117.006 36.2429 117.486 40.0903C117.509 41.0577 117.297 42.0078 117.233 42.9665C117.256 43.9488 117.008 44.649 116.044 43.8372C115.354 43.2871 115.057 42.3567 114.569 41.6589C114.271 41.2848 113.774 41.5693 113.376 41.4781C112.696 41.2141 111.685 41.2133 111.182 41.8207C110.993 42.0926 110.966 42.517 110.593 42.6137C109.056 42.7803 109.51 43.2643 110.617 43.7201C115.529 45.089 120.57 46.1044 125.388 47.8253C126.774 48.3809 134.133 49.4096 130.304 50.865C124.502 48.8516 118.391 47.6422 112.612 45.4552C111.561 45.2187 110.975 44.6757 110.48 45.8772C110.11 46.1562 107.506 46.2505 107.279 45.6729C107.323 45.1991 108.131 45.2769 108.353 45.1016C108.596 44.3472 106.982 44.7653 106.575 44.8116C104.979 44.5853 106.077 45.0042 105.23 45.6533C104.663 45.959 104.016 45.5079 103.425 45.6831C102.822 45.8843 102.419 46.5169 101.733 46.5098C100.972 46.4933 99.6895 46.6442 99.548 45.6816C99.4199 45.515 99.269 45.6328 99.1983 45.8167C98.9924 47.5165 97.0074 46.7165 95.8687 47.0584C94.2483 46.821 94.191 47.8803 93.7587 46.4713C93.0648 46.5287 92.591 47.6556 91.7918 47.5998C91.2535 47.724 90.7867 47.0426 90.3105 47.2108C90.147 47.3365 90.1101 47.7499 89.8358 47.9204C89.4492 48.1601 88.283 48.2678 88.5942 47.4937C89.6975 45.2965 90.727 42.1893 90.3325 41.1496C89.7635 40.1068 88.0575 44.5303 87.9349 45.0348C87.0383 46.8462 85.6426 48.3393 84.6422 50.0901C84.0646 51.9856 86.8984 47.9731 87.2119 47.8733C87.6614 47.4686 87.9412 47.7263 87.8249 48.1695C87.542 49.7208 85.285 51.4339 83.5845 52.5459C81.8219 53.4637 80.0891 55.2932 78.0545 55.389C77.6286 55.3474 77.3811 54.9505 77.7324 54.7006C78.2494 54.4028 78.9928 54.4107 79.1767 53.7419C79.77 53.4197 80.0443 54.6865 81.2671 53.2421C81.693 52.6952 80.8286 53.1077 80.6305 52.9844C80.5174 52.1671 83.0863 50.7157 83.6536 49.8976C86.7695 46.645 88.1706 43.4466 88.1706 38.921C88.0284 38.1949 87.905 38.5815 87.9129 39.0617C87.7667 41.6958 86.8489 44.7213 85.0847 46.6843C83.9043 47.3876 86.0402 43.8136 86.0583 43.4019C86.6367 42.4156 88.0567 35.8169 85.7416 39.6086C85.054 41.6086 84.364 43.6054 83.667 45.5983C83.3008 46.5271 84.0159 48.091 83.0831 48.6654C81.9767 48.5703 81.3464 49.3216 80.7288 50.131C80.0647 50.6669 79.3323 51.1086 78.6864 51.6587C77.9885 51.8936 77.7622 50.7392 76.8671 51.4999C75.9972 52.0932 76.0294 52.4759 76.5489 53.1981C76.3784 53.8386 75.3285 54.2826 74.6974 54.2582C72.6425 53.7741 70.9388 55.5116 69.0693 56.1026C68.3793 56.3533 68.4485 56.6165 69.1887 56.5238C70.9671 56.2668 72.7509 55.8849 74.5316 55.5792C75.143 55.444 75.6617 54.6268 76.2919 55.0283C76.8381 55.3576 76.853 55.9957 76.1277 56.0161C74.5631 56.3085 73.0095 56.567 71.4252 56.754C70.4107 56.8232 69.3797 57.1572 68.362 57.0699C67.863 56.9819 67.4677 56.6071 66.9954 56.4059C66.476 56.1796 66.6473 55.9501 67.1809 55.8032C68.6268 55.3812 70.3518 55.3678 71.0629 53.9879C72.3344 54.2535 72.9309 53.0072 73.9383 52.5553C76.1528 52.3156 75.0676 50.7204 76.8836 49.8339C77.6608 49.3334 78.0876 50.5381 78.7838 50.4823C79.8219 50.2504 80.9912 48.3691 79.5091 47.8371C78.9842 47.9409 78.64 49.6446 78.2612 48.2458C78.3319 46.836 80.148 45.8112 79.7158 44.2301C79.7182 43.2392 80.7138 44.1083 80.9692 42.2985C81.8407 39.3964 79.6663 43.1095 80.8309 37.7933C81.025 35.9985 80.8985 34.1455 80.6423 32.3758C80.3924 30.3844 80.4993 27.1955 78.8255 25.572C77.5155 24.3838 77.888 26.2894 76.3501 25.5539C74.8106 25.0242 73.4401 24.1174 72.0295 23.3198C70.3321 23.0589 72.0083 24.4993 72.6063 24.7814C73.87 25.3952 74.8035 26.4285 75.9524 27.201C77.0259 27.8721 78.2801 28.1982 78.9425 29.3794C80.6565 33.5828 78.1944 33.1545 75.6931 30.8944C74.3022 30.3106 74.8122 32.4371 74.8428 33.1514C74.956 34.1612 74.6707 35.2527 74.8805 36.2704C75.5186 38.5304 79.1005 38.943 79.3983 41.4294C79.2419 46.1059 74.7438 43.0113 73.547 40.6522C71.7812 38.5265 71.0425 42.9217 71.6806 42.4502C72.7761 40.6687 72.8994 42.7009 72.8649 43.6745C72.7423 44.2388 72.9246 44.8124 73.5847 44.7999C74.9913 44.9743 75.5941 47.4128 75.4141 48.4611C75.1619 49.2996 74.2943 49.8072 73.5352 50.1899C71.4535 51.2815 71.1062 48.788 71.8975 47.4764C71.9745 47.1314 71.3419 47.2257 71.1274 47.0764C70.3478 46.9617 69.9659 45.0034 69.2791 45.834C68.74 46.6867 67.7318 47.8748 68.1498 48.8045C68.3604 49.0748 68.7054 49.2611 68.7204 49.6391C68.7369 50.41 67.6846 51.9337 69.2783 51.5816C69.6249 51.5926 70.2221 51.3286 70.3431 51.7152C69.8064 52.9789 68.4249 53.4236 67.1738 53.5022C66.7463 53.525 66.6167 54.2967 66.2088 54.1443C65.8151 53.4567 66.0933 52.1113 64.8493 52.9797C64.3621 53.584 64.4148 54.7446 64.4485 55.488C64.5146 55.7945 64.7676 56.1246 64.5295 56.4122C59.9512 60.7178 52.3238 60.5968 47.3872 56.8098C43.3527 54.589 39.5155 50.0642 38.2455 45.6462C38.2125 44.3111 39.022 45.4631 39.4487 45.8152C39.8133 46.0273 39.965 45.6698 39.8479 45.3625C39.7826 45.1841 39.6789 44.9044 39.8942 44.8336C40.2966 44.7747 41.5115 44.7826 41.286 44.0172C41.1186 43.8969 40.8718 44.0455 40.6832 44.0769C40.1669 44.1413 39.7834 44.1987 39.3764 44.4682L39.3662 44.4698L39.3638 44.469ZM48.265 32.485C48.4009 32.6697 48.3522 32.9612 48.4559 33.1608C48.6076 33.4948 49.0013 33.4759 48.9785 33.1954C48.8999 32.7663 48.4732 32.4873 48.3239 32.0779C48.1801 31.7604 48.0552 31.4744 48.0866 31.1459C48.129 30.8088 48.3011 30.2493 47.7298 30.4654C47.1224 30.7208 47.1059 31.4956 47.5074 31.9396C47.6984 32.1934 48.0717 32.2697 48.2532 32.4701L48.2658 32.4858L48.265 32.485ZM65.2745 41.6997C65.4308 41.7728 65.6359 42.0966 65.8803 42.0345C66.0862 41.9991 66.2332 41.6927 66.0069 41.5732C65.6752 41.4467 65.3444 41.4655 65.2603 41.0208C65.1715 40.4125 65.0741 39.919 64.4218 39.8813C64.0407 39.8538 63.4207 39.8585 63.6627 40.4133C63.9362 41.1316 64.2395 42.1775 63.6619 42.7983C63.3358 43.1857 62.8454 43.1103 62.4187 43.005C61.9684 42.9233 61.5205 43.3767 61.5127 43.8073C61.5087 44.2608 61.9582 44.3134 62.3197 44.1814C62.656 44.0769 63.4977 43.7508 63.456 44.3684C63.368 44.7881 62.6018 45.2454 62.9185 45.7554C63.0922 46.0548 63.3743 46.1169 63.4882 45.7334C63.7586 44.9712 64.557 41.6117 65.2627 41.6934L65.2752 41.6989L65.2745 41.6997ZM60.0282 41.6848C59.695 41.7956 58.6318 40.752 58.4298 40.484C58.0888 40.0864 58.3025 39.7556 58.6491 39.4609C59.0993 39.0357 59.3264 38.5006 59.0545 37.9175C58.8447 37.402 58.2051 36.8873 57.6526 37.0546C57.4939 37.1073 57.4263 37.2204 57.4931 37.2935C57.5473 37.3635 57.7061 37.3784 57.8577 37.4146C58.1768 37.4735 58.275 37.7721 58.1571 38.0472C57.7925 39.046 55.5466 37.3768 55.7344 38.3418C55.8758 38.9485 56.308 39.4404 56.6357 39.9654C56.8573 40.2939 56.5807 40.6373 56.6295 40.9854C56.6703 41.2384 56.8401 41.6054 57.0475 41.6188C57.3045 41.4852 57.1945 41.0278 57.3721 40.8274C57.5182 40.6247 57.8051 40.7756 57.9654 40.9068C58.455 41.2903 58.7088 41.772 58.9602 42.3716C59.0027 42.4691 59.0546 42.5744 59.1158 42.6537C59.4687 43.1103 59.8074 42.4887 60.0471 42.2482C60.5099 41.7893 61.0404 42.7763 61.4977 42.4007C61.8066 42.0589 61.8278 41.7854 62.3771 41.93C62.8344 42.0683 63.5495 42.1084 63.1433 41.453C62.7001 40.8047 61.7492 40.5744 60.9374 40.4801C60.7606 40.462 60.5421 40.4455 60.4015 40.5532C60.1099 40.7269 60.3245 41.464 60.0423 41.6785L60.0298 41.6848H60.0282ZM55.6204 58.8184C55.6519 58.6888 55.5277 58.5748 55.4216 58.4813C54.9713 58.046 54.2853 58.1269 53.7643 57.8314C53.1851 57.4236 53.9521 56.8868 54.1643 56.4782C54.9391 55.2405 53.8484 55.015 52.8252 55.1124C52.1384 55.1321 51.8743 55.9226 51.3761 56.2723C51.0249 56.5206 50.5754 56.5497 50.8614 55.947C51.0194 55.5706 51.2394 55.1391 51.2645 54.7368C51.2826 54.0814 50.6759 53.5753 50.1007 53.3734C49.762 53.2233 49.1121 53.1659 48.9196 52.9286C48.7923 52.7431 48.955 52.5357 49.0548 52.3691C49.2096 52.1364 49.3298 51.8787 49.3644 51.5981C49.4233 50.696 48.786 51.6469 48.5447 51.8425C48.1149 52.2527 47.3086 52.0712 47.0666 52.6732C46.9432 52.916 46.8953 53.2366 46.7491 53.459C46.5024 53.8323 46.0379 53.5525 45.814 53.2924C45.4572 52.9089 45.3621 52.3549 44.9896 51.9738C44.7916 51.7632 44.2061 51.4033 43.9672 51.6154C43.825 51.8748 44.8104 52.6158 45.0572 53.0032C45.2482 53.2798 45.0281 53.591 44.9653 53.8629C44.9165 54.116 45.2254 54.123 45.4077 54.1419C45.7377 54.1631 46.0521 54.3164 46.4159 54.3816C46.7813 54.4704 47.1742 54.3784 47.3016 54.6723C47.3636 54.8232 47.3047 55.0519 47.4894 55.1234C47.6819 55.1902 47.9789 55.1399 48.2005 55.1721C48.5534 55.2083 48.9023 55.3592 49.1577 55.6091C49.4618 55.8983 49.5868 56.2912 49.916 56.6C50.6484 57.3128 51.3651 57.0039 52.114 56.4381C52.3977 56.2409 52.661 56.2943 52.4779 56.7454C52.4181 56.8931 52.3223 57.0361 52.2107 57.1721C51.9741 57.4794 51.5914 57.7167 51.6402 58.0051C51.6755 58.1583 51.8626 58.266 52.0142 58.3399C53.0586 58.8066 53.9851 59.0927 55.0963 59.0062C55.2676 58.9905 55.5324 58.9717 55.6157 58.8279L55.6204 58.8169V58.8184ZM83.4737 32.9911C83.1916 33.0256 83.2513 33.8791 83.0556 34.0747C82.7594 34.3781 82.4662 33.5482 82.4191 33.3235C82.3051 33.0013 82.4882 32.4543 82.416 32.2021C82.3932 32.1353 82.3264 32.1007 82.2596 32.1329C81.9437 32.3365 82.0529 32.8755 82.0725 33.2095C82.1197 33.6433 82.1472 34.0629 82.2604 34.3789C82.4301 34.8653 82.7594 35.2944 82.933 35.7855C83.1381 36.3214 83.0745 36.8134 83.0839 37.3501C83.0792 37.7124 83.2112 38.0935 83.1986 38.4259C83.1908 38.7741 82.8788 38.9894 82.6305 39.189C81.8808 39.7752 82.104 41.2432 81.9083 42.1516C81.836 42.6616 81.6105 43.1378 81.5287 43.6439C81.4454 44.0981 81.66 44.572 81.4902 45.0128C81.3189 45.4607 80.8231 45.6415 80.5205 45.977C80.4097 46.0839 80.3083 46.315 80.4018 46.3841C80.7814 46.59 81.3079 45.9228 81.656 45.7256C81.8124 45.6179 81.983 45.5244 82.1558 45.4442C82.5818 45.2541 83.0289 45.082 83.322 44.7166C84.0112 43.8561 84.298 42.5288 84.5699 41.35C85.0815 39.2628 85.0517 38.877 84.0976 36.921C83.8839 36.426 83.7 35.8987 83.6906 35.3612C83.6796 35.0468 83.7637 34.7073 83.9342 34.4496C84.1448 34.1109 84.4638 33.9435 84.4874 33.5749C84.4536 33.2504 84.0348 33.652 83.8367 33.5026C83.6631 33.3942 83.6442 33.0972 83.4815 32.9934L83.4729 32.9903L83.4737 32.9911ZM66.9554 43.4663C67.0937 43.4741 67.1086 43.7413 67.1149 44.0305C67.0528 45.269 66.4446 46.6254 65.6014 47.5417C64.9515 48.2167 63.7735 48.0807 63.1975 48.9137C62.9413 49.2666 62.8242 49.7593 63.0026 50.1585C63.2383 50.6709 63.6014 51.0756 63.9503 50.4367C64.487 49.5227 65.3546 48.8524 66.0792 48.0729C66.4823 47.6367 66.751 47.0316 67.1746 46.6057C67.665 46.1617 68.127 46.223 68.1058 45.4631C68.1113 45.0089 68.164 44.5437 68.428 44.1696C68.5883 43.9307 68.8209 43.6989 68.7911 43.3932C68.7565 43.0671 68.5215 42.796 68.4422 42.4801C68.3542 42.2035 68.3549 41.875 68.2214 41.7107C68.1231 41.5897 67.9494 41.5701 67.7915 41.5206C67.6108 41.475 67.4607 41.3508 67.3271 41.2235C66.986 40.8793 66.8752 41.365 66.8006 41.7657C66.7008 42.1775 66.6269 42.6309 66.355 42.9641C65.8528 43.3885 65.2281 42.0738 64.9719 43.3767C64.9185 43.6376 64.92 43.9252 65.0348 44.1673C65.1204 44.3598 65.265 44.5036 65.3868 44.6671C65.7538 45.0969 65.3326 45.8521 65.1527 46.4093C65.133 46.4855 65.1291 46.535 65.1424 46.5499C65.1566 46.5672 65.1904 46.5444 65.2383 46.4878C65.3035 46.4108 65.3766 46.2937 65.4332 46.1939C65.8442 45.4301 66.245 44.6545 66.6395 43.8804C66.7165 43.7445 66.8108 43.5166 66.9452 43.4671L66.9538 43.4655L66.9554 43.4663ZM59.5371 57.6947C59.442 57.5375 59.6777 57.3246 59.798 57.2208C60.3425 56.7666 61.0647 56.9088 61.7052 57.0888C62.0282 57.1611 62.3001 56.9859 62.4792 56.7218C62.6223 56.5261 62.7582 56.3124 62.9437 56.1505C63.2179 55.8943 63.5802 55.8 63.7507 55.5823C64.1334 55.055 62.994 55.0661 62.7197 55.1132C62.3221 55.2059 61.9857 55.4935 61.5889 55.6114C60.9508 55.8071 60.4266 56.0994 59.7704 56.2857C59.1206 56.4735 58.4235 56.6354 57.7988 56.8892C57.4774 57.0283 57.2487 57.1375 57.0758 57.3473C56.9351 57.5179 56.9736 57.7638 57.1237 57.7835C57.3163 57.7976 57.4593 57.6004 57.6243 57.5297C57.8451 57.4157 58.0895 57.6232 58.1611 57.8275C58.2491 58.1709 57.6267 58.123 57.3281 58.2966C56.8173 58.5371 56.9359 58.8601 57.4617 58.8954C58.6357 58.9795 59.7579 58.7941 60.8384 58.2801C61.0694 58.1497 61.6384 57.9108 61.4427 57.5878C61.1983 57.3167 60.752 57.3937 60.4353 57.4935C60.0934 57.587 59.7453 57.8008 59.5441 57.7002L59.5363 57.6931L59.5371 57.6947ZM56.7937 51.6233C56.6986 51.7443 56.7395 51.9062 56.778 52.0547C57.163 53.3301 55.7878 53.3356 56.9045 54.7651C57.3171 55.4063 57.6754 55.8338 58.4141 55.2696C59.1064 54.7124 59.2046 53.3655 59.8365 52.8091C60.396 52.2826 60.9516 52.9977 61.5527 52.8429C61.893 52.7588 62.3999 52.2417 62.1932 51.8928C61.926 51.6225 61.4168 51.628 61.0592 51.6972C60.7685 51.764 60.5728 52.0076 60.3237 52.1207C60.1681 52.1977 59.9983 52.2292 59.827 52.2528C58.7567 52.3392 58.6711 53.6963 58.1658 54.3957C57.9434 54.5985 57.7218 54.2645 57.6479 54.0759C57.4428 53.5981 57.8357 53.3231 58.0612 52.7455C58.1964 52.3816 58.3182 51.8253 57.9607 51.562C57.71 51.4033 57.053 51.3734 56.8047 51.6099L56.7937 51.6233ZM60.7543 49.298C60.7897 49.096 60.4195 49.0214 60.2655 48.9703C59.8671 48.8823 59.427 48.777 59.0483 48.9302C58.8542 49.0033 58.6766 49.129 58.4715 49.1628C58.1626 49.2029 57.8279 48.975 57.6966 48.7008C57.5229 48.3668 57.9528 47.9998 57.7666 47.6878C57.6298 47.4261 56.8008 47.4796 56.6994 47.7145C56.6601 47.8159 56.7096 47.9236 56.7245 48.0289C56.833 48.3739 56.3387 48.5365 56.2436 48.7786C56.1532 49.0402 56.3568 49.3192 56.4605 49.5589C56.6625 49.9628 56.8738 50.3542 57.2157 50.5451C57.673 50.7942 58.2192 50.6866 58.7072 50.8681C59.2911 51.0457 59.7241 51.3019 60.04 50.9907C60.1681 50.8587 60.4172 50.5223 60.2443 50.3612C60.0926 50.2874 59.8907 50.3644 59.7233 50.3518C59.493 50.3667 59.207 50.1467 59.3783 49.9361C59.6589 49.5762 60.4612 49.6281 60.7496 49.3098L60.7543 49.2988V49.298ZM67.6186 34.6759C67.5125 34.7207 67.4544 34.9156 67.4253 35.0468C67.2226 35.989 67.243 37.0688 67.3451 38.0071C67.3829 38.3796 67.4591 38.8849 67.3632 39.1795C67.2988 39.4059 67.1314 39.6228 67.1542 39.8672C67.173 40.0691 67.3404 40.2058 67.5055 40.3064C67.8151 40.4762 68.1058 40.7127 68.4406 40.8149C68.9946 40.9147 68.8767 39.9284 69.1117 39.6463C69.426 39.2275 69.7852 40.1721 70.193 39.7626C70.5451 39.42 70.38 38.954 69.9565 38.6302C69.6673 38.3874 69.2634 38.0731 68.898 38.2719C68.4767 38.4935 68.0273 38.7293 68.153 38.0236C68.307 37.0656 68.3856 35.6205 67.9023 34.8653C67.8402 34.7671 67.7349 34.6429 67.6288 34.672L67.6178 34.6759H67.6186ZM50.2972 50.6661C50.2618 50.7196 50.2563 50.8123 50.2649 50.931C50.2917 51.1864 50.3184 51.485 50.3404 51.7475C50.3938 52.4107 50.5919 52.8225 51.1632 53.2924C51.5113 53.5612 52.4016 54.4814 52.8221 54.2268C53.3659 53.8291 53.3454 52.2606 52.9502 51.7475C52.5462 51.217 51.4508 50.8948 50.6917 50.663C50.573 50.6261 50.3671 50.5656 50.3042 50.6567L50.2964 50.6669L50.2972 50.6661ZM54.367 46.7794C54.1611 46.7464 53.9717 47.0159 53.7486 47.0701C53.4397 47.2014 53.0366 46.9311 52.7458 47.0081C52.2625 47.1456 52.8276 48.564 52.8354 48.9569C52.8834 49.2461 52.8794 49.5196 52.8048 49.8151C52.7498 50.0508 52.6547 50.3227 52.6594 50.5561C52.6476 50.9105 52.9871 51.1321 53.2236 50.8265C53.5152 50.4516 53.4138 49.6493 53.7399 49.2288C53.8224 49.1377 53.8877 49.1008 54.0032 49.0795C54.169 49.0473 54.3937 49.1133 54.5234 48.9915C54.6295 48.8839 54.6201 48.7039 54.6114 48.557C54.5776 48.1232 54.5415 47.676 54.5022 47.1982C54.4833 47.0631 54.4896 46.8635 54.378 46.7857L54.367 46.781V46.7794ZM42.2447 50.0658C42.3445 50.028 42.3461 49.8591 42.3885 49.7483C42.5441 49.1793 42.7806 49.5487 43.0156 49.9055C43.1963 50.1797 43.4093 50.5208 43.6568 50.7526C43.9224 50.9986 44.2533 51.1361 44.2116 50.7824C44.1975 50.6881 44.1448 50.5601 44.0985 50.4603C43.6623 49.6501 43.5531 48.7958 43.9154 47.9306C44.0222 47.6367 44.203 47.0442 44.001 46.8375C43.8038 46.737 43.6505 47.0929 43.5712 47.2344C43.2906 47.9071 43.3079 48.0265 42.5952 47.8921C42.0404 47.812 42.0121 48.6905 41.4416 48.5695C41.2089 48.5428 40.9009 48.3904 40.7374 48.4029C40.5033 48.4131 40.6518 48.6858 40.7492 48.7911C41.0691 49.1817 41.5799 49.3672 41.9296 49.7719C42.0207 49.8638 42.1252 50.0304 42.2368 50.0634H42.2455L42.2447 50.0658ZM29.4795 40.0668C29.3184 40.0471 29.1856 39.9002 29.0803 39.7768C28.8084 39.4475 28.4509 39.0483 28.146 38.9737C27.5196 38.8173 27.1424 40.0856 26.9452 40.5438C26.8061 40.9595 27.1974 40.8636 27.6108 40.7992C28.175 40.7551 28.8304 40.4848 29.3852 40.6884C29.4976 40.7355 29.5974 40.8039 29.6964 40.8667C30.1436 41.2039 30.8005 40.6035 31.1337 40.2805C31.404 39.9717 31.0646 39.6558 30.8815 39.3941C30.7062 39.1434 30.2504 38.8094 30.0375 39.1088C29.9683 39.2291 29.9746 39.3666 29.9628 39.5065C29.9557 39.7729 29.7781 40.0723 29.4968 40.0683L29.4787 40.0668H29.4795ZM49.6276 38.3379C50.0268 38.763 51.017 39.644 51.5545 39.0687C51.7675 38.7913 51.9961 38.3277 52.0252 37.9921C51.9789 37.798 51.6692 37.9686 51.5333 37.9882C51.1482 38.099 50.896 38.0212 50.5408 37.791C50.1612 37.5623 49.9695 37.2684 50.1133 36.7882C50.1871 36.3953 50.272 35.9183 50.2304 35.5089C50.2139 35.1183 49.9066 34.9588 49.6363 35.1906C49.5066 35.3061 49.4492 35.5458 49.4037 35.7391C49.3447 35.9851 49.263 36.2947 49.2064 36.5352C49.0217 37.1529 49.2551 37.7973 49.6127 38.3191L49.6276 38.3387V38.3379ZM54.4645 53.2979C54.4189 53.169 54.5627 53.2358 54.6429 53.4567C55.0806 54.7588 54.6546 56.6582 55.9528 57.1336C56.1022 57.1807 56.3741 57.246 56.4346 57.0754C56.4715 56.9395 56.2711 56.6629 56.286 56.4491C56.3261 55.958 56.7198 55.4252 56.4456 54.9332C56.1642 54.3737 55.376 53.958 54.7717 53.5997C54.6554 53.5337 54.5077 53.4079 54.4692 53.3089L54.4645 53.2979ZM23.8899 39.6094C24.1185 39.7453 24.4132 39.5316 24.7386 39.453C24.9555 39.3854 25.1849 39.3375 25.4097 39.3784C25.7075 39.4247 25.9653 39.6534 26.2537 39.743C26.5468 39.8404 26.9295 39.7595 27.1157 39.5033C27.28 39.2856 27.2171 38.9674 27.0073 38.8039C26.4061 38.3544 25.3429 38.9139 24.6443 38.6216C24.047 38.4173 22.7802 37.7878 22.5539 38.6373C22.5704 38.9399 22.9248 38.8644 23.1779 38.8754C23.5849 38.8652 23.6871 39.1473 23.7932 39.4734C23.8231 39.5324 23.8246 39.5473 23.8789 39.6L23.8906 39.6102L23.8899 39.6094ZM44.9275 41.2439C44.955 41.0263 44.6383 40.877 44.4222 40.653C44.3272 40.5595 44.2415 40.4573 44.1645 40.3489C43.6977 39.7461 43.5177 38.7921 42.8286 38.3953C42.6297 38.3096 42.4097 38.4204 42.3673 38.6318C42.2926 39.3108 43.0863 39.7061 43.2443 40.3174C43.3024 40.5689 43.179 40.8251 43.0313 41.0255C42.8985 41.2149 42.7971 41.3925 42.8851 41.5559C43.2906 42.1264 44.0592 41.8184 44.5998 41.5363C44.7209 41.4703 44.8788 41.387 44.9236 41.2589L44.9275 41.2439ZM33.4653 42.172C33.8409 42.1563 34.2079 41.7092 34.523 41.5119C34.8861 41.2164 35.5352 41.0074 35.8723 40.6695C36.4994 39.9402 35.4385 39.4837 34.7737 39.9945C34.5207 40.1815 34.402 40.4919 34.1403 40.6671C33.7639 40.9445 33.2248 40.8644 33.0598 41.2966C32.9333 41.6156 33.0834 42.1681 33.4456 42.172H33.4661H33.4653ZM46.3208 44.5704C46.5692 45.1032 48.5432 43.3217 46.7389 42.7048C46.5998 42.6514 46.4057 42.5956 46.3216 42.4934C46.122 42.2883 46.5558 41.8192 46.2768 41.6997C46.0544 41.6518 45.6953 41.7846 45.5067 41.9253C45.2874 42.0903 45.4148 42.348 45.5515 42.5249C45.8092 42.8746 46.0749 43.1598 46.2116 43.4907C46.3782 43.7995 46.2595 44.2128 46.3138 44.5523L46.32 44.5696L46.3208 44.5704ZM47.2811 50.8343C47.1766 51.0072 46.9982 50.8642 46.7648 50.7369C46.5016 50.5773 46.1778 50.4162 45.9318 50.45C45.6214 50.487 45.4886 50.8563 45.6481 51.1117C45.8572 51.4331 46.2949 51.5573 46.6556 51.6312C47.3157 51.7899 47.9114 51.3231 48.2477 50.7903C48.6343 50.2033 47.9758 49.584 47.5067 50.1656C47.3558 50.3581 47.3558 50.6716 47.289 50.8194L47.2819 50.8335L47.2811 50.8343ZM54.6814 38.4361C55.1199 38.3583 55.7352 37.4201 55.0012 37.2778C54.6208 37.2204 54.2248 37.6432 53.7446 37.8004C53.5293 37.8751 53.2747 37.9159 53.1246 38.0967C52.8598 38.3599 52.7678 40.1673 53.2991 40.0919C53.4507 40.0385 53.5521 39.6652 53.6142 39.4302C53.7321 39.1049 53.7627 38.6444 53.993 38.4141C54.1737 38.2601 54.4267 38.4715 54.6617 38.4393L54.6821 38.4361H54.6814ZM49.1051 49.5518C49.7573 49.5927 50.7718 48.8564 50.2579 48.1798C50.0787 47.9731 49.6386 47.8285 49.2976 47.8906C48.4583 47.977 47.9679 49.4921 49.0783 49.551H49.1058L49.1051 49.5518ZM45.3055 45.4993C45.2749 45.291 44.955 45.0262 44.7822 44.7794C44.4403 44.3433 44.1519 43.8498 43.7213 43.5174C43.3896 43.2549 42.8891 43.1355 43.0431 43.6934C43.2969 44.5437 43.8832 45.3806 44.6266 45.9605C44.9228 46.1853 45.3346 45.8364 45.3087 45.5189L45.3055 45.4993ZM41.1579 41.6683C41.2836 41.6549 41.4392 41.4907 41.5335 41.3626C41.9162 40.8856 42.0852 40.4007 41.6089 40.0927C41.3614 39.9528 41.0258 40.1186 40.8262 39.9324C40.6251 39.743 40.5606 39.4232 40.4121 39.2C40.3587 39.119 40.3044 39.0774 40.2549 39.0845C40.1347 39.1143 40.0931 39.3131 40.0663 39.431C39.9233 40.1776 40.3579 40.862 40.8262 41.4805C40.908 41.5811 41.0125 41.6817 41.1398 41.6714L41.1594 41.6691L41.1579 41.6683ZM66.355 38.0739C66.4972 38.099 66.5546 37.9057 66.5326 37.7745C66.4186 37.0303 65.9055 35.3619 65.1982 35.1678C64.2984 35.0272 64.9813 36.1996 65.2265 36.6036C65.434 36.9454 65.654 37.2629 65.8678 37.5623C66.065 37.8208 66.1499 38.0165 66.3416 38.0723L66.3542 38.0747L66.355 38.0739ZM32.2575 38.7976C32.1278 38.6719 31.8991 38.6585 31.7632 38.7796C31.5856 38.9281 31.7459 39.2621 31.7537 39.6157C31.7592 39.754 31.7459 39.8939 31.7137 40.0282C31.6453 40.3724 31.3875 40.6805 31.2956 41.0043C31.2327 41.2848 31.5423 41.2707 31.727 41.2046C32.3518 41.0035 32.8083 40.5139 33.2358 40.0322C33.7498 39.4774 32.8256 39.6235 32.5726 39.3595C32.4217 39.233 32.428 38.9642 32.2724 38.8118L32.2575 38.7976ZM48.3074 39.3501C48.6736 39.2377 48.0167 38.4393 47.8949 38.1839C47.5805 37.7383 47.2442 37.1254 46.6572 37.0609C46.2234 37.0609 45.9193 37.5969 46.1872 37.9544C46.5204 38.4581 47.1326 38.778 47.6395 39.0774C47.9114 39.2251 48.1345 39.3846 48.2933 39.3524L48.3074 39.3493V39.3501ZM46.8285 48.4886C46.8717 48.3173 46.7617 48.1106 46.6509 47.8434C46.5079 47.5196 46.3279 47.1212 46.0835 46.8745C45.8698 46.6261 45.4981 46.6827 45.4085 47.0057C45.2654 47.5063 45.5303 48.5106 45.7197 49.1118C45.8328 49.3624 46.0277 49.2233 46.2642 49.0693C46.4646 48.9263 46.7585 48.7298 46.8238 48.5082L46.8285 48.4894V48.4886ZM58.3418 46.2529C58.352 46.3692 58.521 46.4108 58.6121 46.447C59.2384 46.6709 59.438 46.1869 59.8828 45.6108C60.172 45.2109 60.6042 44.9099 60.7661 44.4368C60.8895 44.1044 60.84 43.6038 60.3748 43.8993C59.5677 44.4329 59.4357 45.614 58.598 46.0462C58.5115 46.1004 58.3685 46.1609 58.3434 46.2434L58.3418 46.2537V46.2529ZM51.3494 41.3705C50.4952 41.4836 51.2465 42.3363 51.2001 42.8761C51.1608 43.1598 50.797 43.3264 50.7624 43.6038C50.7498 43.7248 50.8315 43.8231 50.9408 43.8506C51.7588 43.9834 52.9934 41.2722 51.3777 41.3689L51.3502 41.3712L51.3494 41.3705ZM60.5995 47.2454C60.5469 47.2855 60.5838 47.4277 60.605 47.5047C60.7747 48.087 61.2297 48.8587 61.7979 48.8815C62.0242 48.8972 62.2403 48.7817 62.3299 48.5664C62.4926 48.142 62.4266 47.4246 62.2867 47.0206C62.2521 46.9538 62.1728 46.9444 62.113 46.9766C61.5229 47.4057 61.5402 47.6493 60.7944 47.2753C60.7433 47.2556 60.649 47.2163 60.6074 47.2399L60.5987 47.2454H60.5995ZM41.4023 35.6527C41.5225 35.6566 41.6647 35.5388 41.796 35.4162C42.2282 35.0162 42.438 34.6005 41.9736 34.3034C41.6113 34.0881 41.1854 33.9726 40.7697 34.0119C40.152 34.0944 40.7272 34.9109 40.963 35.2401C41.1036 35.4256 41.2294 35.6425 41.3826 35.6519H41.403L41.4023 35.6527ZM56.2444 44.8737C56.1454 44.8195 56.1595 44.4462 56.0597 44.216C55.9379 43.9119 55.7171 44.0777 55.6637 44.3346C55.4098 45.3334 57.064 46.2623 57.5442 45.4002C57.8263 44.9468 57.4499 44.0824 56.8636 44.3826C56.6625 44.4855 56.4574 44.8077 56.3245 44.8706C56.3002 44.8824 56.2766 44.8887 56.253 44.8792L56.2436 44.8745L56.2444 44.8737ZM70.681 35.9458C70.5671 35.8437 70.3856 35.8499 70.2339 35.8382C69.5306 35.7973 69.2587 35.7949 69.1196 36.4283C69.0889 36.5981 69.0127 36.8456 69.1086 36.991C69.2029 37.1136 69.4983 37.0554 69.7506 37.0759C69.962 37.0743 70.1624 37.1654 70.362 37.2102C70.5427 37.2472 70.6362 37.0814 70.6606 36.9258C70.7054 36.6963 70.7384 36.4645 70.7525 36.2326C70.7565 36.1383 70.7565 36.033 70.6936 35.96L70.6802 35.9458H70.681ZM55.4538 40.0707C55.358 40.6341 55.5041 41.2934 55.457 41.8765C55.4688 42.2427 55.277 42.6019 55.2935 42.961C55.3674 43.3303 55.8923 43.2439 56.1124 43.0592C56.7678 42.5461 56.0251 40.9626 55.6149 40.2263C55.5772 40.1658 55.5151 40.033 55.4578 40.066L55.4531 40.0715L55.4538 40.0707ZM106.243 40.3371C106.733 40.8235 109.399 40.7913 109.205 39.9497C108.941 39.442 107.289 39.9662 106.822 40.084C106.518 40.1799 106.245 40.2506 106.243 40.33V40.3379V40.3371ZM38.7838 35.9529C38.6817 35.9828 38.6353 36.1596 38.596 36.2617C38.3155 37.0845 38.3784 37.6786 38.908 38.2837C38.9693 38.3505 39.062 38.4346 39.1445 38.4189C39.2664 38.3858 39.286 38.2043 39.3049 38.088C39.3952 37.358 39.231 36.8763 38.9536 36.1588C38.9198 36.0818 38.8703 35.9623 38.7972 35.9521H38.7846L38.7838 35.9529ZM66.4603 50.8988C66.4422 50.8469 66.1648 50.8988 65.8686 50.9538C65.2823 51.0819 64.5782 51.2492 64.091 51.6312C63.7688 51.8598 63.7861 52.3368 64.1876 52.4547C64.8847 52.538 65.6084 51.7121 66.0972 51.2948C66.2874 51.1101 66.4744 50.9545 66.4619 50.9043L66.4603 50.8988ZM33.9949 37.3037C35.2782 37.3281 34.4932 36.0409 33.8284 35.6881C33.6955 35.6087 33.5871 35.703 33.558 35.8413C33.4071 36.4338 33.3058 37.2291 33.9698 37.3014L33.9957 37.3037H33.9949ZM62.1877 21.1956C62.201 21.2459 62.3386 21.2797 62.4061 21.3072C63.1645 21.561 63.9165 22.0058 64.8729 21.7952C65.0183 21.7669 65.2941 21.6648 65.0945 21.517C64.2544 21.0675 63.3169 21.0243 62.4517 21.1218C62.3716 21.1336 62.2223 21.1453 62.1885 21.1901L62.1869 21.1956H62.1877ZM60.9445 45.0411C60.7221 45.0435 60.7119 45.5 60.6278 45.68C60.5304 45.9912 60.4659 46.2702 60.7386 46.3653C61.0215 46.4525 61.3523 46.4148 61.6148 46.2757C61.8733 46.1264 61.7633 45.8662 61.548 45.5998C61.3901 45.4285 61.159 45.1103 60.9618 45.0427L60.9445 45.0403V45.0411ZM113.378 40.6742C113.437 40.7041 113.523 40.6561 113.581 40.6153C114.15 40.2082 114.279 39.4719 113.893 38.8589C113.827 38.7497 113.7 38.635 113.587 38.7442C113.227 39.2251 113.292 39.8169 113.299 40.4455C113.303 40.521 113.312 40.6263 113.366 40.6663L113.379 40.6742H113.378ZM45.0847 38.8668C45.0022 38.8935 44.9024 38.9799 44.823 39.0499C44.6336 39.2118 44.5275 39.3328 44.7248 39.4585C45.1484 39.7045 45.9145 40.0455 46.3947 40.0157C46.7137 39.9677 46.8646 39.7398 46.5629 39.5135C46.2855 39.2896 45.8713 39.112 45.5413 38.9713C45.3472 38.8927 45.2191 38.8259 45.1028 38.8613L45.0855 38.8668H45.0847ZM62.9704 53.562C62.9429 53.503 62.8336 53.4747 62.7606 53.459C62.0179 53.3128 61.4301 53.5525 61.2423 54.1741C61.2007 54.2999 61.218 54.4586 61.3696 54.4822C61.9661 54.4987 62.3873 54.1128 62.858 53.7474C62.9099 53.7034 62.9869 53.6358 62.9743 53.5745L62.9704 53.562ZM27.214 37.0641C27.2485 37.0971 27.4198 37.079 27.6045 37.0735C28.0053 37.0476 28.4878 37.0507 28.8398 36.8315C29.1047 36.679 29.0308 36.2523 28.7676 36.1211C28.2678 35.9655 27.79 36.4621 27.4434 36.7576C27.3051 36.8951 27.177 37.0185 27.2084 37.0578L27.2132 37.0633L27.214 37.0641ZM32.0995 37.1466C32.1545 36.6444 31.5345 35.9215 30.9883 35.9812C30.7447 36.0008 30.4705 36.2201 30.4909 36.4016C30.5962 36.8142 31.3396 36.9596 31.6924 37.0908C31.8834 37.1442 32.0437 37.2118 32.0924 37.1544L32.0995 37.1458V37.1466ZM54.7937 51.052C55.0876 50.9726 55.3682 50.6991 55.5937 50.5781C55.7933 50.4618 55.6024 50.3188 55.4641 50.2465C54.7702 49.8622 54.3191 49.896 54.4935 50.5255C54.5383 50.6779 54.6059 50.8689 54.6869 50.9954C54.712 51.0284 54.7403 51.0465 54.7757 51.052L54.7937 51.0536V51.052ZM54.2209 36.0527C54.1863 36.015 54.1038 36.0181 54.0456 36.0236C53.5332 36.0731 52.6044 36.4448 52.6052 36.9258C52.6028 37.0436 52.6578 37.1906 52.7828 37.2118C53.16 37.2582 54.2617 36.437 54.2279 36.0621L54.2216 36.0535L54.2209 36.0527ZM24.436 36.6295C23.7861 36.9886 24.7464 37.7132 25.2698 37.5041C25.713 37.3509 25.6548 37.1026 25.2313 36.8833C25.0081 36.7812 24.6804 36.5878 24.4564 36.6232L24.436 36.6295ZM45.3338 37.6307C45.3676 37.5882 45.3338 37.4963 45.3047 37.4421C45.021 36.8959 44.2973 36.7497 43.7826 37.1316C43.7063 37.1882 43.5845 37.3006 43.7056 37.369C44.1621 37.5002 44.6203 37.5474 45.1177 37.6542C45.1853 37.6652 45.278 37.681 45.3244 37.6409L45.3338 37.6307ZM92.7725 35.248C92.9108 35.1168 92.8778 34.9062 92.6931 34.8276C92.2814 34.6052 91.6778 34.2461 91.303 34.426C91.2111 34.4677 91.101 34.558 91.1458 34.6657C91.3839 34.969 91.967 35.0743 92.3269 35.1993C92.5383 35.2527 92.6798 35.3203 92.7592 35.2582L92.7717 35.2488L92.7725 35.248ZM103.63 44.315C103.415 44.3001 103.361 44.6097 103.479 44.7692C103.66 45.0828 104.197 45.3272 104.503 45.1118C104.619 45.0325 104.698 44.9154 104.735 44.7959C104.842 44.2726 103.95 44.3724 103.647 44.3166H103.63L103.63 44.315ZM51.4594 49.1558C51.696 48.8823 51.7518 47.9149 51.4508 47.6289C51.2504 47.4301 50.8787 47.5126 50.8905 47.7915C50.892 48.1546 51.1011 48.5232 51.2551 48.8414C51.3392 48.9978 51.4021 49.1518 51.4516 49.1558H51.4602H51.4594ZM49.6457 40.2836C49.6795 40.2467 49.663 40.1878 49.6441 40.1414C49.4508 39.7328 49.3149 39.2864 48.7868 39.3202C48.6862 39.3328 48.628 39.3359 48.5495 39.4208C48.5039 39.4774 48.4976 39.5591 48.5086 39.6314C48.5825 40.0943 48.8237 40.286 49.4092 40.3253C49.4807 40.33 49.5868 40.33 49.6339 40.2946L49.6465 40.2836H49.6457ZM88.9243 40.0157C89.2708 39.9127 89.8335 39.7949 90.0111 39.4161C90.0912 39.2463 90.0496 38.9391 89.9262 38.9069C89.5946 38.8888 89.2103 39.5528 89.028 39.7909C88.9478 39.9182 88.874 40.0102 88.9156 40.0149H88.9243V40.0157ZM41.5437 47.1621C41.5288 47.1142 41.4596 47.078 41.4101 47.0497C41.0235 46.8407 40.6628 46.6096 40.3162 46.7692C40.2675 46.792 40.2117 46.8289 40.2101 46.8823C40.2337 47.0026 40.3453 47.0694 40.4325 47.1479C40.8129 47.4741 40.9748 47.6139 41.37 47.3578C41.4439 47.309 41.5233 47.265 41.5461 47.1778L41.5437 47.1629V47.1621ZM81.7692 36.6271C81.6474 36.5501 81.6152 36.793 81.6168 36.8833C81.6309 37.4083 81.5837 37.9521 81.638 38.4691C81.7056 38.6758 81.8226 38.5234 81.8258 38.3803C81.8384 37.8743 81.8274 37.3595 81.8305 36.855C81.8305 36.782 81.8179 36.6861 81.7786 36.6366L81.7692 36.6264V36.6271ZM47.021 48.6772C46.9353 48.7393 46.8049 49.0395 46.7397 49.1786C46.5794 49.5251 46.6092 49.8764 47.0721 49.8402C47.6552 49.8041 47.3526 49.1668 47.1703 48.8705C47.1098 48.7715 47.0642 48.678 47.0289 48.6764H47.0202L47.021 48.6772ZM54.2429 42.9751C54.4857 42.9689 54.5093 42.7771 54.4087 42.5956C54.1729 42.1241 54.088 41.915 53.578 41.9198C53.4162 41.9174 53.2834 41.9787 53.4224 42.139C53.6755 42.4282 53.8908 42.664 54.0849 42.8832C54.1234 42.9249 54.169 42.9634 54.2224 42.9728L54.2421 42.9751H54.2429ZM38.7281 39.3587C38.7469 39.3163 38.7108 39.2613 38.6817 39.222C38.4522 38.9194 38.2267 38.6216 37.9744 38.2923C37.9328 38.2491 37.8998 38.18 37.8401 38.2075C37.7835 38.301 37.8 38.4173 37.7882 38.5249C37.7599 39.1819 37.9925 39.4609 38.534 39.4271C38.5945 39.4239 38.6895 39.4122 38.7194 39.3705L38.7265 39.3579L38.7281 39.3587ZM43.3582 34.6146C43.469 34.6476 43.7464 34.6012 43.7197 34.4064C43.7087 34.2492 43.6891 34.092 43.6749 33.9349C43.6663 33.8602 43.667 33.769 43.6073 33.7227C43.539 33.6685 43.3896 33.7133 43.2663 33.725C43.1963 33.7376 43.0989 33.736 43.0541 33.7981C43.0117 33.8854 43.084 33.9836 43.113 34.085C43.1853 34.239 43.2333 34.5038 43.3417 34.606L43.3574 34.6146H43.3582ZM58.2546 43.4844C58.2443 43.4074 58.1901 43.3594 58.1304 43.3131C57.8381 43.0671 57.7218 43.1158 57.4263 43.3468C57.3524 43.4168 57.1937 43.4859 57.2039 43.5967C57.2149 43.647 57.2668 43.6918 57.3116 43.7233C57.5905 43.9134 57.7587 43.8042 58.0998 43.6156C58.1524 43.585 58.2223 43.5496 58.2483 43.5017L58.2546 43.4844ZM34.3274 39.5395C34.402 39.5945 34.5631 39.7045 34.6519 39.6778C34.7038 39.6518 34.7108 39.5583 34.7093 39.4962C34.6959 38.8212 33.9329 38.4471 34.083 39.0389C34.1317 39.2125 34.1993 39.3886 34.3109 39.5237L34.3274 39.5395ZM54.2232 28.6839C54.1981 28.5542 54.0354 28.4143 53.96 28.302C53.916 28.2462 53.8767 28.1975 53.8319 28.2085C53.7989 28.225 53.7659 28.2501 53.7446 28.2808C53.6551 28.4143 53.5686 28.5495 53.5592 28.6957C53.5482 28.8088 53.6307 28.988 53.7258 29.142C53.7454 29.1727 53.7761 29.2002 53.8075 29.2175C53.8814 29.2261 53.9128 29.1405 53.9662 29.0847C54.0425 28.9707 54.2036 28.8356 54.2232 28.7067V28.6839ZM22.4337 36.4165C22.3308 36.4708 22.271 36.6751 22.3512 36.7568C22.4007 36.8134 22.4926 36.855 22.5689 36.9022C22.7496 37.0067 22.9319 37.1199 23.1111 37.2181C23.1488 37.2354 23.1834 37.2417 23.2109 37.2315C23.2635 37.2126 23.2824 37.1364 23.2848 37.079C23.302 36.7097 22.9893 36.6209 22.6231 36.4535C22.5689 36.4291 22.506 36.4016 22.4526 36.411L22.4337 36.4165ZM95.8876 46.4761C95.9968 46.5318 96.2561 46.5444 96.2986 46.4045C96.3402 46.2505 96.3504 46.0886 96.3787 45.9315C96.3858 45.8757 96.3952 45.8152 96.3583 45.7751C96.2514 45.7067 96.1021 45.7696 95.9787 45.7664C95.897 45.7727 95.8294 45.7908 95.8027 45.8395C95.7587 45.9307 95.8003 46.0407 95.8058 46.146C95.8271 46.2537 95.809 46.3763 95.875 46.4643L95.8884 46.4761H95.8876ZM84.1094 51.0724C84.1039 50.9341 83.9216 50.843 83.8116 50.9459C83.535 51.1895 83.2702 51.4583 83.003 51.7113C82.812 51.8669 82.9849 52.1498 83.1963 51.9989C83.476 51.7585 83.7417 51.4905 84.0128 51.2422C84.056 51.2005 84.1024 51.1479 84.1086 51.0921V51.0732L84.1094 51.0724ZM54.6672 44.9138C54.7647 44.8659 54.888 44.6828 54.8315 44.5735C54.8087 44.5295 54.7576 44.4902 54.7041 44.4509C54.5116 44.3331 54.3395 44.1272 54.1234 44.0659C54.0464 44.0659 53.9945 44.1539 53.9545 44.2183C53.879 44.3221 53.8366 44.4486 53.9662 44.528C54.0818 44.6058 54.2099 44.6812 54.3293 44.7574C54.4417 44.8211 54.5643 44.9264 54.6484 44.9177L54.6664 44.9138H54.6672ZM69.5683 40.3748C69.5549 40.3787 69.5439 40.3905 69.5353 40.4078C69.4968 40.5147 69.4755 40.675 69.4457 40.7944C69.4221 40.9414 69.3647 41.0923 69.3647 41.24C69.3695 41.2675 69.3828 41.2887 69.4056 41.3021C69.6296 41.3705 69.8779 41.1764 69.8991 41.0019C69.9463 40.8267 69.8103 40.4762 69.5824 40.374L69.5683 40.3756V40.3748ZM109.176 41.8734C109.248 41.9072 109.465 41.8954 109.513 41.8113C109.576 41.6392 109.542 41.3862 109.504 41.2251C109.465 41.1206 109.379 41.0632 109.2 41.0443C109.137 41.0365 109.076 41.0388 109.03 41.0852C108.997 41.1402 109.035 41.2494 109.046 41.3398C109.086 41.4931 109.083 41.7445 109.163 41.8616L109.176 41.8718V41.8734ZM28.9719 41.629C28.7518 41.772 29.0277 41.9606 29.14 42.0565C29.3019 42.1846 29.4064 42.1995 29.5966 42.1147C29.7168 42.062 29.999 41.9284 29.8442 41.7673C29.7278 41.6809 29.5605 41.6982 29.4198 41.6644C29.2768 41.6526 29.1298 41.5936 28.9899 41.6211L28.9719 41.629ZM72.0452 30.654C71.9659 30.5141 72.039 30.3444 72.1427 30.2336C72.3407 30.0002 72.7124 29.9648 72.8735 29.7864C73.136 29.4666 72.813 29.2018 72.4295 28.9888C71.9989 28.7805 71.1792 28.3688 70.7242 28.5692C70.3596 28.786 70.3423 29.865 70.428 30.6579C70.4846 31.6229 71.0472 32.5989 72.0114 32.9038C72.4075 33.05 72.5977 32.8708 72.611 32.4724C72.6338 32.1094 72.644 31.6795 72.567 31.3526C72.5442 31.2583 72.5144 31.1679 72.468 31.0846C72.3611 30.8819 72.145 30.8206 72.0539 30.6681L72.0452 30.654ZM56.7733 24.849C56.6907 24.6722 56.4464 24.6903 56.1839 24.6596C55.9128 24.6329 55.6597 24.5881 55.4711 24.4309C55.3462 24.3437 55.2346 24.1425 55.0727 24.1732C54.9556 24.2164 54.8857 24.3775 54.8307 24.493C54.5831 25.0557 54.4692 25.5515 54.8802 25.9374C55.0758 26.1323 55.3627 26.2376 55.6322 26.225C55.9748 26.1959 56.2695 26.1951 56.4794 26.5385C56.5564 26.6501 56.6412 26.7971 56.7261 26.8906C57.0271 27.2026 56.9344 26.5849 56.877 26.434C56.767 26.0466 56.6436 25.7016 56.73 25.3323C56.7575 25.1838 56.822 25.0046 56.7795 24.8647L56.7733 24.849ZM69.2484 31.0092C69.3074 30.911 69.2799 30.7491 69.2484 30.6265C68.9671 29.6575 68.7754 28.4639 68.0186 27.8045C67.8229 27.6804 67.8017 27.9405 67.7994 28.0859C67.7813 29.113 68.061 30.9094 68.9396 31.0964C69.0465 31.1216 69.1793 31.1129 69.2398 31.0225L69.2484 31.0092ZM60.8415 25.4667C60.9178 25.0792 60.5634 24.7822 60.304 24.5292C59.4365 23.7645 59.5025 25.5547 60.0557 26.6053C60.2805 27.0651 60.5626 26.8545 60.6883 26.4089C60.7716 26.1103 60.7637 25.7849 60.8384 25.4895L60.8415 25.4667ZM77.888 37.5387C77.932 37.4672 77.8824 37.3627 77.8408 37.2833C77.4188 36.5941 76.8169 35.3541 76.0876 35.1073C75.8778 35.0696 75.9226 35.3234 75.9595 35.4641C76.2063 36.3733 76.732 37.5348 77.5909 37.6118C77.6868 37.622 77.8274 37.6165 77.8809 37.5489L77.888 37.5387ZM53.2834 24.7508C53.2865 25.0478 53.3556 25.4627 53.5812 25.7063C53.7949 25.9751 54.1376 26.0969 54.1981 25.6961C54.3293 24.9024 54.0566 23.9303 53.2582 23.7645C53.006 23.704 52.8001 23.8188 52.9541 24.1111C53.0594 24.339 53.2511 24.5197 53.2794 24.7303L53.2826 24.7508H53.2834ZM93.4075 48.1185C93.2637 48.3267 93.611 48.41 93.7745 48.4179C94.6161 48.4721 95.633 48.5208 96.3811 48.2316C96.7787 48.0823 96.5956 47.9102 96.2876 47.8332C95.4648 47.6053 94.6263 47.7837 93.7697 47.9479C93.6472 47.9731 93.4939 48.0242 93.4193 48.1051L93.4083 48.1177L93.4075 48.1185ZM49.3447 25.6686C49.4406 25.9083 49.7589 26.0042 49.9703 26.1205C50.4669 26.3444 50.5321 26.0458 50.3687 25.6623C50.2469 25.3378 50.6807 25.3999 50.8732 25.3464C51.1404 25.2961 50.995 25.0203 50.8795 24.8026C50.65 24.3146 50.2657 24.8136 50.0127 24.992C49.9074 25.0777 49.8037 25.161 49.7007 25.2451C49.5349 25.3834 49.3282 25.5201 49.3424 25.6506L49.3439 25.6678L49.3447 25.6686ZM87.9553 46.6937C88.0473 46.8988 88.283 46.7676 88.3608 46.6151C88.6461 46.1452 88.9643 45.6714 88.9549 45.1535C88.9573 44.9484 88.8268 44.8659 88.6579 44.9963C88.2312 45.3169 88.118 45.845 87.9616 46.4077C87.9396 46.4941 87.9215 46.5955 87.9483 46.6741L87.9553 46.6937ZM77.6231 33.5199C77.5634 33.5561 77.5241 33.6653 77.5021 33.7431C77.3017 34.4276 77.6648 34.947 78.4428 34.7616C78.563 34.7309 78.6903 34.7034 78.7752 34.6107C78.8773 34.4284 77.9634 33.7219 77.7897 33.56C77.7457 33.5262 77.6868 33.4924 77.6373 33.5136L77.6231 33.5207V33.5199ZM80.8773 51.1541C81.4651 51.1337 82.3877 50.6701 82.5873 50.164C82.7287 49.72 82.3193 49.9039 82.056 50.1003C81.7621 50.3039 81.4046 50.6166 81.1484 50.8516C80.9834 51.008 80.838 51.1235 80.8718 51.151L80.8765 51.1549L80.8773 51.1541ZM59.9614 23.2223C59.9551 23.1689 59.9025 23.1249 59.8585 23.0879C59.6392 22.9127 59.464 22.7705 59.3068 22.6486C59.2298 22.5874 59.1583 22.5952 59.1103 22.6958C58.7944 23.3174 59.0019 23.8415 59.7618 23.4211C59.8443 23.3669 59.93 23.3465 59.9614 23.2412V23.2223ZM70.773 48.909C70.7282 48.8013 70.6268 48.7479 70.549 48.6701C70.4712 48.6002 70.4091 48.5389 70.3431 48.5562C70.1459 48.6607 70.0272 48.9019 69.8795 49.0842C69.4881 49.6477 69.7443 49.654 70.3494 49.2674C70.4728 49.188 70.6237 49.0874 70.7297 49.0065C70.7596 48.9821 70.7777 48.9554 70.7761 48.9247L70.7738 48.909H70.773ZM86.2823 32.5031C86.2556 32.5078 86.2359 32.5266 86.2241 32.5604C86.188 32.7152 86.2053 32.9392 86.21 33.1121C86.2446 33.7415 86.4465 34.0724 86.8646 34.147C86.9447 34.162 87.0823 34.1714 87.032 34.0527C87.0178 34.0142 86.984 33.9584 86.9612 33.916C86.7121 33.4964 86.8944 32.7152 86.2972 32.5015L86.2831 32.5031H86.2823ZM79.2765 36.4983C79.264 36.4511 79.2074 36.411 79.1642 36.3765C78.7862 36.0951 78.5575 35.8704 78.1622 36.0307C78.0687 36.0676 78.027 36.1132 78.0553 36.2122C78.0923 36.2829 78.1536 36.3411 78.2078 36.4016C78.5339 36.7599 78.6534 36.8723 79.0926 36.6609C79.1555 36.624 79.2616 36.5981 79.2773 36.5148L79.2757 36.499L79.2765 36.4983ZM104.535 47.4654C104.575 47.4874 104.626 47.4678 104.669 47.4466C104.978 47.2745 105.302 47.0969 105.576 46.8729C105.648 46.7786 105.524 46.7071 105.445 46.6717C104.963 46.4564 104.496 46.7322 104.48 47.2753C104.478 47.335 104.482 47.4183 104.521 47.4544L104.534 47.4639L104.535 47.4654ZM75.9571 33.2331C75.9092 33.259 75.9116 33.2732 75.8864 33.3078C75.7882 33.4806 75.6845 33.7188 75.701 33.8516C75.7104 34.026 75.8495 34.2327 75.9587 34.3875C75.9823 34.4229 76.0271 34.4394 76.0656 34.4535C76.141 34.4362 76.1874 34.3718 76.2314 34.3097C76.4695 33.9718 76.4035 33.8272 76.1709 33.4673C76.1104 33.384 76.0703 33.274 75.9721 33.2307L75.9579 33.2331H75.9571ZM111.909 37.3124C112.019 37.5678 112.734 37.8106 112.937 37.5379C113.051 37.3745 112.932 37.0311 112.716 36.9674C112.447 36.8668 111.992 37.0193 111.908 37.2951L111.909 37.3124ZM85.1287 31.4901C85.1452 31.1876 84.812 30.999 84.6187 30.797C84.4906 30.6862 84.2729 30.4072 84.1699 30.6948C84.0033 31.1443 84.4591 31.5726 84.9566 31.5561C85.0131 31.5546 85.0886 31.5451 85.12 31.5043L85.1287 31.4901ZM76.1489 49.2878C76.1795 49.4041 76.3186 49.4497 76.4011 49.3569C76.6848 49.0945 77.484 48.3243 77.3159 48.1452C77.1076 48.0069 76.853 48.3236 76.7013 48.4776C76.5717 48.6245 76.4514 48.7848 76.3383 48.9373C76.24 49.0787 76.1332 49.1856 76.1457 49.2721L76.1489 49.2878ZM102.549 47.669C102.684 47.6407 102.781 47.4615 102.874 47.3884C102.954 47.2863 103.113 47.2124 103.024 47.0874C102.708 46.7888 102.244 46.667 102.33 47.2069C102.364 47.3507 102.402 47.5739 102.53 47.665L102.549 47.669ZM34.7085 34.639C34.7431 34.6162 34.7808 34.5871 34.8004 34.5502C34.8971 34.4071 35.0024 34.2311 34.9851 34.1376C34.9725 33.9993 34.8201 33.8555 34.7171 33.7494C34.7132 33.7431 34.6496 33.6936 34.6205 33.7078C34.4727 33.7911 34.3737 34.0559 34.4044 34.1722C34.435 34.3081 34.5285 34.4268 34.6134 34.558C34.6331 34.5887 34.6637 34.617 34.6936 34.6374L34.7085 34.6398V34.639ZM49.4736 55.224C49.5066 55.2012 49.542 55.1706 49.5608 55.1344C49.6669 54.9678 49.8084 54.7549 49.8076 54.637C49.8147 54.4814 49.7125 54.3541 49.6033 54.2228C49.5789 54.1946 49.542 54.1781 49.5066 54.1702C49.428 54.1953 49.4257 54.2346 49.384 54.292C49.2402 54.5435 49.1836 54.6496 49.2654 54.8774C49.3109 54.9725 49.3628 55.1368 49.4602 55.2224L49.4736 55.2248V55.224ZM83.1248 39.3461C83.0368 39.3996 83.0038 39.4962 82.9715 39.5929C82.7994 40.0785 82.8442 40.2899 83.1829 40.5917C83.2419 40.6412 83.322 40.6758 83.3951 40.6491C83.4627 40.6271 83.5216 40.5579 83.5609 40.4943C83.8643 39.9976 83.7967 39.6699 83.3315 39.3964C83.2757 39.3642 83.2041 39.3281 83.1444 39.3406L83.1248 39.3461Z" fill="#111111"/>
<path fill-rule="evenodd" clip-rule="evenodd" d="M266.097 50.36H258.057C257.946 50.36 257.857 50.2705 257.857 50.16V49.4C257.857 49.3291 257.894 49.2634 257.955 49.2275L259.697 48.2055V23.2016L257.645 22.1376C257.578 22.1032 257.537 22.0347 257.537 21.96V21.2C257.537 21.0895 257.626 21 257.737 21H264.337C264.447 21 264.537 21.0895 264.537 21.2V39.9101L269.955 33.1761L268.156 32.133C268.095 32.0972 268.057 32.0313 268.057 31.96V31.2C268.057 31.0895 268.146 31 268.257 31H275.137C275.247 31 275.337 31.0895 275.337 31.2V31.96C275.337 32.0383 275.291 32.1094 275.22 32.1419L272.461 33.4031L268.659 37.9417L274.521 48.2097L276.469 49.2226C276.535 49.257 276.577 49.3254 276.577 49.4V50.16C276.577 50.2705 276.487 50.36 276.377 50.36H267.937C267.826 50.36 267.737 50.2705 267.737 50.16V49.4C267.737 49.3336 267.77 49.2715 267.825 49.2343L269.151 48.3382L264.537 40.273V48.2081L266.201 49.2295C266.26 49.2659 266.297 49.3305 266.297 49.4V50.16C266.297 50.2705 266.207 50.36 266.097 50.36Z" fill="#111111"/>
<path fill-rule="evenodd" clip-rule="evenodd" d="M280.793 40.2049L290.548 40.4399C290.602 40.4412 290.654 40.4208 290.693 40.3831C290.731 40.3455 290.753 40.2939 290.753 40.24V39.16C290.753 36.4713 290.116 34.3019 288.919 32.8003C287.717 31.2929 285.967 30.48 283.793 30.48C279.127 30.48 275.713 34.5281 275.713 40.44C275.713 43.9879 276.539 46.591 278.006 48.3098C279.476 50.0333 281.567 50.84 284.033 50.84C285.63 50.84 286.931 50.4193 288.002 49.6742C289.071 48.9308 289.899 47.8725 290.569 46.614C290.588 46.5793 290.596 46.5399 290.592 46.5007L290.472 45.2607C290.462 45.1582 290.376 45.08 290.273 45.08H289.713C289.648 45.08 289.588 45.1111 289.55 45.1635C288.047 47.2605 286.619 48.24 284.833 48.24C283.069 48.24 281.809 47.0478 281.265 45.1061L281.265 45.1051C281.032 44.2875 280.793 42.7069 280.793 40.8V40.2049ZM280.835 38.5494L285.912 38.29C285.902 37.3916 285.825 35.95 285.715 35.0272C285.596 34.2388 285.392 33.5359 285.044 33.0341C284.703 32.5434 284.222 32.24 283.513 32.24C282.87 32.24 282.384 32.5482 282.008 33.05C281.627 33.5572 281.366 34.2548 281.189 35.0015C281.005 35.9927 280.856 37.5987 280.835 38.5494Z" fill="#111111"/>
<path fill-rule="evenodd" clip-rule="evenodd" d="M244.25 39.8507C246.078 38.8226 248.43 38.4613 250.628 38.4409V35.24C250.628 34.3734 250.397 33.6433 249.97 33.1334C249.548 32.6304 248.92 32.3226 248.079 32.32C246.688 32.4747 245.426 33.4555 244.649 34.7269L243.656 37.4681C243.627 37.5473 243.552 37.6 243.468 37.6H242.588C242.478 37.6 242.388 37.5105 242.388 37.4V32.32C242.388 32.2518 242.423 32.1883 242.48 32.1515C243.506 31.495 245.983 30.44 248.628 30.44C251.094 30.44 252.803 30.9752 253.9 31.8216C255.003 32.6727 255.468 33.8234 255.468 35V48.2068L257.171 49.2285C257.231 49.2646 257.268 49.3298 257.268 49.4V50.16C257.268 50.2705 257.179 50.36 257.068 50.36H250.948C250.838 50.36 250.748 50.2705 250.748 50.16V48.4784C249.568 50.0228 247.93 50.8 246.028 50.8C244.74 50.8 243.485 50.4936 242.55 49.6646C241.611 48.8316 241.028 47.5 241.028 45.52C241.028 42.7021 242.352 40.9183 244.25 39.8507ZM247.988 47.9599C249.233 47.96 250.201 47.1294 250.628 46.3498V40.089C249.056 40.1717 247.9 40.5546 247.129 41.2715C246.329 42.0155 245.908 43.1527 245.908 44.8C245.908 46.0493 246.098 46.8461 246.441 47.3235C246.77 47.7827 247.265 47.979 247.983 47.9601L247.988 47.9599Z" fill="#111111"/>
<path d="M228.883 46.3483C229.867 47.7533 231.525 49 233.143 49C234.047 49 234.828 48.7406 235.38 48.2769C235.928 47.8163 236.263 47.1432 236.263 46.28C236.263 45.7858 236.171 45.3829 235.997 45.0406C235.823 44.6982 235.562 44.4056 235.208 44.1399C234.494 43.6026 233.426 43.1916 232.002 42.7104C230.751 42.3266 229.466 41.7648 228.493 40.8022C227.512 39.8323 226.863 38.47 226.863 36.52C226.863 34.6889 227.533 33.165 228.661 32.0996C229.788 31.0354 231.359 30.44 233.143 30.44C235.702 30.44 237.374 31.0908 238.518 31.7037C238.583 31.7385 238.623 31.8063 238.623 31.88V37.04C238.623 37.1505 238.534 37.24 238.423 37.24H237.623C237.54 37.24 237.465 37.1876 237.436 37.1089L236.564 34.7325C235.632 33.3792 234.639 32.5487 233.045 32.24C232.108 32.2434 231.416 32.4935 230.961 32.8951C230.505 33.297 230.263 33.8692 230.263 34.56C230.263 35.512 230.65 36.157 231.283 36.6638C231.929 37.1801 232.827 37.5502 233.848 37.9308C235.571 38.4718 237.047 39.0924 238.091 40.085C239.147 41.0887 239.743 42.4545 239.743 44.44C239.743 47.8288 237.216 50.8 233.023 50.8C230.349 50.8 228.078 50.0713 226.732 49.3778C226.665 49.3435 226.623 49.2749 226.623 49.2V43.56C226.623 43.4495 226.713 43.36 226.823 43.36H227.703C227.789 43.36 227.864 43.4139 227.892 43.4944L228.883 46.3483Z" fill="#111111"/>
<path fill-rule="evenodd" clip-rule="evenodd" d="M224.806 40.4399L215.051 40.2049V40.8C215.051 42.7069 215.289 44.2875 215.523 45.1051L215.523 45.1061C216.067 47.0478 217.326 48.24 219.091 48.24C220.877 48.24 222.305 47.2605 223.808 45.1635C223.846 45.1111 223.906 45.08 223.971 45.08H224.531C224.634 45.08 224.72 45.1582 224.73 45.2607L224.85 46.5007C224.853 46.5399 224.846 46.5793 224.827 46.614C224.157 47.8725 223.328 48.9308 222.26 49.6742C221.189 50.4193 219.888 50.84 218.291 50.84C215.825 50.84 213.734 50.0333 212.263 48.3098C210.797 46.591 209.971 43.9879 209.971 40.44C209.971 34.5281 213.385 30.48 218.051 30.48C220.225 30.48 221.975 31.2929 223.177 32.8003C224.374 34.3019 225.011 36.4713 225.011 39.16V40.24C225.011 40.2939 224.989 40.3455 224.95 40.3831C224.912 40.4208 224.86 40.4412 224.806 40.4399ZM220.17 38.29L215.093 38.5494C215.114 37.5986 215.263 35.9924 215.446 35.0012C215.624 34.2546 215.885 33.5572 216.266 33.05C216.642 32.5482 217.127 32.24 217.771 32.24C218.48 32.24 218.961 32.5434 219.301 33.0341C219.65 33.5358 219.854 34.2386 219.972 35.0268C220.083 35.9497 220.159 37.3915 220.17 38.29Z" fill="#111111"/>
<path fill-rule="evenodd" clip-rule="evenodd" d="M183.02 48.2055L181.278 49.2275C181.217 49.2634 181.18 49.3291 181.18 49.4V50.16C181.18 50.2705 181.269 50.36 181.38 50.36H189.42C189.53 50.36 189.62 50.2705 189.62 50.16V49.4C189.62 49.3305 189.584 49.2659 189.524 49.2295L187.86 48.2081V35.8494C188.129 35.3446 188.562 34.7957 189.09 34.3708C189.634 33.9331 190.261 33.64 190.9 33.64C191.564 33.64 192.022 33.8197 192.317 34.1404C192.615 34.4643 192.78 34.9668 192.78 35.68V48.2094L191.153 49.2306C191.095 49.2672 191.06 49.3312 191.06 49.4V50.16C191.06 50.2705 191.149 50.36 191.26 50.36H199.18C199.29 50.36 199.38 50.2705 199.38 50.16V49.4C199.38 49.3305 199.344 49.2659 199.284 49.2295L197.62 48.2081V35.8108C197.908 35.2865 198.341 34.7473 198.863 34.3373C199.4 33.9156 200.018 33.64 200.66 33.64C201.325 33.64 201.794 33.8198 202.099 34.1425C202.407 34.4672 202.58 34.9695 202.58 35.68V48.2081L200.915 49.2295C200.856 49.2659 200.82 49.3305 200.82 49.4V50.16C200.82 50.2705 200.909 50.36 201.02 50.36H209.02C209.13 50.36 209.22 50.2705 209.22 50.16V49.4C209.22 49.3291 209.182 49.2634 209.121 49.2275L207.38 48.2055V35.08C207.38 32.3957 205.196 30.52 202.62 30.52C201.423 30.52 200.434 30.8203 199.554 31.4087C198.771 31.9321 198.083 32.6778 197.412 33.6231C196.811 31.915 195.127 30.52 192.78 30.52C191.561 30.52 190.58 30.8415 189.725 31.4413C189.021 31.9345 188.41 32.6112 187.82 33.4352V31.2C187.82 31.0895 187.73 31 187.62 31H181.3C181.189 31 181.1 31.0895 181.1 31.2V31.96C181.1 32.0323 181.139 32.0989 181.202 32.1343L183.02 33.157V48.2055Z" fill="#111111"/>
<path fill-rule="evenodd" clip-rule="evenodd" d="M167.453 39.8507C169.281 38.8226 171.633 38.4613 173.831 38.4409V35.24C173.831 34.3734 173.6 33.6433 173.173 33.1334C172.751 32.6304 172.123 32.3226 171.282 32.32C169.891 32.4747 168.629 33.4555 167.852 34.7269L166.859 37.4681C166.831 37.5473 166.755 37.6 166.671 37.6H165.791C165.681 37.6 165.591 37.5105 165.591 37.4V32.32C165.591 32.2518 165.626 32.1883 165.683 32.1515C166.709 31.495 169.186 30.44 171.831 30.44C174.297 30.44 176.006 30.9752 177.103 31.8216C178.207 32.6727 178.671 33.8234 178.671 35V48.2068L180.374 49.2285C180.434 49.2646 180.471 49.3298 180.471 49.4V50.16C180.471 50.2705 180.382 50.36 180.271 50.36H174.151C174.041 50.36 173.951 50.2705 173.951 50.16V48.4784C172.771 50.0228 171.133 50.8 169.231 50.8C167.943 50.8 166.688 50.4936 165.754 49.6646C164.814 48.8316 164.231 47.5 164.231 45.52C164.231 42.7021 165.555 40.9183 167.453 39.8507ZM171.191 47.96C172.436 47.96 173.404 47.1294 173.831 46.3498V40.089C172.259 40.1717 171.103 40.5546 170.332 41.2715C169.532 42.0155 169.111 43.1527 169.111 44.8C169.111 46.0493 169.302 46.8461 169.644 47.3235C169.973 47.7827 170.468 47.979 171.186 47.9601L171.191 47.96Z" fill="#111111"/>
<path fill-rule="evenodd" clip-rule="evenodd" d="M146.76 26.4546L158.661 50.4888C158.695 50.5569 158.764 50.6 158.84 50.6H161.04C161.15 50.6 161.24 50.5105 161.24 50.4V24.6062L163.726 23.4205C163.796 23.3873 163.84 23.3171 163.84 23.24V22.44C163.84 22.3295 163.75 22.24 163.64 22.24H156.68C156.57 22.24 156.48 22.3295 156.48 22.44V23.24C156.48 23.3175 156.525 23.3881 156.595 23.421L159.12 24.607V39.7561L150.379 22.3502C150.345 22.2827 150.276 22.24 150.2 22.24H142.24C142.13 22.24 142.04 22.3295 142.04 22.44V23.24C142.04 23.3189 142.086 23.3905 142.159 23.4227L144.64 24.5298V47.993L142.115 49.179C142.045 49.2119 142 49.2825 142 49.36V50.16C142 50.2705 142.09 50.36 142.2 50.36H149.2C149.31 50.36 149.4 50.2705 149.4 50.16V49.36C149.4 49.2825 149.355 49.2119 149.285 49.179L146.76 47.993V26.4546Z" fill="#111111"/>
</svg>
